<?xml version="1.0"?>
<COLLADA xmlns="http://www.collada.org/2005/11/COLLADASchema" version="1.4.1">
    <asset>
        <contributor>
            <authoring_tool>Cinema 4D 21.026 COLLADA Exporter</authoring_tool>
        </contributor>
        <created>2025-03-31T23:39:54Z</created>
        <modified>2025-03-31T23:39:54Z</modified>
        <unit meter="0.01" name="centimeter"/>
        <up_axis>Y_UP</up_axis>
    </asset>
    <library_images>
        <image id="ID3">
            <init_from>CylinderSurface_Color.jpg</init_from>
        </image>
    </library_images>
    <library_effects>
        <effect id="ID2">
            <profile_COMMON>
                <newparam sid="ID4">
                    <surface type="2D">
                        <init_from>ID3</init_from>
                    </surface>
                </newparam>
                <newparam sid="ID5">
                    <sampler2D>
                        <source>ID4</source>
                    </sampler2D>
                </newparam>
                <technique sid="COMMON">
                    <blinn>
                        <diffuse>
                            <texture texture="ID5" texcoord="UVSET0"/>
                        </diffuse>
                        <specular>
                            <color>0.2 0.2 0.2 1</color>
                        </specular>
                        <shininess>
                            <float>0.5</float>
                        </shininess>
                    </blinn>
                </technique>
            </profile_COMMON>
        </effect>
    </library_effects>
    <library_materials>
        <material id="ID1" name="Cylinder">
            <instance_effect url="#ID2"/>
        </material>
    </library_materials>
    <library_geometries>
        <geometry id="ID8">
            <mesh>
                <source id="ID9">
                    <float_array id="ID10" count="1782">0 -230.248 -0 4.82914e-14 304.295 -3.22673e-14 93.239 -239.478 -0 103.788 0 -0 43.3762 239.478 -0 86.1416 -239.478 -35.681 95.8875 0 -39.7179 40.0744 239.478 -16.5994 65.9299 -239.478 -65.9299 73.3891 0 -73.3891 30.6716 239.478 -30.6716 35.681 -239.478 -86.1416 39.7179 0 -95.8875 16.5994 239.478 -40.0744 5.70924e-15 -239.478 -93.239 6.35518e-15 0 -103.788 2.65603e-15 239.478 -43.3762 -35.681 -239.478 -86.1416 -39.7179 0 -95.8875 -16.5994 239.478 -40.0744 -65.9299 -239.478 -65.9299 -73.3891 0 -73.3891 -30.6716 239.478 -30.6716 -86.1416 -239.478 -35.681 -95.8875 0 -39.7179 -40.0744 239.478 -16.5994 -93.239 -239.478 -1.14185e-14 -103.788 0 -1.27104e-14 -43.3762 239.478 -5.31206e-15 -86.1416 -239.478 35.681 -95.8875 0 39.7179 -40.0744 239.478 16.5994 -65.9299 -239.478 65.9299 -73.3891 0 73.3891 -30.6716 239.478 30.6716 -35.681 -239.478 86.1416 -39.7179 0 95.8875 -16.5994 239.478 40.0744 -1.71277e-14 -239.478 93.239 -1.90655e-14 0 103.788 -7.96809e-15 239.478 43.3762 35.681 -239.478 86.1416 39.7179 0 95.8875 16.5994 239.478 40.0744 65.9299 -239.478 65.9299 73.3891 0 73.3891 30.6716 239.478 30.6716 86.1416 -239.478 35.681 95.8875 0 39.7179 40.0744 239.478 16.5994 -71.4358 -206.199 71.4358 -93.3354 -206.199 38.6608 -101.026 -206.199 -1.23721e-14 -93.3354 -206.199 -38.6608 -71.4358 -206.199 -71.4358 -38.6608 -206.199 -93.3354 6.18603e-15 -206.199 -101.026 38.6608 -206.199 -93.3354 71.4358 -206.199 -71.4358 93.3354 -206.199 -38.6608 101.026 -206.199 -0 93.3354 -206.199 38.6608 71.4358 -206.199 71.4358 38.6608 -206.199 93.3354 -1.85581e-14 -206.199 101.026 -38.6608 -206.199 93.3354 81.1738 -239.478 -2.56078e-15 74.9948 -239.478 -31.0639 57.3986 -239.478 -57.3986 31.0639 -239.478 -74.9948 5.70924e-15 -239.478 -81.1738 -31.0639 -239.478 -74.9948 -57.3986 -239.478 -57.3986 -74.9948 -239.478 -31.0639 -81.1738 -239.478 -8.85771e-15 -74.9948 -239.478 31.0639 -57.3986 -239.478 57.3986 -31.0639 -239.478 74.9948 -1.50791e-14 -239.478 81.1738 31.0639 -239.478 74.9948 57.3986 -239.478 57.3986 74.9948 -239.478 31.0639 67.1864 -230.248 -6.51912e-15 62.0722 -230.248 -25.7111 47.508 -230.248 -47.508 25.7111 -230.248 -62.0722 5.70924e-15 -230.248 -67.1864 -25.7111 -230.248 -62.0722 -47.508 -230.248 -47.508 -62.0722 -230.248 -25.7111 -67.1864 -230.248 -5.88895e-15 -62.0722 -230.248 25.7111 -47.508 -230.248 47.508 -25.7111 -230.248 62.0722 -1.19124e-14 -230.248 67.1864 25.7111 -230.248 62.0722 47.508 -230.248 47.508 62.0722 -230.248 25.7111 23.9834 -235.876 -16.0252 49.3207 -235.631 -41.8393 5.62731 -235.876 -28.2904 5.29021 -235.631 -64.4599 -34.1634 -243.101 -68.9486 -37.44 -243.34 -75.9969 -55.8843 -243.34 -63.6728 -72.9112 -243.101 -24.5969 -80.212 -243.34 -27.2639 -84.5396 -243.34 -5.50728 68.9486 -243.101 -34.1634 75.9969 -243.34 -37.44 63.6728 -243.34 -55.8843 -16.0252 -235.876 -23.9834 -41.8393 -235.631 -49.3207 24.5969 -243.101 -72.9112 27.2639 -243.34 -80.212 5.50728 -243.34 -84.5396 72.9112 -243.101 24.5969 80.212 -243.34 27.2639 84.5396 -243.34 5.50728 -68.9486 -243.101 34.1634 -75.9969 -243.34 37.44 -63.6728 -243.34 55.8843 -28.2904 -235.876 -5.62731 -64.4599 -235.631 -5.29021 -24.5969 -243.101 72.9112 -27.2639 -243.34 80.212 -5.50728 -243.34 84.5396 -23.9834 -235.876 16.0252 -49.3207 -235.631 41.8393 -5.62731 -235.876 28.2904 -5.29021 -235.631 64.4599 16.0252 -235.876 23.9834 41.8393 -235.631 49.3207 28.2904 -235.876 5.62731 64.4599 -235.631 5.29021 34.1634 -243.101 68.9486 37.44 -243.34 75.9969 55.8843 -243.34 63.6728 61.5776 -235.631 19.7802 76.774 -243.101 5.17737 57.5287 -235.631 -29.5552 57.9484 -243.101 -50.6265 19.7802 -235.631 -61.5776 5.17737 -243.101 -76.774 -29.5552 -235.631 -57.5287 -50.6265 -243.101 -57.9484 -61.5776 -235.631 -19.7802 -76.774 -243.101 -5.17737 -57.5287 -235.631 29.5552 -57.9484 -243.101 50.6265 -19.7802 -235.631 61.5776 -5.17737 -243.101 76.774 29.5552 -235.631 57.5287 50.6265 -243.101 57.9484 -92.2339 -62.2006 -1.12954e-14 -85.213 -62.2006 35.2964 -65.2192 -62.2006 65.2192 -35.2964 -62.2006 85.213 -1.69431e-14 -62.2006 92.2339 35.2964 -62.2006 85.213 65.2192 -62.2006 65.2192 85.213 -62.2006 35.2964 92.2339 -62.2006 -0 85.213 -62.2006 -35.2964 65.2192 -62.2006 -65.2192 35.2964 -62.2006 -85.213 5.6477e-15 -62.2006 -92.2339 -35.2964 -62.2006 -85.213 -65.2192 -62.2006 -65.2192 -85.213 -62.2006 -35.2964 72.3852 -137.459 -72.3852 39.1746 -137.459 -94.5758 6.26824e-15 -137.459 -102.368 -39.1746 -137.459 -94.5758 -72.3852 -137.459 -72.3852 -94.5758 -137.459 -39.1746 -102.368 -137.459 -1.25365e-14 -94.5758 -137.459 39.1746 -72.3852 -137.459 72.3852 -39.1746 -137.459 94.5758 -1.88047e-14 -137.459 102.368 39.1746 -137.459 94.5758 72.3852 -137.459 72.3852 94.5758 -137.459 39.1746 102.368 -137.459 -0 94.5758 -137.459 -39.1746 41.8449 26.4757 101.022 77.3193 26.4757 77.3193 101.022 26.4757 41.8449 109.346 26.4757 -0 101.022 26.4757 -41.8449 77.3193 26.4757 -77.3193 41.8449 26.4757 -101.022 6.69551e-15 26.4757 -109.346 -41.8449 26.4757 -101.022 -77.3193 26.4757 -77.3193 -101.022 26.4757 -41.8449 -109.346 26.4757 -1.3391e-14 -101.022 26.4757 41.8449 -77.3193 26.4757 77.3193 -41.8449 26.4757 101.022 -2.00865e-14 26.4757 109.346 -38.166 155.809 92.1408 -1.83206e-14 155.809 99.7325 38.166 155.809 92.1408 70.5215 155.809 70.5215 92.1408 155.809 38.166 99.7325 155.809 -0 92.1408 155.809 -38.166 70.5215 155.809 -70.5215 38.166 155.809 -92.1408 6.10685e-15 155.809 -99.7325 -38.166 155.809 -92.1408 -70.5215 155.809 -70.5215 -92.1408 155.809 -38.166 -99.7325 155.809 -1.22137e-14 -92.1408 155.809 38.166 -70.5215 155.809 70.5215 37.4262 260.711 -3.20735e-15 34.5773 260.711 -14.3224 26.4643 260.711 -26.4643 14.3224 260.711 -34.5773 -9.15657e-16 260.711 -37.4262 -14.3224 260.711 -34.5773 -26.4643 260.711 -26.4643 -34.5773 260.711 -14.3224 -37.4262 260.711 -1.37603e-15 -34.5773 260.711 14.3224 -26.4643 260.711 26.4643 -14.3224 260.711 34.5773 -3.66772e-15 260.711 37.4262 14.3224 260.711 34.5773 26.4643 260.711 26.4643 34.5773 260.711 14.3224 37.4262 273.2 -7.90244e-15 34.5773 273.2 -14.3224 26.4643 273.2 -26.4643 14.3224 273.2 -34.5773 -5.61075e-15 273.2 -37.4262 -14.3224 273.2 -34.5773 -26.4643 273.2 -26.4643 -34.5773 273.2 -14.3224 -37.4262 273.2 3.31906e-15 -34.5773 273.2 14.3224 -26.4643 273.2 26.4643 -14.3224 273.2 34.5773 1.02737e-15 273.2 37.4262 14.3224 273.2 34.5773 26.4643 273.2 26.4643 34.5773 273.2 14.3224 39.4368 276.725 -9.44911e-15 36.4348 276.725 -15.0918 27.886 276.725 -27.886 15.0918 276.725 -36.4348 -7.0343e-15 276.725 -39.4368 -15.0918 276.725 -36.4348 -27.886 276.725 -27.886 -36.4348 276.725 -15.0918 -39.4368 276.725 4.6195e-15 -36.4348 276.725 15.0918 -27.886 276.725 27.886 -15.0918 276.725 36.4348 2.20469e-15 276.725 39.4368 15.0918 276.725 36.4348 27.886 276.725 27.886 36.4348 276.725 15.0918 38.759 278.902 -9.81665e-15 35.8087 278.902 -14.8324 27.4068 278.902 -27.4068 14.8324 278.902 -35.8087 -7.44335e-15 278.902 -38.759 -14.8324 278.902 -35.8087 -27.4068 278.902 -27.4068 -35.8087 278.902 -14.8324 -38.759 278.902 5.07004e-15 -35.8087 278.902 14.8324 -27.4068 278.902 27.4068 -14.8324 278.902 35.8087 2.69674e-15 278.902 38.759 14.8324 278.902 35.8087 27.4068 278.902 27.4068 35.8087 278.902 14.8324 35.7483 278.902 -1.04915e-14 33.0272 278.902 -13.6803 25.2779 278.902 -25.2779 13.6803 278.902 -33.0272 -7.62128e-15 278.902 -35.7483 -13.6803 278.902 -33.0272 -25.2779 278.902 -25.2779 -33.0272 278.902 -13.6803 -35.7483 278.902 5.11192e-15 -33.0272 278.902 13.6803 -25.2779 278.902 25.2779 -13.6803 278.902 33.0272 3.56483e-15 278.902 35.7483 13.6803 278.902 33.0272 25.2779 278.902 25.2779 33.0272 278.902 13.6803 35.7483 305.532 -1.26181e-14 33.0272 305.532 -13.6803 25.2779 305.532 -25.2779 13.6803 305.532 -33.0272 -9.74789e-15 305.532 -35.7483 -13.6803 305.532 -33.0272 -25.2779 305.532 -25.2779 -33.0272 305.532 -13.6803 -35.7483 305.532 7.23854e-15 -33.0272 305.532 13.6803 -25.2779 305.532 25.2779 -13.6803 305.532 33.0272 5.69144e-15 305.532 35.7483 13.6803 305.532 33.0272 25.2779 305.532 25.2779 33.0272 305.532 13.6803 32.0159 305.532 -1.19843e-14 29.5788 305.532 -12.2519 22.6386 305.532 -22.6386 12.2519 305.532 -29.5788 -8.63882e-15 305.532 -32.0159 -12.2519 305.532 -29.5788 -22.6386 305.532 -22.6386 -29.5788 305.532 -12.2519 -32.0159 305.532 6.23509e-15 -29.5788 305.532 12.2519 -22.6386 305.532 22.6386 -12.2519 305.532 29.5788 5.533e-15 305.532 32.0159 12.2519 305.532 29.5788 22.6386 305.532 22.6386 29.5788 305.532 12.2519 32.0159 304.295 -1.10578e-14 29.5788 304.295 -12.2519 22.6386 304.295 -22.6386 12.2519 304.295 -29.5788 -7.71233e-15 304.295 -32.0159 -12.2519 304.295 -29.5788 -22.6386 304.295 -22.6386 -29.5788 304.295 -12.2519 -32.0159 304.295 5.3086e-15 -29.5788 304.295 12.2519 -22.6386 304.295 22.6386 -12.2519 304.295 29.5788 4.60651e-15 304.295 32.0159 12.2519 304.295 29.5788 22.6386 304.295 22.6386 29.5788 304.295 12.2519 -33.0272 285.051 13.6803 -25.2779 285.051 25.2779 -13.6803 285.051 33.0272 4.05584e-15 285.051 35.7483 13.6803 285.051 33.0272 25.2779 285.051 25.2779 33.0272 285.051 13.6803 35.7483 285.051 -1.09825e-14 33.0272 285.051 -13.6803 25.2779 285.051 -25.2779 13.6803 285.051 -33.0272 -8.11229e-15 285.051 -35.7483 -13.6803 285.051 -33.0272 -25.2779 285.051 -25.2779 -33.0272 285.051 -13.6803 -35.7483 285.051 5.60294e-15 -25.2779 286.334 25.2779 -13.6803 286.334 33.0272 4.15829e-15 286.334 35.7483 13.6803 286.334 33.0272 25.2779 286.334 25.2779 33.0272 286.334 13.6803 35.7483 286.334 -1.10849e-14 33.0272 286.334 -13.6803 25.2779 286.334 -25.2779 13.6803 286.334 -33.0272 -8.21474e-15 286.334 -35.7483 -13.6803 286.334 -33.0272 -25.2779 286.334 -25.2779 -33.0272 286.334 -13.6803 -35.7483 286.334 5.70539e-15 -33.0272 286.334 13.6803 -31.9472 285.051 13.233 -24.4513 285.051 24.4513 -13.233 285.051 31.9472 4.32048e-15 285.051 34.5794 13.233 285.051 31.9472 24.4513 285.051 24.4513 31.9472 285.051 13.233 34.5794 285.051 -1.11148e-14 31.9472 285.051 -13.233 24.4513 285.051 -24.4513 13.233 285.051 -31.9472 -8.06267e-15 285.051 -34.5794 -13.233 285.051 -31.9472 -24.4513 285.051 -24.4513 -31.9472 285.051 -13.233 -34.5794 285.051 5.55332e-15 -24.4513 286.334 24.4513 -13.233 286.334 31.9472 4.42293e-15 286.334 34.5794 13.233 286.334 31.9472 24.4513 286.334 24.4513 31.9472 286.334 13.233 34.5794 286.334 -1.12173e-14 31.9472 286.334 -13.233 24.4513 286.334 -24.4513 13.233 286.334 -31.9472 -8.16512e-15 286.334 -34.5794 -13.233 286.334 -31.9472 -24.4513 286.334 -24.4513 -31.9472 286.334 -13.233 -34.5794 286.334 5.65577e-15 -31.9472 286.334 13.233 35.8001 274.965 14.8289 38.7497 274.965 -8.75293e-15 35.8001 274.965 -14.8289 27.4002 274.965 -27.4002 14.8289 274.965 -35.8001 -6.3802e-15 274.965 -38.7497 -14.8289 274.965 -35.8001 -27.4002 274.965 -27.4002 -35.8001 274.965 -14.8289 -38.7497 274.965 4.00746e-15 -35.8001 274.965 14.8289 -27.4002 274.965 27.4002 -14.8289 274.965 35.8001 1.63473e-15 274.965 38.7497 14.8289 274.965 35.8001 27.4002 274.965 27.4002 36.3492 277.93 15.0563 39.3441 277.93 -9.72012e-15 36.3492 277.93 -15.0563 27.8204 277.93 -27.8204 15.0563 277.93 -36.3492 -7.31099e-15 277.93 -39.3441 -15.0563 277.93 -36.3492 -27.8204 277.93 -27.8204 -36.3492 277.93 -15.0563 -39.3441 277.93 4.90186e-15 -36.3492 277.93 15.0563 -27.8204 277.93 27.8204 -15.0563 277.93 36.3492 2.49274e-15 277.93 39.3441 15.0563 277.93 36.3492 27.8204 277.93 27.8204 74.0523 -244.983 -36.582 71.3568 -245.106 -47.6791 62.1359 -244.983 -54.4161 64.8313 -244.861 -43.3189 26.4955 -244.983 -78.2302 16.7427 -245.106 -84.1711 5.45876 -244.983 -82.4147 15.2116 -244.861 -76.4738 -36.582 -244.983 -74.0523 -47.6791 -245.106 -71.3568 -54.4161 -244.983 -62.1359 -43.3189 -244.861 -64.8313 -78.2302 -244.983 -26.4955 -84.1711 -245.106 -16.7427 -82.4147 -244.983 -5.45876 -76.4738 -244.861 -15.2116 -74.0523 -244.983 36.582 -71.3568 -245.106 47.6791 -62.1359 -244.983 54.4161 -64.8313 -244.861 43.3189 -26.4955 -244.983 78.2302 -16.7427 -245.106 84.1711 -5.45876 -244.983 82.4147 -15.2116 -244.861 76.4738 36.582 -244.983 74.0523 47.6791 -245.106 71.3568 54.4161 -244.983 62.1359 43.3189 -244.861 64.8313 78.2302 -244.983 26.4955 84.1711 -245.106 16.7427 82.4147 -244.983 5.45876 76.4738 -244.861 15.2116 68.0941 -244.983 -45.499 15.9771 -244.983 -80.3225 -45.499 -244.983 -68.0941 -80.3225 -244.983 -15.9771 -68.0941 -244.983 45.499 -15.9771 -244.983 80.3225 45.499 -244.983 68.0941 80.3225 -244.983 15.9771 98.472 -137.459 -19.5873 83.4805 -137.459 -55.7799 55.7799 -137.459 -83.4805 19.5873 -137.459 -98.472 -19.5873 -137.459 -98.472 -55.7799 -137.459 -83.4805 -83.4805 -137.459 -55.7799 -98.472 -137.459 -19.5873 -98.472 -137.459 19.5873 -83.4805 -137.459 55.7799 -55.7799 -137.459 83.4805 -19.5873 -137.459 98.472 19.5873 -137.459 98.472 55.7799 -137.459 83.4805 83.4805 -137.459 55.7799 98.472 -137.459 19.5873 -88.7235 -62.2006 17.6482 -75.2161 -62.2006 50.2578 -50.2578 -62.2006 75.2161 -17.6482 -62.2006 88.7235 17.6482 -62.2006 88.7235 50.2578 -62.2006 75.2161 75.2161 -62.2006 50.2578 88.7235 -62.2006 17.6482 88.7235 -62.2006 -17.6482 75.2161 -62.2006 -50.2578 50.2578 -62.2006 -75.2161 17.6482 -62.2006 -88.7235 -17.6482 -62.2006 -88.7235 -50.2578 -62.2006 -75.2161 -75.2161 -62.2006 -50.2578 -88.7235 -62.2006 -17.6482 66.4448 -96.5151 -66.4448 35.9597 -96.5151 -86.8143 5.75383e-15 -96.5151 -93.9672 -35.9597 -96.5151 -86.8143 -66.4448 -96.5151 -66.4448 -86.8143 -96.5151 -35.9597 -93.9672 -96.5151 -1.15077e-14 -86.8143 -96.5151 35.9597 -66.4448 -96.5151 66.4448 -35.9597 -96.5151 86.8143 -1.72615e-14 -96.5151 93.9672 35.9597 -96.5151 86.8143 66.4448 -96.5151 66.4448 86.8143 -96.5151 35.9597 93.9672 -96.5151 -0 86.8143 -96.5151 -35.9597 51.2023 -96.5151 -76.6296 17.9798 -96.5151 -90.3908 -17.9798 -96.5151 -90.3908 -51.2023 -96.5151 -76.6296 -76.6296 -96.5151 -51.2023 -90.3908 -96.5151 -17.9798 -90.3908 -96.5151 17.9798 -76.6296 -96.5151 51.2023 -51.2023 -96.5151 76.6296 -17.9798 -96.5151 90.3908 17.9798 -96.5151 90.3908 51.2023 -96.5151 76.6296 76.6296 -96.5151 51.2023 90.3908 -96.5151 17.9798 90.3908 -96.5151 -17.9798 76.6296 -96.5151 -51.2023 -73.4571 133.098 73.4571 -95.9764 133.098 39.7547 -103.884 133.098 -1.27221e-14 -95.9764 133.098 -39.7547 -73.4571 133.098 -73.4571 -39.7547 133.098 -95.9764 6.36106e-15 133.098 -103.884 39.7547 133.098 -95.9764 73.4571 133.098 -73.4571 95.9764 133.098 -39.7547 103.884 133.098 -0 95.9764 133.098 39.7547 73.4571 133.098 73.4571 39.7547 133.098 95.9764 -1.90832e-14 133.098 103.884 -39.7547 133.098 95.9764 93.2264 169.864 -0 86.1299 169.864 35.6762 65.921 169.864 65.921 35.6762 169.864 86.1299 -1.71254e-14 169.864 93.2264 -35.6762 169.864 86.1299 -65.921 169.864 65.921 -86.1299 169.864 35.6762 -93.2264 169.864 -1.14169e-14 -86.1299 169.864 -35.6762 -65.921 169.864 -65.921 -35.6762 169.864 -86.1299 5.70847e-15 169.864 -93.2264 35.6762 169.864 -86.1299 65.921 169.864 -65.921 86.1299 169.864 -35.6762 99.425 -219.963 -0 91.8567 -219.963 38.0483 70.3041 -219.963 70.3041 38.0483 -219.963 91.8567 -1.82641e-14 -219.963 99.425 -38.0483 -219.963 91.8567 -70.3041 -219.963 70.3041 -91.8567 -219.963 38.0483 -99.425 -219.963 -1.21761e-14 -91.8567 -219.963 -38.0483 -70.3041 -219.963 -70.3041 -38.0483 -219.963 -91.8567 6.08803e-15 -219.963 -99.425 38.0483 -219.963 -91.8567 70.3041 -219.963 -70.3041 91.8567 -219.963 -38.0483</float_array>
                    <technique_common>
                        <accessor count="594" source="#ID10" stride="3">
                            <param name="X" type="float"/>
                            <param name="Y" type="float"/>
                            <param name="Z" type="float"/>
                        </accessor>
                    </technique_common>
                </source>
                <source id="ID11">
                    <float_array id="ID12" count="1662">0 -1 -0 -0.286204 -0.956476 0.0569294 0.99582 0.0913379 -3.82029e-09 0.978528 0.0678081 -0.194641 0.998669 -0.0515786 -5.06913e-09 0.920018 0.0913379 -0.381084 0.92265 -0.0515786 -0.382174 0.981736 -0.19025 -5.06117e-09 0.996966 -0.0778419 -0 0.921076 -0.0778419 -0.381522 0.907006 -0.19025 -0.375694 0 1 -0 0.00575106 -0.999976 -0.00384274 -0.144239 -0.870916 0.469787 -0.489089 -0.870989 -0.0465955 0.829556 0.0678081 -0.554292 0.704151 0.0913378 -0.704151 0.706166 -0.0515786 -0.706166 0.704961 -0.0778419 -0.704961 0.694192 -0.190249 -0.694192 -0.162121 -0.956476 0.242632 0.554292 0.0678081 -0.829556 0.381084 0.0913379 -0.920018 0.382174 -0.0515786 -0.92265 0.381522 -0.0778419 -0.921076 0.375694 -0.19025 -0.907006 0.00134939 -0.999976 -0.00678384 0.230197 -0.870916 0.434182 -0.378786 -0.870989 0.31289 0.194641 0.0678081 -0.978528 0 0.0913379 -0.99582 -5.06913e-09 -0.0515786 -0.998669 3.82849e-09 -0.0778419 -0.996966 -2.53058e-09 -0.19025 -0.981736 0.0569294 -0.956476 0.286204 -0.194641 0.0678081 -0.978528 -0.381084 0.0913379 -0.920018 -0.382174 -0.0515786 -0.92265 -0.381522 -0.0778419 -0.921076 -0.375694 -0.19025 -0.907006 -0.00384274 -0.999976 -0.00575106 0.469787 -0.870916 0.144239 -0.0465955 -0.870989 0.489089 -0.554292 0.0678081 -0.829556 -0.704151 0.0913378 -0.704151 -0.706166 -0.0515786 -0.706166 -0.704961 -0.0778419 -0.704961 -0.694192 -0.190249 -0.694192 0.242632 -0.956476 0.162121 -0.829556 0.0678081 -0.554292 -0.920018 0.0913379 -0.381084 -0.92265 -0.0515786 -0.382174 -0.921076 -0.0778419 -0.381522 -0.907006 -0.19025 -0.375694 -0.00678384 -0.999976 -0.00134939 0.434182 -0.870916 -0.230197 0.31289 -0.870989 0.378786 -0.978528 0.0678081 -0.194641 -0.99582 0.0913379 3.82029e-09 -0.998669 -0.0515786 5.06913e-09 -0.996966 -0.0778419 -0 -0.981736 -0.19025 -0 0.286204 -0.956476 -0.0569294 -0.978528 0.0678081 0.194641 -0.920018 0.0913379 0.381084 -0.92265 -0.0515786 0.382174 -0.921076 -0.0778419 0.381522 -0.907006 -0.19025 0.375694 -0.00575106 -0.999976 0.00384274 0.144239 -0.870916 -0.469787 0.489089 -0.870989 0.0465955 -0.829556 0.0678081 0.554292 -0.704151 0.0913378 0.704151 -0.706166 -0.0515786 0.706166 -0.704961 -0.0778419 0.704961 -0.694192 -0.190249 0.694192 0.162121 -0.956476 -0.242632 -0.554292 0.0678081 0.829556 -0.381084 0.0913379 0.920018 -0.382174 -0.0515786 0.92265 -0.381522 -0.0778419 0.921076 -0.375694 -0.19025 0.907006 -0.00134939 -0.999976 0.00678384 -0.230197 -0.870916 -0.434182 0.378786 -0.870989 -0.31289 -0.194641 0.0678081 0.978528 0 0.0913379 0.99582 5.06913e-09 -0.0515786 0.998669 -3.82849e-09 -0.0778419 0.996966 2.53058e-09 -0.19025 0.981736 -0.0569294 -0.956476 -0.286204 0.194641 0.0678081 0.978528 0.381084 0.0913379 0.920018 0.382174 -0.0515786 0.92265 0.381522 -0.0778419 0.921076 0.375694 -0.19025 0.907006 0.00384274 -0.999976 0.00575106 -0.469787 -0.870916 -0.144239 0.0465955 -0.870989 -0.489089 0.554292 0.0678081 0.829556 0.704151 0.0913378 0.704151 0.706166 -0.0515786 0.706166 0.704961 -0.0778419 0.704961 0.694192 -0.190249 0.694192 -0.242632 -0.956476 -0.162121 0.829556 0.0678081 0.554292 0.920018 0.0913379 0.381084 0.92265 -0.0515786 0.382174 0.921076 -0.0778419 0.381522 0.907006 -0.19025 0.375694 0.00678384 -0.999976 0.00134939 -0.434182 -0.870916 0.230197 -0.31289 -0.870989 -0.378786 0.978528 0.0678081 0.194641 -0.69136 -0.209861 0.69136 -0.903306 -0.209861 0.374162 -0.977731 -0.209861 -0 -0.903306 -0.209861 -0.374162 -0.69136 -0.209861 -0.69136 -0.374162 -0.209861 -0.903306 0 -0.209861 -0.977731 0.374162 -0.209861 -0.903306 0.69136 -0.209861 -0.69136 0.903306 -0.209861 -0.374162 0.977731 -0.209861 -3.81189e-09 0.903306 -0.209861 0.374162 0.69136 -0.209861 0.69136 0.374162 -0.209861 0.903306 0 -0.209861 0.977731 -0.374162 -0.209861 0.903306 -0.132803 -0.829032 0.543203 0.215973 -0.953378 0.210775 0.0615538 -0.997892 -0.0205391 -0.334213 -0.913828 0.230694 0.360162 -0.907713 -0.21527 0.329607 -0.92017 -0.211299 0.349269 -0.904776 -0.243704 -0.100976 -0.957373 -0.270632 -0.551251 -0.830661 -0.0782585 0.290196 -0.829032 0.478008 0.301756 -0.953378 -0.00367583 0.0290018 -0.997892 -0.0580484 -0.0731988 -0.913828 0.39945 0.102454 -0.907713 -0.406892 0.0836563 -0.92017 -0.382478 0.074645 -0.904776 -0.419295 -0.262767 -0.957372 -0.119965 -0.44513 -0.830661 0.334456 0.543203 -0.829032 0.132803 0.210775 -0.953378 -0.215973 -0.0205391 -0.997892 -0.0615538 0.230694 -0.913828 0.334213 -0.21527 -0.907713 -0.360162 -0.211299 -0.92017 -0.329607 -0.243704 -0.904776 -0.349269 -0.270632 -0.957373 0.100976 -0.0782585 -0.830661 0.551251 0.478008 -0.829032 -0.290196 -0.00367583 -0.953378 -0.301756 -0.0580484 -0.997892 -0.0290018 0.39945 -0.913828 0.0731988 -0.406892 -0.907713 -0.102454 -0.382478 -0.92017 -0.0836563 -0.419295 -0.904776 -0.074645 -0.119965 -0.957372 0.262767 0.334456 -0.830661 0.445131 0.132803 -0.829032 -0.543203 -0.215973 -0.953378 -0.210775 -0.0615538 -0.997892 0.0205391 0.334213 -0.913828 -0.230694 -0.360162 -0.907713 0.21527 -0.329607 -0.92017 0.211299 -0.349269 -0.904776 0.243704 0.100976 -0.957373 0.270632 0.551251 -0.830661 0.0782585 -0.290196 -0.829032 -0.478008 -0.301756 -0.953378 0.00367583 -0.0290018 -0.997892 0.0580484 0.0731988 -0.913828 -0.39945 -0.102454 -0.907713 0.406892 -0.0836563 -0.92017 0.382478 -0.074645 -0.904776 0.419295 0.262767 -0.957372 0.119965 0.44513 -0.830661 -0.334456 -0.543203 -0.829032 -0.132803 -0.210775 -0.953378 0.215973 0.0205391 -0.997892 0.0615538 -0.230694 -0.913828 -0.334213 0.21527 -0.907713 0.360162 0.211299 -0.92017 0.329607 0.243704 -0.904776 0.349269 0.270632 -0.957373 -0.100976 0.0782585 -0.830661 -0.551251 -0.478008 -0.829032 0.290196 0.00367583 -0.953378 0.301756 0.0580484 -0.997892 0.0290018 -0.39945 -0.913828 -0.0731988 0.406892 -0.907713 0.102454 0.382478 -0.92017 0.0836563 0.419295 -0.904776 0.074645 0.119965 -0.957372 -0.262767 -0.334456 -0.830661 -0.445131 0.110081 -0.64965 0.752222 0.270975 -0.703802 0.656685 -0.501232 -0.706229 -0.500007 -0.652553 -0.6498 -0.389788 0.60974 -0.64965 0.454062 0.655955 -0.703802 0.272738 -0.707982 -0.706229 0.00086598 -0.737047 -0.6498 0.185803 0.752222 -0.64965 -0.110081 0.656685 -0.703802 -0.270975 -0.500007 -0.706229 0.501232 -0.389788 -0.6498 0.652553 0.454062 -0.64965 -0.60974 0.272738 -0.703802 -0.655955 0.00086598 -0.706229 0.707982 0.185803 -0.6498 0.737047 -0.110081 -0.64965 -0.752222 -0.270975 -0.703802 -0.656685 0.501232 -0.706229 0.500007 0.652553 -0.6498 0.389788 -0.60974 -0.64965 -0.454062 -0.655955 -0.703802 -0.272738 0.707982 -0.706229 -0.00086598 0.737047 -0.6498 -0.185803 -0.752222 -0.64965 0.110081 -0.656685 -0.703802 0.270975 0.500007 -0.706229 -0.501232 0.389788 -0.6498 -0.652553 -0.454062 -0.64965 0.60974 -0.272738 -0.703802 0.655955 -0.00086598 -0.706229 -0.707982 -0.185803 -0.6498 -0.737047 0.666961 -0.649905 -0.364398 0.0963845 -0.671532 0.73468 0.271733 -0.704128 0.656022 0.591895 -0.649906 -0.476742 -0.642255 -0.670786 -0.370885 -0.502098 -0.704128 -0.502098 0.213944 -0.649906 -0.729281 0.587651 -0.671532 0.451343 0.656022 -0.704128 0.271733 0.081425 -0.649906 -0.755641 -0.716398 -0.670786 0.191888 -0.710073 -0.704128 -0 -0.364398 -0.649905 -0.666961 0.73468 -0.671532 -0.0963845 0.656022 -0.704128 -0.271733 -0.476742 -0.649906 -0.591895 -0.370885 -0.670786 0.642255 -0.502098 -0.704128 0.502098 -0.729281 -0.649906 -0.213944 0.451343 -0.671532 -0.587651 0.271733 -0.704128 -0.656022 -0.755641 -0.649906 -0.081425 0.191888 -0.670786 0.716398 0 -0.704128 0.710073 -0.666961 -0.649905 0.364398 -0.0963845 -0.671532 -0.73468 -0.271733 -0.704128 -0.656022 -0.591895 -0.649906 0.476742 0.642255 -0.670786 0.370885 0.502098 -0.704128 0.502098 -0.213944 -0.649906 0.729281 -0.587651 -0.671532 -0.451343 -0.656022 -0.704128 -0.271733 -0.081425 -0.649906 0.755641 0.716398 -0.670786 -0.191888 0.710073 -0.704128 -0 0.364398 -0.649905 0.666961 -0.73468 -0.671532 0.0963845 -0.656022 -0.704128 0.271733 0.476742 -0.649906 0.591895 0.370885 -0.670786 -0.642255 0.502098 -0.704128 -0.502098 0.729281 -0.649906 0.213944 -0.451343 -0.671532 0.587651 -0.271733 -0.704128 0.656022 0.755641 -0.649906 0.081425 -0.191888 -0.670786 -0.716398 0 -0.704128 -0.710073 -0.92183 -0.0665812 0.381834 -0.976954 -0.088307 0.194328 -0.997781 -0.0665812 -0 -0.705538 -0.0665812 0.705538 -0.828221 -0.088307 0.5534 -0.381834 -0.0665812 0.921829 -0.5534 -0.088307 0.828221 0 -0.0665812 0.997781 -0.194328 -0.088307 0.976954 0.381834 -0.0665812 0.92183 0.194328 -0.088307 0.976954 0.705538 -0.0665812 0.705538 0.5534 -0.088307 0.828221 0.921829 -0.0665812 0.381834 0.828221 -0.088307 0.5534 0.997781 -0.0665812 -0 0.976954 -0.088307 0.194328 0.92183 -0.0665812 -0.381834 0.976954 -0.088307 -0.194328 0.705538 -0.0665812 -0.705538 0.828221 -0.088307 -0.5534 0.381834 -0.0665812 -0.921829 0.5534 -0.088307 -0.828221 0 -0.0665812 -0.997781 0.194328 -0.088307 -0.976954 -0.381834 -0.0665812 -0.92183 -0.194328 -0.088307 -0.976954 -0.705538 -0.0665812 -0.705538 -0.5534 -0.088307 -0.828221 -0.921829 -0.0665812 -0.381834 -0.828221 -0.088307 -0.5534 -0.976954 -0.088307 -0.194328 0.701461 0.126112 -0.701461 0.551301 0.123727 -0.825081 0.379628 0.126112 -0.916503 0.193591 0.123727 -0.973249 -3.8077e-09 0.126112 -0.992016 -0.193591 0.123727 -0.973249 -0.379628 0.126112 -0.916503 -0.551301 0.123727 -0.825081 -0.701461 0.126112 -0.701461 -0.825081 0.123727 -0.551301 -0.916503 0.126112 -0.379628 -0.973249 0.123727 -0.193591 -0.992016 0.126112 7.6154e-09 -0.973249 0.123727 0.193591 -0.916503 0.126112 0.379628 -0.825081 0.123727 0.551301 -0.701461 0.126112 0.701461 -0.551301 0.123727 0.825081 -0.379628 0.126112 0.916503 -0.193591 0.123727 0.973249 3.8077e-09 0.126112 0.992016 0.193591 0.123727 0.973249 0.379628 0.126112 0.916503 0.551301 0.123727 0.825081 0.701461 0.126112 0.701461 0.825081 0.123727 0.551301 0.916503 0.126112 0.379628 0.973249 0.123727 0.193591 0.992016 0.126112 -7.6154e-09 0.973249 0.123727 -0.193591 0.916503 0.126112 -0.379628 0.825081 0.123727 -0.551301 0.380111 0.115751 0.917669 0.364752 0.30252 0.880589 0.673974 0.30252 0.673974 0.702354 0.115751 0.702354 0.880589 0.30252 0.364752 0.917669 0.115751 0.380111 0.953143 0.30252 -3.82117e-09 0.993278 0.115751 3.805e-09 0.880589 0.30252 -0.364752 0.917669 0.115751 -0.380111 0.673974 0.30252 -0.673974 0.702354 0.115751 -0.702354 0.364752 0.30252 -0.880589 0.380111 0.115751 -0.917669 0 0.30252 -0.953143 3.805e-09 0.115751 -0.993278 -0.364752 0.30252 -0.880589 -0.380111 0.115751 -0.917669 -0.673974 0.30252 -0.673974 -0.702354 0.115751 -0.702354 -0.880589 0.30252 -0.364752 -0.917669 0.115751 -0.380111 -0.953143 0.30252 -0 -0.993278 0.115751 -3.805e-09 -0.880589 0.30252 0.364752 -0.917669 0.115751 0.380111 -0.673974 0.30252 0.673974 -0.702354 0.115751 0.702354 -0.364752 0.30252 0.880589 -0.380111 0.115751 0.917669 0 0.30252 0.953143 -3.805e-09 0.115751 0.993278 -0.33064 0.503486 0.798235 -0.344954 0.432968 0.832794 2.30484e-08 0.432968 0.901409 1.89817e-08 0.503486 0.864003 0.344954 0.432968 0.832794 0.33064 0.503486 0.798235 0.637393 0.432968 0.637393 0.610943 0.503486 0.610943 0.832794 0.432968 0.344954 0.798235 0.503486 0.33064 0.901409 0.432968 -1.9207e-08 0.864003 0.503486 -2.2778e-08 0.832794 0.432968 -0.344954 0.798235 0.503486 -0.33064 0.637393 0.432968 -0.637393 0.610943 0.503486 -0.610943 0.344954 0.432968 -0.832794 0.33064 0.503486 -0.798235 -2.30484e-08 0.432968 -0.901409 -1.89817e-08 0.503486 -0.864003 -0.344954 0.432968 -0.832794 -0.33064 0.503486 -0.798235 -0.637393 0.432968 -0.637393 -0.610943 0.503486 -0.610943 -0.832794 0.432968 -0.344954 -0.798235 0.503486 -0.33064 -0.901409 0.432968 1.9207e-08 -0.864003 0.503486 2.2778e-08 -0.832794 0.432968 0.344954 -0.798235 0.503486 0.33064 -0.637393 0.432968 0.637393 -0.610943 0.503486 0.610943 0.91526 0.136281 -0.379113 0.99067 0.136281 3.83133e-09 0.70051 0.136281 -0.70051 0.379113 0.136281 -0.91526 3.83133e-09 0.136281 -0.99067 -0.379113 0.136281 -0.91526 -0.70051 0.136281 -0.70051 -0.91526 0.136281 -0.379113 -0.99067 0.136281 -3.83133e-09 -0.91526 0.136281 0.379113 -0.70051 0.136281 0.70051 -0.379113 0.136281 0.91526 -3.83133e-09 0.136281 0.99067 0.379113 0.136281 0.91526 0.70051 0.136281 0.70051 0.91526 0.136281 0.379113 0.87616 -0.31723 -0.362917 0.948348 -0.31723 -0 0.670584 -0.31723 -0.670584 0.362917 -0.31723 -0.87616 0 -0.31723 -0.948348 -0.362917 -0.31723 -0.87616 -0.670584 -0.31723 -0.670584 -0.87616 -0.31723 -0.362917 -0.948348 -0.31723 -0 -0.87616 -0.31723 0.362917 -0.670584 -0.31723 0.670584 -0.362917 -0.31723 0.87616 0 -0.31723 0.948348 0.362917 -0.31723 0.87616 0.670584 -0.31723 0.670584 0.87616 -0.31723 0.362917 0.807167 -0.486517 -0.334339 0.873671 -0.486517 -0 0.617779 -0.486517 -0.617779 0.334339 -0.486517 -0.807167 0 -0.486517 -0.873671 -0.334339 -0.486517 -0.807167 -0.617779 -0.486517 -0.617779 -0.807167 -0.486517 -0.334339 -0.873671 -0.486517 -0 -0.807167 -0.486517 0.334339 -0.617779 -0.486517 0.617779 -0.334339 -0.486517 0.807167 0 -0.486517 0.873671 0.334339 -0.486517 0.807167 0.617779 -0.486517 0.617779 0.807167 -0.486517 0.334339 0.879912 0.304821 -0.364471 0.913778 -0.147474 -0.378499 0.989066 -0.147474 -3.89095e-09 0.952409 0.304821 3.89303e-09 0.673455 0.304821 -0.673455 0.699375 -0.147474 -0.699375 0.364471 0.304821 -0.879912 0.378499 -0.147474 -0.913778 -7.78606e-09 0.304821 -0.952409 -3.89095e-09 -0.147474 -0.989066 -0.364471 0.304821 -0.879912 -0.378499 -0.147474 -0.913778 -0.673455 0.304821 -0.673455 -0.699375 -0.147474 -0.699375 -0.879912 0.304821 -0.364471 -0.913778 -0.147474 -0.378499 -0.952409 0.304821 -3.89303e-09 -0.989066 -0.147474 3.89095e-09 -0.879912 0.304821 0.364471 -0.913778 -0.147474 0.378499 -0.673455 0.304821 0.673455 -0.699375 -0.147474 0.699375 -0.364471 0.304821 0.879912 -0.378499 -0.147474 0.913778 7.78606e-09 0.304821 0.952409 3.89095e-09 -0.147474 0.989066 0.364471 0.304821 0.879912 0.378499 -0.147474 0.913778 0.673455 0.304821 0.673455 0.699375 -0.147474 0.699375 0.879912 0.304821 0.364471 0.913778 -0.147474 0.378499 0.92388 0 -0.382683 1 3.97124e-18 -0 0.707107 0 -0.707107 0.382683 3.97125e-18 -0.92388 0 3.97125e-18 -1 -0.382683 0 -0.92388 -0.707107 0 -0.707107 -0.92388 3.97125e-18 -0.382683 -1 3.97125e-18 -0 -0.92388 0 0.382683 -0.707107 0 0.707107 -0.382683 3.97124e-18 0.92388 0 3.97124e-18 1 0.382683 0 0.92388 0.707107 0 0.707107 0.92388 3.97124e-18 0.382683 -1 -3.72426e-17 -0 -0.382683 -3.72426e-17 0.92388 0 -3.72426e-17 1 0.92388 -3.72426e-17 0.382683 1 -3.72426e-17 -0 0.382683 -3.72426e-17 -0.92388 0 -3.72426e-17 -1 -0.92388 -3.72426e-17 -0.382683 -0.92388 -3.97126e-18 0.382684 -0.382684 0 0.92388 0 -3.97126e-18 1 0.382684 -3.97126e-18 0.92388 0.92388 0 0.382684 1 -3.97124e-18 -0 0.92388 -3.97124e-18 -0.382684 0.382684 0 -0.92388 0 -3.97124e-18 -1 -0.382684 -3.97124e-18 -0.92388 -0.92388 0 -0.382684 -1 -3.97126e-18 -0 -0.382683 0 0.92388 0 -3.97124e-18 1 0.382683 -3.97124e-18 0.92388 0.92388 0 0.382683 1 -3.97124e-18 -0 0.92388 -3.97124e-18 -0.382683 0.382683 0 -0.92388 0 -3.97124e-18 -1 -0.382683 -3.97124e-18 -0.92388 -0.92388 0 -0.382683 -1 -3.97124e-18 -0 -0.92388 -3.97124e-18 0.382683 0.791698 0.515437 0.327932 0.856927 0.515437 7.55804e-09 0.791698 0.515437 -0.327932 0.605939 0.515438 -0.605939 0.327932 0.515437 -0.791698 -7.55804e-09 0.515437 -0.856927 -0.327932 0.515437 -0.791698 -0.605939 0.515438 -0.605939 -0.791698 0.515437 -0.327932 -0.856927 0.515437 -7.55804e-09 -0.791698 0.515437 0.327932 -0.605939 0.515438 0.605939 -0.327932 0.515437 0.791698 7.55804e-09 0.515437 0.856927 0.327932 0.515437 0.791698 0.605939 0.515438 0.605939</float_array>
                    <technique_common>
                        <accessor count="554" source="#ID12" stride="3">
                            <param name="X" type="float"/>
                            <param name="Y" type="float"/>
                            <param name="Z" type="float"/>
                        </accessor>
                    </technique_common>
                </source>
                <source id="ID13">
                    <float_array id="ID14" count="1844">0.148227 0.136308 0.248336 0.136308 0.240715 0.101079 0.622534 0.420954 0.651719 0.420954 0.622534 0.326767 0.680904 0.420954 0.680139 0.326767 0.622534 0.609298 0.622534 0.645575 0.684883 0.645575 0.681714 0.609298 0.910661 0.220195 0.862957 0.220195 0.907029 0.236982 0.183963 0.11435 0.233946 0.0958114 0.221716 0.07898 0.705646 0.420954 0.730388 0.420954 0.728974 0.326767 0.73774 0.645575 0.731884 0.609298 0.896688 0.251214 0.219015 0.0712128 0.186537 0.051257 0.0166522 0.420954 0.0413942 0.420954 0.0180667 0.326767 0.0661363 0.420954 0.0669018 0.326767 0.0151563 0.609298 0.00930037 0.645575 0.0621575 0.645575 0.0653267 0.609298 0.881212 0.260724 0.156612 0.0975444 0.1777 0.0519346 0.15611 0.0479854 0.0953215 0.420954 0.124507 0.420954 0.124507 0.326767 0.124507 0.645575 0.124507 0.609298 0.862957 0.264063 0.148227 0.0442495 0.109918 0.051257 0.153692 0.420954 0.182877 0.420954 0.182112 0.326767 0.186856 0.645575 0.183687 0.609298 0.844701 0.260724 0.12435 0.103446 0.10419 0.0574825 0.0858865 0.0687289 0.207619 0.420954 0.232361 0.420954 0.230947 0.326767 0.239713 0.645575 0.233857 0.609298 0.829225 0.251214 0.07744 0.0712128 0.0557393 0.101079 0.763693 0.420954 0.788435 0.420954 0.765107 0.326767 0.813177 0.420954 0.813942 0.326767 0.762197 0.609298 0.756341 0.645575 0.809198 0.645575 0.812367 0.609298 0.818884 0.236982 0.106074 0.128597 0.0564761 0.109205 0.0521816 0.129059 0.842362 0.420954 0.871547 0.420954 0.871547 0.326767 0.871547 0.645575 0.871547 0.609298 0.815253 0.220195 0.048119 0.136308 0.0557393 0.171537 0.900733 0.420954 0.929918 0.420954 0.929152 0.326767 0.933897 0.645575 0.930727 0.609298 0.818884 0.203408 0.112492 0.158265 0.0625091 0.176804 0.074739 0.193635 0.95466 0.420954 0.979402 0.420954 0.977987 0.326767 0.986754 0.645575 0.980898 0.609298 0.829225 0.189176 0.07744 0.201403 0.109918 0.221358 0.265666 0.420954 0.290408 0.420954 0.26708 0.326767 0.31515 0.420954 0.315915 0.326767 0.26417 0.609298 0.258314 0.645575 0.311171 0.645575 0.31434 0.609298 0.844701 0.179666 0.139843 0.175071 0.118755 0.220681 0.140345 0.22463 0.344335 0.420954 0.37352 0.420954 0.37352 0.326767 0.37352 0.645575 0.37352 0.609298 0.862957 0.176327 0.148227 0.228366 0.186537 0.221358 0.402706 0.420954 0.431891 0.420954 0.431125 0.326767 0.43587 0.645575 0.4327 0.609298 0.881212 0.179666 0.172105 0.169169 0.192265 0.215133 0.210568 0.203886 0.456633 0.420954 0.481375 0.420954 0.47996 0.326767 0.488727 0.645575 0.482871 0.609298 0.896688 0.189176 0.219015 0.201403 0.240715 0.171537 0.514679 0.420954 0.539421 0.420954 0.516094 0.326767 0.564163 0.420954 0.564929 0.326767 0.513183 0.609298 0.507327 0.645575 0.560185 0.645575 0.563354 0.609298 0.907029 0.203408 0.19038 0.144018 0.239979 0.16341 0.244273 0.143556 0.593349 0.420954 0.976301 0.307908 0.92824 0.307908 0.871547 0.307908 0.814855 0.307908 0.766794 0.307908 0.229261 0.307908 0.181199 0.307908 0.124507 0.307908 0.0678145 0.307908 0.019753 0.307908 0.727288 0.307908 0.679226 0.307908 0.622534 0.307908 0.565842 0.307908 0.51778 0.307908 0.478274 0.307908 0.430213 0.307908 0.37352 0.307908 0.316828 0.307908 0.268767 0.307908 0.269177 0.136308 0.287154 0.136308 0.276579 0.0874178 0.25997 0.0937443 0.250961 0.0894973 0.258566 0.0861834 0.249688 0.0739653 0.244827 0.0769525 0.261463 0.0850078 0.25455 0.0709782 0.2431 0.0597355 0.24081 0.0617473 0.234571 0.0669398 0.233752 0.0576607 0.246464 0.0459712 0.201392 0.0182773 0.194513 0.0335505 0.184877 0.0364054 0.187706 0.0291173 0.172033 0.0262506 0.170893 0.0315241 0.188851 0.026402 0.173174 0.0209773 0.156433 0.0204723 0.156361 0.0233839 0.155942 0.0311127 0.148227 0.0250841 0.148227 0.00855255 0.0950623 0.0182773 0.101942 0.0335505 0.0973236 0.041835 0.0937199 0.034842 0.0804334 0.0430058 0.0836818 0.0474764 0.0924415 0.0321774 0.077185 0.0385352 0.0649592 0.0490639 0.0671469 0.0511696 0.0727935 0.0569074 0.062703 0.0576607 0.0499911 0.0459712 0.0198756 0.0874178 0.0364844 0.0937443 0.039589 0.102605 0.0316636 0.100004 0.0285462 0.114416 0.0342807 0.115465 0.0287108 0.098951 0.0228116 0.113367 0.0222625 0.128762 0.0254287 0.128828 0.0338334 0.129214 0.0272776 0.136308 0.00930037 0.136308 0.0198756 0.185197 0.0364844 0.178871 0.0454932 0.183118 0.0378888 0.186432 0.0467665 0.19865 0.0516281 0.195663 0.0349913 0.187608 0.041905 0.201637 0.0533543 0.21288 0.0556443 0.210868 0.0618837 0.205675 0.062703 0.214955 0.0499911 0.226644 0.0950623 0.254338 0.101942 0.239065 0.111578 0.23621 0.108749 0.243498 0.124421 0.246365 0.125562 0.241091 0.107604 0.246213 0.123281 0.251638 0.140021 0.252143 0.140094 0.249231 0.140513 0.241503 0.148227 0.247531 0.148227 0.264063 0.201392 0.254338 0.194513 0.239065 0.199131 0.23078 0.202735 0.237773 0.216021 0.229609 0.212773 0.225139 0.204013 0.240438 0.21927 0.23408 0.231495 0.223551 0.229308 0.221446 0.223661 0.215708 0.233752 0.214955 0.246464 0.226644 0.276579 0.185197 0.25997 0.178871 0.256866 0.17001 0.264791 0.172611 0.267909 0.158199 0.262174 0.15715 0.267744 0.173664 0.273643 0.159248 0.274192 0.143854 0.271026 0.143787 0.262621 0.143402 0.792297 0.127652 0.783288 0.122689 0.766272 0.132924 0.773042 0.140299 0.548525 0.105584 0.556971 0.0982088 0.543878 0.0879735 0.533788 0.0929369 0.9907 0.251416 0.981064 0.246453 0.973887 0.256688 0.982724 0.264063 0.931144 0.124507 0.935207 0.117132 0.916859 0.106897 0.910303 0.11186 0.955286 0.251416 0.946277 0.246453 0.929261 0.256688 0.936031 0.264063 0.632093 0.105584 0.64054 0.0982088 0.627447 0.0879735 0.617356 0.0929369 0.989579 0.181986 0.979943 0.177022 0.972766 0.187258 0.981603 0.194632 0.974649 0.159222 0.978712 0.151847 0.960363 0.141612 0.953808 0.146575 0.747671 0.127652 0.738662 0.122689 0.721646 0.132924 0.728416 0.140299 0.590309 0.105584 0.598755 0.0982088 0.585662 0.0879735 0.575572 0.0929369 0.989579 0.216701 0.979943 0.211737 0.972766 0.221973 0.981603 0.229348 0.950103 0.194632 0.954165 0.187258 0.935817 0.177022 0.929261 0.181986 0.935207 0.146575 0.926198 0.141612 0.909182 0.151847 0.915952 0.159222 0.968545 0.124507 0.976991 0.117132 0.963898 0.106897 0.953808 0.11186 0.416497 0.128097 0.406861 0.123133 0.399684 0.133369 0.408522 0.140743 0.950103 0.229348 0.954165 0.221973 0.935817 0.211737 0.929261 0.216701 0.924139 0.524072 0.897843 0.524072 0.871547 0.524072 0.968725 0.524072 0.946432 0.524072 0.320928 0.524072 0.298636 0.524072 0.276343 0.524072 0.37352 0.524072 0.347224 0.524072 0.426112 0.524072 0.399816 0.524072 0.470698 0.524072 0.448405 0.524072 0.569942 0.524072 0.547649 0.524072 0.525357 0.524072 0.622534 0.524072 0.596238 0.524072 0.675126 0.524072 0.64883 0.524072 0.719711 0.524072 0.697418 0.524072 0.0719148 0.524072 0.0496222 0.524072 0.0273295 0.524072 0.124507 0.524072 0.0982108 0.524072 0.177099 0.524072 0.150803 0.524072 0.221684 0.524072 0.199391 0.524072 0.818955 0.524072 0.796663 0.524072 0.77437 0.524072 0.845251 0.524072 0.0255034 0.477054 0.0482149 0.477054 0.0709265 0.477054 0.0977166 0.477054 0.124507 0.477054 0.151297 0.477054 0.178087 0.477054 0.200799 0.477054 0.22351 0.477054 0.772544 0.477054 0.795256 0.477054 0.817967 0.477054 0.844757 0.477054 0.871547 0.477054 0.898338 0.477054 0.925128 0.477054 0.947839 0.477054 0.970551 0.477054 0.274517 0.477054 0.297228 0.477054 0.31994 0.477054 0.34673 0.477054 0.37352 0.477054 0.40031 0.477054 0.427101 0.477054 0.449812 0.477054 0.472524 0.477054 0.52353 0.477054 0.546242 0.477054 0.568954 0.477054 0.595744 0.477054 0.622534 0.477054 0.649324 0.477054 0.676114 0.477054 0.698826 0.477054 0.721537 0.477054 0.432755 0.791668 0.430388 0.822786 0.478598 0.822786 0.482972 0.791668 0.513082 0.791668 0.517456 0.822786 0.565666 0.822786 0.563299 0.791668 0.622534 0.822786 0.622534 0.791668 0.679402 0.822786 0.681769 0.791668 0.727612 0.822786 0.731986 0.791668 0.015055 0.791668 0.0194291 0.822786 0.0676391 0.822786 0.0652719 0.791668 0.124507 0.822786 0.124507 0.791668 0.181374 0.822786 0.183742 0.791668 0.229584 0.822786 0.233959 0.791668 0.762096 0.791668 0.76647 0.822786 0.81468 0.822786 0.812313 0.791668 0.871547 0.822786 0.871547 0.791668 0.928415 0.822786 0.930782 0.791668 0.976625 0.822786 0.980999 0.791668 0.264069 0.791668 0.268443 0.822786 0.316653 0.822786 0.314285 0.791668 0.37352 0.822786 0.37352 0.791668 0.320362 0.842045 0.348787 0.937429 0.37352 0.937429 0.37352 0.842045 0.398254 0.937429 0.426678 0.842045 0.419221 0.937429 0.471743 0.842045 0.524311 0.842045 0.576833 0.937429 0.597801 0.937429 0.569376 0.842045 0.622534 0.937429 0.622534 0.842045 0.647267 0.937429 0.675692 0.842045 0.668235 0.937429 0.720757 0.842045 0.0262839 0.842045 0.0788058 0.937429 0.0997736 0.937429 0.0713489 0.842045 0.124507 0.937429 0.124507 0.842045 0.14924 0.937429 0.177665 0.842045 0.170208 0.937429 0.22273 0.842045 0.773324 0.842045 0.825846 0.937429 0.846814 0.937429 0.81839 0.842045 0.871547 0.937429 0.871547 0.842045 0.896281 0.937429 0.924705 0.842045 0.917248 0.937429 0.96977 0.842045 0.275297 0.842045 0.327819 0.937429 0.643874 0.966522 0.622534 0.966522 0.661966 0.966522 0.103166 0.966522 0.0850747 0.966522 0.124507 0.966522 0.145847 0.966522 0.163939 0.966522 0.850207 0.966522 0.832115 0.966522 0.871547 0.966522 0.892888 0.966522 0.910979 0.966522 0.35218 0.966522 0.334088 0.966522 0.37352 0.966522 0.394861 0.966522 0.412952 0.966522 0.601193 0.966522 0.583102 0.966522 0.643874 0.983634 0.622534 0.983634 0.661966 0.983634 0.103166 0.983634 0.0850747 0.983634 0.124507 0.983634 0.145847 0.983634 0.163939 0.983634 0.850207 0.983634 0.832115 0.983634 0.871547 0.983634 0.892888 0.983634 0.910979 0.983634 0.35218 0.983634 0.334088 0.983634 0.37352 0.983634 0.394861 0.983634 0.412952 0.983634 0.601193 0.983634 0.583102 0.983634 0.644629 0.986053 0.622534 0.986053 0.66336 0.986053 0.102412 0.986053 0.0836802 0.986053 0.124507 0.986053 0.146602 0.986053 0.165333 0.986053 0.849452 0.986053 0.830721 0.986053 0.871547 0.986053 0.893643 0.986053 0.912374 0.986053 0.351425 0.986053 0.332694 0.986053 0.37352 0.986053 0.395615 0.986053 0.414347 0.986053 0.600439 0.986053 0.581707 0.986053 0.644968 0.990115 0.645021 0.988464 0.622534 0.988464 0.622534 0.990115 0.663987 0.990115 0.664084 0.988464 0.102073 0.990115 0.10202 0.988464 0.0829564 0.988464 0.0830541 0.990115 0.124507 0.990115 0.124507 0.988464 0.146941 0.990115 0.146994 0.988464 0.165959 0.990115 0.166057 0.988464 0.849113 0.990115 0.84906 0.988464 0.829997 0.988464 0.830095 0.990115 0.871547 0.990115 0.871547 0.988464 0.893981 0.990115 0.894034 0.988464 0.913 0.990115 0.913098 0.988464 0.351086 0.990115 0.351033 0.988464 0.33197 0.988464 0.332068 0.990115 0.37352 0.990115 0.37352 0.988464 0.395954 0.990115 0.396007 0.988464 0.414973 0.990115 0.415071 0.988464 0.6001 0.990115 0.600047 0.988464 0.580983 0.988464 0.581081 0.990115 0.412717 0.2297 0.416862 0.231279 0.421258 0.210956 0.416772 0.210956 0.401171 0.245591 0.404343 0.248508 0.38389 0.256209 0.385607 0.26002 0.363506 0.259938 0.363506 0.264063 0.343123 0.256209 0.341406 0.26002 0.325842 0.245591 0.32267 0.248508 0.314296 0.2297 0.310151 0.231279 0.310241 0.210956 0.305755 0.210956 0.314296 0.192211 0.310151 0.190632 0.325842 0.17632 0.32267 0.173403 0.343123 0.165702 0.341406 0.161891 0.363506 0.161974 0.363506 0.157848 0.38389 0.165702 0.385607 0.161891 0.401171 0.17632 0.404343 0.173403 0.412717 0.192211 0.416862 0.190632 0.873301 0.115812 0.873301 0.107387 0.852917 0.107387 0.852917 0.115812 0.890581 0.115812 0.890581 0.107387 0.323036 0.140743 0.323036 0.132319 0.305755 0.132319 0.305755 0.140743 0.343419 0.140743 0.343419 0.132319 0.363803 0.140743 0.363803 0.132319 0.381084 0.140743 0.381084 0.132319 0.457139 0.105584 0.457139 0.097159 0.439858 0.097159 0.439858 0.105584 0.477523 0.105584 0.477523 0.097159 0.497906 0.105584 0.497906 0.097159 0.515187 0.105584 0.515187 0.097159 0.323036 0.115214 0.323036 0.106789 0.305755 0.106789 0.305755 0.115214 0.343419 0.115214 0.343419 0.106789 0.363803 0.115214 0.363803 0.106789 0.381084 0.115214 0.381084 0.106789 0.832533 0.115812 0.832533 0.107387 0.815253 0.107387 0.815253 0.115812 0.787459 0.231868 0.792597 0.233825 0.796652 0.215081 0.791091 0.215081 0.777118 0.2461 0.781051 0.249716 0.761642 0.255609 0.76377 0.260334 0.743387 0.258949 0.743387 0.264063 0.725131 0.255609 0.723003 0.260334 0.709655 0.2461 0.705722 0.249716 0.699314 0.231868 0.694176 0.233825 0.695683 0.215081 0.690121 0.215081 0.699314 0.198293 0.694176 0.196336 0.709655 0.184062 0.705722 0.180445 0.725131 0.174552 0.723003 0.169827 0.743387 0.171213 0.743387 0.166099 0.761642 0.174552 0.76377 0.169827 0.777118 0.184062 0.781051 0.180445 0.787459 0.198293 0.792597 0.196336 0.791753 0.069234 0.791753 0.0709291 0.810009 0.0709291 0.810009 0.069234 0.776277 0.069234 0.776277 0.0709291 0.726793 0.0850259 0.726793 0.0867209 0.742269 0.0867209 0.742269 0.0850259 0.708537 0.0850259 0.708537 0.0867209 0.690282 0.0850259 0.690282 0.0867209 0.674806 0.0850259 0.674806 0.0867209 0.541495 0.0691735 0.541495 0.0708685 0.556971 0.0708685 0.556971 0.0691735 0.523239 0.0691735 0.523239 0.0708685 0.504984 0.0691735 0.504984 0.0708685 0.489508 0.0691735 0.489508 0.0708685 0.914329 0.069234 0.914329 0.0709291 0.929805 0.0709291 0.929805 0.069234 0.896073 0.069234 0.896073 0.0709291 0.877818 0.069234 0.877818 0.0709291 0.862341 0.069234 0.862341 0.0709291 0.828264 0.069234 0.828264 0.0709291 0.843741 0.0709291 0.843741 0.069234 0.827025 0.088034 0.827025 0.0897918 0.843741 0.0897918 0.843741 0.088034 0.305755 0.0879265 0.305755 0.0896844 0.322471 0.0896844 0.322471 0.0879265 0.342188 0.0896844 0.342188 0.0879265 0.361905 0.0896844 0.361905 0.0879265 0.378621 0.0896844 0.378621 0.0879265 0.674806 0.103826 0.674806 0.105584 0.691521 0.105584 0.691521 0.103826 0.711238 0.105584 0.711238 0.103826 0.730956 0.105584 0.730956 0.103826 0.747671 0.105584 0.747671 0.103826 0.862341 0.088034 0.862341 0.0897918 0.879057 0.0897918 0.879057 0.088034 0.898774 0.0897918 0.898774 0.088034 0.918491 0.0897918 0.918491 0.088034 0.935207 0.0897918 0.935207 0.088034 0.770875 0.088034 0.770875 0.0897918 0.787591 0.0897918 0.787591 0.088034 0.807308 0.0897918 0.807308 0.088034 0.533788 0.122689 0.533788 0.148994 0.551068 0.148994 0.551068 0.122689 0.571452 0.148994 0.571452 0.122689 0.591836 0.148994 0.591836 0.122689 0.609116 0.148994 0.609116 0.122689 0.815253 0.132917 0.815253 0.159222 0.832533 0.159222 0.832533 0.132917 0.852917 0.159222 0.852917 0.132917 0.873301 0.159222 0.873301 0.132917 0.890581 0.159222 0.890581 0.132917 0.439858 0.122689 0.439858 0.148994 0.457139 0.148994 0.457139 0.122689 0.477523 0.148994 0.477523 0.122689 0.497906 0.148994 0.497906 0.122689 0.515187 0.148994 0.515187 0.122689 0.627717 0.122689 0.627717 0.148994 0.644998 0.148994 0.644998 0.122689 0.665381 0.148994 0.665381 0.122689 0.685765 0.148994 0.685765 0.122689 0.703046 0.148994 0.703046 0.122689 0.570654 0.233212 0.569044 0.233825 0.580591 0.249716 0.581822 0.248584 0.456691 0.181578 0.455459 0.180445 0.443913 0.196336 0.445522 0.196949 0.597871 0.260334 0.598538 0.258855 0.473406 0.171307 0.47274 0.169827 0.618255 0.264063 0.618255 0.262461 0.493124 0.1677 0.493124 0.166099 0.638639 0.260334 0.637972 0.258855 0.512841 0.171307 0.513507 0.169827 0.655919 0.249716 0.654688 0.248584 0.529556 0.181578 0.530788 0.180445 0.667466 0.233825 0.665857 0.233212 0.540725 0.196949 0.542334 0.196336 0.671521 0.215081 0.669779 0.215081 0.544647 0.215081 0.546389 0.215081 0.667466 0.196336 0.665857 0.196949 0.540725 0.233212 0.542334 0.233825 0.655919 0.180445 0.654688 0.181578 0.529556 0.248584 0.530788 0.249716 0.638639 0.169827 0.637972 0.171307 0.512841 0.258855 0.513507 0.260334 0.618255 0.166099 0.618255 0.1677 0.493124 0.262461 0.493124 0.264063 0.597871 0.169827 0.598538 0.171307 0.473406 0.258855 0.47274 0.260334 0.580591 0.180445 0.581822 0.181578 0.456691 0.248584 0.455459 0.249716 0.569044 0.196336 0.570654 0.196949 0.445522 0.233212 0.443913 0.233825 0.56499 0.215081 0.566732 0.215081 0.4416 0.215081 0.439858 0.215081 0.600433 0.991448 0.622534 0.991448 0.644634 0.991448 0.66337 0.991448 0.0836705 0.991448 0.102406 0.991448 0.124507 0.991448 0.146607 0.991448 0.165343 0.991448 0.830711 0.991448 0.849447 0.991448 0.871547 0.991448 0.893648 0.991448 0.912384 0.991448 0.332684 0.991448 0.35142 0.991448 0.37352 0.991448 0.395621 0.991448 0.414357 0.991448 0.581698 0.991448 0.622534 0.281168 0.569369 0.281168 0.524298 0.281168 0.471757 0.281168 0.426685 0.281168 0.37352 0.281168 0.320355 0.281168 0.275284 0.281168 0.969784 0.281168 0.924712 0.281168 0.871547 0.281168 0.818382 0.281168 0.773311 0.281168 0.222743 0.281168 0.177672 0.281168 0.124507 0.281168 0.0713417 0.281168 0.0262706 0.281168 0.72077 0.281168 0.675699 0.281168</float_array>
                    <technique_common>
                        <accessor count="922" source="#ID14" stride="2">
                            <param name="S" type="float"/>
                            <param name="T" type="float"/>
                        </accessor>
                    </technique_common>
                </source>
                <vertices id="ID15">
                    <input semantic="POSITION" source="#ID9"/>
                </vertices>
                <triangles count="1184" material="Material1">
                    <input offset="0" semantic="VERTEX" source="#ID15"/>
                    <input offset="1" semantic="NORMAL" source="#ID11"/>
                    <input offset="2" semantic="TEXCOORD" source="#ID13" set="0"/>
                    <p>83 1 2 82 1 1 0 0 0 60 4 5 482 3 4 184 2 3 59 6 7 185 5 6 482 3 4 60 4 5 59 6 7 482 3 4 190 9 10 189 8 9 3 7 8 6 10 11 190 9 10 3 7 8 331 11 14 1 11 13 330 11 12 99 14 17 140 13 16 98 12 15 59 6 7 483 15 18 185 5 6 58 17 20 170 16 19 483 15 18 59 6 7 58 17 20 483 15 18 191 18 21 190 9 10 6 10 11 9 19 22 191 18 21 6 10 11 332 11 23 1 11 13 331 11 14 85 20 25 84 20 24 0 0 0 58 17 28 484 21 27 170 16 26 57 23 30 171 22 29 484 21 27 58 17 28 57 23 30 484 21 27 192 24 33 191 18 32 9 19 31 12 25 34 192 24 33 9 19 31 333 11 35 1 11 13 332 11 23 101 28 38 142 27 37 100 26 36 57 23 30 485 29 39 171 22 29 56 31 41 172 30 40 485 29 39 57 23 30 56 31 41 485 29 39 193 32 42 192 24 33 12 25 34 15 33 43 193 32 42 12 25 34 334 11 44 1 11 13 333 11 35 87 34 46 86 34 45 0 0 0 56 31 41 486 35 47 172 30 40 55 37 49 173 36 48 486 35 47 56 31 41 55 37 49 486 35 47 194 38 50 193 32 42 15 33 43 18 39 51 194 38 50 15 33 43 335 11 52 1 11 13 334 11 44 112 42 55 144 41 54 111 40 53 55 37 49 487 43 56 173 36 48 54 45 58 174 44 57 487 43 56 55 37 49 54 45 58 487 43 56 195 46 59 194 38 50 18 39 51 21 47 60 195 46 59 18 39 51 336 11 61 1 11 13 335 11 52 89 48 63 88 48 62 0 0 0 54 45 66 488 49 65 174 44 64 53 51 68 175 50 67 488 49 65 54 45 66 53 51 68 488 49 65 196 52 71 195 46 70 21 47 69 24 53 72 196 52 71 21 47 69 337 11 73 1 11 13 336 11 61 123 56 76 146 55 75 122 54 74 53 51 68 489 57 77 175 50 67 52 59 79 176 58 78 489 57 77 53 51 68 52 59 79 489 57 77 197 60 80 196 52 71 24 53 72 27 61 81 197 60 80 24 53 72 338 11 82 1 11 13 337 11 73 91 62 84 90 62 83 0 0 0 52 59 79 490 63 85 176 58 78 51 65 87 177 64 86 490 63 85 52 59 79 51 65 87 490 63 85 198 66 88 197 60 80 27 61 81 30 67 89 198 66 88 27 61 81 339 11 90 1 11 13 338 11 82 128 70 93 148 69 92 127 68 91 51 65 87 491 71 94 177 64 86 50 73 96 178 72 95 491 71 94 51 65 87 50 73 96 491 71 94 199 74 97 198 66 88 30 67 89 33 75 98 199 74 97 30 67 89 340 11 99 1 11 13 339 11 90 93 76 101 92 76 100 0 0 0 50 73 104 492 77 103 178 72 102 65 79 106 179 78 105 492 77 103 50 73 104 65 79 106 492 77 103 200 80 109 199 74 108 33 75 107 36 81 110 200 80 109 33 75 107 341 11 111 1 11 13 340 11 99 130 84 114 150 83 113 129 82 112 65 79 106 493 85 115 179 78 105 64 87 117 180 86 116 493 85 115 65 79 106 64 87 117 493 85 115 201 88 118 200 80 109 36 81 110 39 89 119 201 88 118 36 81 110 342 11 120 1 11 13 341 11 111 95 90 122 94 90 121 0 0 0 64 87 117 494 91 123 180 86 116 63 93 125 181 92 124 494 91 123 64 87 117 63 93 125 494 91 123 186 94 126 201 88 118 39 89 119 42 95 127 186 94 126 39 89 119 343 11 128 1 11 13 342 11 120 132 98 131 152 97 130 131 96 129 63 93 125 495 99 132 181 92 124 62 101 134 182 100 133 495 99 132 63 93 125 62 101 134 495 99 132 187 102 135 186 94 126 42 95 127 45 103 136 187 102 135 42 95 127 344 11 137 1 11 13 343 11 128 97 104 139 96 104 138 0 0 0 62 101 142 496 105 141 182 100 140 61 107 144 183 106 143 496 105 141 62 101 142 61 107 144 496 105 141 188 108 147 187 102 146 45 103 145 48 109 148 188 108 147 45 103 145 345 11 149 1 11 13 344 11 137 134 112 152 138 111 151 133 110 150 61 107 144 497 113 153 183 106 143 60 4 5 184 2 3 497 113 153 61 107 144 60 4 5 497 113 153 189 8 9 188 108 147 48 109 148 3 7 8 189 8 9 48 109 148 330 11 12 1 11 13 345 11 149 585 115 155 584 114 154 50 73 96 51 65 87 585 115 155 50 73 96 586 116 156 585 115 155 51 65 87 52 59 79 586 116 156 51 65 87 587 117 157 586 116 156 52 59 79 53 51 68 587 117 157 52 59 79 588 118 158 587 117 157 53 51 68 54 45 66 588 118 158 53 51 68 589 119 160 588 118 159 54 45 58 55 37 49 589 119 160 54 45 58 590 120 161 589 119 160 55 37 49 56 31 41 590 120 161 55 37 49 591 121 162 590 120 161 56 31 41 57 23 30 591 121 162 56 31 41 592 122 163 591 121 162 57 23 30 58 17 28 592 122 163 57 23 30 593 123 165 592 122 164 58 17 20 59 6 7 593 123 165 58 17 20 578 124 166 593 123 165 59 6 7 60 4 5 578 124 166 59 6 7 579 125 167 578 124 166 60 4 5 61 107 144 579 125 167 60 4 5 580 126 168 579 125 167 61 107 144 62 101 142 580 126 168 61 107 144 581 127 170 580 126 169 62 101 134 63 93 125 581 127 170 62 101 134 582 128 171 581 127 170 63 93 125 64 87 117 582 128 171 63 93 125 583 129 172 582 128 171 64 87 117 65 79 106 583 129 172 64 87 117 584 114 173 583 129 172 65 79 106 50 73 104 584 114 173 65 79 106 5 0 176 2 0 175 66 1 174 67 1 177 5 0 176 66 1 174 474 132 180 442 131 179 108 130 178 445 133 181 474 132 180 108 130 178 443 135 183 109 134 182 442 131 179 474 132 180 443 135 183 442 131 179 110 136 184 443 135 183 474 132 180 444 137 185 110 136 184 474 132 180 444 137 185 474 132 180 445 133 181 141 138 186 444 137 185 445 133 181 11 0 189 8 0 188 68 20 187 69 20 190 11 0 189 68 20 187 475 141 193 446 140 192 113 139 191 449 142 194 475 141 193 113 139 191 447 144 196 114 143 195 446 140 192 475 141 193 447 144 196 446 140 192 115 145 197 447 144 196 475 141 193 448 146 198 115 145 197 475 141 193 448 146 198 475 141 193 449 142 194 143 147 199 448 146 198 449 142 194 17 0 202 14 0 201 70 34 200 71 34 203 17 0 202 70 34 200 476 150 206 450 149 205 102 148 204 453 151 207 476 150 206 102 148 204 451 153 209 103 152 208 450 149 205 476 150 206 451 153 209 450 149 205 104 154 210 451 153 209 476 150 206 452 155 211 104 154 210 476 150 206 452 155 211 476 150 206 453 151 207 145 156 212 452 155 211 453 151 207 23 0 215 20 0 214 72 48 213 73 48 216 23 0 215 72 48 213 477 159 219 454 158 218 105 157 217 457 160 220 477 159 219 105 157 217 455 162 222 106 161 221 454 158 218 477 159 219 455 162 222 454 158 218 107 163 223 455 162 222 477 159 219 456 164 224 107 163 223 477 159 219 456 164 224 477 159 219 457 160 220 147 165 225 456 164 224 457 160 220 29 0 228 26 0 227 74 62 226 75 62 229 29 0 228 74 62 226 478 168 232 458 167 231 119 166 230 461 169 233 478 168 232 119 166 230 459 171 235 120 170 234 458 167 231 478 168 232 459 171 235 458 167 231 121 172 236 459 171 235 478 168 232 460 173 237 121 172 236 478 168 232 460 173 237 478 168 232 461 169 233 149 174 238 460 173 237 461 169 233 35 0 241 32 0 240 76 76 239 77 76 242 35 0 241 76 76 239 479 177 245 462 176 244 124 175 243 465 178 246 479 177 245 124 175 243 463 180 248 125 179 247 462 176 244 479 177 245 463 180 248 462 176 244 126 181 249 463 180 248 479 177 245 464 182 250 126 181 249 479 177 245 464 182 250 479 177 245 465 178 246 151 183 251 464 182 250 465 178 246 41 0 254 38 0 253 78 90 252 79 90 255 41 0 254 78 90 252 480 186 258 466 185 257 135 184 256 469 187 259 480 186 258 135 184 256 467 189 261 136 188 260 466 185 257 480 186 258 467 189 261 466 185 257 137 190 262 467 189 261 480 186 258 468 191 263 137 190 262 480 186 258 468 191 263 480 186 258 469 187 259 153 192 264 468 191 263 469 187 259 47 0 267 44 0 266 80 104 265 81 104 268 47 0 267 80 104 265 481 195 271 470 194 270 116 193 269 473 196 272 481 195 271 116 193 269 471 198 274 117 197 273 470 194 270 481 195 271 471 198 274 470 194 270 118 199 275 471 198 274 481 195 271 472 200 276 118 199 275 481 195 271 472 200 276 481 195 271 473 196 272 139 201 277 472 200 276 473 196 272 67 1 177 66 1 174 82 1 1 83 1 2 67 1 177 82 1 1 140 13 16 445 133 181 108 130 178 99 14 17 141 138 186 445 133 181 140 13 16 99 14 17 445 133 181 69 20 190 68 20 187 84 20 24 85 20 25 69 20 190 84 20 24 142 27 37 449 142 194 113 139 191 101 28 38 143 147 199 449 142 194 142 27 37 101 28 38 449 142 194 71 34 203 70 34 200 86 34 45 87 34 46 71 34 203 86 34 45 144 41 54 453 151 207 102 148 204 112 42 55 145 156 212 453 151 207 144 41 54 112 42 55 453 151 207 73 48 216 72 48 213 88 48 62 89 48 63 73 48 216 88 48 62 146 55 75 457 160 220 105 157 217 123 56 76 147 165 225 457 160 220 146 55 75 123 56 76 457 160 220 75 62 229 74 62 226 90 62 83 91 62 84 75 62 229 90 62 83 148 69 92 461 169 233 119 166 230 128 70 93 149 174 238 461 169 233 148 69 92 128 70 93 461 169 233 77 76 242 76 76 239 92 76 100 93 76 101 77 76 242 92 76 100 150 83 113 465 178 246 124 175 243 130 84 114 151 183 251 465 178 246 150 83 113 130 84 114 465 178 246 79 90 255 78 90 252 94 90 121 95 90 122 79 90 255 94 90 121 152 97 130 469 187 259 135 184 256 132 98 131 153 192 264 469 187 259 152 97 130 132 98 131 469 187 259 81 104 268 80 104 265 96 104 138 97 104 139 81 104 268 96 104 138 138 111 151 473 196 272 116 193 269 134 112 152 139 201 277 473 196 272 138 111 151 134 112 152 473 196 272 98 203 15 140 13 16 83 202 2 0 203 0 98 203 15 83 202 2 99 14 17 98 204 15 0 204 0 84 205 24 99 14 17 0 204 0 100 207 36 142 27 37 85 206 25 0 207 0 100 207 36 85 206 25 101 28 38 100 208 36 0 208 0 86 209 45 101 28 38 0 208 0 111 211 53 144 41 54 87 210 46 0 211 0 111 211 53 87 210 46 112 42 55 111 212 53 0 212 0 88 213 62 112 42 55 0 212 0 122 215 74 146 55 75 89 214 63 0 215 0 122 215 74 89 214 63 123 56 76 122 216 74 0 216 0 90 217 83 123 56 76 0 216 0 127 219 91 148 69 92 91 218 84 0 219 0 127 219 91 91 218 84 128 70 93 127 220 91 0 220 0 92 221 100 128 70 93 0 220 0 129 223 112 150 83 113 93 222 101 0 223 0 129 223 112 93 222 101 130 84 114 129 224 112 0 224 0 94 225 121 130 84 114 0 224 0 131 227 129 152 97 130 95 226 122 0 227 0 131 227 129 95 226 122 132 98 131 131 228 129 0 228 0 96 229 138 132 98 131 0 228 0 133 231 150 138 111 151 97 230 139 0 231 0 133 231 150 97 230 139 134 112 152 133 232 150 0 232 0 82 233 1 134 112 152 0 232 0 5 234 176 442 131 179 109 134 182 67 235 177 108 130 178 442 131 179 5 236 176 67 235 177 442 131 179 8 237 188 443 135 183 110 136 184 5 234 176 109 134 182 443 135 183 8 237 188 5 234 176 443 135 183 68 238 187 444 137 185 141 138 186 8 237 188 110 136 184 444 137 185 68 238 187 8 239 188 444 137 185 11 240 189 446 140 192 114 143 195 69 241 190 113 139 191 446 140 192 11 242 189 69 241 190 446 140 192 14 243 201 447 144 196 115 145 197 11 240 189 114 143 195 447 144 196 14 243 201 11 240 189 447 144 196 70 244 200 448 146 198 143 147 199 14 243 201 115 145 197 448 146 198 70 244 200 14 245 201 448 146 198 17 246 202 450 149 205 103 152 208 71 247 203 102 148 204 450 149 205 17 248 202 71 247 203 450 149 205 20 249 214 451 153 209 104 154 210 17 246 202 103 152 208 451 153 209 20 249 214 17 246 202 451 153 209 72 250 213 452 155 211 145 156 212 20 249 214 104 154 210 452 155 211 72 250 213 20 251 214 452 155 211 23 252 215 454 158 218 106 161 221 73 253 216 105 157 217 454 158 218 23 254 215 73 253 216 454 158 218 26 255 227 455 162 222 107 163 223 23 252 215 106 161 221 455 162 222 26 255 227 23 252 215 455 162 222 74 256 226 456 164 224 147 165 225 26 255 227 107 163 223 456 164 224 74 256 226 26 257 227 456 164 224 29 258 228 458 167 231 120 170 234 75 259 229 119 166 230 458 167 231 29 260 228 75 259 229 458 167 231 32 261 240 459 171 235 121 172 236 29 258 228 120 170 234 459 171 235 32 261 240 29 258 228 459 171 235 76 262 239 460 173 237 149 174 238 32 261 240 121 172 236 460 173 237 76 262 239 32 263 240 460 173 237 35 264 241 462 176 244 125 179 247 77 265 242 124 175 243 462 176 244 35 266 241 77 265 242 462 176 244 38 267 253 463 180 248 126 181 249 35 264 241 125 179 247 463 180 248 38 267 253 35 264 241 463 180 248 78 268 252 464 182 250 151 183 251 38 267 253 126 181 249 464 182 250 78 268 252 38 269 253 464 182 250 41 270 254 466 185 257 136 188 260 79 271 255 135 184 256 466 185 257 41 272 254 79 271 255 466 185 257 44 273 266 467 189 261 137 190 262 41 270 254 136 188 260 467 189 261 44 273 266 41 270 254 467 189 261 80 274 265 468 191 263 153 192 264 44 273 266 137 190 262 468 191 263 80 274 265 44 275 266 468 191 263 47 276 267 470 194 270 117 197 273 81 277 268 116 193 269 470 194 270 47 278 267 81 277 268 470 194 270 2 279 175 471 198 274 118 199 275 47 276 267 117 197 273 471 198 274 2 279 175 47 276 267 471 198 274 66 280 174 472 200 276 139 201 277 2 279 175 118 199 275 472 200 276 66 280 174 2 281 175 472 200 276 140 13 280 108 130 279 67 235 278 83 202 281 140 13 280 67 235 278 141 138 284 99 14 283 84 205 282 68 238 285 141 138 284 84 205 282 142 27 288 113 139 287 69 241 286 85 206 289 142 27 288 69 241 286 143 147 292 101 28 291 86 209 290 70 244 293 143 147 292 86 209 290 144 41 296 102 148 295 71 247 294 87 210 297 144 41 296 71 247 294 145 156 300 112 42 299 88 213 298 72 250 301 145 156 300 88 213 298 146 55 304 105 157 303 73 253 302 89 214 305 146 55 304 73 253 302 147 165 308 123 56 307 90 217 306 74 256 309 147 165 308 90 217 306 148 69 312 119 166 311 75 259 310 91 218 313 148 69 312 75 259 310 149 174 316 128 70 315 92 221 314 76 262 317 149 174 316 92 221 314 150 83 320 124 175 319 77 265 318 93 222 321 150 83 320 77 265 318 151 183 324 130 84 323 94 225 322 78 268 325 151 183 324 94 225 322 152 97 328 135 184 327 79 271 326 95 226 329 152 97 328 79 271 326 153 192 332 132 98 331 96 229 330 80 274 333 153 192 332 96 229 330 138 111 336 116 193 335 81 277 334 97 230 337 138 111 336 81 277 334 139 201 340 134 112 339 82 233 338 66 280 341 139 201 340 82 233 338 30 67 89 498 283 343 155 282 342 27 61 81 154 284 344 498 283 343 30 67 89 27 61 81 498 283 343 33 75 98 499 286 346 156 285 345 30 67 89 155 282 342 499 286 346 33 75 98 30 67 89 499 286 346 36 81 110 500 288 348 157 287 347 33 75 107 156 285 349 500 288 348 36 81 110 33 75 107 500 288 348 39 89 119 501 290 351 158 289 350 36 81 110 157 287 347 501 290 351 39 89 119 36 81 110 501 290 351 42 95 127 502 292 353 159 291 352 39 89 119 158 289 350 502 292 353 42 95 127 39 89 119 502 292 353 45 103 136 503 294 355 160 293 354 42 95 127 159 291 352 503 294 355 45 103 136 42 95 127 503 294 355 48 109 148 504 296 357 161 295 356 45 103 145 160 293 358 504 296 357 48 109 148 45 103 145 504 296 357 3 7 8 505 298 360 162 297 359 48 109 148 161 295 356 505 298 360 3 7 8 48 109 148 505 298 360 6 10 11 506 300 362 163 299 361 3 7 8 162 297 359 506 300 362 6 10 11 3 7 8 506 300 362 9 19 22 507 302 364 164 301 363 6 10 11 163 299 361 507 302 364 9 19 22 6 10 11 507 302 364 12 25 34 508 304 366 165 303 365 9 19 31 164 301 367 508 304 366 12 25 34 9 19 31 508 304 366 15 33 43 509 306 369 166 305 368 12 25 34 165 303 365 509 306 369 15 33 43 12 25 34 509 306 369 18 39 51 510 308 371 167 307 370 15 33 43 166 305 368 510 308 371 18 39 51 15 33 43 510 308 371 21 47 60 511 310 373 168 309 372 18 39 51 167 307 370 511 310 373 21 47 60 18 39 51 511 310 373 24 53 72 512 312 375 169 311 374 21 47 69 168 309 376 512 312 375 24 53 72 21 47 69 512 312 375 27 61 81 513 313 377 154 284 344 24 53 72 169 311 374 513 313 377 27 61 81 24 53 72 513 313 377 530 315 379 514 314 378 170 16 26 484 21 27 530 315 379 170 16 26 508 304 366 164 301 367 514 314 378 530 315 379 508 304 366 514 314 378 165 303 365 508 304 366 530 315 379 515 316 380 165 303 365 530 315 379 515 316 380 530 315 379 484 21 27 171 22 29 515 316 380 484 21 27 531 317 381 515 316 380 171 22 29 485 29 39 531 317 381 171 22 29 509 306 369 165 303 365 515 316 380 531 317 381 509 306 369 515 316 380 166 305 368 509 306 369 531 317 381 516 318 382 166 305 368 531 317 381 516 318 382 531 317 381 485 29 39 172 30 40 516 318 382 485 29 39 532 319 383 516 318 382 172 30 40 486 35 47 532 319 383 172 30 40 510 308 371 166 305 368 516 318 382 532 319 383 510 308 371 516 318 382 167 307 370 510 308 371 532 319 383 517 320 384 167 307 370 532 319 383 517 320 384 532 319 383 486 35 47 173 36 48 517 320 384 486 35 47 533 321 385 517 320 384 173 36 48 487 43 56 533 321 385 173 36 48 511 310 373 167 307 370 517 320 384 533 321 385 511 310 373 517 320 384 168 309 372 511 310 373 533 321 385 518 322 386 168 309 372 533 321 385 518 322 386 533 321 385 487 43 56 174 44 57 518 322 386 487 43 56 534 323 388 518 322 387 174 44 64 488 49 65 534 323 388 174 44 64 512 312 375 168 309 376 518 322 387 534 323 388 512 312 375 518 322 387 169 311 374 512 312 375 534 323 388 519 324 389 169 311 374 534 323 388 519 324 389 534 323 388 488 49 65 175 50 67 519 324 389 488 49 65 535 325 390 519 324 389 175 50 67 489 57 77 535 325 390 175 50 67 513 313 377 169 311 374 519 324 389 535 325 390 513 313 377 519 324 389 154 284 344 513 313 377 535 325 390 520 326 391 154 284 344 535 325 390 520 326 391 535 325 390 489 57 77 176 58 78 520 326 391 489 57 77 536 327 392 520 326 391 176 58 78 490 63 85 536 327 392 176 58 78 498 283 343 154 284 344 520 326 391 536 327 392 498 283 343 520 326 391 155 282 342 498 283 343 536 327 392 521 328 393 155 282 342 536 327 392 521 328 393 536 327 392 490 63 85 177 64 86 521 328 393 490 63 85 537 329 394 521 328 393 177 64 86 491 71 94 537 329 394 177 64 86 499 286 346 155 282 342 521 328 393 537 329 394 499 286 346 521 328 393 156 285 345 499 286 346 537 329 394 522 330 395 156 285 345 537 329 394 522 330 395 537 329 394 491 71 94 178 72 95 522 330 395 491 71 94 538 331 397 522 330 396 178 72 102 492 77 103 538 331 397 178 72 102 500 288 348 156 285 349 522 330 396 538 331 397 500 288 348 522 330 396 157 287 347 500 288 348 538 331 397 523 332 398 157 287 347 538 331 397 523 332 398 538 331 397 492 77 103 179 78 105 523 332 398 492 77 103 539 333 399 523 332 398 179 78 105 493 85 115 539 333 399 179 78 105 501 290 351 157 287 347 523 332 398 539 333 399 501 290 351 523 332 398 158 289 350 501 290 351 539 333 399 524 334 400 158 289 350 539 333 399 524 334 400 539 333 399 493 85 115 180 86 116 524 334 400 493 85 115 540 335 401 524 334 400 180 86 116 494 91 123 540 335 401 180 86 116 502 292 353 158 289 350 524 334 400 540 335 401 502 292 353 524 334 400 159 291 352 502 292 353 540 335 401 525 336 402 159 291 352 540 335 401 525 336 402 540 335 401 494 91 123 181 92 124 525 336 402 494 91 123 541 337 403 525 336 402 181 92 124 495 99 132 541 337 403 181 92 124 503 294 355 159 291 352 525 336 402 541 337 403 503 294 355 525 336 402 160 293 354 503 294 355 541 337 403 526 338 404 160 293 354 541 337 403 526 338 404 541 337 403 495 99 132 182 100 133 526 338 404 495 99 132 542 339 406 526 338 405 182 100 140 496 105 141 542 339 406 182 100 140 504 296 357 160 293 358 526 338 405 542 339 406 504 296 357 526 338 405 161 295 356 504 296 357 542 339 406 527 340 407 161 295 356 542 339 406 527 340 407 542 339 406 496 105 141 183 106 143 527 340 407 496 105 141 543 341 408 527 340 407 183 106 143 497 113 153 543 341 408 183 106 143 505 298 360 161 295 356 527 340 407 543 341 408 505 298 360 527 340 407 162 297 359 505 298 360 543 341 408 528 342 409 162 297 359 543 341 408 528 342 409 543 341 408 497 113 153 184 2 3 528 342 409 497 113 153 544 343 410 528 342 409 184 2 3 482 3 4 544 343 410 184 2 3 506 300 362 162 297 359 528 342 409 544 343 410 506 300 362 528 342 409 163 299 361 506 300 362 544 343 410 529 344 411 163 299 361 544 343 410 529 344 411 544 343 410 482 3 4 185 5 6 529 344 411 482 3 4 545 345 412 529 344 411 185 5 6 483 15 18 545 345 412 185 5 6 507 302 364 163 299 361 529 344 411 545 345 412 507 302 364 529 344 411 164 301 363 507 302 364 545 345 412 514 314 413 164 301 363 545 345 412 514 314 413 545 345 412 483 15 18 170 16 19 514 314 413 483 15 18 205 348 416 204 347 415 559 346 414 558 349 417 205 348 416 559 346 414 206 350 420 205 348 419 558 349 418 557 351 421 206 350 420 558 349 418 207 352 422 206 350 420 557 351 421 556 353 423 207 352 422 557 351 421 208 354 424 207 352 422 556 353 423 555 355 425 208 354 424 556 353 423 209 356 426 208 354 424 555 355 425 554 357 427 209 356 426 555 355 425 210 358 430 209 356 429 554 357 428 553 359 431 210 358 430 554 357 428 211 360 432 210 358 430 553 359 431 552 361 433 211 360 432 553 359 431 212 362 434 211 360 432 552 361 433 551 363 435 212 362 434 552 361 433 213 364 436 212 362 434 551 363 435 550 365 437 213 364 436 551 363 435 214 366 440 213 364 439 550 365 438 549 367 441 214 366 440 550 365 438 215 368 442 214 366 440 549 367 441 548 369 443 215 368 442 549 367 441 216 370 444 215 368 442 548 369 443 547 371 445 216 370 444 548 369 443 217 372 446 216 370 444 547 371 445 546 373 447 217 372 446 547 371 445 202 374 450 217 372 449 546 373 448 561 375 451 202 374 450 546 373 448 203 376 452 202 374 450 561 375 451 560 377 453 203 376 452 561 375 451 204 347 415 203 376 452 560 377 453 559 346 414 204 347 415 560 377 453 40 380 456 37 379 455 567 378 454 566 381 457 40 380 456 567 378 454 43 382 458 40 380 456 566 381 457 565 383 459 43 382 458 566 381 457 46 384 460 43 382 458 565 383 459 564 385 461 46 384 460 565 383 459 49 386 464 46 384 463 564 385 462 563 387 465 49 386 464 564 385 462 4 388 466 49 386 464 563 387 465 562 389 467 4 388 466 563 387 465 7 390 468 4 388 466 562 389 467 577 391 469 7 390 468 562 389 467 10 392 470 7 390 468 577 391 469 576 393 471 10 392 470 577 391 469 13 394 474 10 392 473 576 393 472 575 395 475 13 394 474 576 393 472 16 396 476 13 394 474 575 395 475 574 397 477 16 396 476 575 395 475 19 398 478 16 396 476 574 397 477 573 399 479 19 398 478 574 397 477 22 400 480 19 398 478 573 399 479 572 401 481 22 400 480 573 399 479 25 402 484 22 400 483 572 401 482 571 403 485 25 402 484 572 401 482 28 404 486 25 402 484 571 403 485 570 405 487 28 404 486 571 403 485 31 406 488 28 404 486 570 405 487 569 407 489 31 406 488 570 405 487 34 408 490 31 406 488 569 407 489 568 409 491 34 408 490 569 407 489 37 379 455 34 408 493 568 409 492 567 378 454 37 379 455 568 409 492 4 388 466 7 390 468 219 410 494 218 411 495 4 388 466 219 410 494 7 390 468 10 392 470 220 412 496 219 410 494 7 390 468 220 412 496 10 392 473 13 394 474 221 413 497 220 412 498 10 392 473 221 413 497 13 394 474 16 396 476 222 414 499 221 413 497 13 394 474 222 414 499 16 396 476 19 398 478 223 415 500 222 414 499 16 396 476 223 415 500 19 398 478 22 400 480 224 416 501 223 415 500 19 398 478 224 416 501 22 400 483 25 402 484 225 417 502 224 416 503 22 400 483 225 417 502 25 402 484 28 404 486 226 418 504 225 417 502 25 402 484 226 418 504 28 404 486 31 406 488 227 419 505 226 418 504 28 404 486 227 419 505 31 406 488 34 408 490 228 420 506 227 419 505 31 406 488 228 420 506 34 408 493 37 379 455 229 421 507 228 420 508 34 408 493 229 421 507 37 379 455 40 380 456 230 422 509 229 421 507 37 379 455 230 422 509 40 380 456 43 382 458 231 423 510 230 422 509 40 380 456 231 423 510 43 382 458 46 384 460 232 424 511 231 423 510 43 382 458 232 424 511 46 384 463 49 386 464 233 425 512 232 424 513 46 384 463 233 425 512 49 386 464 4 388 466 218 411 495 233 425 512 49 386 464 218 411 495 218 411 495 219 410 494 235 426 514 234 427 515 218 411 495 235 426 514 219 410 494 220 412 496 236 428 516 235 426 514 219 410 494 236 428 516 220 412 498 221 413 497 237 429 517 236 428 518 220 412 498 237 429 517 221 413 497 222 414 499 238 430 519 237 429 517 221 413 497 238 430 519 222 414 499 223 415 500 239 431 520 238 430 519 222 414 499 239 431 520 223 415 500 224 416 501 240 432 521 239 431 520 223 415 500 240 432 521 224 416 503 225 417 502 241 433 522 240 432 523 224 416 503 241 433 522 225 417 502 226 418 504 242 434 524 241 433 522 225 417 502 242 434 524 226 418 504 227 419 505 243 435 525 242 434 524 226 418 504 243 435 525 227 419 505 228 420 506 244 436 526 243 435 525 227 419 505 244 436 526 228 420 508 229 421 507 245 437 527 244 436 528 228 420 508 245 437 527 229 421 507 230 422 509 246 438 529 245 437 527 229 421 507 246 438 529 230 422 509 231 423 510 247 439 530 246 438 529 230 422 509 247 439 530 231 423 510 232 424 511 248 440 531 247 439 530 231 423 510 248 440 531 232 424 513 233 425 512 249 441 532 248 440 533 232 424 513 249 441 532 233 425 512 218 411 495 234 427 515 249 441 532 233 425 512 234 427 515 234 427 515 235 426 514 412 442 534 411 443 535 234 427 515 412 442 534 235 426 514 236 428 516 413 444 536 412 442 534 235 426 514 413 444 536 236 428 518 237 429 517 414 445 537 413 444 538 236 428 518 414 445 537 237 429 517 238 430 519 415 446 539 414 445 537 237 429 517 415 446 539 238 430 519 239 431 520 416 447 540 415 446 539 238 430 519 416 447 540 239 431 520 240 432 521 417 448 541 416 447 540 239 431 520 417 448 541 240 432 523 241 433 522 418 449 542 417 448 543 240 432 523 418 449 542 241 433 522 242 434 524 419 450 544 418 449 542 241 433 522 419 450 544 242 434 524 243 435 525 420 451 545 419 450 544 242 434 524 420 451 545 243 435 525 244 436 526 421 452 546 420 451 545 243 435 525 421 452 546 244 436 528 245 437 527 422 453 547 421 452 548 244 436 528 422 453 547 245 437 527 246 438 529 423 454 549 422 453 547 245 437 527 423 454 549 246 438 529 247 439 530 424 455 550 423 454 549 246 438 529 424 455 550 247 439 530 248 440 531 425 456 551 424 455 550 247 439 530 425 456 551 248 440 533 249 441 532 410 457 552 425 456 553 248 440 533 410 457 552 249 441 532 234 427 515 411 443 535 410 457 552 249 441 532 411 443 535 250 460 556 251 459 555 428 458 554 427 461 557 250 460 556 428 458 554 251 459 555 252 463 559 429 462 558 428 458 554 251 459 555 429 462 558 252 463 562 253 465 561 430 464 560 429 462 563 252 463 562 430 464 560 253 465 561 254 467 565 431 466 564 430 464 560 253 465 561 431 466 564 254 467 565 255 469 567 432 468 566 431 466 564 254 467 565 432 468 566 255 469 567 256 471 569 433 470 568 432 468 566 255 469 567 433 470 568 256 471 572 257 473 571 434 472 570 433 470 573 256 471 572 434 472 570 257 473 571 258 475 575 435 474 574 434 472 570 257 473 571 435 474 574 258 475 575 259 477 577 436 476 576 435 474 574 258 475 575 436 476 576 259 477 577 260 479 579 437 478 578 436 476 576 259 477 577 437 478 578 260 479 582 261 481 581 438 480 580 437 478 583 260 479 582 438 480 580 261 481 581 262 483 585 439 482 584 438 480 580 261 481 581 439 482 584 262 483 585 263 485 587 440 484 586 439 482 584 262 483 585 440 484 586 263 485 587 264 487 589 441 486 588 440 484 586 263 485 587 441 486 588 264 487 592 265 489 591 426 488 590 441 486 593 264 487 592 426 488 590 265 489 591 250 460 556 427 461 557 426 488 590 265 489 591 427 461 557 266 11 596 267 11 595 283 11 594 282 11 597 266 11 596 283 11 594 267 11 595 268 11 599 284 11 598 283 11 594 267 11 595 284 11 598 268 11 599 269 11 601 285 11 600 284 11 598 268 11 599 285 11 600 269 11 601 270 11 603 286 11 602 285 11 600 269 11 601 286 11 602 270 11 603 271 11 605 287 11 604 286 11 602 270 11 603 287 11 604 271 11 605 272 11 607 288 11 606 287 11 604 271 11 605 288 11 606 272 11 607 273 11 609 289 11 608 288 11 606 272 11 607 289 11 608 273 11 609 274 11 611 290 11 610 289 11 608 273 11 609 290 11 610 274 11 611 275 11 613 291 11 612 290 11 610 274 11 611 291 11 612 275 11 613 276 11 615 292 11 614 291 11 612 275 11 613 292 11 614 276 11 615 277 11 617 293 11 616 292 11 614 276 11 615 293 11 616 277 11 617 278 11 619 294 11 618 293 11 616 277 11 617 294 11 618 278 11 619 279 11 621 295 11 620 294 11 618 278 11 619 295 11 620 279 11 621 280 11 623 296 11 622 295 11 620 279 11 621 296 11 622 280 11 623 281 11 625 297 11 624 296 11 622 280 11 623 297 11 624 281 11 625 266 11 596 282 11 597 297 11 624 281 11 625 282 11 597 282 491 628 283 490 627 354 490 626 353 491 629 282 491 628 354 490 626 283 490 627 284 492 631 355 492 630 354 490 626 283 490 627 355 492 630 284 492 634 285 493 633 356 493 632 355 492 635 284 492 634 356 493 632 285 493 633 286 494 637 357 494 636 356 493 632 285 493 633 357 494 636 286 494 637 287 495 639 358 495 638 357 494 636 286 494 637 358 495 638 287 495 639 288 496 641 359 496 640 358 495 638 287 495 639 359 496 640 288 496 644 289 497 643 360 497 642 359 496 645 288 496 644 360 497 642 289 497 643 290 498 647 361 498 646 360 497 642 289 497 643 361 498 646 290 498 647 291 499 649 346 499 648 361 498 646 290 498 647 346 499 648 291 499 649 292 500 651 347 500 650 346 499 648 291 499 649 347 500 650 292 500 654 293 501 653 348 501 652 347 500 655 292 500 654 348 501 652 293 501 653 294 502 657 349 502 656 348 501 652 293 501 653 349 502 656 294 502 657 295 503 659 350 503 658 349 502 656 294 502 657 350 503 658 295 503 659 296 504 661 351 504 660 350 503 658 295 503 659 351 504 660 296 504 664 297 505 663 352 505 662 351 504 665 296 504 664 352 505 662 297 505 663 282 491 628 353 491 629 352 505 662 297 505 663 353 491 629 298 11 668 299 11 667 315 11 666 314 11 669 298 11 668 315 11 666 299 11 667 300 11 671 316 11 670 315 11 666 299 11 667 316 11 670 300 11 671 301 11 673 317 11 672 316 11 670 300 11 671 317 11 672 301 11 673 302 11 675 318 11 674 317 11 672 301 11 673 318 11 674 302 11 675 303 11 677 319 11 676 318 11 674 302 11 675 319 11 676 303 11 677 304 11 679 320 11 678 319 11 676 303 11 677 320 11 678 304 11 679 305 11 681 321 11 680 320 11 678 304 11 679 321 11 680 305 11 681 306 11 683 322 11 682 321 11 680 305 11 681 322 11 682 306 11 683 307 11 685 323 11 684 322 11 682 306 11 683 323 11 684 307 11 685 308 11 687 324 11 686 323 11 684 307 11 685 324 11 686 308 11 687 309 11 689 325 11 688 324 11 686 308 11 687 325 11 688 309 11 689 310 11 691 326 11 690 325 11 688 309 11 689 326 11 690 310 11 691 311 11 693 327 11 692 326 11 690 310 11 691 327 11 692 311 11 693 312 11 695 328 11 694 327 11 692 311 11 693 328 11 694 312 11 695 313 11 697 329 11 696 328 11 694 312 11 695 329 11 696 313 11 697 298 11 668 314 11 669 329 11 696 313 11 697 314 11 669 314 506 700 315 499 699 331 499 698 330 506 701 314 506 700 331 499 698 315 499 699 316 500 703 332 500 702 331 499 698 315 499 699 332 500 702 316 500 706 317 507 705 333 507 704 332 500 707 316 500 706 333 507 704 317 507 705 318 508 709 334 508 708 333 507 704 317 507 705 334 508 708 318 508 709 319 503 711 335 503 710 334 508 708 318 508 709 335 503 710 319 503 711 320 504 713 336 504 712 335 503 710 319 503 711 336 504 712 320 504 716 321 509 715 337 509 714 336 504 717 320 504 716 337 509 714 321 509 715 322 510 719 338 510 718 337 509 714 321 509 715 338 510 718 322 510 719 323 490 721 339 490 720 338 510 718 322 510 719 339 490 720 323 490 721 324 492 723 340 492 722 339 490 720 323 490 721 340 492 722 324 492 726 325 511 725 341 511 724 340 492 727 324 492 726 341 511 724 325 511 725 326 512 729 342 512 728 341 511 724 325 511 725 342 512 728 326 512 729 327 495 731 343 495 730 342 512 728 326 512 729 343 495 730 327 495 731 328 496 733 344 496 732 343 495 730 327 495 731 344 496 732 328 496 736 329 513 735 345 513 734 344 496 737 328 496 736 345 513 734 329 513 735 314 506 700 330 506 701 345 513 734 329 513 735 330 506 701 394 500 740 409 514 739 378 514 738 379 500 741 394 500 740 378 514 738 395 515 744 394 500 743 379 500 742 380 515 745 395 515 744 379 500 742 396 516 746 395 515 744 380 515 745 381 516 747 396 516 746 380 515 745 397 517 748 396 516 746 381 516 747 382 517 749 397 517 748 381 516 747 398 504 750 397 517 748 382 517 749 383 504 751 398 504 750 382 517 749 399 518 754 398 504 753 383 504 752 384 518 755 399 518 754 383 504 752 400 519 756 399 518 754 384 518 755 385 519 757 400 519 756 384 518 755 401 520 758 400 519 756 385 519 757 386 520 759 401 520 758 385 519 757 402 492 760 401 520 758 386 520 759 387 492 761 402 492 760 386 520 759 403 521 764 402 492 763 387 492 762 388 521 765 403 521 764 387 492 762 404 522 766 403 521 764 388 521 765 389 522 767 404 522 766 388 521 765 405 523 768 404 522 766 389 522 767 390 523 769 405 523 768 389 522 767 406 496 770 405 523 768 390 523 769 391 496 771 406 496 770 390 523 769 407 524 774 406 496 773 391 496 772 392 524 775 407 524 774 391 496 772 408 525 776 407 524 774 392 524 775 393 525 777 408 525 776 392 524 775 409 514 739 408 525 776 393 525 777 378 514 738 409 514 739 393 525 777 309 526 780 308 500 779 362 500 778 363 526 781 309 526 780 362 500 778 310 527 782 309 526 780 363 526 781 364 527 783 310 527 782 363 526 781 311 528 784 310 527 782 364 527 783 365 528 785 311 528 784 364 527 783 312 504 786 311 528 784 365 528 785 366 504 787 312 504 786 365 528 785 313 529 790 312 504 789 366 504 788 367 529 791 313 529 790 366 504 788 298 530 792 313 529 790 367 529 791 368 530 793 298 530 792 367 529 791 299 531 794 298 530 792 368 530 793 369 531 795 299 531 794 368 530 793 300 492 796 299 531 794 369 531 795 370 492 797 300 492 796 369 531 795 301 532 800 300 492 799 370 492 798 371 532 801 301 532 800 370 492 798 302 533 802 301 532 800 371 532 801 372 533 803 302 533 802 371 532 801 303 534 804 302 533 802 372 533 803 373 534 805 303 534 804 372 533 803 304 496 806 303 534 804 373 534 805 374 496 807 304 496 806 373 534 805 305 535 810 304 496 809 374 496 808 375 535 811 305 535 810 374 496 808 306 536 812 305 535 810 375 535 811 376 536 813 306 536 812 375 535 811 307 537 814 306 536 812 376 536 813 377 537 815 307 537 814 376 536 813 308 500 816 307 537 814 377 537 815 362 500 817 308 500 816 377 537 815 362 0 820 377 0 819 409 0 818 394 0 821 362 0 820 409 0 818 346 11 824 347 11 823 379 11 822 378 11 825 346 11 824 379 11 822 363 0 826 362 0 820 394 0 821 395 0 827 363 0 826 394 0 821 347 11 823 348 11 829 380 11 828 379 11 822 347 11 823 380 11 828 364 0 830 363 0 826 395 0 827 396 0 831 364 0 830 395 0 827 348 11 829 349 11 833 381 11 832 380 11 828 348 11 829 381 11 832 365 0 834 364 0 830 396 0 831 397 0 835 365 0 834 396 0 831 349 11 833 350 11 837 382 11 836 381 11 832 349 11 833 382 11 836 366 0 838 365 0 834 397 0 835 398 0 839 366 0 838 397 0 835 350 11 837 351 11 841 383 11 840 382 11 836 350 11 837 383 11 840 367 0 842 366 0 838 398 0 839 399 0 843 367 0 842 398 0 839 351 11 841 352 11 845 384 11 844 383 11 840 351 11 841 384 11 844 368 0 846 367 0 842 399 0 843 400 0 847 368 0 846 399 0 843 352 11 845 353 11 849 385 11 848 384 11 844 352 11 845 385 11 848 369 0 850 368 0 846 400 0 847 401 0 851 369 0 850 400 0 847 353 11 849 354 11 853 386 11 852 385 11 848 353 11 849 386 11 852 370 0 854 369 0 850 401 0 851 402 0 855 370 0 854 401 0 851 354 11 853 355 11 857 387 11 856 386 11 852 354 11 853 387 11 856 371 0 858 370 0 854 402 0 855 403 0 859 371 0 858 402 0 855 355 11 857 356 11 861 388 11 860 387 11 856 355 11 857 388 11 860 372 0 862 371 0 858 403 0 859 404 0 863 372 0 862 403 0 859 356 11 861 357 11 865 389 11 864 388 11 860 356 11 861 389 11 864 373 0 866 372 0 862 404 0 863 405 0 867 373 0 866 404 0 863 357 11 865 358 11 869 390 11 868 389 11 864 357 11 865 390 11 868 374 0 870 373 0 866 405 0 867 406 0 871 374 0 870 405 0 867 358 11 869 359 11 873 391 11 872 390 11 868 358 11 869 391 11 872 375 0 874 374 0 870 406 0 871 407 0 875 375 0 874 406 0 871 359 11 873 360 11 877 392 11 876 391 11 872 359 11 873 392 11 876 376 0 878 375 0 874 407 0 875 408 0 879 376 0 878 407 0 875 360 11 877 361 11 881 393 11 880 392 11 876 360 11 877 393 11 880 377 0 819 376 0 878 408 0 879 409 0 818 377 0 819 408 0 879 361 11 881 346 11 824 378 11 825 393 11 880 361 11 881 378 11 825 250 460 556 265 489 591 410 457 552 411 443 535 250 460 556 410 457 552 251 459 555 250 460 556 411 443 535 412 442 534 251 459 555 411 443 535 252 463 559 251 459 555 412 442 534 413 444 536 252 463 559 412 442 534 253 465 561 252 463 562 413 444 538 414 445 537 253 465 561 413 444 538 254 467 565 253 465 561 414 445 537 415 446 539 254 467 565 414 445 537 255 469 567 254 467 565 415 446 539 416 447 540 255 469 567 415 446 539 256 471 569 255 469 567 416 447 540 417 448 541 256 471 569 416 447 540 257 473 571 256 471 572 417 448 543 418 449 542 257 473 571 417 448 543 258 475 575 257 473 571 418 449 542 419 450 544 258 475 575 418 449 542 259 477 577 258 475 575 419 450 544 420 451 545 259 477 577 419 450 544 260 479 579 259 477 577 420 451 545 421 452 546 260 479 579 420 451 545 261 481 581 260 479 582 421 452 548 422 453 547 261 481 581 421 452 548 262 483 585 261 481 581 422 453 547 423 454 549 262 483 585 422 453 547 263 485 587 262 483 585 423 454 549 424 455 550 263 485 587 423 454 549 264 487 589 263 485 587 424 455 550 425 456 551 264 487 589 424 455 550 265 489 591 264 487 592 425 456 553 410 457 552 265 489 591 425 456 553 266 539 883 281 538 882 426 488 590 427 461 557 266 539 883 426 488 590 267 540 884 266 539 883 427 461 557 428 458 554 267 540 884 427 461 557 268 541 885 267 540 884 428 458 554 429 462 558 268 541 885 428 458 554 269 542 887 268 541 886 429 462 563 430 464 560 269 542 887 429 462 563 270 543 888 269 542 887 430 464 560 431 466 564 270 543 888 430 464 560 271 544 889 270 543 888 431 466 564 432 468 566 271 544 889 431 466 564 272 545 890 271 544 889 432 468 566 433 470 568 272 545 890 432 468 566 273 546 892 272 545 891 433 470 573 434 472 570 273 546 892 433 470 573 274 547 893 273 546 892 434 472 570 435 474 574 274 547 893 434 472 570 275 548 894 274 547 893 435 474 574 436 476 576 275 548 894 435 474 574 276 549 895 275 548 894 436 476 576 437 478 578 276 549 895 436 476 576 277 550 897 276 549 896 437 478 583 438 480 580 277 550 897 437 478 583 278 551 898 277 550 897 438 480 580 439 482 584 278 551 898 438 480 580 279 552 899 278 551 898 439 482 584 440 484 586 279 552 899 439 482 584 280 553 900 279 552 899 440 484 586 441 486 588 280 553 900 440 484 586 281 538 882 280 553 901 441 486 593 426 488 590 281 538 882 441 486 593 198 66 88 199 74 97 546 373 447 547 371 445 198 66 88 546 373 447 197 60 80 198 66 88 547 371 445 548 369 443 197 60 80 547 371 445 196 52 71 197 60 80 548 369 443 549 367 441 196 52 71 548 369 443 195 46 70 196 52 71 549 367 441 550 365 438 195 46 70 549 367 441 194 38 50 195 46 59 550 365 437 551 363 435 194 38 50 550 365 437 193 32 42 194 38 50 551 363 435 552 361 433 193 32 42 551 363 435 192 24 33 193 32 42 552 361 433 553 359 431 192 24 33 552 361 433 191 18 32 192 24 33 553 359 431 554 357 428 191 18 32 553 359 431 190 9 10 191 18 21 554 357 427 555 355 425 190 9 10 554 357 427 189 8 9 190 9 10 555 355 425 556 353 423 189 8 9 555 355 425 188 108 147 189 8 9 556 353 423 557 351 421 188 108 147 556 353 423 187 102 146 188 108 147 557 351 421 558 349 418 187 102 146 557 351 421 186 94 126 187 102 135 558 349 417 559 346 414 186 94 126 558 349 417 201 88 118 186 94 126 559 346 414 560 377 453 201 88 118 559 346 414 200 80 109 201 88 118 560 377 453 561 375 451 200 80 109 560 377 453 199 74 108 200 80 109 561 375 451 546 373 448 199 74 108 561 375 451 206 350 420 207 352 422 562 389 467 563 387 465 206 350 420 562 389 467 205 348 419 206 350 420 563 387 465 564 385 462 205 348 419 563 387 465 204 347 415 205 348 416 564 385 461 565 383 459 204 347 415 564 385 461 203 376 452 204 347 415 565 383 459 566 381 457 203 376 452 565 383 459 202 374 450 203 376 452 566 381 457 567 378 454 202 374 450 566 381 457 217 372 449 202 374 450 567 378 454 568 409 492 217 372 449 567 378 454 216 370 444 217 372 446 568 409 491 569 407 489 216 370 444 568 409 491 215 368 442 216 370 444 569 407 489 570 405 487 215 368 442 569 407 489 214 366 440 215 368 442 570 405 487 571 403 485 214 366 440 570 405 487 213 364 439 214 366 440 571 403 485 572 401 482 213 364 439 571 403 485 212 362 434 213 364 436 572 401 481 573 399 479 212 362 434 572 401 481 211 360 432 212 362 434 573 399 479 574 397 477 211 360 432 573 399 479 210 358 430 211 360 432 574 397 477 575 395 475 210 358 430 574 397 477 209 356 429 210 358 430 575 395 475 576 393 472 209 356 429 575 395 475 208 354 424 209 356 426 576 393 471 577 391 469 208 354 424 576 393 471 207 352 422 208 354 424 577 391 469 562 389 467 207 352 422 577 391 469 47 276 903 2 279 902 578 124 166 579 125 167 47 276 903 578 124 166 44 273 904 47 276 903 579 125 167 580 126 168 44 273 904 579 125 167 41 270 906 44 273 905 580 126 169 581 127 170 41 270 906 580 126 169 38 267 907 41 270 906 581 127 170 582 128 171 38 267 907 581 127 170 35 264 908 38 267 907 582 128 171 583 129 172 35 264 908 582 128 171 32 261 909 35 264 908 583 129 172 584 114 173 32 261 909 583 129 172 29 258 911 32 261 910 584 114 154 585 115 155 29 258 911 584 114 154 26 255 912 29 258 911 585 115 155 586 116 156 26 255 912 585 115 155 23 252 913 26 255 912 586 116 156 587 117 157 23 252 913 586 116 156 20 249 914 23 252 913 587 117 157 588 118 158 20 249 914 587 117 157 17 246 916 20 249 915 588 118 159 589 119 160 17 246 916 588 118 159 14 243 917 17 246 916 589 119 160 590 120 161 14 243 917 589 119 160 11 240 918 14 243 917 590 120 161 591 121 162 11 240 918 590 120 161 8 237 919 11 240 918 591 121 162 592 122 163 8 237 919 591 121 162 5 234 921 8 237 920 592 122 164 593 123 165 5 234 921 592 122 164 2 279 902 5 234 921 593 123 165 578 124 166 2 279 902 593 123 165</p>
                </triangles>
            </mesh>
        </geometry>
    </library_geometries>
    <library_visual_scenes>
        <visual_scene id="ID6">
            <node id="ID7" name="Cylinder.1">
                <translate sid="translate">0 407.314 -0</translate>
                <rotate sid="rotateY">0 1 0 -0</rotate>
                <rotate sid="rotateX">1 0 0 0</rotate>
                <rotate sid="rotateZ">0 0 1 -0</rotate>
                <scale sid="scale">1 1 1</scale>
                <instance_geometry url="#ID8">
                    <bind_material>
                        <technique_common>
                            <instance_material symbol="Material1" target="#ID1">
                                <bind_vertex_input semantic="UVSET0" input_semantic="TEXCOORD" input_set="0"/>
                            </instance_material>
                        </technique_common>
                    </bind_material>
                </instance_geometry>
            </node>
        </visual_scene>
    </library_visual_scenes>
    <scene>
        <instance_visual_scene url="#ID6"/>
    </scene>
</COLLADA>
