v -0.075000 -0.096942 0.000000
v -0.075000 -0.096942 0.075000
v -0.074960 -0.099235 0.000000
v -0.074960 -0.099235 0.075000
v -0.073238 -0.100000 0.000000
v -0.073238 -0.100000 0.075000
v -0.033213 -0.100000 0.000000
v -0.033213 -0.100000 0.075000
v -0.031687 -0.099237 0.000000
v -0.031687 -0.099237 0.075000
v -0.030760 -0.096946 0.000000
v -0.030760 -0.096946 0.075000
v -0.025058 -0.069120 0.000000
v -0.025058 -0.069120 0.075000
v -0.024242 0.097371 0.000000
v -0.024242 0.097371 0.075000
v -0.024184 -0.067682 0.000000
v -0.024184 -0.067682 0.075000
v -0.023305 0.099344 0.000000
v -0.023305 0.099344 0.075000
v -0.022347 -0.067202 0.000000
v -0.022347 -0.067202 0.075000
v -0.021864 0.100000 0.000000
v -0.021864 0.100000 0.075000
v -0.014623 -0.022602 0.000000
v -0.014623 -0.022602 0.075000
v -0.014597 -0.020870 0.000000
v -0.014597 -0.020870 0.075000
v -0.013684 -0.023179 0.000000
v -0.013684 -0.023179 0.075000
v -0.000716 0.042431 0.000000
v -0.000716 0.042431 0.075000
v 0.000000 0.044062 0.000000
v 0.000000 0.044062 0.075000
v 0.000716 0.042431 0.000000
v 0.000716 0.042431 0.075000
v 0.013684 -0.023179 0.000000
v 0.013684 -0.023179 0.075000
v 0.014597 -0.020870 0.000000
v 0.014597 -0.020870 0.075000
v 0.014623 -0.022602 0.000000
v 0.014623 -0.022602 0.075000
v 0.021864 0.100000 0.000000
v 0.021864 0.100000 0.075000
v 0.022347 -0.067202 0.000000
v 0.022347 -0.067202 0.075000
v 0.023305 0.099344 0.000000
v 0.023305 0.099344 0.075000
v 0.024184 -0.067682 0.000000
v 0.024184 -0.067682 0.075000
v 0.024242 0.097371 0.000000
v 0.024242 0.097371 0.075000
v 0.025058 -0.069120 0.000000
v 0.025058 -0.069120 0.075000
v 0.030760 -0.096946 0.000000
v 0.030760 -0.096946 0.075000
v 0.031687 -0.099237 0.000000
v 0.031687 -0.099237 0.075000
v 0.033213 -0.100000 0.000000
v 0.033213 -0.100000 0.075000
v 0.073238 -0.100000 0.000000
v 0.073238 -0.100000 0.075000
v 0.074960 -0.099235 0.000000
v 0.074960 -0.099235 0.075000
v 0.075000 -0.096942 0.000000
v 0.075000 -0.096942 0.075000
f 65 63 61
f 5 3 1
f 65 61 59
f 7 5 1
f 59 57 55
f 65 59 55
f 65 55 53
f 41 65 53
f 41 53 49
f 41 49 45
f 37 41 45
f 29 37 45
f 29 45 21
f 25 29 21
f 25 21 17
f 11 9 7
f 11 7 1
f 13 11 1
f 43 47 51
f 23 43 51
f 15 19 23
f 15 23 51
f 65 41 39
f 13 1 15
f 17 13 15
f 51 65 39
f 51 39 35
f 51 35 33
f 15 51 33
f 15 33 31
f 15 31 27
f 17 15 27
f 25 17 27
f 62 64 66
f 2 4 6
f 60 62 66
f 2 6 8
f 56 58 60
f 56 60 66
f 54 56 66
f 54 66 42
f 50 54 42
f 46 50 42
f 46 42 38
f 46 38 30
f 22 46 30
f 22 30 26
f 18 22 26
f 8 10 12
f 2 8 12
f 2 12 14
f 52 48 44
f 52 44 24
f 24 20 16
f 52 24 16
f 40 42 66
f 16 2 14
f 16 14 18
f 40 66 52
f 36 40 52
f 34 36 52
f 34 52 16
f 32 34 16
f 28 32 16
f 28 16 18
f 28 18 26
f 8 6 7
f 7 6 5
f 10 8 9
f 9 8 7
f 12 10 11
f 11 10 9
f 14 12 13
f 13 12 11
f 18 14 17
f 17 14 13
f 22 18 21
f 21 18 17
f 46 22 45
f 45 22 21
f 50 46 49
f 49 46 45
f 54 50 53
f 53 50 49
f 56 54 55
f 55 54 53
f 58 56 57
f 57 56 55
f 60 58 59
f 59 58 57
f 62 60 61
f 61 60 59
f 64 62 63
f 63 62 61
f 66 64 65
f 65 64 63
f 52 66 51
f 51 66 65
f 48 52 47
f 47 52 51
f 44 48 43
f 43 48 47
f 24 44 23
f 23 44 43
f 20 24 19
f 19 24 23
f 16 20 15
f 15 20 19
f 2 16 1
f 1 16 15
f 6 4 5
f 5 4 3
f 4 2 3
f 3 2 1
f 26 30 25
f 25 30 29
f 28 26 27
f 27 26 25
f 32 28 31
f 31 28 27
f 34 32 33
f 33 32 31
f 36 34 35
f 35 34 33
f 40 36 39
f 39 36 35
f 42 40 41
f 41 40 39
f 30 38 29
f 29 38 37
f 38 42 37
f 37 42 41
