v -0.075000 -0.001765 0.000000
v -0.075000 -0.001765 0.075000
v -0.074871 0.007540 0.000000
v -0.074871 0.007540 0.075000
v -0.074738 -0.011190 0.000000
v -0.074738 -0.011190 0.075000
v -0.074354 0.016553 0.000000
v -0.074354 0.016553 0.075000
v -0.074041 -0.020369 0.000000
v -0.074041 -0.020369 0.075000
v -0.073455 0.025105 0.000000
v -0.073455 0.025105 0.075000
v -0.072862 -0.028936 0.000000
v -0.072862 -0.028936 0.075000
v -0.072126 0.033307 0.000000
v -0.072126 0.033307 0.075000
v -0.071216 -0.036922 0.000000
v -0.071216 -0.036922 0.075000
v -0.070321 0.041276 0.000000
v -0.070321 0.041276 0.075000
v -0.069116 -0.044361 0.000000
v -0.069116 -0.044361 0.075000
v -0.068018 0.048847 0.000000
v -0.068018 0.048847 0.075000
v -0.066565 -0.051357 0.000000
v -0.066565 -0.051357 0.075000
v -0.065205 0.055854 0.000000
v -0.065205 0.055854 0.075000
v -0.063570 -0.058012 0.000000
v -0.063570 -0.058012 0.075000
v -0.061808 0.062511 0.000000
v -0.061808 0.062511 0.075000
v -0.060286 -0.064204 0.000000
v -0.060286 -0.064204 0.075000
v -0.057752 0.069027 0.000000
v -0.057752 0.069027 0.075000
v -0.056872 -0.069814 0.000000
v -0.056872 -0.069814 0.075000
v -0.053385 0.074905 0.000000
v -0.053385 0.074905 0.075000
v -0.053225 -0.074971 0.000000
v -0.053225 -0.074971 0.075000
v -0.049249 -0.079800 0.000000
v -0.049249 -0.079800 0.075000
v -0.049044 0.079641 0.000000
v -0.049044 0.079641 0.075000
v -0.044891 -0.084221 0.000000
v -0.044891 -0.084221 0.075000
v -0.044652 0.083550 0.000000
v -0.044652 0.083550 0.075000
v -0.040128 0.086942 0.000000
v -0.040128 0.086942 0.075000
v -0.040097 -0.088155 0.000000
v -0.040097 -0.088155 0.075000
v -0.035431 0.089874 0.000000
v -0.035431 0.089874 0.075000
v -0.035046 -0.091462 0.000000
v -0.035046 -0.091462 0.075000
v -0.030516 0.092398 0.000000
v -0.030516 0.092398 0.075000
v -0.029920 -0.094000 0.000000
v -0.029920 -0.094000 0.075000
v -0.025423 0.094583 0.000000
v -0.025423 0.094583 0.075000
v -0.025235 0.003287 0.000000
v -0.025235 0.003287 0.075000
v -0.025211 -0.003425 0.000000
v -0.025211 -0.003425 0.075000
v -0.024999 -0.009843 0.000000
v -0.024999 -0.009843 0.075000
v -0.024934 0.010412 0.000000
v -0.024934 0.010412 0.075000
v -0.024874 -0.095899 0.000000
v -0.024874 -0.095899 0.075000
v -0.024557 -0.016074 0.000000
v -0.024557 -0.016074 0.075000
v -0.024163 0.018056 0.000000
v -0.024163 0.018056 0.075000
v -0.023844 -0.022229 0.000000
v -0.023844 -0.022229 0.075000
v -0.022880 0.025528 0.000000
v -0.022880 0.025528 0.075000
v -0.022723 -0.028249 0.000000
v -0.022723 -0.028249 0.075000
v -0.021058 -0.034070 0.000000
v -0.021058 -0.034070 0.075000
v -0.021040 0.032124 0.000000
v -0.021040 0.032124 0.075000
v -0.020194 0.096495 0.000000
v -0.020194 0.096495 0.075000
v -0.020073 -0.097287 0.000000
v -0.020073 -0.097287 0.075000
v -0.018971 -0.039237 0.000000
v -0.018971 -0.039237 0.075000
v -0.018600 0.037781 0.000000
v -0.018600 0.037781 0.075000
v -0.016585 -0.043289 0.000000
v -0.016585 -0.043289 0.075000
v -0.015513 0.042435 0.000000
v -0.015513 0.042435 0.075000
v -0.015363 -0.098309 0.000000
v -0.015363 -0.098309 0.075000
v -0.014729 0.098078 0.000000
v -0.014729 0.098078 0.075000
v -0.013770 -0.046483 0.000000
v -0.013770 -0.046483 0.075000
v -0.011973 0.046076 0.000000
v -0.011973 0.046076 0.075000
v -0.010590 -0.099113 0.000000
v -0.010590 -0.099113 0.075000
v -0.010396 -0.049078 0.000000
v -0.010396 -0.049078 0.075000
v -0.008926 0.099274 0.000000
v -0.008926 0.099274 0.075000
v -0.008171 0.048689 0.000000
v -0.008171 0.048689 0.075000
v -0.006425 -0.050992 0.000000
v -0.006425 -0.050992 0.075000
v -0.005373 -0.099678 0.000000
v -0.005373 -0.099678 0.075000
v -0.004166 0.050460 0.000000
v -0.004166 0.050460 0.075000
v -0.002751 0.099955 0.000000
v -0.002751 0.099955 0.075000
v -0.001820 -0.052146 0.000000
v -0.001820 -0.052146 0.075000
v -0.000011 0.051563 0.000000
v -0.000011 0.051563 0.075000
v 0.000665 -0.099981 0.000000
v 0.000665 -0.099981 0.075000
v 0.003000 -0.052569 0.000000
v 0.003000 -0.052569 0.075000
v 0.003826 0.100000 0.000000
v 0.003826 0.100000 0.075000
v 0.004193 0.051963 0.000000
v 0.004193 0.051963 0.075000
v 0.006785 -0.100000 0.000000
v 0.006785 -0.100000 0.075000
v 0.007614 -0.052293 0.000000
v 0.007614 -0.052293 0.075000
v 0.008354 0.051627 0.000000
v 0.008354 0.051627 0.075000
v 0.010835 0.099483 0.000000
v 0.010835 0.099483 0.075000
v 0.011890 -0.051287 0.000000
v 0.011890 -0.051287 0.075000
v 0.012247 -0.099709 0.000000
v 0.012247 -0.099709 0.075000
v 0.012374 0.050612 0.000000
v 0.012374 0.050612 0.075000
v 0.015693 -0.049524 0.000000
v 0.015693 -0.049524 0.075000
v 0.016158 0.048973 0.000000
v 0.016158 0.048973 0.075000
v 0.017352 -0.099107 0.000000
v 0.017352 -0.099107 0.075000
v 0.018305 0.098482 0.000000
v 0.018305 0.098482 0.075000
v 0.019008 -0.046967 0.000000
v 0.019008 -0.046967 0.075000
v 0.019573 0.046701 0.000000
v 0.019573 0.046701 0.075000
v 0.021823 -0.043581 0.000000
v 0.021823 -0.043581 0.075000
v 0.022405 -0.098194 0.000000
v 0.022405 -0.098194 0.075000
v 0.022486 0.043783 0.000000
v 0.022486 0.043783 0.075000
v 0.024279 -0.039274 0.000000
v 0.024279 -0.039274 0.075000
v 0.024911 0.040264 0.000000
v 0.024911 0.040264 0.075000
v 0.025940 0.096786 0.000000
v 0.025940 0.096786 0.075000
v 0.026519 -0.033957 0.000000
v 0.026519 -0.033957 0.075000
v 0.026858 0.036192 0.000000
v 0.026858 0.036192 0.075000
v 0.027345 -0.096996 0.000000
v 0.027345 -0.096996 0.075000
v 0.028272 0.032357 0.000000
v 0.028272 0.032357 0.075000
v 0.028372 -0.028449 0.000000
v 0.028372 -0.028449 0.075000
v 0.029095 0.029548 0.000000
v 0.029095 0.029548 0.075000
v 0.029663 -0.023569 0.000000
v 0.029663 -0.023569 0.075000
v 0.029733 0.026773 0.000000
v 0.029733 0.026773 0.075000
v 0.029988 0.026289 0.000000
v 0.029988 0.026289 0.075000
v 0.030531 0.025788 0.000000
v 0.030531 0.025788 0.075000
v 0.030864 -0.018159 0.000000
v 0.030864 -0.018159 0.075000
v 0.031174 -0.017408 0.000000
v 0.031174 -0.017408 0.075000
v 0.031208 0.025452 0.000000
v 0.031208 0.025452 0.075000
v 0.031727 -0.016847 0.000000
v 0.031727 -0.016847 0.075000
v 0.031856 0.025462 0.000000
v 0.031856 0.025462 0.075000
v 0.032120 -0.095540 0.000000
v 0.032120 -0.095540 0.075000
v 0.032402 -0.016563 0.000000
v 0.032402 -0.016563 0.075000
v 0.033078 -0.016637 0.000000
v 0.033078 -0.016637 0.075000
v 0.033452 0.094192 0.000000
v 0.033452 0.094192 0.075000
v 0.036818 -0.093666 0.000000
v 0.036818 -0.093666 0.075000
v 0.040570 0.090718 0.000000
v 0.040570 0.090718 0.075000
v 0.041531 -0.091216 0.000000
v 0.041531 -0.091216 0.075000
v 0.046073 -0.088101 0.000000
v 0.046073 -0.088101 0.075000
v 0.047021 0.086379 0.000000
v 0.047021 0.086379 0.075000
v 0.050252 -0.084231 0.000000
v 0.050252 -0.084231 0.075000
v 0.052710 0.081371 0.000000
v 0.052710 0.081371 0.075000
v 0.054093 -0.079946 0.000000
v 0.054093 -0.079946 0.075000
v 0.057532 0.075891 0.000000
v 0.057532 0.075891 0.075000
v 0.057619 -0.075586 0.000000
v 0.057619 -0.075586 0.075000
v 0.060816 -0.071019 0.000000
v 0.060816 -0.071019 0.075000
v 0.061528 0.070142 0.000000
v 0.061528 0.070142 0.075000
v 0.063671 -0.066115 0.000000
v 0.063671 -0.066115 0.075000
v 0.064733 0.064322 0.000000
v 0.064733 0.064322 0.075000
v 0.066313 -0.060664 0.000000
v 0.066313 -0.060664 0.075000
v 0.067361 0.058507 0.000000
v 0.067361 0.058507 0.075000
v 0.068874 -0.054468 0.000000
v 0.068874 -0.054468 0.075000
v 0.069625 0.052765 0.000000
v 0.069625 0.052765 0.075000
v 0.071159 -0.048072 0.000000
v 0.071159 -0.048072 0.075000
v 0.071396 0.047643 0.000000
v 0.071396 0.047643 0.075000
v 0.072108 0.037016 0.000000
v 0.072108 0.037016 0.075000
v 0.072552 0.043682 0.000000
v 0.072552 0.043682 0.075000
v 0.072871 0.037412 0.000000
v 0.072871 0.037412 0.075000
v 0.072982 -0.042025 0.000000
v 0.072982 -0.042025 0.075000
v 0.073374 0.038085 0.000000
v 0.073374 0.038085 0.075000
v 0.073572 0.039598 0.000000
v 0.073572 0.039598 0.075000
v 0.073610 0.038870 0.000000
v 0.073610 0.038870 0.075000
v 0.073873 -0.032050 0.000000
v 0.073873 -0.032050 0.075000
v 0.074401 -0.032429 0.000000
v 0.074401 -0.032429 0.075000
v 0.074812 -0.033124 0.000000
v 0.074812 -0.033124 0.075000
v 0.074866 -0.035066 0.000000
v 0.074866 -0.035066 0.075000
v 0.075000 -0.034035 0.000000
v 0.075000 -0.034035 0.075000
f 201 207 209
f 197 201 209
f 195 197 209
f 195 209 267
f 187 195 267
f 183 187 267
f 175 183 267
f 169 175 267
f 163 169 267
f 163 267 269
f 163 269 271
f 163 271 275
f 163 275 273
f 163 273 259
f 163 259 249
f 163 249 245
f 163 245 241
f 163 241 237
f 163 237 233
f 163 233 231
f 159 163 231
f 159 231 227
f 159 227 223
f 151 159 223
f 151 223 219
f 151 219 217
f 151 217 213
f 151 213 205
f 145 151 205
f 145 205 179
f 145 179 165
f 145 165 155
f 139 145 155
f 139 155 147
f 139 147 137
f 131 139 137
f 131 137 129
f 131 129 119
f 125 131 119
f 125 119 109
f 125 109 101
f 117 125 101
f 117 101 91
f 117 91 73
f 117 73 61
f 111 117 61
f 111 61 57
f 111 57 53
f 105 111 53
f 105 53 47
f 105 47 43
f 105 43 41
f 97 105 41
f 97 41 37
f 97 37 33
f 93 97 33
f 93 33 29
f 85 93 29
f 85 29 25
f 85 25 21
f 83 85 21
f 83 21 17
f 79 83 17
f 79 17 13
f 79 13 9
f 75 79 9
f 69 75 9
f 69 9 5
f 67 69 5
f 67 5 1
f 65 67 1
f 65 1 3
f 71 65 3
f 71 3 7
f 77 71 7
f 77 7 11
f 77 11 15
f 81 77 15
f 81 15 19
f 87 81 19
f 87 19 23
f 87 23 27
f 95 87 27
f 95 27 31
f 95 31 35
f 99 95 35
f 99 35 39
f 99 39 45
f 107 99 45
f 107 45 49
f 107 49 51
f 107 51 55
f 115 107 55
f 115 55 59
f 115 59 63
f 121 115 63
f 121 63 89
f 121 89 103
f 127 121 103
f 127 103 113
f 127 113 123
f 135 127 123
f 135 123 133
f 135 133 143
f 141 135 143
f 141 143 157
f 141 157 173
f 149 141 173
f 149 173 211
f 153 149 211
f 153 211 215
f 153 215 221
f 161 153 221
f 161 221 225
f 161 225 229
f 167 161 229
f 167 229 235
f 167 235 239
f 171 167 239
f 171 239 243
f 177 171 243
f 177 243 247
f 177 247 251
f 181 177 251
f 185 181 251
f 185 251 255
f 185 255 263
f 185 263 265
f 185 265 261
f 185 261 257
f 185 257 253
f 189 185 253
f 191 189 253
f 193 191 253
f 199 193 253
f 199 253 203
f 210 208 202
f 210 202 198
f 210 198 196
f 268 210 196
f 268 196 188
f 268 188 184
f 268 184 176
f 268 176 170
f 268 170 164
f 270 268 164
f 272 270 164
f 276 272 164
f 274 276 164
f 260 274 164
f 250 260 164
f 246 250 164
f 242 246 164
f 238 242 164
f 234 238 164
f 232 234 164
f 232 164 160
f 228 232 160
f 224 228 160
f 224 160 152
f 220 224 152
f 218 220 152
f 214 218 152
f 206 214 152
f 206 152 146
f 180 206 146
f 166 180 146
f 156 166 146
f 156 146 140
f 148 156 140
f 138 148 140
f 138 140 132
f 130 138 132
f 120 130 132
f 120 132 126
f 110 120 126
f 102 110 126
f 102 126 118
f 92 102 118
f 74 92 118
f 62 74 118
f 62 118 112
f 58 62 112
f 54 58 112
f 54 112 106
f 48 54 106
f 44 48 106
f 42 44 106
f 42 106 98
f 38 42 98
f 34 38 98
f 34 98 94
f 30 34 94
f 30 94 86
f 26 30 86
f 22 26 86
f 22 86 84
f 18 22 84
f 18 84 80
f 14 18 80
f 10 14 80
f 10 80 76
f 10 76 70
f 6 10 70
f 6 70 68
f 2 6 68
f 2 68 66
f 4 2 66
f 4 66 72
f 8 4 72
f 8 72 78
f 12 8 78
f 16 12 78
f 16 78 82
f 20 16 82
f 20 82 88
f 24 20 88
f 28 24 88
f 28 88 96
f 32 28 96
f 36 32 96
f 36 96 100
f 40 36 100
f 46 40 100
f 46 100 108
f 50 46 108
f 52 50 108
f 56 52 108
f 56 108 116
f 60 56 116
f 64 60 116
f 64 116 122
f 90 64 122
f 104 90 122
f 104 122 128
f 114 104 128
f 124 114 128
f 124 128 136
f 134 124 136
f 144 134 136
f 144 136 142
f 158 144 142
f 174 158 142
f 174 142 150
f 212 174 150
f 212 150 154
f 216 212 154
f 222 216 154
f 222 154 162
f 226 222 162
f 230 226 162
f 230 162 168
f 236 230 168
f 240 236 168
f 240 168 172
f 244 240 172
f 244 172 178
f 248 244 178
f 252 248 178
f 252 178 182
f 252 182 186
f 256 252 186
f 264 256 186
f 266 264 186
f 262 266 186
f 258 262 186
f 254 258 186
f 254 186 190
f 254 190 192
f 254 192 194
f 254 194 200
f 204 254 200
f 148 138 147
f 147 138 137
f 156 148 155
f 155 148 147
f 166 156 165
f 165 156 155
f 180 166 179
f 179 166 165
f 206 180 205
f 205 180 179
f 214 206 213
f 213 206 205
f 218 214 217
f 217 214 213
f 220 218 219
f 219 218 217
f 224 220 223
f 223 220 219
f 228 224 227
f 227 224 223
f 232 228 231
f 231 228 227
f 234 232 233
f 233 232 231
f 238 234 237
f 237 234 233
f 242 238 241
f 241 238 237
f 246 242 245
f 245 242 241
f 250 246 249
f 249 246 245
f 260 250 259
f 259 250 249
f 274 260 273
f 273 260 259
f 276 274 275
f 275 274 273
f 272 276 271
f 271 276 275
f 270 272 269
f 269 272 271
f 268 270 267
f 267 270 269
f 210 268 209
f 209 268 267
f 208 210 207
f 207 210 209
f 202 208 201
f 201 208 207
f 198 202 197
f 197 202 201
f 196 198 195
f 195 198 197
f 188 196 187
f 187 196 195
f 184 188 183
f 183 188 187
f 176 184 175
f 175 184 183
f 170 176 169
f 169 176 175
f 164 170 163
f 163 170 169
f 160 164 159
f 159 164 163
f 152 160 151
f 151 160 159
f 146 152 145
f 145 152 151
f 140 146 139
f 139 146 145
f 132 140 131
f 131 140 139
f 126 132 125
f 125 132 131
f 118 126 117
f 117 126 125
f 112 118 111
f 111 118 117
f 106 112 105
f 105 112 111
f 98 106 97
f 97 106 105
f 94 98 93
f 93 98 97
f 86 94 85
f 85 94 93
f 84 86 83
f 83 86 85
f 80 84 79
f 79 84 83
f 76 80 75
f 75 80 79
f 70 76 69
f 69 76 75
f 68 70 67
f 67 70 69
f 66 68 65
f 65 68 67
f 72 66 71
f 71 66 65
f 78 72 77
f 77 72 71
f 82 78 81
f 81 78 77
f 88 82 87
f 87 82 81
f 96 88 95
f 95 88 87
f 100 96 99
f 99 96 95
f 108 100 107
f 107 100 99
f 116 108 115
f 115 108 107
f 122 116 121
f 121 116 115
f 128 122 127
f 127 122 121
f 136 128 135
f 135 128 127
f 142 136 141
f 141 136 135
f 150 142 149
f 149 142 141
f 154 150 153
f 153 150 149
f 162 154 161
f 161 154 153
f 168 162 167
f 167 162 161
f 172 168 171
f 171 168 167
f 178 172 177
f 177 172 171
f 182 178 181
f 181 178 177
f 186 182 185
f 185 182 181
f 190 186 189
f 189 186 185
f 192 190 191
f 191 190 189
f 194 192 193
f 193 192 191
f 200 194 199
f 199 194 193
f 204 200 203
f 203 200 199
f 254 204 253
f 253 204 203
f 258 254 257
f 257 254 253
f 262 258 261
f 261 258 257
f 266 262 265
f 265 262 261
f 264 266 263
f 263 266 265
f 256 264 255
f 255 264 263
f 252 256 251
f 251 256 255
f 248 252 247
f 247 252 251
f 244 248 243
f 243 248 247
f 240 244 239
f 239 244 243
f 236 240 235
f 235 240 239
f 230 236 229
f 229 236 235
f 226 230 225
f 225 230 229
f 222 226 221
f 221 226 225
f 216 222 215
f 215 222 221
f 212 216 211
f 211 216 215
f 174 212 173
f 173 212 211
f 158 174 157
f 157 174 173
f 144 158 143
f 143 158 157
f 134 144 133
f 133 144 143
f 124 134 123
f 123 134 133
f 114 124 113
f 113 124 123
f 104 114 103
f 103 114 113
f 90 104 89
f 89 104 103
f 64 90 63
f 63 90 89
f 60 64 59
f 59 64 63
f 56 60 55
f 55 60 59
f 52 56 51
f 51 56 55
f 50 52 49
f 49 52 51
f 46 50 45
f 45 50 49
f 40 46 39
f 39 46 45
f 36 40 35
f 35 40 39
f 32 36 31
f 31 36 35
f 28 32 27
f 27 32 31
f 24 28 23
f 23 28 27
f 20 24 19
f 19 24 23
f 16 20 15
f 15 20 19
f 12 16 11
f 11 16 15
f 8 12 7
f 7 12 11
f 4 8 3
f 3 8 7
f 2 4 1
f 1 4 3
f 6 2 5
f 5 2 1
f 10 6 9
f 9 6 5
f 14 10 13
f 13 10 9
f 18 14 17
f 17 14 13
f 22 18 21
f 21 18 17
f 26 22 25
f 25 22 21
f 30 26 29
f 29 26 25
f 34 30 33
f 33 30 29
f 38 34 37
f 37 34 33
f 42 38 41
f 41 38 37
f 44 42 43
f 43 42 41
f 48 44 47
f 47 44 43
f 54 48 53
f 53 48 47
f 58 54 57
f 57 54 53
f 62 58 61
f 61 58 57
f 74 62 73
f 73 62 61
f 92 74 91
f 91 74 73
f 102 92 101
f 101 92 91
f 110 102 109
f 109 102 101
f 120 110 119
f 119 110 109
f 138 130 137
f 137 130 129
f 130 120 129
f 129 120 119
