# https://github.com/mikedh/trimesh

o 2_centered.ply
v -0.03338171 0.01636353 -0.01250000
v -0.01113593 0.01215503 -0.01250000
v -0.03338171 0.01636353 0.01250000
v -0.01113593 0.01215503 0.01250000
v 0.00023471 0.05076196 -0.01250000
v -0.00323079 0.05002905 -0.01250000
v 0.00023471 0.05076196 0.01250000
v -0.00323079 0.05002905 0.01250000
v -0.00665123 0.04924878 -0.01250000
v -0.00665123 0.04924878 0.01250000
v -0.00833046 0.04882642 -0.01250000
v -0.00833046 0.04882642 0.01250000
v -0.00998152 0.04837524 -0.01250000
v -0.00998152 0.04837524 0.01250000
v -0.01159878 0.04788843 -0.01250000
v -0.01159878 0.04788843 0.01250000
v -0.01317660 0.04736108 -0.01250000
v -0.01317660 0.04736108 0.01250000
v -0.01470935 0.04678687 -0.01250000
v -0.01470935 0.04678687 0.01250000
v -0.01619139 0.04615991 -0.01250000
v -0.01619139 0.04615991 0.01250000
v -0.01761710 0.04547437 -0.01250000
v -0.01761710 0.04547437 0.01250000
v -0.01898083 0.04472485 -0.01250000
v -0.01898083 0.04472485 0.01250000
v -0.02027695 0.04390454 -0.01250000
v -0.02027695 0.04390454 0.01250000
v -0.02149984 0.04300854 -0.01250000
v -0.02149984 0.04300854 0.01250000
v -0.02264385 0.04203101 -0.01250000
v -0.02264385 0.04203101 0.01250000
v -0.02370588 0.04096802 -0.01250000
v -0.02370588 0.04096802 0.01250000
v -0.02468965 0.03982349 -0.01250000
v -0.02468965 0.03982349 0.01250000
v -0.02560006 0.03860327 -0.01250000
v -0.02560006 0.03860327 0.01250000
v -0.02644201 0.03731177 -0.01250000
v -0.02644201 0.03731177 0.01250000
v -0.02722037 0.03595435 -0.01250000
v -0.02722037 0.03595435 0.01250000
v -0.02794004 0.03453589 -0.01250000
v -0.02794004 0.03453589 0.01250000
v -0.02860591 0.03306128 -0.01250000
v -0.02860591 0.03306128 0.01250000
v -0.02922288 0.03153638 -0.01250000
v -0.02922288 0.03153638 0.01250000
v -0.02979583 0.02996558 -0.01250000
v -0.02979583 0.02996558 0.01250000
v -0.03032965 0.02835425 -0.01250000
v -0.03032965 0.02835425 0.01250000
v -0.03082924 0.02670728 -0.01250000
v -0.03082924 0.02670728 0.01250000
v -0.03129949 0.02502954 -0.01250000
v -0.03129949 0.02502954 0.01250000
v -0.03174528 0.02332690 -0.01250000
v -0.03174528 0.02332690 0.01250000
v -0.03258306 0.01986548 -0.01250000
v -0.03258306 0.01986548 0.01250000
v 0.02384344 0.04207935 -0.01250000
v 0.02125473 0.04410425 -0.01250000
v 0.02384344 0.04207935 0.01250000
v 0.02125473 0.04410425 0.01250000
v 0.01994513 0.04507739 -0.01250000
v 0.01994513 0.04507739 0.01250000
v 0.01861724 0.04600317 -0.01250000
v 0.01861724 0.04600317 0.01250000
v 0.01726497 0.04686548 -0.01250000
v 0.01726497 0.04686548 0.01250000
v 0.01588220 0.04764868 -0.01250000
v 0.01588220 0.04764868 0.01250000
v 0.01446285 0.04833716 -0.01250000
v 0.01446285 0.04833716 0.01250000
v 0.01300120 0.04891577 -0.01250000
v 0.01300120 0.04891577 0.01250000
v 0.01149755 0.04938599 -0.01250000
v 0.01149755 0.04938599 0.01250000
v 0.00995704 0.04976001 -0.01250000
v 0.00995704 0.04976001 0.01250000
v 0.00838493 0.05005200 -0.01250000
v 0.00838493 0.05005200 0.01250000
v 0.00678649 0.05027612 -0.01250000
v 0.00678649 0.05027612 0.01250000
v 0.00516698 0.05044556 -0.01250000
v 0.00516698 0.05044556 0.01250000
v 0.00353167 0.05057397 -0.01250000
v 0.00353167 0.05057397 0.01250000
v 0.03200290 0.02099634 -0.01250000
v 0.03174600 0.02392896 -0.01250000
v 0.03200290 0.02099634 0.01250000
v 0.03174600 0.02392896 0.01250000
v 0.03158734 0.02538354 -0.01250000
v 0.03158734 0.02538354 0.01250000
v 0.03139242 0.02682397 -0.01250000
v 0.03139242 0.02682397 0.01250000
v 0.03114916 0.02824536 -0.01250000
v 0.03114916 0.02824536 0.01250000
v 0.03084548 0.02964331 -0.01250000
v 0.03084548 0.02964331 0.01250000
v 0.03046928 0.03101343 -0.01250000
v 0.03046928 0.03101343 0.01250000
v 0.03000849 0.03234985 -0.01250000
v 0.03000849 0.03234985 0.01250000
v 0.02945410 0.03365063 -0.01250000
v 0.02945410 0.03365063 0.01250000
v 0.02881322 0.03491724 -0.01250000
v 0.02881322 0.03491724 0.01250000
v 0.02809819 0.03615503 -0.01250000
v 0.02809819 0.03615503 0.01250000
v 0.02732138 0.03736890 -0.01250000
v 0.02732138 0.03736890 0.01250000
v 0.02649514 0.03856323 -0.01250000
v 0.02649514 0.03856323 0.01250000
v 0.02563183 0.03974341 -0.01250000
v 0.02563183 0.03974341 0.01250000
v 0.02323170 -0.00369946 -0.01250000
v 0.02505504 -0.00086499 -0.01250000
v 0.02323170 -0.00369946 0.01250000
v 0.02505504 -0.00086499 0.01250000
v 0.02593852 0.00056226 -0.01250000
v 0.02593852 0.00056226 0.01250000
v 0.02678817 0.00200122 -0.01250000
v 0.02678817 0.00200122 0.01250000
v 0.02759271 0.00345532 -0.01250000
v 0.02759271 0.00345532 0.01250000
v 0.02834088 0.00492944 -0.01250000
v 0.02834088 0.00492944 0.01250000
v 0.02902138 0.00642700 -0.01250000
v 0.02902138 0.00642700 0.01250000
v 0.02962296 0.00795190 -0.01250000
v 0.02962296 0.00795190 0.01250000
v 0.03013543 0.00950757 -0.01250000
v 0.03013543 0.00950757 0.01250000
v 0.03056201 0.01109351 -0.01250000
v 0.03056201 0.01109351 0.01250000
v 0.03091484 0.01270483 -0.01250000
v 0.03091484 0.01270483 0.01250000
v 0.03120621 0.01433765 -0.01250000
v 0.03120621 0.01433765 0.01250000
v 0.03144840 0.01598706 -0.01250000
v 0.03144840 0.01598706 0.01250000
v 0.03165372 0.01764966 -0.01250000
v 0.03165372 0.01764966 0.01250000
v -0.00863117 -0.02884595 -0.01250000
v -0.00419681 -0.02625806 -0.01250000
v -0.00863117 -0.02884595 0.01250000
v -0.00419681 -0.02625806 0.01250000
v 0.00018475 -0.02360474 -0.01250000
v 0.00018475 -0.02360474 0.01250000
v 0.00233924 -0.02223364 -0.01250000
v 0.00233924 -0.02223364 0.01250000
v 0.00446074 -0.02082202 -0.01250000
v 0.00446074 -0.02082202 0.01250000
v 0.00654264 -0.01936157 -0.01250000
v 0.00654264 -0.01936157 0.01250000
v 0.00857835 -0.01784399 -0.01250000
v 0.00857835 -0.01784399 0.01250000
v 0.01056127 -0.01626196 -0.01250000
v 0.01056127 -0.01626196 0.01250000
v 0.01248631 -0.01460864 -0.01250000
v 0.01248631 -0.01460864 0.01250000
v 0.01435829 -0.01289038 -0.01250000
v 0.01435829 -0.01289038 0.01250000
v 0.01618604 -0.01111743 -0.01250000
v 0.01618604 -0.01111743 0.01250000
v 0.01797841 -0.00930103 -0.01250000
v 0.01797841 -0.00930103 0.01250000
v 0.01974425 -0.00745190 -0.01250000
v 0.01974425 -0.00745190 0.01250000
v 0.03338171 -0.02884595 -0.01250000
v 0.03338171 -0.02884595 0.01250000
v 0.03168314 -0.05076196 -0.01250000
v 0.03168314 -0.05076196 0.01250000
v -0.03338171 -0.05076196 -0.01250000
v -0.03338171 -0.05076196 0.01250000
v -0.03338171 -0.02963647 -0.01250000
v -0.03338171 -0.02963647 0.01250000
v 0.00009071 0.00268481 -0.01250000
v -0.00377377 -0.00167749 -0.01250000
v 0.00009071 0.00268481 0.01250000
v -0.00377377 -0.00167749 0.01250000
v -0.00768941 -0.00598853 -0.01250000
v -0.00768941 -0.00598853 0.01250000
v -0.00968239 -0.00810864 -0.01250000
v -0.00968239 -0.00810864 0.01250000
v -0.01170735 -0.01019653 -0.01250000
v -0.01170735 -0.01019653 0.01250000
v -0.01376841 -0.01224780 -0.01250000
v -0.01376841 -0.01224780 0.01250000
v -0.01586306 -0.01426538 -0.01250000
v -0.01586306 -0.01426538 0.01250000
v -0.01798757 -0.01625269 -0.01250000
v -0.01798757 -0.01625269 0.01250000
v -0.02013821 -0.01821362 -0.01250000
v -0.02013821 -0.01821362 0.01250000
v -0.02450295 -0.02207153 -0.01250000
v -0.02450295 -0.02207153 0.01250000
v -0.02892740 -0.02586890 -0.01250000
v -0.02892740 -0.02586890 0.01250000
v 0.00653121 0.01986938 -0.01250000
v 0.00622954 0.01754028 -0.01250000
v 0.00653121 0.01986938 0.01250000
v 0.00622954 0.01754028 0.01250000
v 0.00585925 0.01523608 -0.01250000
v 0.00585925 0.01523608 0.01250000
v 0.00562694 0.01410083 -0.01250000
v 0.00562694 0.01410083 0.01250000
v 0.00535173 0.01298120 -0.01250000
v 0.00535173 0.01298120 0.01250000
v 0.00502505 0.01188013 -0.01250000
v 0.00502505 0.01188013 0.01250000
v 0.00463929 0.01080005 -0.01250000
v 0.00463929 0.01080005 0.01250000
v 0.00419622 0.00974048 -0.01250000
v 0.00419622 0.00974048 0.01250000
v 0.00370294 0.00869897 -0.01250000
v 0.00370294 0.00869897 0.01250000
v 0.00316664 0.00767310 -0.01250000
v 0.00316664 0.00767310 0.01250000
v 0.00259448 0.00665991 -0.01250000
v 0.00259448 0.00665991 0.01250000
v 0.00137129 0.00466235 -0.01250000
v 0.00137129 0.00466235 0.01250000
v -0.00111234 0.03051538 0.01250000
v -0.00111234 0.03051538 -0.01250000
v 0.00077937 0.02994995 0.00000000
v 0.00077937 0.02994995 -0.01250000
v 0.00168399 0.02963403 -0.01250000
v 0.00168399 0.02963403 0.00000000
v 0.00253913 0.02927710 -0.01250000
v 0.00253913 0.02927710 0.00000000
v 0.00332827 0.02886646 -0.01250000
v 0.00332827 0.02886646 0.00000000
v 0.00403494 0.02838843 -0.01250000
v 0.00403494 0.02838843 0.00000000
v 0.00435219 0.02811987 -0.01250000
v 0.00435219 0.02811987 0.00000000
v 0.00464264 0.02782935 -0.01250000
v 0.00464264 0.02782935 0.00000000
v 0.00490498 0.02751587 -0.01250000
v 0.00490498 0.02751587 0.00000000
v 0.00514034 0.02718042 -0.01250000
v 0.00514034 0.02718042 0.00000000
v 0.00553644 0.02644800 -0.01250000
v 0.00553644 0.02644800 0.00000000
v 0.00584365 0.02564331 -0.01250000
v 0.00584365 0.02564331 0.00000000
v 0.00607465 0.02477612 -0.01250000
v 0.00607465 0.02477612 0.00000000
v 0.00624216 0.02385718 -0.01250000
v 0.00624216 0.02385718 0.00000000
v 0.00635887 0.02289624 -0.01250000
v 0.00635887 0.02289624 0.00000000
v 0.00643748 0.02190454 -0.01250000
v 0.00643748 0.02190454 0.00000000
v 0.00643748 0.02190454 0.01250000
v 0.00635887 0.02289624 0.01250000
v 0.00624216 0.02385718 0.01250000
v 0.00607465 0.02477612 0.01250000
v 0.00584365 0.02564331 0.01250000
v 0.00553644 0.02644800 0.01250000
v 0.00514034 0.02718042 0.01250000
v 0.00490498 0.02751587 0.01250000
v 0.00464264 0.02782935 0.01250000
v 0.00435219 0.02811987 0.01250000
v 0.00403494 0.02838843 0.01250000
v 0.00332827 0.02886646 0.01250000
v 0.00253913 0.02927710 0.01250000
v 0.00168399 0.02963403 0.01250000
v 0.00077937 0.02994995 0.01250000
v -0.00790605 0.02626782 0.01250000
v -0.00790605 0.02626782 -0.01250000
v -0.00728825 0.02717310 0.00000000
v -0.00728825 0.02717310 -0.01250000
v -0.00664125 0.02803149 -0.01250000
v -0.00664125 0.02803149 0.00000000
v -0.00629767 0.02842798 -0.01250000
v -0.00629767 0.02842798 0.00000000
v -0.00593585 0.02879517 -0.01250000
v -0.00593585 0.02879517 0.00000000
v -0.00555211 0.02912671 -0.01250000
v -0.00555211 0.02912671 0.00000000
v -0.00514283 0.02941675 -0.01250000
v -0.00514283 0.02941675 0.00000000
v -0.00470514 0.02966089 -0.01250000
v -0.00470514 0.02966089 0.00000000
v -0.00424100 0.02986255 -0.01250000
v -0.00424100 0.02986255 0.00000000
v -0.00375419 0.03002759 -0.01250000
v -0.00375419 0.03002759 0.00000000
v -0.00324850 0.03016187 -0.01250000
v -0.00324850 0.03016187 0.00000000
v -0.00219553 0.03036304 -0.01250000
v -0.00219553 0.03036304 0.00000000
v -0.00219553 0.03036304 0.01250000
v -0.00324850 0.03016187 0.01250000
v -0.00375419 0.03002759 0.01250000
v -0.00424100 0.02986255 0.01250000
v -0.00470514 0.02966089 0.01250000
v -0.00514283 0.02941675 0.01250000
v -0.00555211 0.02912671 0.01250000
v -0.00593585 0.02879517 0.01250000
v -0.00629767 0.02842798 0.01250000
v -0.00664125 0.02803149 0.01250000
v -0.00728825 0.02717310 0.01250000
v -0.01073501 0.01578345 -0.01250000
v -0.01073501 0.01578345 0.01250000
v -0.01047256 0.01758179 -0.01250000
v -0.01047256 0.01758179 0.01250000
v -0.01013573 0.01936255 -0.01250000
v -0.01013573 0.01936255 0.01250000
v -0.00969995 0.02111890 -0.01250000
v -0.00969995 0.02111890 0.01250000
v -0.00916120 0.02284937 -0.01250000
v -0.00916120 0.02284937 0.01250000
v -0.00855139 0.02456323 -0.01250000
v -0.00855139 0.02456323 0.01250000
f 1 2 3
f 3 2 4
f 5 6 7
f 7 6 8
f 8 6 9
f 8 9 10
f 10 9 11
f 10 11 12
f 12 11 13
f 12 13 14
f 14 13 15
f 14 15 16
f 16 15 17
f 16 17 18
f 18 17 19
f 18 19 20
f 20 19 21
f 20 21 22
f 22 21 23
f 22 23 24
f 24 23 25
f 24 25 26
f 26 25 27
f 26 27 28
f 28 27 29
f 28 29 30
f 30 29 31
f 30 31 32
f 32 31 33
f 32 33 34
f 34 33 35
f 34 35 36
f 36 35 37
f 36 37 38
f 38 37 39
f 38 39 40
f 40 39 41
f 40 41 42
f 42 41 43
f 42 43 44
f 44 43 45
f 44 45 46
f 46 45 47
f 46 47 48
f 48 47 49
f 48 49 50
f 50 49 51
f 50 51 52
f 52 51 53
f 52 53 54
f 54 53 55
f 54 55 56
f 56 55 57
f 56 57 58
f 58 57 59
f 58 59 60
f 60 59 1
f 60 1 3
f 61 62 63
f 63 62 64
f 64 62 65
f 64 65 66
f 66 65 67
f 66 67 68
f 68 67 69
f 68 69 70
f 70 69 71
f 70 71 72
f 72 71 73
f 72 73 74
f 74 73 75
f 74 75 76
f 76 75 77
f 76 77 78
f 78 77 79
f 78 79 80
f 80 79 81
f 80 81 82
f 82 81 83
f 82 83 84
f 84 83 85
f 84 85 86
f 86 85 87
f 86 87 88
f 88 87 5
f 88 5 7
f 89 90 91
f 91 90 92
f 92 90 93
f 92 93 94
f 94 93 95
f 94 95 96
f 96 95 97
f 96 97 98
f 98 97 99
f 98 99 100
f 100 99 101
f 100 101 102
f 102 101 103
f 102 103 104
f 104 103 105
f 104 105 106
f 106 105 107
f 106 107 108
f 108 107 109
f 108 109 110
f 110 109 111
f 110 111 112
f 112 111 113
f 112 113 114
f 114 113 115
f 114 115 116
f 116 115 61
f 116 61 63
f 117 118 119
f 119 118 120
f 120 118 121
f 120 121 122
f 122 121 123
f 122 123 124
f 124 123 125
f 124 125 126
f 126 125 127
f 126 127 128
f 128 127 129
f 128 129 130
f 130 129 131
f 130 131 132
f 132 131 133
f 132 133 134
f 134 133 135
f 134 135 136
f 136 135 137
f 136 137 138
f 138 137 139
f 138 139 140
f 140 139 141
f 140 141 142
f 142 141 143
f 142 143 144
f 144 143 89
f 144 89 91
f 145 146 147
f 147 146 148
f 148 146 149
f 148 149 150
f 150 149 151
f 150 151 152
f 152 151 153
f 152 153 154
f 154 153 155
f 154 155 156
f 156 155 157
f 156 157 158
f 158 157 159
f 158 159 160
f 160 159 161
f 160 161 162
f 162 161 163
f 162 163 164
f 164 163 165
f 164 165 166
f 166 165 167
f 166 167 168
f 168 167 169
f 168 169 170
f 170 169 117
f 170 117 119
f 171 145 172
f 172 145 147
f 173 171 174
f 174 171 172
f 175 173 176
f 176 173 174
f 177 175 178
f 178 175 176
f 179 180 181
f 181 180 182
f 182 180 183
f 182 183 184
f 184 183 185
f 184 185 186
f 186 185 187
f 186 187 188
f 188 187 189
f 188 189 190
f 190 189 191
f 190 191 192
f 192 191 193
f 192 193 194
f 194 193 195
f 194 195 196
f 196 195 197
f 196 197 198
f 198 197 199
f 198 199 200
f 200 199 177
f 200 177 178
f 201 202 203
f 203 202 204
f 204 202 205
f 204 205 206
f 206 205 207
f 206 207 208
f 208 207 209
f 208 209 210
f 210 209 211
f 210 211 212
f 212 211 213
f 212 213 214
f 214 213 215
f 214 215 216
f 216 215 217
f 216 217 218
f 218 217 219
f 218 219 220
f 220 219 221
f 220 221 222
f 222 221 223
f 222 223 224
f 224 223 179
f 224 179 181
f 225 226 227
f 227 226 228
f 227 228 229
f 227 229 230
f 230 229 231
f 230 231 232
f 232 231 233
f 232 233 234
f 234 233 235
f 234 235 236
f 236 235 237
f 236 237 238
f 238 237 239
f 238 239 240
f 240 239 241
f 240 241 242
f 242 241 243
f 242 243 244
f 244 243 245
f 244 245 246
f 246 245 247
f 246 247 248
f 248 247 249
f 248 249 250
f 250 249 251
f 250 251 252
f 252 251 253
f 252 253 254
f 254 253 255
f 254 255 256
f 256 255 201
f 256 201 203
f 203 257 256
f 256 257 258
f 256 258 254
f 254 258 259
f 254 259 252
f 252 259 260
f 252 260 250
f 250 260 261
f 250 261 248
f 248 261 262
f 248 262 246
f 246 262 263
f 246 263 244
f 244 263 264
f 244 264 242
f 242 264 265
f 242 265 240
f 240 265 266
f 240 266 238
f 238 266 267
f 238 267 236
f 236 267 268
f 236 268 234
f 234 268 269
f 234 269 232
f 232 269 270
f 232 270 230
f 230 270 271
f 230 271 227
f 227 271 225
f 272 273 274
f 274 273 275
f 274 275 276
f 274 276 277
f 277 276 278
f 277 278 279
f 279 278 280
f 279 280 281
f 281 280 282
f 281 282 283
f 283 282 284
f 283 284 285
f 285 284 286
f 285 286 287
f 287 286 288
f 287 288 289
f 289 288 290
f 289 290 291
f 291 290 292
f 291 292 293
f 293 292 294
f 293 294 295
f 295 294 226
f 295 226 225
f 225 296 295
f 295 296 297
f 295 297 293
f 293 297 298
f 293 298 291
f 291 298 299
f 291 299 289
f 289 299 300
f 289 300 287
f 287 300 301
f 287 301 285
f 285 301 302
f 285 302 283
f 283 302 303
f 283 303 281
f 281 303 304
f 281 304 279
f 279 304 305
f 279 305 277
f 277 305 306
f 277 306 274
f 274 306 272
f 2 307 4
f 4 307 308
f 308 307 309
f 308 309 310
f 310 309 311
f 310 311 312
f 312 311 313
f 312 313 314
f 314 313 315
f 314 315 316
f 316 315 317
f 316 317 318
f 318 317 273
f 318 273 272
f 4 308 3
f 3 308 310
f 3 310 312
f 3 312 60
f 60 312 314
f 60 314 316
f 60 316 58
f 58 316 318
f 58 318 56
f 56 318 272
f 56 272 54
f 54 272 306
f 54 306 305
f 54 305 52
f 52 305 304
f 52 304 303
f 303 302 52
f 52 302 301
f 52 301 300
f 300 299 52
f 52 299 50
f 50 299 298
f 50 298 297
f 297 296 50
f 50 296 225
f 50 225 48
f 48 225 102
f 48 102 104
f 225 271 102
f 102 271 270
f 102 270 269
f 269 268 102
f 102 268 267
f 102 267 266
f 266 265 102
f 102 265 264
f 102 264 263
f 263 262 102
f 102 262 261
f 102 261 260
f 260 259 102
f 102 259 258
f 102 258 257
f 203 96 257
f 257 96 98
f 257 98 100
f 204 126 203
f 203 126 128
f 203 128 130
f 206 122 204
f 204 122 124
f 204 124 126
f 122 206 120
f 120 206 208
f 120 208 119
f 119 208 210
f 119 210 170
f 170 210 212
f 170 212 214
f 170 214 168
f 168 214 216
f 168 216 166
f 166 216 218
f 166 218 220
f 166 220 164
f 164 220 222
f 164 222 162
f 162 222 224
f 162 224 160
f 160 224 181
f 160 181 158
f 158 181 156
f 156 181 182
f 156 182 154
f 154 182 152
f 152 182 150
f 150 182 184
f 150 184 148
f 148 184 186
f 148 186 188
f 148 188 147
f 147 188 190
f 147 190 192
f 192 194 147
f 147 194 196
f 147 196 198
f 198 200 147
f 147 200 178
f 147 178 176
f 176 174 147
f 147 174 172
f 130 132 203
f 203 132 134
f 203 134 136
f 136 138 203
f 203 138 140
f 203 140 142
f 142 144 203
f 203 144 92
f 203 92 94
f 144 91 92
f 94 96 203
f 100 102 257
f 106 108 104
f 104 108 110
f 104 110 112
f 104 112 66
f 66 112 114
f 66 114 64
f 64 114 116
f 64 116 63
f 66 68 104
f 104 68 70
f 104 70 72
f 72 74 104
f 104 74 76
f 104 76 78
f 78 80 104
f 104 80 82
f 104 82 84
f 84 86 104
f 104 86 88
f 104 88 8
f 8 88 7
f 8 10 104
f 104 10 46
f 104 46 48
f 10 12 46
f 46 12 14
f 46 14 16
f 16 18 46
f 46 18 20
f 46 20 22
f 22 24 46
f 46 24 26
f 46 26 28
f 30 38 28
f 28 38 40
f 28 40 42
f 38 30 36
f 36 30 32
f 36 32 34
f 42 44 28
f 28 44 46
f 317 55 273
f 273 55 53
f 273 53 275
f 275 53 276
f 276 53 51
f 276 51 278
f 278 51 280
f 280 51 282
f 282 51 284
f 284 51 286
f 286 51 288
f 288 51 49
f 288 49 290
f 290 49 292
f 292 49 294
f 294 49 226
f 226 49 47
f 226 47 101
f 101 47 103
f 103 47 45
f 103 45 9
f 9 45 11
f 11 45 13
f 13 45 15
f 15 45 17
f 17 45 19
f 19 45 21
f 21 45 23
f 23 45 25
f 25 45 27
f 27 45 43
f 27 43 41
f 55 317 57
f 57 317 315
f 57 315 59
f 59 315 313
f 59 313 311
f 59 311 1
f 1 311 309
f 1 309 307
f 307 2 1
f 41 39 27
f 27 39 37
f 27 37 29
f 29 37 35
f 29 35 31
f 31 35 33
f 9 6 103
f 103 6 87
f 103 87 85
f 6 5 87
f 85 83 103
f 103 83 81
f 103 81 79
f 79 77 103
f 103 77 75
f 103 75 73
f 73 71 103
f 103 71 105
f 105 71 69
f 105 69 67
f 67 65 105
f 105 65 107
f 107 65 109
f 109 65 111
f 111 65 113
f 113 65 62
f 113 62 115
f 115 62 61
f 99 255 101
f 101 255 253
f 101 253 251
f 99 97 255
f 255 97 95
f 255 95 201
f 201 95 93
f 201 93 90
f 89 143 90
f 90 143 201
f 143 141 201
f 201 141 139
f 201 139 137
f 137 135 201
f 201 135 133
f 201 133 131
f 131 129 201
f 201 129 127
f 201 127 125
f 201 125 202
f 202 125 123
f 202 123 121
f 202 121 205
f 205 121 118
f 205 118 207
f 207 118 117
f 207 117 209
f 209 117 169
f 209 169 211
f 211 169 213
f 213 169 167
f 213 167 215
f 215 167 165
f 215 165 217
f 217 165 219
f 219 165 163
f 219 163 221
f 221 163 161
f 221 161 223
f 223 161 159
f 223 159 179
f 179 159 157
f 179 157 155
f 179 155 180
f 180 155 153
f 180 153 151
f 151 149 180
f 180 149 183
f 183 149 146
f 183 146 185
f 185 146 187
f 187 146 145
f 187 145 189
f 189 145 191
f 191 145 193
f 193 145 195
f 195 145 197
f 197 145 199
f 199 145 175
f 199 175 177
f 171 173 145
f 145 173 175
f 251 249 101
f 101 249 247
f 101 247 245
f 245 243 101
f 101 243 241
f 101 241 239
f 239 237 101
f 101 237 235
f 101 235 233
f 233 231 101
f 101 231 229
f 101 229 228
f 228 226 101

