# https://github.com/mikedh/trimesh

o r_centered.ply
v -0.01132075 0.00703931 -0.01250000
v -0.01132075 0.03134985 -0.01250000
v -0.01132075 0.00703931 0.01250000
v -0.01132075 0.03134985 0.01250000
v -0.00342094 0.00703931 -0.01250000
v -0.00342094 0.00703931 0.01250000
v 0.00769231 0.01958569 -0.01250000
v 0.00740731 0.01699072 -0.01250000
v 0.00769231 0.01958569 0.01250000
v 0.00740731 0.01699072 0.01250000
v 0.00722213 0.01573315 -0.01250000
v 0.00722213 0.01573315 0.01250000
v 0.00698574 0.01452295 -0.01250000
v 0.00698574 0.01452295 0.01250000
v 0.00668107 0.01337622 -0.01250000
v 0.00668107 0.01337622 0.01250000
v 0.00629104 0.01230908 -0.01250000
v 0.00629104 0.01230908 0.01250000
v 0.00579859 0.01133691 -0.01250000
v 0.00579859 0.01133691 0.01250000
v 0.00550863 0.01089160 -0.01250000
v 0.00550863 0.01089160 0.01250000
v 0.00518665 0.01047583 -0.01250000
v 0.00518665 0.01047583 0.01250000
v 0.00483054 0.01009204 -0.01250000
v 0.00483054 0.01009204 0.01250000
v 0.00443952 0.00974072 -0.01250000
v 0.00443952 0.00974072 0.01250000
v 0.00356108 0.00912744 -0.01250000
v 0.00356108 0.00912744 0.01250000
v 0.00256981 0.00861914 -0.01250000
v 0.00256981 0.00861914 0.01250000
v 0.00148450 0.00819824 -0.01250000
v 0.00148450 0.00819824 0.01250000
v 0.00032397 0.00784717 -0.01250000
v 0.00032397 0.00784717 0.01250000
v -0.00089299 0.00754883 -0.01250000
v -0.00089299 0.00754883 0.01250000
v 0.00606348 0.02672070 -0.01250000
v 0.00680997 0.02501855 -0.01250000
v 0.00606348 0.02672070 0.01250000
v 0.00680997 0.02501855 0.01250000
v 0.00712127 0.02415259 -0.01250000
v 0.00712127 0.02415259 0.01250000
v 0.00735854 0.02326880 -0.01250000
v 0.00735854 0.02326880 0.01250000
v 0.00751473 0.02236548 -0.01250000
v 0.00751473 0.02236548 0.01250000
v 0.00760857 0.02144727 -0.01250000
v 0.00760857 0.02144727 0.01250000
v 0.00229046 0.03039087 -0.01250000
v 0.00343012 0.02968018 -0.01250000
v 0.00229046 0.03039087 0.01250000
v 0.00343012 0.02968018 0.01250000
v 0.00396434 0.02928735 -0.01250000
v 0.00396434 0.02928735 0.01250000
v 0.00445597 0.02884961 -0.01250000
v 0.00445597 0.02884961 0.01250000
v 0.00490039 0.02836230 -0.01250000
v 0.00490039 0.02836230 0.01250000
v 0.00530834 0.02783643 -0.01250000
v 0.00530834 0.02783643 0.01250000
v -0.00427816 0.03134985 -0.01250000
v -0.00260162 0.03132251 -0.01250000
v -0.00427816 0.03134985 0.01250000
v -0.00260162 0.03132251 0.01250000
v -0.00094204 0.03119043 -0.01250000
v -0.00094204 0.03119043 0.01250000
v -0.00012387 0.03105249 -0.01250000
v -0.00012387 0.03105249 0.01250000
v 0.00068576 0.03086206 -0.01250000
v 0.00068576 0.03086206 0.01250000
v -0.00363638 0.05000000 -0.01250000
v -0.03563134 0.05000000 -0.01250000
v -0.00363638 0.05000000 0.01250000
v -0.03563134 0.05000000 0.01250000
v 0.01036659 0.04913672 -0.01250000
v 0.00687938 0.04955347 -0.01250000
v 0.01036659 0.04913672 0.01250000
v 0.00687938 0.04955347 0.01250000
v 0.00513319 0.04972339 -0.01250000
v 0.00513319 0.04972339 0.01250000
v 0.00338394 0.04984814 -0.01250000
v 0.00338394 0.04984814 0.01250000
v -0.00012310 0.04997046 -0.01250000
v -0.00012310 0.04997046 0.01250000
v 0.02050300 0.04445776 -0.01250000
v 0.01815225 0.04603223 -0.01250000
v 0.02050300 0.04445776 0.01250000
v 0.01815225 0.04603223 0.01250000
v 0.01694690 0.04675342 -0.01250000
v 0.01694690 0.04675342 0.01250000
v 0.01570558 0.04739502 -0.01250000
v 0.01570558 0.04739502 0.01250000
v 0.01441815 0.04793481 -0.01250000
v 0.01441815 0.04793481 0.01250000
v 0.01309018 0.04838525 -0.01250000
v 0.01309018 0.04838525 0.01250000
v 0.02853264 0.03407739 -0.01250000
v 0.02699098 0.03703589 -0.01250000
v 0.02853264 0.03407739 0.01250000
v 0.02699098 0.03703589 0.01250000
v 0.02614243 0.03845435 -0.01250000
v 0.02614243 0.03845435 0.01250000
v 0.02520060 0.03980005 -0.01250000
v 0.02520060 0.03980005 0.01250000
v 0.02414170 0.04105469 -0.01250000
v 0.02414170 0.04105469 0.01250000
v 0.02298381 0.04223193 -0.01250000
v 0.02298381 0.04223193 0.01250000
v 0.02175990 0.04335767 -0.01250000
v 0.02175990 0.04335767 0.01250000
v 0.03142236 0.01951416 -0.01250000
v 0.03122087 0.02326001 -0.01250000
v 0.03142236 0.01951416 0.01250000
v 0.03122087 0.02326001 0.01250000
v 0.03103309 0.02511523 -0.01250000
v 0.03103309 0.02511523 0.01250000
v 0.03074085 0.02694971 -0.01250000
v 0.03074085 0.02694971 0.01250000
v 0.03031770 0.02875757 -0.01250000
v 0.03031770 0.02875757 0.01250000
v 0.02978406 0.03054321 -0.01250000
v 0.02978406 0.03054321 0.01250000
v 0.01775899 -0.00676147 -0.01250000
v 0.02092126 -0.00426978 -0.01250000
v 0.01775899 -0.00676147 0.01250000
v 0.02092126 -0.00426978 0.01250000
v 0.02244158 -0.00299072 -0.01250000
v 0.02244158 -0.00299072 0.01250000
v 0.02388891 -0.00167187 -0.01250000
v 0.02388891 -0.00167187 0.01250000
v 0.02523893 -0.00030005 -0.01250000
v 0.02523893 -0.00030005 0.01250000
v 0.02646730 0.00113794 -0.01250000
v 0.02646730 0.00113794 0.01250000
v 0.02702827 0.00188599 -0.01250000
v 0.02702827 0.00188599 0.01250000
v 0.02754971 0.00265576 -0.01250000
v 0.02754971 0.00265576 0.01250000
v 0.02802856 0.00344849 -0.01250000
v 0.02802856 0.00344849 0.01250000
v 0.02846291 0.00426563 -0.01250000
v 0.02846291 0.00426563 0.01250000
v 0.02885458 0.00510596 -0.01250000
v 0.02885458 0.00510596 0.01250000
v 0.02920623 0.00596826 -0.01250000
v 0.02920623 0.00596826 0.01250000
v 0.02980020 0.00775220 -0.01250000
v 0.02980020 0.00775220 0.01250000
v 0.03026614 0.00960596 -0.01250000
v 0.03026614 0.00960596 0.01250000
v 0.03062541 0.01151782 -0.01250000
v 0.03062541 0.01151782 0.01250000
v 0.03089932 0.01347607 -0.01250000
v 0.03089932 0.01347607 0.01250000
v 0.03110923 0.01546948 -0.01250000
v 0.03110923 0.01546948 0.01250000
v 0.03563135 -0.05000000 -0.01250000
v 0.03563135 -0.05000000 0.01250000
v 0.00974692 -0.05000000 -0.01250000
v 0.00974692 -0.05000000 0.01250000
v -0.00325200 -0.01161108 -0.01250000
v -0.00325200 -0.01161108 0.01250000
v -0.01132075 -0.01161108 -0.01250000
v -0.01132075 -0.01161108 0.01250000
v -0.01132075 -0.05000000 -0.01250000
v -0.01132075 -0.05000000 0.01250000
v -0.03563134 -0.05000000 -0.01250000
v -0.03563134 -0.05000000 0.01250000
f 1 2 3
f 3 2 4
f 5 1 6
f 6 1 3
f 7 8 9
f 9 8 10
f 10 8 11
f 10 11 12
f 12 11 13
f 12 13 14
f 14 13 15
f 14 15 16
f 16 15 17
f 16 17 18
f 18 17 19
f 18 19 20
f 20 19 21
f 20 21 22
f 22 21 23
f 22 23 24
f 24 23 25
f 24 25 26
f 26 25 27
f 26 27 28
f 28 27 29
f 28 29 30
f 30 29 31
f 30 31 32
f 32 31 33
f 32 33 34
f 34 33 35
f 34 35 36
f 36 35 37
f 36 37 38
f 38 37 5
f 38 5 6
f 39 40 41
f 41 40 42
f 42 40 43
f 42 43 44
f 44 43 45
f 44 45 46
f 46 45 47
f 46 47 48
f 48 47 49
f 48 49 50
f 50 49 7
f 50 7 9
f 51 52 53
f 53 52 54
f 54 52 55
f 54 55 56
f 56 55 57
f 56 57 58
f 58 57 59
f 58 59 60
f 60 59 61
f 60 61 62
f 62 61 39
f 62 39 41
f 63 64 65
f 65 64 66
f 66 64 67
f 66 67 68
f 68 67 69
f 68 69 70
f 70 69 71
f 70 71 72
f 72 71 51
f 72 51 53
f 2 63 4
f 4 63 65
f 73 74 75
f 75 74 76
f 77 78 79
f 79 78 80
f 80 78 81
f 80 81 82
f 82 81 83
f 82 83 84
f 84 83 85
f 84 85 86
f 86 85 73
f 86 73 75
f 87 88 89
f 89 88 90
f 90 88 91
f 90 91 92
f 92 91 93
f 92 93 94
f 94 93 95
f 94 95 96
f 96 95 97
f 96 97 98
f 98 97 77
f 98 77 79
f 99 100 101
f 101 100 102
f 102 100 103
f 102 103 104
f 104 103 105
f 104 105 106
f 106 105 107
f 106 107 108
f 108 107 109
f 108 109 110
f 110 109 111
f 110 111 112
f 112 111 87
f 112 87 89
f 113 114 115
f 115 114 116
f 116 114 117
f 116 117 118
f 118 117 119
f 118 119 120
f 120 119 121
f 120 121 122
f 122 121 123
f 122 123 124
f 124 123 99
f 124 99 101
f 125 126 127
f 127 126 128
f 128 126 129
f 128 129 130
f 130 129 131
f 130 131 132
f 132 131 133
f 132 133 134
f 134 133 135
f 134 135 136
f 136 135 137
f 136 137 138
f 138 137 139
f 138 139 140
f 140 139 141
f 140 141 142
f 142 141 143
f 142 143 144
f 144 143 145
f 144 145 146
f 146 145 147
f 146 147 148
f 148 147 149
f 148 149 150
f 150 149 151
f 150 151 152
f 152 151 153
f 152 153 154
f 154 153 155
f 154 155 156
f 156 155 157
f 156 157 158
f 158 157 113
f 158 113 115
f 159 125 160
f 160 125 127
f 161 159 162
f 162 159 160
f 163 161 164
f 164 161 162
f 165 163 166
f 166 163 164
f 167 165 168
f 168 165 166
f 169 167 170
f 170 167 168
f 74 169 76
f 76 169 170
f 170 3 76
f 76 3 4
f 76 4 75
f 75 4 65
f 75 65 66
f 168 166 170
f 170 166 3
f 166 164 3
f 3 164 127
f 3 127 128
f 164 162 127
f 127 162 160
f 128 130 3
f 3 130 148
f 3 148 6
f 6 148 38
f 38 148 36
f 36 148 34
f 34 148 32
f 32 148 30
f 30 148 28
f 28 148 26
f 26 148 24
f 24 148 22
f 22 148 20
f 20 148 18
f 18 148 16
f 16 148 14
f 14 148 12
f 12 148 10
f 10 148 150
f 10 150 152
f 130 132 148
f 148 132 134
f 148 134 136
f 136 138 148
f 148 138 146
f 146 138 140
f 146 140 144
f 144 140 142
f 152 154 10
f 10 154 156
f 10 156 9
f 9 156 158
f 9 158 115
f 115 116 9
f 9 116 50
f 50 116 118
f 50 118 120
f 120 122 50
f 50 122 124
f 50 124 48
f 48 124 101
f 48 101 102
f 48 102 46
f 46 102 104
f 46 104 106
f 106 108 46
f 46 108 44
f 44 108 110
f 44 110 112
f 89 54 112
f 112 54 56
f 112 56 58
f 89 90 54
f 54 90 92
f 54 92 94
f 94 96 54
f 54 96 98
f 54 98 79
f 79 80 54
f 54 80 53
f 53 80 82
f 53 82 84
f 53 84 72
f 72 84 86
f 72 86 70
f 70 86 68
f 68 86 66
f 66 86 75
f 58 60 112
f 112 60 62
f 112 62 41
f 41 42 112
f 112 42 44
f 74 1 169
f 169 1 165
f 169 165 167
f 1 74 2
f 2 74 73
f 2 73 63
f 63 73 64
f 64 73 85
f 64 85 67
f 67 85 69
f 69 85 71
f 71 85 83
f 71 83 51
f 51 83 81
f 51 81 78
f 77 55 78
f 78 55 52
f 78 52 51
f 97 59 77
f 77 59 57
f 77 57 55
f 59 97 61
f 61 97 95
f 61 95 39
f 39 95 93
f 39 93 91
f 91 88 39
f 39 88 40
f 40 88 87
f 40 87 111
f 40 111 43
f 43 111 109
f 43 109 107
f 43 107 45
f 45 107 105
f 45 105 103
f 103 100 45
f 45 100 47
f 47 100 99
f 47 99 123
f 47 123 49
f 49 123 121
f 49 121 119
f 119 117 49
f 49 117 114
f 49 114 7
f 7 114 113
f 7 113 157
f 157 155 7
f 7 155 8
f 8 155 153
f 8 153 151
f 151 149 8
f 8 149 147
f 8 147 11
f 11 147 13
f 13 147 15
f 15 147 17
f 17 147 19
f 19 147 21
f 21 147 23
f 23 147 25
f 25 147 27
f 27 147 29
f 29 147 31
f 31 147 33
f 33 147 35
f 35 147 37
f 37 147 5
f 5 147 131
f 5 131 129
f 145 137 147
f 147 137 135
f 147 135 133
f 137 145 139
f 139 145 143
f 139 143 141
f 133 131 147
f 129 126 5
f 5 126 125
f 5 125 163
f 163 125 161
f 161 125 159
f 163 165 5
f 5 165 1

