# https://github.com/mikedh/trimesh

o 0_centered.ply
v 0.00665253 0.02746460 -0.01250000
v 0.00718933 0.02405688 -0.01250000
v 0.00665253 0.02746460 0.01250000
v 0.00718933 0.02405688 0.01250000
v 0.00767469 0.02064526 -0.01250000
v 0.00767469 0.02064526 0.01250000
v 0.00805722 0.01722534 -0.01250000
v 0.00805722 0.01722534 0.01250000
v 0.00830621 0.01379419 -0.01250000
v 0.00830621 0.01379419 0.01250000
v 0.00844215 0.01035376 -0.01250000
v 0.00844215 0.01035376 0.01250000
v 0.00849329 0.00690649 -0.01250000
v 0.00849329 0.00690649 0.01250000
v 0.00845428 -0.00000024 -0.01250000
v 0.00845428 -0.00000024 0.01250000
v -0.00000114 0.03309155 0.01250000
v -0.00000114 0.03309155 -0.01250000
v 0.00120068 0.03284741 0.00000000
v 0.00120068 0.03284741 -0.01250000
v 0.00235293 0.03254224 -0.01250000
v 0.00235293 0.03254224 0.00000000
v 0.00289499 0.03234692 -0.01250000
v 0.00289499 0.03234692 0.00000000
v 0.00340608 0.03211353 -0.01250000
v 0.00340608 0.03211353 0.00000000
v 0.00388000 0.03183423 -0.01250000
v 0.00388000 0.03183423 0.00000000
v 0.00431084 0.03150122 -0.01250000
v 0.00431084 0.03150122 0.00000000
v 0.00469849 0.03111450 -0.01250000
v 0.00469849 0.03111450 0.00000000
v 0.00504816 0.03068042 -0.01250000
v 0.00504816 0.03068042 0.00000000
v 0.00536529 0.03020630 -0.01250000
v 0.00536529 0.03020630 0.00000000
v 0.00565528 0.02969849 -0.01250000
v 0.00565528 0.02969849 0.00000000
v 0.00617561 0.02860815 -0.01250000
v 0.00617561 0.02860815 0.00000000
v 0.00617561 0.02860815 0.01250000
v 0.00565528 0.02969849 0.01250000
v 0.00536529 0.03020630 0.01250000
v 0.00504816 0.03068042 0.01250000
v 0.00469849 0.03111450 0.01250000
v 0.00431084 0.03150122 0.01250000
v 0.00388000 0.03183423 0.01250000
v 0.00340608 0.03211353 0.01250000
v 0.00289499 0.03234692 0.01250000
v 0.00235293 0.03254224 0.01250000
v 0.00120068 0.03284741 0.01250000
v -0.00639911 0.02841382 0.01250000
v -0.00639911 0.02841382 -0.01250000
v -0.00586687 0.02937769 0.00000000
v -0.00586687 0.02937769 -0.01250000
v -0.00530163 0.03029517 -0.01250000
v -0.00530163 0.03029517 0.00000000
v -0.00499632 0.03072144 -0.01250000
v -0.00499632 0.03072144 0.00000000
v -0.00467037 0.03111841 -0.01250000
v -0.00467037 0.03111841 0.00000000
v -0.00431967 0.03148071 -0.01250000
v -0.00431967 0.03148071 0.00000000
v -0.00394009 0.03180151 -0.01250000
v -0.00394009 0.03180151 0.00000000
v -0.00352779 0.03207642 -0.01250000
v -0.00352779 0.03207642 0.00000000
v -0.00308353 0.03230591 -0.01250000
v -0.00308353 0.03230591 0.00000000
v -0.00261178 0.03249634 -0.01250000
v -0.00261178 0.03249634 0.00000000
v -0.00211714 0.03265405 -0.01250000
v -0.00211714 0.03265405 0.00000000
v -0.00107746 0.03289868 -0.01250000
v -0.00107746 0.03289868 0.00000000
v -0.00107746 0.03289868 0.01250000
v -0.00211714 0.03265405 0.01250000
v -0.00261178 0.03249634 0.01250000
v -0.00308353 0.03230591 0.01250000
v -0.00352779 0.03207642 0.01250000
v -0.00394009 0.03180151 0.01250000
v -0.00431967 0.03148071 0.01250000
v -0.00467037 0.03111841 0.01250000
v -0.00499632 0.03072144 0.01250000
v -0.00530163 0.03029517 0.01250000
v -0.00586687 0.02937769 0.01250000
v -0.00845428 -0.00000024 -0.01250000
v -0.00851106 0.00358130 -0.01250000
v -0.00845428 -0.00000024 0.01250000
v -0.00851106 0.00358130 0.01250000
v -0.00853411 0.00715942 -0.01250000
v -0.00853411 0.00715942 0.01250000
v -0.00848972 0.01073169 -0.01250000
v -0.00848972 0.01073169 0.01250000
v -0.00834417 0.01429370 -0.01250000
v -0.00834417 0.01429370 0.01250000
v -0.00822292 0.01607056 -0.01250000
v -0.00822292 0.01607056 0.01250000
v -0.00806373 0.01784351 -0.01250000
v -0.00806373 0.01784351 0.01250000
v -0.00786249 0.01961255 -0.01250000
v -0.00786249 0.01961255 0.01250000
v -0.00761999 0.02137720 -0.01250000
v -0.00761999 0.02137720 0.01250000
v -0.00704300 0.02489868 -0.01250000
v -0.00704300 0.02489868 0.01250000
v -0.00645694 -0.02827563 -0.01250000
v -0.00707829 -0.02477563 -0.01250000
v -0.00645694 -0.02827563 0.01250000
v -0.00707829 -0.02477563 0.01250000
v -0.00763580 -0.02126929 -0.01250000
v -0.00763580 -0.02126929 0.01250000
v -0.00787068 -0.01951245 -0.01250000
v -0.00787068 -0.01951245 0.01250000
v -0.00806608 -0.01775171 -0.01250000
v -0.00806608 -0.01775171 0.01250000
v -0.00822091 -0.01598706 -0.01250000
v -0.00822091 -0.01598706 0.01250000
v -0.00833911 -0.01421899 -0.01250000
v -0.00833911 -0.01421899 0.01250000
v -0.00848188 -0.01067505 -0.01250000
v -0.00848188 -0.01067505 0.01250000
v -0.00852695 -0.00712183 -0.01250000
v -0.00852695 -0.00712183 0.01250000
v -0.00000114 -0.03309155 0.01250000
v -0.00000114 -0.03309155 -0.01250000
v -0.00109950 -0.03289429 0.00000000
v -0.00109950 -0.03289429 -0.01250000
v -0.00215931 -0.03264331 -0.01250000
v -0.00215931 -0.03264331 0.00000000
v -0.00266270 -0.03248120 -0.01250000
v -0.00266270 -0.03248120 0.00000000
v -0.00314198 -0.03228540 -0.01250000
v -0.00314198 -0.03228540 0.00000000
v -0.00359235 -0.03204956 -0.01250000
v -0.00359235 -0.03204956 0.00000000
v -0.00400906 -0.03176685 -0.01250000
v -0.00400906 -0.03176685 0.00000000
v -0.00439127 -0.03143628 -0.01250000
v -0.00439127 -0.03143628 0.00000000
v -0.00474298 -0.03106372 -0.01250000
v -0.00474298 -0.03106372 0.00000000
v -0.00506856 -0.03065454 -0.01250000
v -0.00506856 -0.03065454 0.00000000
v -0.00537237 -0.03021509 -0.01250000
v -0.00537237 -0.03021509 0.00000000
v -0.00593207 -0.02926978 -0.01250000
v -0.00593207 -0.02926978 0.00000000
v -0.00593207 -0.02926978 0.01250000
v -0.00537237 -0.03021509 0.01250000
v -0.00506856 -0.03065454 0.01250000
v -0.00474298 -0.03106372 0.01250000
v -0.00439127 -0.03143628 0.01250000
v -0.00400906 -0.03176685 0.01250000
v -0.00359235 -0.03204956 0.01250000
v -0.00314198 -0.03228540 0.01250000
v -0.00266270 -0.03248120 0.01250000
v -0.00215931 -0.03264331 0.01250000
v -0.00109950 -0.03289429 0.01250000
v 0.00639117 -0.02855542 0.01250000
v 0.00639117 -0.02855542 -0.01250000
v 0.00584969 -0.02949683 0.00000000
v 0.00584969 -0.02949683 -0.01250000
v 0.00527628 -0.03039136 -0.01250000
v 0.00527628 -0.03039136 0.00000000
v 0.00496763 -0.03080688 -0.01250000
v 0.00496763 -0.03080688 0.00000000
v 0.00463903 -0.03119360 -0.01250000
v 0.00463903 -0.03119360 0.00000000
v 0.00428648 -0.03154517 -0.01250000
v 0.00428648 -0.03154517 0.00000000
v 0.00390601 -0.03185669 -0.01250000
v 0.00390601 -0.03185669 0.00000000
v 0.00349397 -0.03212183 -0.01250000
v 0.00349397 -0.03212183 0.00000000
v 0.00305143 -0.03234302 -0.01250000
v 0.00305143 -0.03234302 0.00000000
v 0.00258269 -0.03252563 -0.01250000
v 0.00258269 -0.03252563 0.00000000
v 0.00209212 -0.03267700 -0.01250000
v 0.00209212 -0.03267700 0.00000000
v 0.00106296 -0.03290942 -0.01250000
v 0.00106296 -0.03290942 0.00000000
v 0.00106296 -0.03290942 0.01250000
v 0.00209212 -0.03267700 0.01250000
v 0.00258269 -0.03252563 0.01250000
v 0.00305143 -0.03234302 0.01250000
v 0.00349397 -0.03212183 0.01250000
v 0.00390601 -0.03185669 0.01250000
v 0.00428648 -0.03154517 0.01250000
v 0.00463903 -0.03119360 0.01250000
v 0.00496763 -0.03080688 0.01250000
v 0.00527628 -0.03039136 0.01250000
v 0.00584969 -0.02949683 0.01250000
v 0.00851412 -0.00359985 -0.01250000
v 0.00851412 -0.00359985 0.01250000
v 0.00853987 -0.00719604 -0.01250000
v 0.00853987 -0.00719604 0.01250000
v 0.00849746 -0.01078589 -0.01250000
v 0.00849746 -0.01078589 0.01250000
v 0.00835279 -0.01436646 -0.01250000
v 0.00835279 -0.01436646 0.01250000
v 0.00823147 -0.01615161 -0.01250000
v 0.00823147 -0.01615161 0.01250000
v 0.00807180 -0.01793335 -0.01250000
v 0.00807180 -0.01793335 0.01250000
v 0.00786960 -0.01971118 -0.01250000
v 0.00786960 -0.01971118 0.01250000
v 0.00762527 -0.02148511 -0.01250000
v 0.00762527 -0.02148511 0.01250000
v 0.00704246 -0.02502368 -0.01250000
v 0.00704246 -0.02502368 0.01250000
v 0.02602390 -0.03853247 -0.01250000
v 0.02801064 -0.03378784 -0.01250000
v 0.02602390 -0.03853247 0.01250000
v 0.02801064 -0.03378784 0.01250000
v 0.02895945 -0.03140552 -0.01250000
v 0.02895945 -0.03140552 0.01250000
v 0.02985478 -0.02901196 -0.01250000
v 0.02985478 -0.02901196 0.01250000
v 0.03067882 -0.02660229 -0.01250000
v 0.03067882 -0.02660229 0.01250000
v 0.03141373 -0.02417358 -0.01250000
v 0.03141373 -0.02417358 0.01250000
v 0.03204172 -0.02172095 -0.01250000
v 0.03204172 -0.02172095 0.01250000
v 0.03255295 -0.01924341 -0.01250000
v 0.03255295 -0.01924341 0.01250000
v 0.03295763 -0.01674194 -0.01250000
v 0.03295763 -0.01674194 0.01250000
v 0.03326910 -0.01422046 -0.01250000
v 0.03326910 -0.01422046 0.01250000
v 0.03350066 -0.01168140 -0.01250000
v 0.03350066 -0.01168140 0.01250000
v 0.03366563 -0.00912769 -0.01250000
v 0.03366563 -0.00912769 0.01250000
v 0.03377733 -0.00656226 -0.01250000
v 0.03377733 -0.00656226 0.01250000
v 0.03384908 -0.00398804 -0.01250000
v 0.03384908 -0.00398804 0.01250000
v 0.03392598 0.00117456 -0.01250000
v 0.03392598 0.00117456 0.01250000
v -0.00003629 -0.05152417 -0.01250000
v 0.00389505 -0.05120239 -0.01250000
v -0.00003629 -0.05152417 0.01250000
v 0.00389505 -0.05120239 0.01250000
v 0.00583476 -0.05099146 -0.01250000
v 0.00583476 -0.05099146 0.01250000
v 0.00774332 -0.05071997 -0.01250000
v 0.00774332 -0.05071997 0.01250000
v 0.00961037 -0.05036841 -0.01250000
v 0.00961037 -0.05036841 0.01250000
v 0.01142550 -0.04991675 -0.01250000
v 0.01142550 -0.04991675 0.01250000
v 0.01231036 -0.04964722 -0.01250000
v 0.01231036 -0.04964722 0.01250000
v 0.01317834 -0.04934448 -0.01250000
v 0.01317834 -0.04934448 0.01250000
v 0.01402816 -0.04900708 -0.01250000
v 0.01402816 -0.04900708 0.01250000
v 0.01485851 -0.04863208 -0.01250000
v 0.01485851 -0.04863208 0.01250000
v 0.01566810 -0.04821655 -0.01250000
v 0.01566810 -0.04821655 0.01250000
v 0.01645630 -0.04776001 -0.01250000
v 0.01645630 -0.04776001 0.01250000
v 0.01722427 -0.04726440 -0.01250000
v 0.01722427 -0.04726440 0.01250000
v 0.01797344 -0.04673267 -0.01250000
v 0.01797344 -0.04673267 0.01250000
v 0.01870526 -0.04616675 -0.01250000
v 0.01870526 -0.04616675 0.01250000
v 0.01942119 -0.04557056 -0.01250000
v 0.01942119 -0.04557056 0.01250000
v 0.02081112 -0.04429712 -0.01250000
v 0.02081112 -0.04429712 0.01250000
v 0.02215479 -0.04293433 -0.01250000
v 0.02215479 -0.04293433 0.01250000
v 0.02346376 -0.04150415 -0.01250000
v 0.02346376 -0.04150415 0.01250000
v -0.02633912 -0.03808179 -0.01250000
v -0.02380324 -0.04117310 -0.01250000
v -0.02633912 -0.03808179 0.01250000
v -0.02380324 -0.04117310 0.01250000
v -0.02250401 -0.04266040 -0.01250000
v -0.02250401 -0.04266040 0.01250000
v -0.02116721 -0.04407690 -0.01250000
v -0.02116721 -0.04407690 0.01250000
v -0.01978033 -0.04539917 -0.01250000
v -0.01978033 -0.04539917 0.01250000
v -0.01906420 -0.04601782 -0.01250000
v -0.01906420 -0.04601782 0.01250000
v -0.01833086 -0.04660425 -0.01250000
v -0.01833086 -0.04660425 0.01250000
v -0.01757873 -0.04715552 -0.01250000
v -0.01757873 -0.04715552 0.01250000
v -0.01680626 -0.04766821 -0.01250000
v -0.01680626 -0.04766821 0.01250000
v -0.01601189 -0.04814038 -0.01250000
v -0.01601189 -0.04814038 0.01250000
v -0.01519445 -0.04856860 -0.01250000
v -0.01519445 -0.04856860 0.01250000
v -0.01435478 -0.04895581 -0.01250000
v -0.01435478 -0.04895581 0.01250000
v -0.01349427 -0.04930347 -0.01250000
v -0.01349427 -0.04930347 0.01250000
v -0.01261429 -0.04961450 -0.01250000
v -0.01261429 -0.04961450 0.01250000
v -0.01171624 -0.04989185 -0.01250000
v -0.01171624 -0.04989185 0.01250000
v -0.00987151 -0.05035522 -0.01250000
v -0.00987151 -0.05035522 0.01250000
v -0.00797118 -0.05071411 -0.01250000
v -0.00797118 -0.05071411 0.01250000
v -0.00602637 -0.05098950 -0.01250000
v -0.00602637 -0.05098950 0.01250000
v -0.00404821 -0.05120239 -0.01250000
v -0.00404821 -0.05120239 0.01250000
v -0.03392598 -0.00124634 -0.01250000
v -0.03380415 -0.00603247 -0.01250000
v -0.03392598 -0.00124634 0.01250000
v -0.03380415 -0.00603247 0.01250000
v -0.03371240 -0.00841919 -0.01250000
v -0.03371240 -0.00841919 0.01250000
v -0.03358365 -0.01079712 -0.01250000
v -0.03358365 -0.01079712 0.01250000
v -0.03340555 -0.01316479 -0.01250000
v -0.03340555 -0.01316479 0.01250000
v -0.03316578 -0.01551880 -0.01250000
v -0.03316578 -0.01551880 0.01250000
v -0.03285201 -0.01785620 -0.01250000
v -0.03285201 -0.01785620 0.01250000
v -0.03245188 -0.02017456 -0.01250000
v -0.03245188 -0.02017456 0.01250000
v -0.03195309 -0.02247144 -0.01250000
v -0.03195309 -0.02247144 0.01250000
v -0.03135008 -0.02474536 -0.01250000
v -0.03135008 -0.02474536 0.01250000
v -0.03065523 -0.02699878 -0.01250000
v -0.03065523 -0.02699878 0.01250000
v -0.02988385 -0.02923560 -0.01250000
v -0.02988385 -0.02923560 0.01250000
v -0.02905124 -0.03145923 -0.01250000
v -0.02905124 -0.03145923 0.01250000
v -0.02817271 -0.03367212 -0.01250000
v -0.02817271 -0.03367212 0.01250000
v -0.02603354 0.03858521 -0.01250000
v -0.02802311 0.03382544 -0.01250000
v -0.02603354 0.03858521 0.01250000
v -0.02802311 0.03382544 0.01250000
v -0.02897305 0.03143530 -0.01250000
v -0.02897305 0.03143530 0.01250000
v -0.02986919 0.02903394 -0.01250000
v -0.02986919 0.02903394 0.01250000
v -0.03069360 0.02661694 -0.01250000
v -0.03069360 0.02661694 0.01250000
v -0.03142833 0.02417993 -0.01250000
v -0.03142833 0.02417993 0.01250000
v -0.03205547 0.02171997 -0.01250000
v -0.03205547 0.02171997 0.01250000
v -0.03256553 0.01923413 -0.01250000
v -0.03256553 0.01923413 0.01250000
v -0.03296891 0.01672485 -0.01250000
v -0.03296891 0.01672485 0.01250000
v -0.03327897 0.01419556 -0.01250000
v -0.03327897 0.01419556 0.01250000
v -0.03350903 0.01164868 -0.01250000
v -0.03350903 0.01164868 0.01250000
v -0.03367241 0.00908716 -0.01250000
v -0.03367241 0.00908716 0.01250000
v -0.03378247 0.00651392 -0.01250000
v -0.03378247 0.00651392 0.01250000
v -0.03385253 0.00393237 -0.01250000
v -0.03385253 0.00393237 0.01250000
v -0.00003629 0.05152417 -0.01250000
v -0.00395596 0.05120337 -0.01250000
v -0.00003629 0.05152417 0.01250000
v -0.00395596 0.05120337 0.01250000
v -0.00588999 0.05099341 -0.01250000
v -0.00588999 0.05099341 0.01250000
v -0.00779305 0.05072339 -0.01250000
v -0.00779305 0.05072339 0.01250000
v -0.00965483 0.05037329 -0.01250000
v -0.00965483 0.05037329 0.01250000
v -0.01146499 0.04992358 -0.01250000
v -0.01146499 0.04992358 0.01250000
v -0.01234748 0.04965454 -0.01250000
v -0.01234748 0.04965454 0.01250000
v -0.01321321 0.04935376 -0.01250000
v -0.01321321 0.04935376 0.01250000
v -0.01406087 0.04901733 -0.01250000
v -0.01406087 0.04901733 0.01250000
v -0.01488918 0.04864380 -0.01250000
v -0.01488918 0.04864380 0.01250000
v -0.01569684 0.04823022 -0.01250000
v -0.01569684 0.04823022 0.01250000
v -0.01648323 0.04777563 -0.01250000
v -0.01648323 0.04777563 0.01250000
v -0.01724949 0.04728198 -0.01250000
v -0.01724949 0.04728198 0.01250000
v -0.01799707 0.04675220 -0.01250000
v -0.01799707 0.04675220 0.01250000
v -0.01872739 0.04618872 -0.01250000
v -0.01872739 0.04618872 0.01250000
v -0.01944190 0.04559497 -0.01250000
v -0.01944190 0.04559497 0.01250000
v -0.02082923 0.04432642 -0.01250000
v -0.02082923 0.04432642 0.01250000
v -0.02217056 0.04296899 -0.01250000
v -0.02217056 0.04296899 0.01250000
v -0.02347739 0.04154468 -0.01250000
v -0.02347739 0.04154468 0.01250000
v 0.02631587 0.03804126 -0.01250000
v 0.02377583 0.04114038 -0.01250000
v 0.02631587 0.03804126 0.01250000
v 0.02377583 0.04114038 0.01250000
v 0.02247443 0.04263110 -0.01250000
v 0.02247443 0.04263110 0.01250000
v 0.02113540 0.04405151 -0.01250000
v 0.02113540 0.04405151 0.01250000
v 0.01974616 0.04537720 -0.01250000
v 0.01974616 0.04537720 0.01250000
v 0.01902880 0.04599780 -0.01250000
v 0.01902880 0.04599780 0.01250000
v 0.01829419 0.04658569 -0.01250000
v 0.01829419 0.04658569 0.01250000
v 0.01754075 0.04713843 -0.01250000
v 0.01754075 0.04713843 0.01250000
v 0.01676693 0.04765308 -0.01250000
v 0.01676693 0.04765308 0.01250000
v 0.01597114 0.04812622 -0.01250000
v 0.01597114 0.04812622 0.01250000
v 0.01515224 0.04855640 -0.01250000
v 0.01515224 0.04855640 0.01250000
v 0.01431102 0.04894458 -0.01250000
v 0.01431102 0.04894458 0.01250000
v 0.01344889 0.04929321 -0.01250000
v 0.01344889 0.04929321 0.01250000
v 0.01256724 0.04960571 -0.01250000
v 0.01256724 0.04960571 0.01250000
v 0.01166746 0.04988403 -0.01250000
v 0.01166746 0.04988403 0.01250000
v 0.00981909 0.05034888 -0.01250000
v 0.00981909 0.05034888 0.01250000
v 0.00791495 0.05070972 -0.01250000
v 0.00791495 0.05070972 0.01250000
v 0.00596618 0.05098657 -0.01250000
v 0.00596618 0.05098657 0.01250000
v 0.00398395 0.05120044 -0.01250000
v 0.00398395 0.05120044 0.01250000
v 0.03380270 0.00596558 -0.01250000
v 0.03380270 0.00596558 0.01250000
v 0.03371017 0.00835425 -0.01250000
v 0.03371017 0.00835425 0.01250000
v 0.03358054 0.01073462 -0.01250000
v 0.03358054 0.01073462 0.01250000
v 0.03340146 0.01310425 -0.01250000
v 0.03340146 0.01310425 0.01250000
v 0.03316056 0.01546021 -0.01250000
v 0.03316056 0.01546021 0.01250000
v 0.03284549 0.01780005 -0.01250000
v 0.03284549 0.01780005 0.01250000
v 0.03244389 0.02012036 -0.01250000
v 0.03244389 0.02012036 0.01250000
v 0.03194339 0.02241919 -0.01250000
v 0.03194339 0.02241919 0.01250000
v 0.03133855 0.02469458 -0.01250000
v 0.03133855 0.02469458 0.01250000
v 0.03064182 0.02694995 -0.01250000
v 0.03064182 0.02694995 0.01250000
v 0.02986852 0.02918872 -0.01250000
v 0.02986852 0.02918872 0.01250000
v 0.02903397 0.03141382 -0.01250000
v 0.02903397 0.03141382 0.01250000
v 0.02815346 0.03362866 -0.01250000
v 0.02815346 0.03362866 0.01250000
f 1 2 3
f 3 2 4
f 4 2 5
f 4 5 6
f 6 5 7
f 6 7 8
f 8 7 9
f 8 9 10
f 10 9 11
f 10 11 12
f 12 11 13
f 12 13 14
f 14 13 15
f 14 15 16
f 17 18 19
f 19 18 20
f 19 20 21
f 19 21 22
f 22 21 23
f 22 23 24
f 24 23 25
f 24 25 26
f 26 25 27
f 26 27 28
f 28 27 29
f 28 29 30
f 30 29 31
f 30 31 32
f 32 31 33
f 32 33 34
f 34 33 35
f 34 35 36
f 36 35 37
f 36 37 38
f 38 37 39
f 38 39 40
f 40 39 1
f 40 1 3
f 3 41 40
f 40 41 42
f 40 42 38
f 38 42 43
f 38 43 36
f 36 43 44
f 36 44 34
f 34 44 45
f 34 45 32
f 32 45 46
f 32 46 30
f 30 46 47
f 30 47 28
f 28 47 48
f 28 48 26
f 26 48 49
f 26 49 24
f 24 49 50
f 24 50 22
f 22 50 51
f 22 51 19
f 19 51 17
f 52 53 54
f 54 53 55
f 54 55 56
f 54 56 57
f 57 56 58
f 57 58 59
f 59 58 60
f 59 60 61
f 61 60 62
f 61 62 63
f 63 62 64
f 63 64 65
f 65 64 66
f 65 66 67
f 67 66 68
f 67 68 69
f 69 68 70
f 69 70 71
f 71 70 72
f 71 72 73
f 73 72 74
f 73 74 75
f 75 74 18
f 75 18 17
f 17 76 75
f 75 76 77
f 75 77 73
f 73 77 78
f 73 78 71
f 71 78 79
f 71 79 69
f 69 79 80
f 69 80 67
f 67 80 81
f 67 81 65
f 65 81 82
f 65 82 63
f 63 82 83
f 63 83 61
f 61 83 84
f 61 84 59
f 59 84 85
f 59 85 57
f 57 85 86
f 57 86 54
f 54 86 52
f 87 88 89
f 89 88 90
f 90 88 91
f 90 91 92
f 92 91 93
f 92 93 94
f 94 93 95
f 94 95 96
f 96 95 97
f 96 97 98
f 98 97 99
f 98 99 100
f 100 99 101
f 100 101 102
f 102 101 103
f 102 103 104
f 104 103 105
f 104 105 106
f 106 105 53
f 106 53 52
f 107 108 109
f 109 108 110
f 110 108 111
f 110 111 112
f 112 111 113
f 112 113 114
f 114 113 115
f 114 115 116
f 116 115 117
f 116 117 118
f 118 117 119
f 118 119 120
f 120 119 121
f 120 121 122
f 122 121 123
f 122 123 124
f 124 123 87
f 124 87 89
f 125 126 127
f 127 126 128
f 127 128 129
f 127 129 130
f 130 129 131
f 130 131 132
f 132 131 133
f 132 133 134
f 134 133 135
f 134 135 136
f 136 135 137
f 136 137 138
f 138 137 139
f 138 139 140
f 140 139 141
f 140 141 142
f 142 141 143
f 142 143 144
f 144 143 145
f 144 145 146
f 146 145 147
f 146 147 148
f 148 147 107
f 148 107 109
f 109 149 148
f 148 149 150
f 148 150 146
f 146 150 151
f 146 151 144
f 144 151 152
f 144 152 142
f 142 152 153
f 142 153 140
f 140 153 154
f 140 154 138
f 138 154 155
f 138 155 136
f 136 155 156
f 136 156 134
f 134 156 157
f 134 157 132
f 132 157 158
f 132 158 130
f 130 158 159
f 130 159 127
f 127 159 125
f 160 161 162
f 162 161 163
f 162 163 164
f 162 164 165
f 165 164 166
f 165 166 167
f 167 166 168
f 167 168 169
f 169 168 170
f 169 170 171
f 171 170 172
f 171 172 173
f 173 172 174
f 173 174 175
f 175 174 176
f 175 176 177
f 177 176 178
f 177 178 179
f 179 178 180
f 179 180 181
f 181 180 182
f 181 182 183
f 183 182 126
f 183 126 125
f 125 184 183
f 183 184 185
f 183 185 181
f 181 185 186
f 181 186 179
f 179 186 187
f 179 187 177
f 177 187 188
f 177 188 175
f 175 188 189
f 175 189 173
f 173 189 190
f 173 190 171
f 171 190 191
f 171 191 169
f 169 191 192
f 169 192 167
f 167 192 193
f 167 193 165
f 165 193 194
f 165 194 162
f 162 194 160
f 15 195 16
f 16 195 196
f 196 195 197
f 196 197 198
f 198 197 199
f 198 199 200
f 200 199 201
f 200 201 202
f 202 201 203
f 202 203 204
f 204 203 205
f 204 205 206
f 206 205 207
f 206 207 208
f 208 207 209
f 208 209 210
f 210 209 211
f 210 211 212
f 212 211 161
f 212 161 160
f 213 214 215
f 215 214 216
f 216 214 217
f 216 217 218
f 218 217 219
f 218 219 220
f 220 219 221
f 220 221 222
f 222 221 223
f 222 223 224
f 224 223 225
f 224 225 226
f 226 225 227
f 226 227 228
f 228 227 229
f 228 229 230
f 230 229 231
f 230 231 232
f 232 231 233
f 232 233 234
f 234 233 235
f 234 235 236
f 236 235 237
f 236 237 238
f 238 237 239
f 238 239 240
f 240 239 241
f 240 241 242
f 243 244 245
f 245 244 246
f 246 244 247
f 246 247 248
f 248 247 249
f 248 249 250
f 250 249 251
f 250 251 252
f 252 251 253
f 252 253 254
f 254 253 255
f 254 255 256
f 256 255 257
f 256 257 258
f 258 257 259
f 258 259 260
f 260 259 261
f 260 261 262
f 262 261 263
f 262 263 264
f 264 263 265
f 264 265 266
f 266 265 267
f 266 267 268
f 268 267 269
f 268 269 270
f 270 269 271
f 270 271 272
f 272 271 273
f 272 273 274
f 274 273 275
f 274 275 276
f 276 275 277
f 276 277 278
f 278 277 279
f 278 279 280
f 280 279 213
f 280 213 215
f 281 282 283
f 283 282 284
f 284 282 285
f 284 285 286
f 286 285 287
f 286 287 288
f 288 287 289
f 288 289 290
f 290 289 291
f 290 291 292
f 292 291 293
f 292 293 294
f 294 293 295
f 294 295 296
f 296 295 297
f 296 297 298
f 298 297 299
f 298 299 300
f 300 299 301
f 300 301 302
f 302 301 303
f 302 303 304
f 304 303 305
f 304 305 306
f 306 305 307
f 306 307 308
f 308 307 309
f 308 309 310
f 310 309 311
f 310 311 312
f 312 311 313
f 312 313 314
f 314 313 315
f 314 315 316
f 316 315 317
f 316 317 318
f 318 317 243
f 318 243 245
f 319 320 321
f 321 320 322
f 322 320 323
f 322 323 324
f 324 323 325
f 324 325 326
f 326 325 327
f 326 327 328
f 328 327 329
f 328 329 330
f 330 329 331
f 330 331 332
f 332 331 333
f 332 333 334
f 334 333 335
f 334 335 336
f 336 335 337
f 336 337 338
f 338 337 339
f 338 339 340
f 340 339 341
f 340 341 342
f 342 341 343
f 342 343 344
f 344 343 345
f 344 345 346
f 346 345 281
f 346 281 283
f 347 348 349
f 349 348 350
f 350 348 351
f 350 351 352
f 352 351 353
f 352 353 354
f 354 353 355
f 354 355 356
f 356 355 357
f 356 357 358
f 358 357 359
f 358 359 360
f 360 359 361
f 360 361 362
f 362 361 363
f 362 363 364
f 364 363 365
f 364 365 366
f 366 365 367
f 366 367 368
f 368 367 369
f 368 369 370
f 370 369 371
f 370 371 372
f 372 371 373
f 372 373 374
f 374 373 319
f 374 319 321
f 375 376 377
f 377 376 378
f 378 376 379
f 378 379 380
f 380 379 381
f 380 381 382
f 382 381 383
f 382 383 384
f 384 383 385
f 384 385 386
f 386 385 387
f 386 387 388
f 388 387 389
f 388 389 390
f 390 389 391
f 390 391 392
f 392 391 393
f 392 393 394
f 394 393 395
f 394 395 396
f 396 395 397
f 396 397 398
f 398 397 399
f 398 399 400
f 400 399 401
f 400 401 402
f 402 401 403
f 402 403 404
f 404 403 405
f 404 405 406
f 406 405 407
f 406 407 408
f 408 407 409
f 408 409 410
f 410 409 411
f 410 411 412
f 412 411 347
f 412 347 349
f 413 414 415
f 415 414 416
f 416 414 417
f 416 417 418
f 418 417 419
f 418 419 420
f 420 419 421
f 420 421 422
f 422 421 423
f 422 423 424
f 424 423 425
f 424 425 426
f 426 425 427
f 426 427 428
f 428 427 429
f 428 429 430
f 430 429 431
f 430 431 432
f 432 431 433
f 432 433 434
f 434 433 435
f 434 435 436
f 436 435 437
f 436 437 438
f 438 437 439
f 438 439 440
f 440 439 441
f 440 441 442
f 442 441 443
f 442 443 444
f 444 443 445
f 444 445 446
f 446 445 447
f 446 447 448
f 448 447 449
f 448 449 450
f 450 449 375
f 450 375 377
f 241 451 242
f 242 451 452
f 452 451 453
f 452 453 454
f 454 453 455
f 454 455 456
f 456 455 457
f 456 457 458
f 458 457 459
f 458 459 460
f 460 459 461
f 460 461 462
f 462 461 463
f 462 463 464
f 464 463 465
f 464 465 466
f 466 465 467
f 466 467 468
f 468 467 469
f 468 469 470
f 470 469 471
f 470 471 472
f 472 471 473
f 472 473 474
f 474 473 475
f 474 475 476
f 476 475 413
f 476 413 415
f 240 242 16
f 16 242 452
f 16 452 14
f 14 452 454
f 14 454 456
f 14 456 12
f 12 456 458
f 12 458 460
f 460 462 12
f 12 462 10
f 10 462 464
f 10 464 466
f 466 468 10
f 10 468 8
f 8 468 470
f 8 470 472
f 472 474 8
f 8 474 6
f 6 474 476
f 6 476 4
f 4 476 3
f 3 476 41
f 41 476 42
f 42 476 43
f 43 476 44
f 44 476 45
f 45 476 46
f 46 476 47
f 47 476 48
f 48 476 49
f 49 476 50
f 50 476 51
f 51 476 17
f 17 476 416
f 17 416 418
f 476 415 416
f 418 420 17
f 17 420 422
f 17 422 424
f 424 426 17
f 17 426 428
f 17 428 430
f 430 432 17
f 17 432 434
f 17 434 436
f 436 438 17
f 17 438 440
f 17 440 442
f 442 444 17
f 17 444 446
f 17 446 448
f 448 450 17
f 17 450 377
f 17 377 76
f 76 377 378
f 76 378 77
f 77 378 78
f 78 378 79
f 79 378 380
f 79 380 80
f 80 380 382
f 80 382 81
f 81 382 82
f 82 382 384
f 82 384 83
f 83 384 84
f 84 384 386
f 84 386 85
f 85 386 388
f 85 388 390
f 85 390 86
f 86 390 392
f 86 392 394
f 86 394 52
f 52 394 396
f 52 396 398
f 398 400 52
f 52 400 402
f 52 402 404
f 404 406 52
f 52 406 408
f 52 408 410
f 52 410 106
f 106 410 412
f 106 412 349
f 349 350 106
f 106 350 104
f 104 350 102
f 102 350 352
f 102 352 100
f 100 352 354
f 100 354 356
f 100 356 98
f 98 356 358
f 98 358 96
f 96 358 360
f 96 360 362
f 96 362 94
f 94 362 364
f 94 364 366
f 366 368 94
f 94 368 92
f 92 368 370
f 92 370 372
f 92 372 90
f 90 372 374
f 90 374 89
f 89 374 321
f 89 321 322
f 89 322 124
f 124 322 324
f 124 324 326
f 124 326 122
f 122 326 328
f 122 328 330
f 330 332 122
f 122 332 120
f 120 332 334
f 120 334 336
f 336 338 120
f 120 338 118
f 118 338 340
f 118 340 116
f 116 340 342
f 116 342 114
f 114 342 344
f 114 344 346
f 283 284 346
f 346 284 125
f 346 125 159
f 284 286 125
f 125 286 288
f 125 288 290
f 290 292 125
f 125 292 294
f 125 294 296
f 296 298 125
f 125 298 300
f 125 300 302
f 302 304 125
f 125 304 306
f 125 306 308
f 308 310 125
f 125 310 312
f 125 312 252
f 252 312 314
f 252 314 250
f 250 314 316
f 250 316 248
f 248 316 318
f 248 318 246
f 246 318 245
f 254 192 252
f 252 192 191
f 252 191 190
f 192 254 193
f 193 254 256
f 193 256 258
f 193 258 194
f 194 258 260
f 194 260 262
f 194 262 160
f 160 262 264
f 160 264 266
f 266 268 160
f 160 268 270
f 160 270 272
f 272 274 160
f 160 274 276
f 160 276 278
f 160 278 212
f 212 278 280
f 212 280 215
f 215 216 212
f 212 216 210
f 210 216 208
f 208 216 218
f 208 218 206
f 206 218 220
f 206 220 222
f 206 222 204
f 204 222 224
f 204 224 202
f 202 224 226
f 202 226 228
f 202 228 200
f 200 228 230
f 200 230 232
f 232 234 200
f 200 234 198
f 198 234 236
f 198 236 238
f 198 238 196
f 196 238 240
f 196 240 16
f 190 189 252
f 252 189 188
f 252 188 187
f 187 186 252
f 252 186 185
f 252 185 184
f 184 125 252
f 159 158 346
f 346 158 157
f 346 157 156
f 156 155 346
f 346 155 154
f 346 154 153
f 153 152 346
f 346 152 151
f 346 151 150
f 150 149 346
f 346 149 109
f 346 109 110
f 110 112 346
f 346 112 114
f 413 475 414
f 414 475 18
f 414 18 417
f 417 18 419
f 419 18 421
f 421 18 423
f 423 18 425
f 425 18 427
f 427 18 429
f 429 18 431
f 431 18 433
f 433 18 435
f 435 18 437
f 437 18 439
f 439 18 441
f 441 18 443
f 443 18 445
f 445 18 447
f 447 18 449
f 449 18 375
f 375 18 74
f 375 74 376
f 376 74 72
f 376 72 70
f 473 5 475
f 475 5 2
f 475 2 1
f 5 473 7
f 7 473 471
f 7 471 469
f 469 467 7
f 7 467 9
f 9 467 465
f 9 465 463
f 463 461 9
f 9 461 11
f 11 461 459
f 11 459 457
f 457 455 11
f 11 455 13
f 13 455 453
f 13 453 451
f 13 451 15
f 15 451 241
f 15 241 239
f 15 239 195
f 195 239 237
f 195 237 197
f 197 237 235
f 197 235 233
f 197 233 199
f 199 233 231
f 199 231 229
f 229 227 199
f 199 227 201
f 201 227 225
f 201 225 223
f 201 223 203
f 203 223 221
f 203 221 205
f 205 221 219
f 205 219 217
f 205 217 207
f 207 217 214
f 207 214 209
f 209 214 211
f 211 214 213
f 211 213 279
f 279 277 211
f 211 277 161
f 161 277 275
f 161 275 273
f 273 271 161
f 161 271 269
f 161 269 267
f 267 265 161
f 161 265 263
f 161 263 261
f 161 261 163
f 163 261 259
f 163 259 257
f 163 257 164
f 164 257 255
f 164 255 253
f 164 253 166
f 166 253 251
f 166 251 168
f 168 251 170
f 170 251 249
f 170 249 172
f 172 249 174
f 174 249 247
f 174 247 176
f 176 247 244
f 176 244 178
f 178 244 180
f 180 244 182
f 182 244 243
f 182 243 126
f 126 243 317
f 126 317 315
f 315 313 126
f 126 313 311
f 126 311 309
f 309 307 126
f 126 307 305
f 126 305 303
f 303 301 126
f 126 301 299
f 126 299 297
f 297 295 126
f 126 295 293
f 126 293 291
f 291 289 126
f 126 289 287
f 126 287 285
f 285 282 126
f 126 282 345
f 126 345 128
f 128 345 129
f 129 345 131
f 131 345 133
f 133 345 135
f 135 345 137
f 137 345 343
f 137 343 139
f 139 343 141
f 141 343 143
f 143 343 145
f 145 343 147
f 147 343 341
f 147 341 107
f 107 341 339
f 107 339 108
f 108 339 337
f 108 337 335
f 282 281 345
f 108 335 111
f 111 335 333
f 111 333 113
f 113 333 331
f 113 331 115
f 115 331 117
f 117 331 329
f 117 329 119
f 119 329 327
f 119 327 325
f 119 325 121
f 121 325 323
f 121 323 123
f 123 323 320
f 123 320 319
f 373 88 319
f 319 88 87
f 319 87 123
f 373 371 88
f 88 371 91
f 91 371 369
f 91 369 93
f 93 369 367
f 93 367 365
f 363 97 365
f 365 97 95
f 365 95 93
f 97 363 99
f 99 363 361
f 99 361 359
f 359 357 99
f 99 357 355
f 99 355 353
f 353 351 99
f 99 351 101
f 101 351 348
f 101 348 103
f 103 348 105
f 105 348 347
f 105 347 411
f 411 409 105
f 105 409 53
f 53 409 407
f 53 407 405
f 405 403 53
f 53 403 401
f 53 401 399
f 399 397 53
f 53 397 395
f 53 395 393
f 53 393 55
f 55 393 391
f 55 391 389
f 55 389 56
f 56 389 387
f 56 387 385
f 56 385 58
f 58 385 383
f 58 383 60
f 60 383 62
f 62 383 381
f 62 381 64
f 64 381 66
f 66 381 379
f 66 379 68
f 68 379 376
f 68 376 70
f 1 39 475
f 475 39 37
f 475 37 35
f 35 33 475
f 475 33 31
f 475 31 29
f 29 27 475
f 475 27 25
f 475 25 23
f 23 21 475
f 475 21 20
f 475 20 18

