# https://github.com/mikedh/trimesh

o 6_centered.ply
v 0.00017689 -0.00428149 -0.01250000
v 0.00248491 -0.00503979 -0.01250000
v 0.00017689 -0.00428149 0.01250000
v 0.00248491 -0.00503979 0.01250000
v 0.00358646 -0.00546021 -0.01250000
v 0.00358646 -0.00546021 0.01250000
v 0.00462506 -0.00593042 -0.01250000
v 0.00462506 -0.00593042 0.01250000
v 0.00557971 -0.00646655 -0.01250000
v 0.00557971 -0.00646655 0.01250000
v 0.00601900 -0.00676489 -0.01250000
v 0.00601900 -0.00676489 0.01250000
v 0.00642944 -0.00708569 -0.01250000
v 0.00642944 -0.00708569 0.01250000
v 0.00680840 -0.00743140 -0.01250000
v 0.00680840 -0.00743140 0.01250000
v 0.00715332 -0.00780396 -0.01250000
v 0.00715332 -0.00780396 0.01250000
v 0.00746360 -0.00820386 -0.01250000
v 0.00746360 -0.00820386 0.01250000
v 0.00774102 -0.00863013 -0.01250000
v 0.00774102 -0.00863013 0.01250000
v 0.00798753 -0.00908032 -0.01250000
v 0.00798753 -0.00908032 0.01250000
v 0.00820505 -0.00955347 -0.01250000
v 0.00820505 -0.00955347 0.01250000
v 0.00856085 -0.01056226 -0.01250000
v 0.00856085 -0.01056226 0.01250000
v 0.00882390 -0.01164429 -0.01250000
v 0.00882390 -0.01164429 0.01250000
v 0.00900964 -0.01278735 -0.01250000
v 0.00900964 -0.01278735 0.01250000
v 0.00913355 -0.01397876 -0.01250000
v 0.00913355 -0.01397876 0.01250000
v 0.00921107 -0.01520728 -0.01250000
v 0.00921107 -0.01520728 0.01250000
v 0.00928882 -0.01772534 -0.01250000
v 0.00928882 -0.01772534 0.01250000
v -0.00936139 -0.01915015 -0.01250000
v -0.00931402 -0.01641919 -0.01250000
v -0.00936139 -0.01915015 0.01250000
v -0.00931402 -0.01641919 0.01250000
v -0.00924907 -0.01508521 -0.01250000
v -0.00924907 -0.01508521 0.01250000
v -0.00913460 -0.01378882 -0.01250000
v -0.00913460 -0.01378882 0.01250000
v -0.00895411 -0.01254272 -0.01250000
v -0.00895411 -0.01254272 0.01250000
v -0.00869108 -0.01135962 -0.01250000
v -0.00869108 -0.01135962 0.01250000
v -0.00832902 -0.01025220 -0.01250000
v -0.00832902 -0.01025220 0.01250000
v -0.00810569 -0.00973071 -0.01250000
v -0.00810569 -0.00973071 0.01250000
v -0.00785142 -0.00923267 -0.01250000
v -0.00785142 -0.00923267 0.01250000
v -0.00756413 -0.00875952 -0.01250000
v -0.00756413 -0.00875952 0.01250000
v -0.00724177 -0.00831323 -0.01250000
v -0.00724177 -0.00831323 0.01250000
v -0.00688228 -0.00789575 -0.01250000
v -0.00688228 -0.00789575 0.01250000
v -0.00648520 -0.00750659 -0.01250000
v -0.00648520 -0.00750659 0.01250000
v -0.00605309 -0.00714380 -0.01250000
v -0.00605309 -0.00714380 0.01250000
v -0.00558888 -0.00680591 -0.01250000
v -0.00558888 -0.00680591 0.01250000
v -0.00457582 -0.00619409 -0.01250000
v -0.00457582 -0.00619409 0.01250000
v -0.00346936 -0.00565356 -0.01250000
v -0.00346936 -0.00565356 0.01250000
v -0.00229286 -0.00516675 -0.01250000
v -0.00229286 -0.00516675 0.01250000
v -0.00678633 -0.02977661 -0.01250000
v -0.00743477 -0.02853540 -0.01250000
v -0.00678633 -0.02977661 0.01250000
v -0.00743477 -0.02853540 0.01250000
v -0.00803654 -0.02728198 -0.01250000
v -0.00803654 -0.02728198 0.01250000
v -0.00854496 -0.02600366 -0.01250000
v -0.00854496 -0.02600366 0.01250000
v -0.00874960 -0.02535132 -0.01250000
v -0.00874960 -0.02535132 0.01250000
v -0.00891608 -0.02468872 -0.01250000
v -0.00891608 -0.02468872 0.01250000
v -0.00914910 -0.02333667 -0.01250000
v -0.00914910 -0.02333667 0.01250000
v -0.00927781 -0.02195679 -0.01250000
v -0.00927781 -0.02195679 0.01250000
v -0.00933699 -0.02055786 -0.01250000
v -0.00933699 -0.02055786 0.01250000
v -0.00010772 -0.03309155 0.01250000
v -0.00010772 -0.03309155 -0.01250000
v -0.00109127 -0.03297778 0.00000000
v -0.00109127 -0.03297778 -0.01250000
v -0.00205575 -0.03282593 -0.01250000
v -0.00205575 -0.03282593 0.00000000
v -0.00298208 -0.03259644 -0.01250000
v -0.00298208 -0.03259644 0.00000000
v -0.00342498 -0.03244067 -0.01250000
v -0.00342498 -0.03244067 0.00000000
v -0.00385120 -0.03225171 -0.01250000
v -0.00385120 -0.03225171 0.00000000
v -0.00425926 -0.03202563 -0.01250000
v -0.00425926 -0.03202563 0.00000000
v -0.00465086 -0.03176587 -0.01250000
v -0.00465086 -0.03176587 0.00000000
v -0.00539405 -0.03116626 -0.01250000
v -0.00539405 -0.03116626 0.00000000
v -0.00609960 -0.03049048 -0.01250000
v -0.00609960 -0.03049048 0.00000000
v -0.00609960 -0.03049048 0.01250000
v -0.00539405 -0.03116626 0.01250000
v -0.00465086 -0.03176587 0.01250000
v -0.00425926 -0.03202563 0.01250000
v -0.00385120 -0.03225171 0.01250000
v -0.00342498 -0.03244067 0.01250000
v -0.00298208 -0.03259644 0.01250000
v -0.00205575 -0.03282593 0.01250000
v -0.00109127 -0.03297778 0.01250000
v 0.00927136 -0.02050073 -0.01250000
v 0.00927136 -0.02050073 0.01250000
v 0.00922128 -0.02185815 -0.01250000
v 0.00922128 -0.02185815 0.01250000
v 0.00912158 -0.02317896 -0.01250000
v 0.00912158 -0.02317896 0.01250000
v 0.00895572 -0.02445093 -0.01250000
v 0.00895572 -0.02445093 0.01250000
v 0.00870716 -0.02566138 -0.01250000
v 0.00870716 -0.02566138 0.01250000
v 0.00835938 -0.02679907 -0.01250000
v 0.00835938 -0.02679907 0.01250000
v 0.00814310 -0.02733618 -0.01250000
v 0.00814310 -0.02733618 0.01250000
v 0.00789581 -0.02785083 -0.01250000
v 0.00789581 -0.02785083 0.01250000
v 0.00761544 -0.02834058 -0.01250000
v 0.00761544 -0.02834058 0.01250000
v 0.00729993 -0.02880493 -0.01250000
v 0.00729993 -0.02880493 0.01250000
v 0.00694720 -0.02924146 -0.01250000
v 0.00694720 -0.02924146 0.01250000
v 0.00655599 -0.02964917 -0.01250000
v 0.00655599 -0.02964917 0.01250000
v 0.00612843 -0.03003052 -0.01250000
v 0.00612843 -0.03003052 0.01250000
v 0.00566754 -0.03038696 -0.01250000
v 0.00566754 -0.03038696 0.01250000
v 0.00465790 -0.03103540 -0.01250000
v 0.00465790 -0.03103540 0.01250000
v 0.00355132 -0.03161206 -0.01250000
v 0.00355132 -0.03161206 0.01250000
v 0.00237204 -0.03213501 -0.01250000
v 0.00237204 -0.03213501 0.01250000
v 0.01237300 0.01763452 -0.01250000
v 0.03236575 0.02325513 -0.01250000
v 0.01237300 0.01763452 0.01250000
v 0.03236575 0.02325513 0.01250000
v 0.00136974 0.03309155 -0.01250000
v 0.00384254 0.03208179 -0.01250000
v 0.00136974 0.03309155 0.01250000
v 0.00384254 0.03208179 0.01250000
v 0.00502705 0.03153345 -0.01250000
v 0.00502705 0.03153345 0.01250000
v 0.00614929 0.03093286 -0.01250000
v 0.00614929 0.03093286 0.01250000
v 0.00718850 0.03026245 -0.01250000
v 0.00718850 0.03026245 0.01250000
v 0.00767048 0.02989526 -0.01250000
v 0.00767048 0.02989526 0.01250000
v 0.00812392 0.02950464 -0.01250000
v 0.00812392 0.02950464 0.01250000
v 0.00854625 0.02908765 -0.01250000
v 0.00854625 0.02908765 0.01250000
v 0.00893648 0.02864331 -0.01250000
v 0.00893648 0.02864331 0.01250000
v 0.00929609 0.02817358 -0.01250000
v 0.00929609 0.02817358 0.01250000
v 0.00962677 0.02767944 -0.01250000
v 0.00962677 0.02767944 0.01250000
v 0.01020820 0.02662427 -0.01250000
v 0.01020820 0.02662427 0.01250000
v 0.01069437 0.02548853 -0.01250000
v 0.01069437 0.02548853 0.01250000
v 0.01109889 0.02428442 -0.01250000
v 0.01109889 0.02428442 0.01250000
v 0.01143536 0.02302319 -0.01250000
v 0.01143536 0.02302319 0.01250000
v 0.01171740 0.02171606 -0.01250000
v 0.01171740 0.02171606 0.01250000
v 0.01195862 0.02037427 -0.01250000
v 0.01195862 0.02037427 0.01250000
v -0.00697909 0.02731763 -0.01250000
v -0.00623009 0.02848511 -0.01250000
v -0.00697909 0.02731763 0.01250000
v -0.00623009 0.02848511 0.01250000
v -0.00544518 0.02959839 -0.01250000
v -0.00544518 0.02959839 0.01250000
v -0.00502803 0.03011743 -0.01250000
v -0.00502803 0.03011743 0.01250000
v -0.00458844 0.03060278 -0.01250000
v -0.00458844 0.03060278 0.01250000
v -0.00412190 0.03104712 -0.01250000
v -0.00412190 0.03104712 0.01250000
v -0.00362394 0.03144409 -0.01250000
v -0.00362394 0.03144409 0.01250000
v -0.00309018 0.03178687 -0.01250000
v -0.00309018 0.03178687 0.01250000
v -0.00252044 0.03207544 -0.01250000
v -0.00252044 0.03207544 0.01250000
v -0.00191960 0.03231665 -0.01250000
v -0.00191960 0.03231665 0.01250000
v -0.00129284 0.03251880 -0.01250000
v -0.00129284 0.03251880 0.01250000
v 0.00001772 0.03283667 -0.01250000
v 0.00001772 0.03283667 0.01250000
v -0.01030479 0.00311938 -0.01250000
v -0.01030186 0.00621167 -0.01250000
v -0.01030479 0.00311938 0.01250000
v -0.01030186 0.00621167 0.01250000
v -0.01025300 0.00929614 -0.01250000
v -0.01025300 0.00929614 0.01250000
v -0.01011223 0.01236548 -0.01250000
v -0.01011223 0.01236548 0.01250000
v -0.00999303 0.01389233 -0.01250000
v -0.00999303 0.01389233 0.01250000
v -0.00983362 0.01541284 -0.01250000
v -0.00983362 0.01541284 0.01250000
v -0.00962826 0.01692554 -0.01250000
v -0.00962826 0.01692554 0.01250000
v -0.00937122 0.01842993 -0.01250000
v -0.00937122 0.01842993 0.01250000
v -0.00905952 0.01992554 -0.01250000
v -0.00905952 0.01992554 0.01250000
v -0.00870038 0.02141333 -0.01250000
v -0.00870038 0.02141333 0.01250000
v -0.00787770 0.02437134 -0.01250000
v -0.00787770 0.02437134 0.01250000
v 0.00598467 0.01415112 -0.01250000
v 0.00320981 0.01383716 -0.01250000
v 0.00598467 0.01415112 0.01250000
v 0.00320981 0.01383716 0.01250000
v 0.00185126 0.01363892 -0.01250000
v 0.00185126 0.01363892 0.01250000
v 0.00052736 0.01339038 -0.01250000
v 0.00052736 0.01339038 0.01250000
v -0.00075034 0.01307495 -0.01250000
v -0.00075034 0.01307495 0.01250000
v -0.00197028 0.01267700 -0.01250000
v -0.00197028 0.01267700 0.01250000
v -0.00312092 0.01217847 -0.01250000
v -0.00312092 0.01217847 0.01250000
v -0.00366664 0.01188647 -0.01250000
v -0.00366664 0.01188647 0.01250000
v -0.00419070 0.01156372 -0.01250000
v -0.00419070 0.01156372 0.01250000
v -0.00469173 0.01120728 -0.01250000
v -0.00469173 0.01120728 0.01250000
v -0.00516979 0.01081763 -0.01250000
v -0.00516979 0.01081763 0.01250000
v -0.00562637 0.01039722 -0.01250000
v -0.00562637 0.01039722 0.01250000
v -0.00606299 0.00994800 -0.01250000
v -0.00606299 0.00994800 0.01250000
v -0.00688251 0.00897241 -0.01250000
v -0.00688251 0.00897241 0.01250000
v -0.00764064 0.00790796 -0.01250000
v -0.00764064 0.00790796 0.01250000
v -0.00834966 0.00677319 -0.01250000
v -0.00834966 0.00677319 0.01250000
v -0.00902183 0.00558472 -0.01250000
v -0.00902183 0.00558472 0.01250000
v 0.02518029 0.00552759 -0.01250000
v 0.02313200 0.00738892 -0.01250000
v 0.02518029 0.00552759 0.01250000
v 0.02313200 0.00738892 0.01250000
v 0.02209389 0.00828882 -0.01250000
v 0.02209389 0.00828882 0.01250000
v 0.02103902 0.00915112 -0.01250000
v 0.02103902 0.00915112 0.01250000
v 0.01996181 0.00996362 -0.01250000
v 0.01996181 0.00996362 0.01250000
v 0.01885665 0.01071362 -0.01250000
v 0.01885665 0.01071362 0.01250000
v 0.01771797 0.01138843 -0.01250000
v 0.01771797 0.01138843 0.01250000
v 0.01654018 0.01197681 -0.01250000
v 0.01654018 0.01197681 0.01250000
v 0.01531937 0.01246851 -0.01250000
v 0.01531937 0.01246851 0.01250000
v 0.01405912 0.01287231 -0.01250000
v 0.01405912 0.01287231 0.01250000
v 0.01276504 0.01320093 -0.01250000
v 0.01276504 0.01320093 0.01250000
v 0.01144278 0.01346655 -0.01250000
v 0.01144278 0.01346655 0.01250000
v 0.01009798 0.01368140 -0.01250000
v 0.01009798 0.01368140 0.01250000
v 0.00873627 0.01385913 -0.01250000
v 0.00873627 0.01385913 0.01250000
v 0.03294630 -0.01776099 -0.01250000
v 0.03276688 -0.01457544 -0.01250000
v 0.03294630 -0.01776099 0.01250000
v 0.03276688 -0.01457544 0.01250000
v 0.03264690 -0.01299292 -0.01250000
v 0.03264690 -0.01299292 0.01250000
v 0.03249056 -0.01142310 -0.01250000
v 0.03249056 -0.01142310 0.01250000
v 0.03228577 -0.00987036 -0.01250000
v 0.03228577 -0.00987036 0.01250000
v 0.03202041 -0.00833862 -0.01250000
v 0.03202041 -0.00833862 0.01250000
v 0.03168237 -0.00683179 -0.01250000
v 0.03168237 -0.00683179 0.01250000
v 0.03125953 -0.00535474 -0.01250000
v 0.03125953 -0.00535474 0.01250000
v 0.03074026 -0.00391089 -0.01250000
v 0.03074026 -0.00391089 0.01250000
v 0.03012513 -0.00250024 -0.01250000
v 0.03012513 -0.00250024 0.01250000
v 0.02942731 -0.00111841 -0.01250000
v 0.02942731 -0.00111841 0.01250000
v 0.02866059 0.00023950 -0.01250000
v 0.02866059 0.00023950 0.01250000
v 0.02783875 0.00157837 -0.01250000
v 0.02783875 0.00157837 0.01250000
v 0.02697556 0.00290259 -0.01250000
v 0.02697556 0.00290259 0.01250000
v 0.02389445 -0.04288403 -0.01250000
v 0.02601478 -0.04011792 -0.01250000
v 0.02389445 -0.04288403 0.01250000
v 0.02601478 -0.04011792 0.01250000
v 0.02703321 -0.03871948 -0.01250000
v 0.02703321 -0.03871948 0.01250000
v 0.02800156 -0.03730151 -0.01250000
v 0.02800156 -0.03730151 0.01250000
v 0.02890315 -0.03585864 -0.01250000
v 0.02890315 -0.03585864 0.01250000
v 0.02972128 -0.03438403 -0.01250000
v 0.02972128 -0.03438403 0.01250000
v 0.03043926 -0.03287183 -0.01250000
v 0.03043926 -0.03287183 0.01250000
v 0.03104162 -0.03131519 -0.01250000
v 0.03104162 -0.03131519 0.01250000
v 0.03152988 -0.02971606 -0.01250000
v 0.03152988 -0.02971606 0.01250000
v 0.03191808 -0.02807837 -0.01250000
v 0.03191808 -0.02807837 0.01250000
v 0.03222050 -0.02640845 -0.01250000
v 0.03222050 -0.02640845 0.01250000
v 0.03245144 -0.02471167 -0.01250000
v 0.03245144 -0.02471167 0.01250000
v 0.03262519 -0.02299292 -0.01250000
v 0.03262519 -0.02299292 0.01250000
v 0.03275606 -0.02125806 -0.01250000
v 0.03275606 -0.02125806 0.01250000
v 0.00074610 -0.05152417 -0.01250000
v 0.00395866 -0.05128149 -0.01250000
v 0.00074610 -0.05152417 0.01250000
v 0.00395866 -0.05128149 0.01250000
v 0.00555249 -0.05112769 -0.01250000
v 0.00555249 -0.05112769 0.01250000
v 0.00713138 -0.05093481 -0.01250000
v 0.00713138 -0.05093481 0.01250000
v 0.00869035 -0.05068921 -0.01250000
v 0.00869035 -0.05068921 0.01250000
v 0.01022442 -0.05037866 -0.01250000
v 0.01022442 -0.05037866 0.01250000
v 0.01172861 -0.04998950 -0.01250000
v 0.01172861 -0.04998950 0.01250000
v 0.01319794 -0.04950854 -0.01250000
v 0.01319794 -0.04950854 0.01250000
v 0.01462811 -0.04892505 -0.01250000
v 0.01462811 -0.04892505 0.01250000
v 0.01602106 -0.04824341 -0.01250000
v 0.01602106 -0.04824341 0.01250000
v 0.01738207 -0.04747827 -0.01250000
v 0.01738207 -0.04747827 0.01250000
v 0.01871648 -0.04664331 -0.01250000
v 0.01871648 -0.04664331 0.01250000
v 0.02002960 -0.04575220 -0.01250000
v 0.02002960 -0.04575220 0.01250000
v 0.02132675 -0.04481958 -0.01250000
v 0.02132675 -0.04481958 0.01250000
v -0.03294630 -0.00124634 -0.01250000
v -0.03284358 -0.00595776 -0.01250000
v -0.03294630 -0.00124634 0.01250000
v -0.03284358 -0.00595776 0.01250000
v -0.03268347 -0.01062427 -0.01250000
v -0.03268347 -0.01062427 0.01250000
v -0.03256395 -0.01292651 -0.01250000
v -0.03256395 -0.01292651 0.01250000
v -0.03240856 -0.01520044 -0.01250000
v -0.03240856 -0.01520044 0.01250000
v -0.03221012 -0.01744116 -0.01250000
v -0.03221012 -0.01744116 0.01250000
v -0.03196146 -0.01964233 -0.01250000
v -0.03196146 -0.01964233 0.01250000
v -0.03165539 -0.02179858 -0.01250000
v -0.03165539 -0.02179858 0.01250000
v -0.03128476 -0.02390405 -0.01250000
v -0.03128476 -0.02390405 0.01250000
v -0.03084237 -0.02595337 -0.01250000
v -0.03084237 -0.02595337 0.01250000
v -0.03032107 -0.02794116 -0.01250000
v -0.03032107 -0.02794116 0.01250000
v -0.02971367 -0.02986108 -0.01250000
v -0.02971367 -0.02986108 0.01250000
v -0.02901299 -0.03170825 -0.01250000
v -0.02901299 -0.03170825 0.01250000
v -0.02821186 -0.03347681 -0.01250000
v -0.02821186 -0.03347681 0.01250000
v -0.02777139 -0.03432935 -0.01250000
v -0.02777139 -0.03432935 0.01250000
v -0.02730312 -0.03516089 -0.01250000
v -0.02730312 -0.03516089 0.01250000
v -0.02680615 -0.03596948 -0.01250000
v -0.02680615 -0.03596948 0.01250000
v -0.02627958 -0.03675464 -0.01250000
v -0.02627958 -0.03675464 0.01250000
v -0.02572252 -0.03751636 -0.01250000
v -0.02572252 -0.03751636 0.01250000
v -0.02513407 -0.03825366 -0.01250000
v -0.02513407 -0.03825366 0.01250000
v -0.02451333 -0.03896509 -0.01250000
v -0.02451333 -0.03896509 0.01250000
v -0.02385978 -0.03965112 -0.01250000
v -0.02385978 -0.03965112 0.01250000
v -0.02317430 -0.04031226 -0.01250000
v -0.02317430 -0.04031226 0.01250000
v -0.02245814 -0.04094897 -0.01250000
v -0.02245814 -0.04094897 0.01250000
v -0.02171250 -0.04156323 -0.01250000
v -0.02171250 -0.04156323 0.01250000
v -0.02093863 -0.04215503 -0.01250000
v -0.02093863 -0.04215503 0.01250000
v -0.01931107 -0.04327612 -0.01250000
v -0.01931107 -0.04327612 0.01250000
v -0.01758529 -0.04432007 -0.01250000
v -0.01758529 -0.04432007 0.01250000
v -0.01577111 -0.04529468 -0.01250000
v -0.01577111 -0.04529468 0.01250000
v -0.01387835 -0.04620825 -0.01250000
v -0.01387835 -0.04620825 0.01250000
v -0.01191683 -0.04706763 -0.01250000
v -0.01191683 -0.04706763 0.01250000
v -0.00989638 -0.04788062 -0.01250000
v -0.00989638 -0.04788062 0.01250000
v -0.00782682 -0.04865552 -0.01250000
v -0.00782682 -0.04865552 0.01250000
v -0.00571797 -0.04939966 -0.01250000
v -0.00571797 -0.04939966 0.01250000
v -0.00357965 -0.05012036 -0.01250000
v -0.00357965 -0.05012036 0.01250000
v -0.02370793 0.03858765 -0.01250000
v -0.02601308 0.03390063 -0.01250000
v -0.02370793 0.03858765 0.01250000
v -0.02601308 0.03390063 0.01250000
v -0.02711465 0.03154419 -0.01250000
v -0.02711465 0.03154419 0.01250000
v -0.02815503 0.02917212 -0.01250000
v -0.02815503 0.02917212 0.01250000
v -0.02911380 0.02677954 -0.01250000
v -0.02911380 0.02677954 0.01250000
v -0.02997057 0.02436060 -0.01250000
v -0.02997057 0.02436060 0.01250000
v -0.03035432 0.02313989 -0.01250000
v -0.03035432 0.02313989 0.01250000
v -0.03070494 0.02191089 -0.01250000
v -0.03070494 0.02191089 0.01250000
v -0.03130448 0.01942700 -0.01250000
v -0.03130448 0.01942700 0.01250000
v -0.03178032 0.01691187 -0.01250000
v -0.03178032 0.01691187 0.01250000
v -0.03214791 0.01436890 -0.01250000
v -0.03214791 0.01436890 0.01250000
v -0.03242272 0.01180200 -0.01250000
v -0.03242272 0.01180200 0.01250000
v -0.03262022 0.00921606 -0.01250000
v -0.03262022 0.00921606 0.01250000
v -0.03275586 0.00661450 -0.01250000
v -0.03275586 0.00661450 0.01250000
v -0.03284511 0.00400073 -0.01250000
v -0.03284511 0.00400073 0.01250000
v 0.00202172 0.05152417 -0.01250000
v -0.00180673 0.05111646 -0.01250000
v 0.00202172 0.05152417 0.01250000
v -0.00180673 0.05111646 0.01250000
v -0.00369672 0.05086450 -0.01250000
v -0.00369672 0.05086450 0.01250000
v -0.00555761 0.05055542 -0.01250000
v -0.00555761 0.05055542 0.01250000
v -0.00737970 0.05016968 -0.01250000
v -0.00737970 0.05016968 0.01250000
v -0.00915330 0.04968774 -0.01250000
v -0.00915330 0.04968774 0.01250000
v -0.01001889 0.04940503 -0.01250000
v -0.01001889 0.04940503 0.01250000
v -0.01086871 0.04909106 -0.01250000
v -0.01086871 0.04909106 0.01250000
v -0.01170157 0.04874390 -0.01250000
v -0.01170157 0.04874390 0.01250000
v -0.01251624 0.04836060 -0.01250000
v -0.01251624 0.04836060 0.01250000
v -0.01331174 0.04793921 -0.01250000
v -0.01331174 0.04793921 0.01250000
v -0.01408866 0.04748169 -0.01250000
v -0.01408866 0.04748169 0.01250000
v -0.01484823 0.04698950 -0.01250000
v -0.01484823 0.04698950 0.01250000
v -0.01559170 0.04646558 -0.01250000
v -0.01559170 0.04646558 0.01250000
v -0.01703526 0.04533228 -0.01250000
v -0.01703526 0.04533228 0.01250000
v -0.01842927 0.04410083 -0.01250000
v -0.01842927 0.04410083 0.01250000
v -0.01978363 0.04279077 -0.01250000
v -0.01978363 0.04279077 0.01250000
v -0.02110825 0.04142261 -0.01250000
v -0.02110825 0.04142261 0.01250000
v 0.02193169 0.04467407 -0.01250000
v 0.01968523 0.04621802 -0.01250000
v 0.02193169 0.04467407 0.01250000
v 0.01968523 0.04621802 0.01250000
v 0.01855206 0.04696216 -0.01250000
v 0.01855206 0.04696216 0.01250000
v 0.01740697 0.04767212 -0.01250000
v 0.01740697 0.04767212 0.01250000
v 0.01624598 0.04833667 -0.01250000
v 0.01624598 0.04833667 0.01250000
v 0.01506511 0.04894507 -0.01250000
v 0.01506511 0.04894507 0.01250000
v 0.01386040 0.04948608 -0.01250000
v 0.01386040 0.04948608 0.01250000
v 0.01262790 0.04994751 -0.01250000
v 0.01262790 0.04994751 0.01250000
v 0.01136642 0.05032739 -0.01250000
v 0.01136642 0.05032739 0.01250000
v 0.01007922 0.05063403 -0.01250000
v 0.01007922 0.05063403 0.01250000
v 0.00876999 0.05087769 -0.01250000
v 0.00876999 0.05087769 0.01250000
v 0.00744238 0.05106958 -0.01250000
v 0.00744238 0.05106958 0.01250000
v 0.00474675 0.05133862 -0.01250000
v 0.00474675 0.05133862 0.01250000
v 0.03171445 0.02626392 -0.01250000
v 0.03171445 0.02626392 0.01250000
v 0.03098460 0.02923267 -0.01250000
v 0.03098460 0.02923267 0.01250000
v 0.03056567 0.03068970 -0.01250000
v 0.03056567 0.03068970 0.01250000
v 0.03009763 0.03212183 -0.01250000
v 0.03009763 0.03212183 0.01250000
v 0.02957066 0.03352417 -0.01250000
v 0.02957066 0.03352417 0.01250000
v 0.02897496 0.03489136 -0.01250000
v 0.02897496 0.03489136 0.01250000
v 0.02830075 0.03621899 -0.01250000
v 0.02830075 0.03621899 0.01250000
v 0.02754506 0.03750513 -0.01250000
v 0.02754506 0.03750513 0.01250000
v 0.02671822 0.03875513 -0.01250000
v 0.02671822 0.03875513 0.01250000
v 0.02583207 0.03997485 -0.01250000
v 0.02583207 0.03997485 0.01250000
v 0.02489848 0.04117065 -0.01250000
v 0.02489848 0.04117065 0.01250000
v 0.02392932 0.04234839 -0.01250000
v 0.02392932 0.04234839 0.01250000
f 1 2 3
f 3 2 4
f 4 2 5
f 4 5 6
f 6 5 7
f 6 7 8
f 8 7 9
f 8 9 10
f 10 9 11
f 10 11 12
f 12 11 13
f 12 13 14
f 14 13 15
f 14 15 16
f 16 15 17
f 16 17 18
f 18 17 19
f 18 19 20
f 20 19 21
f 20 21 22
f 22 21 23
f 22 23 24
f 24 23 25
f 24 25 26
f 26 25 27
f 26 27 28
f 28 27 29
f 28 29 30
f 30 29 31
f 30 31 32
f 32 31 33
f 32 33 34
f 34 33 35
f 34 35 36
f 36 35 37
f 36 37 38
f 39 40 41
f 41 40 42
f 42 40 43
f 42 43 44
f 44 43 45
f 44 45 46
f 46 45 47
f 46 47 48
f 48 47 49
f 48 49 50
f 50 49 51
f 50 51 52
f 52 51 53
f 52 53 54
f 54 53 55
f 54 55 56
f 56 55 57
f 56 57 58
f 58 57 59
f 58 59 60
f 60 59 61
f 60 61 62
f 62 61 63
f 62 63 64
f 64 63 65
f 64 65 66
f 66 65 67
f 66 67 68
f 68 67 69
f 68 69 70
f 70 69 71
f 70 71 72
f 72 71 73
f 72 73 74
f 74 73 1
f 74 1 3
f 75 76 77
f 77 76 78
f 78 76 79
f 78 79 80
f 80 79 81
f 80 81 82
f 82 81 83
f 82 83 84
f 84 83 85
f 84 85 86
f 86 85 87
f 86 87 88
f 88 87 89
f 88 89 90
f 90 89 91
f 90 91 92
f 92 91 39
f 92 39 41
f 93 94 95
f 95 94 96
f 95 96 97
f 95 97 98
f 98 97 99
f 98 99 100
f 100 99 101
f 100 101 102
f 102 101 103
f 102 103 104
f 104 103 105
f 104 105 106
f 106 105 107
f 106 107 108
f 108 107 109
f 108 109 110
f 110 109 111
f 110 111 112
f 112 111 75
f 112 75 77
f 77 113 112
f 112 113 114
f 112 114 110
f 110 114 115
f 110 115 108
f 108 115 116
f 108 116 106
f 106 116 117
f 106 117 104
f 104 117 118
f 104 118 102
f 102 118 119
f 102 119 100
f 100 119 120
f 100 120 98
f 98 120 121
f 98 121 95
f 95 121 93
f 37 122 38
f 38 122 123
f 123 122 124
f 123 124 125
f 125 124 126
f 125 126 127
f 127 126 128
f 127 128 129
f 129 128 130
f 129 130 131
f 131 130 132
f 131 132 133
f 133 132 134
f 133 134 135
f 135 134 136
f 135 136 137
f 137 136 138
f 137 138 139
f 139 138 140
f 139 140 141
f 141 140 142
f 141 142 143
f 143 142 144
f 143 144 145
f 145 144 146
f 145 146 147
f 147 146 148
f 147 148 149
f 149 148 150
f 149 150 151
f 151 150 152
f 151 152 153
f 153 152 154
f 153 154 155
f 155 154 94
f 155 94 93
f 156 157 158
f 158 157 159
f 160 161 162
f 162 161 163
f 163 161 164
f 163 164 165
f 165 164 166
f 165 166 167
f 167 166 168
f 167 168 169
f 169 168 170
f 169 170 171
f 171 170 172
f 171 172 173
f 173 172 174
f 173 174 175
f 175 174 176
f 175 176 177
f 177 176 178
f 177 178 179
f 179 178 180
f 179 180 181
f 181 180 182
f 181 182 183
f 183 182 184
f 183 184 185
f 185 184 186
f 185 186 187
f 187 186 188
f 187 188 189
f 189 188 190
f 189 190 191
f 191 190 192
f 191 192 193
f 193 192 156
f 193 156 158
f 194 195 196
f 196 195 197
f 197 195 198
f 197 198 199
f 199 198 200
f 199 200 201
f 201 200 202
f 201 202 203
f 203 202 204
f 203 204 205
f 205 204 206
f 205 206 207
f 207 206 208
f 207 208 209
f 209 208 210
f 209 210 211
f 211 210 212
f 211 212 213
f 213 212 214
f 213 214 215
f 215 214 216
f 215 216 217
f 217 216 160
f 217 160 162
f 218 219 220
f 220 219 221
f 221 219 222
f 221 222 223
f 223 222 224
f 223 224 225
f 225 224 226
f 225 226 227
f 227 226 228
f 227 228 229
f 229 228 230
f 229 230 231
f 231 230 232
f 231 232 233
f 233 232 234
f 233 234 235
f 235 234 236
f 235 236 237
f 237 236 238
f 237 238 239
f 239 238 194
f 239 194 196
f 240 241 242
f 242 241 243
f 243 241 244
f 243 244 245
f 245 244 246
f 245 246 247
f 247 246 248
f 247 248 249
f 249 248 250
f 249 250 251
f 251 250 252
f 251 252 253
f 253 252 254
f 253 254 255
f 255 254 256
f 255 256 257
f 257 256 258
f 257 258 259
f 259 258 260
f 259 260 261
f 261 260 262
f 261 262 263
f 263 262 264
f 263 264 265
f 265 264 266
f 265 266 267
f 267 266 268
f 267 268 269
f 269 268 270
f 269 270 271
f 271 270 272
f 271 272 273
f 273 272 218
f 273 218 220
f 274 275 276
f 276 275 277
f 277 275 278
f 277 278 279
f 279 278 280
f 279 280 281
f 281 280 282
f 281 282 283
f 283 282 284
f 283 284 285
f 285 284 286
f 285 286 287
f 287 286 288
f 287 288 289
f 289 288 290
f 289 290 291
f 291 290 292
f 291 292 293
f 293 292 294
f 293 294 295
f 295 294 296
f 295 296 297
f 297 296 298
f 297 298 299
f 299 298 300
f 299 300 301
f 301 300 240
f 301 240 242
f 302 303 304
f 304 303 305
f 305 303 306
f 305 306 307
f 307 306 308
f 307 308 309
f 309 308 310
f 309 310 311
f 311 310 312
f 311 312 313
f 313 312 314
f 313 314 315
f 315 314 316
f 315 316 317
f 317 316 318
f 317 318 319
f 319 318 320
f 319 320 321
f 321 320 322
f 321 322 323
f 323 322 324
f 323 324 325
f 325 324 326
f 325 326 327
f 327 326 328
f 327 328 329
f 329 328 274
f 329 274 276
f 330 331 332
f 332 331 333
f 333 331 334
f 333 334 335
f 335 334 336
f 335 336 337
f 337 336 338
f 337 338 339
f 339 338 340
f 339 340 341
f 341 340 342
f 341 342 343
f 343 342 344
f 343 344 345
f 345 344 346
f 345 346 347
f 347 346 348
f 347 348 349
f 349 348 350
f 349 350 351
f 351 350 352
f 351 352 353
f 353 352 354
f 353 354 355
f 355 354 356
f 355 356 357
f 357 356 302
f 357 302 304
f 358 359 360
f 360 359 361
f 361 359 362
f 361 362 363
f 363 362 364
f 363 364 365
f 365 364 366
f 365 366 367
f 367 366 368
f 367 368 369
f 369 368 370
f 369 370 371
f 371 370 372
f 371 372 373
f 373 372 374
f 373 374 375
f 375 374 376
f 375 376 377
f 377 376 378
f 377 378 379
f 379 378 380
f 379 380 381
f 381 380 382
f 381 382 383
f 383 382 384
f 383 384 385
f 385 384 330
f 385 330 332
f 386 387 388
f 388 387 389
f 389 387 390
f 389 390 391
f 391 390 392
f 391 392 393
f 393 392 394
f 393 394 395
f 395 394 396
f 395 396 397
f 397 396 398
f 397 398 399
f 399 398 400
f 399 400 401
f 401 400 402
f 401 402 403
f 403 402 404
f 403 404 405
f 405 404 406
f 405 406 407
f 407 406 408
f 407 408 409
f 409 408 410
f 409 410 411
f 411 410 412
f 411 412 413
f 413 412 414
f 413 414 415
f 415 414 416
f 415 416 417
f 417 416 418
f 417 418 419
f 419 418 420
f 419 420 421
f 421 420 422
f 421 422 423
f 423 422 424
f 423 424 425
f 425 424 426
f 425 426 427
f 427 426 428
f 427 428 429
f 429 428 430
f 429 430 431
f 431 430 432
f 431 432 433
f 433 432 434
f 433 434 435
f 435 434 436
f 435 436 437
f 437 436 438
f 437 438 439
f 439 438 440
f 439 440 441
f 441 440 442
f 441 442 443
f 443 442 444
f 443 444 445
f 445 444 446
f 445 446 447
f 447 446 448
f 447 448 449
f 449 448 450
f 449 450 451
f 451 450 452
f 451 452 453
f 453 452 454
f 453 454 455
f 455 454 358
f 455 358 360
f 456 457 458
f 458 457 459
f 459 457 460
f 459 460 461
f 461 460 462
f 461 462 463
f 463 462 464
f 463 464 465
f 465 464 466
f 465 466 467
f 467 466 468
f 467 468 469
f 469 468 470
f 469 470 471
f 471 470 472
f 471 472 473
f 473 472 474
f 473 474 475
f 475 474 476
f 475 476 477
f 477 476 478
f 477 478 479
f 479 478 480
f 479 480 481
f 481 480 482
f 481 482 483
f 483 482 484
f 483 484 485
f 485 484 386
f 485 386 388
f 486 487 488
f 488 487 489
f 489 487 490
f 489 490 491
f 491 490 492
f 491 492 493
f 493 492 494
f 493 494 495
f 495 494 496
f 495 496 497
f 497 496 498
f 497 498 499
f 499 498 500
f 499 500 501
f 501 500 502
f 501 502 503
f 503 502 504
f 503 504 505
f 505 504 506
f 505 506 507
f 507 506 508
f 507 508 509
f 509 508 510
f 509 510 511
f 511 510 512
f 511 512 513
f 513 512 514
f 513 514 515
f 515 514 516
f 515 516 517
f 517 516 518
f 517 518 519
f 519 518 520
f 519 520 521
f 521 520 456
f 521 456 458
f 522 523 524
f 524 523 525
f 525 523 526
f 525 526 527
f 527 526 528
f 527 528 529
f 529 528 530
f 529 530 531
f 531 530 532
f 531 532 533
f 533 532 534
f 533 534 535
f 535 534 536
f 535 536 537
f 537 536 538
f 537 538 539
f 539 538 540
f 539 540 541
f 541 540 542
f 541 542 543
f 543 542 544
f 543 544 545
f 545 544 546
f 545 546 547
f 547 546 486
f 547 486 488
f 157 548 159
f 159 548 549
f 549 548 550
f 549 550 551
f 551 550 552
f 551 552 553
f 553 552 554
f 553 554 555
f 555 554 556
f 555 556 557
f 557 556 558
f 557 558 559
f 559 558 560
f 559 560 561
f 561 560 562
f 561 562 563
f 563 562 564
f 563 564 565
f 565 564 566
f 565 566 567
f 567 566 568
f 567 568 569
f 569 568 570
f 569 570 571
f 571 570 522
f 571 522 524
f 549 185 159
f 159 185 187
f 159 187 189
f 551 175 549
f 549 175 177
f 549 177 179
f 553 169 551
f 551 169 171
f 551 171 173
f 555 163 553
f 553 163 165
f 553 165 167
f 163 555 162
f 162 555 557
f 162 557 559
f 559 561 162
f 162 561 563
f 162 563 565
f 565 567 162
f 162 567 569
f 162 569 571
f 571 524 162
f 162 524 525
f 162 525 527
f 527 529 162
f 162 529 531
f 162 531 533
f 533 535 162
f 162 535 537
f 162 537 539
f 539 541 162
f 162 541 543
f 162 543 545
f 545 547 162
f 162 547 488
f 162 488 489
f 491 215 489
f 489 215 217
f 489 217 162
f 493 211 491
f 491 211 213
f 491 213 215
f 211 493 209
f 209 493 495
f 209 495 207
f 207 495 205
f 205 495 497
f 205 497 203
f 203 497 499
f 203 499 201
f 201 499 501
f 201 501 503
f 201 503 199
f 199 503 505
f 199 505 507
f 199 507 197
f 197 507 509
f 197 509 511
f 197 511 196
f 196 511 513
f 196 513 515
f 515 517 196
f 196 517 519
f 196 519 239
f 239 519 521
f 239 521 237
f 237 521 458
f 237 458 459
f 461 233 459
f 459 233 235
f 459 235 237
f 233 461 231
f 231 461 463
f 231 463 229
f 229 463 465
f 229 465 467
f 229 467 227
f 227 467 469
f 227 469 471
f 227 471 225
f 225 471 473
f 225 473 475
f 225 475 223
f 223 475 477
f 223 477 479
f 479 481 223
f 223 481 221
f 221 481 483
f 221 483 220
f 220 483 485
f 220 485 388
f 388 389 220
f 220 389 48
f 220 48 50
f 389 391 48
f 48 391 46
f 46 391 393
f 46 393 44
f 44 393 395
f 44 395 397
f 44 397 42
f 42 397 399
f 42 399 401
f 42 401 41
f 41 401 403
f 41 403 405
f 41 405 92
f 92 405 407
f 92 407 90
f 90 407 88
f 88 407 86
f 86 407 84
f 84 407 82
f 82 407 80
f 80 407 78
f 78 407 409
f 78 409 77
f 77 409 113
f 113 409 411
f 113 411 114
f 114 411 115
f 115 411 413
f 115 413 116
f 116 413 117
f 117 413 118
f 118 413 119
f 119 413 120
f 120 413 121
f 121 413 93
f 93 413 415
f 93 415 417
f 417 419 93
f 93 419 421
f 93 421 423
f 423 425 93
f 93 425 427
f 93 427 429
f 429 431 93
f 93 431 433
f 93 433 435
f 435 437 93
f 93 437 439
f 93 439 441
f 441 443 93
f 93 443 445
f 93 445 447
f 447 449 93
f 93 449 451
f 93 451 453
f 453 455 93
f 93 455 360
f 93 360 361
f 93 361 155
f 155 361 363
f 155 363 153
f 153 363 365
f 153 365 151
f 151 365 367
f 151 367 149
f 149 367 369
f 149 369 147
f 147 369 145
f 145 369 371
f 145 371 143
f 143 371 373
f 143 373 141
f 141 373 375
f 141 375 139
f 139 375 377
f 139 377 137
f 137 377 379
f 137 379 135
f 135 379 381
f 135 381 133
f 133 381 383
f 133 383 131
f 131 383 385
f 131 385 332
f 131 332 129
f 129 332 333
f 129 333 127
f 127 333 335
f 127 335 337
f 127 337 125
f 125 337 339
f 125 339 341
f 341 343 125
f 125 343 345
f 125 345 347
f 347 349 125
f 125 349 351
f 125 351 123
f 123 351 353
f 123 353 355
f 355 357 123
f 123 357 38
f 38 357 304
f 38 304 305
f 305 307 38
f 38 307 36
f 36 307 309
f 36 309 311
f 311 313 36
f 36 313 315
f 36 315 317
f 317 319 36
f 36 319 34
f 34 319 32
f 32 319 30
f 30 319 28
f 28 319 26
f 26 319 24
f 24 319 22
f 22 319 20
f 20 319 18
f 18 319 16
f 16 319 14
f 14 319 12
f 12 319 10
f 10 319 8
f 8 319 6
f 6 319 4
f 4 319 3
f 3 319 321
f 3 321 323
f 323 325 3
f 3 325 327
f 3 327 329
f 276 277 329
f 329 277 279
f 329 279 220
f 220 279 297
f 220 297 299
f 279 281 297
f 297 281 295
f 295 281 283
f 295 283 293
f 293 283 285
f 293 285 291
f 291 285 287
f 291 287 289
f 299 301 220
f 220 301 242
f 220 242 243
f 243 245 220
f 220 245 247
f 220 247 273
f 273 247 249
f 273 249 271
f 271 249 269
f 269 249 267
f 267 249 265
f 265 249 263
f 263 249 261
f 261 249 259
f 259 249 257
f 257 249 255
f 255 249 253
f 253 249 251
f 167 169 553
f 173 175 551
f 179 181 549
f 549 181 183
f 549 183 185
f 189 191 159
f 159 191 193
f 159 193 158
f 50 52 220
f 220 52 54
f 220 54 56
f 56 58 220
f 220 58 60
f 220 60 62
f 62 64 220
f 220 64 66
f 220 66 68
f 68 70 220
f 220 70 72
f 220 72 74
f 74 3 220
f 220 3 329
f 523 522 160
f 160 522 570
f 160 570 568
f 568 566 160
f 160 566 564
f 160 564 562
f 562 560 160
f 160 560 558
f 160 558 556
f 554 192 556
f 556 192 190
f 556 190 188
f 554 552 192
f 192 552 550
f 192 550 156
f 156 550 548
f 156 548 157
f 188 186 556
f 556 186 184
f 556 184 182
f 182 180 556
f 556 180 178
f 556 178 176
f 176 174 556
f 556 174 172
f 556 172 170
f 170 168 556
f 556 168 166
f 556 166 164
f 164 161 556
f 556 161 160
f 216 487 160
f 160 487 486
f 160 486 546
f 216 214 487
f 487 214 490
f 490 214 212
f 490 212 210
f 490 210 492
f 492 210 208
f 492 208 494
f 494 208 206
f 494 206 204
f 494 204 496
f 496 204 202
f 496 202 498
f 498 202 200
f 498 200 500
f 500 200 502
f 502 200 198
f 502 198 504
f 504 198 506
f 506 198 195
f 506 195 508
f 508 195 510
f 510 195 194
f 510 194 512
f 512 194 514
f 514 194 516
f 516 194 518
f 518 194 238
f 518 238 520
f 520 238 236
f 520 236 456
f 456 236 457
f 457 236 234
f 457 234 232
f 457 232 460
f 460 232 230
f 460 230 462
f 462 230 228
f 462 228 464
f 464 228 466
f 466 228 226
f 466 226 468
f 468 226 470
f 470 226 224
f 470 224 472
f 472 224 474
f 474 224 222
f 474 222 476
f 476 222 478
f 478 222 480
f 480 222 219
f 480 219 482
f 482 219 218
f 482 218 484
f 484 218 386
f 386 218 324
f 386 324 322
f 272 246 218
f 218 246 244
f 218 244 241
f 246 272 248
f 248 272 270
f 248 270 268
f 268 266 248
f 248 266 264
f 248 264 262
f 262 260 248
f 248 260 258
f 248 258 256
f 256 254 248
f 248 254 252
f 248 252 250
f 241 240 218
f 218 240 300
f 218 300 298
f 298 296 218
f 218 296 278
f 218 278 328
f 328 278 275
f 328 275 274
f 278 296 280
f 280 296 294
f 280 294 282
f 282 294 292
f 282 292 284
f 284 292 290
f 284 290 286
f 286 290 288
f 328 326 218
f 218 326 324
f 322 320 386
f 386 320 387
f 387 320 1
f 387 1 73
f 320 318 1
f 1 318 2
f 2 318 5
f 5 318 7
f 7 318 9
f 9 318 11
f 11 318 13
f 13 318 15
f 15 318 17
f 17 318 19
f 19 318 21
f 21 318 23
f 23 318 25
f 25 318 27
f 27 318 29
f 29 318 31
f 31 318 33
f 33 318 35
f 35 318 316
f 35 316 314
f 314 312 35
f 35 312 310
f 35 310 308
f 308 306 35
f 35 306 37
f 37 306 303
f 37 303 302
f 302 356 37
f 37 356 122
f 122 356 354
f 122 354 352
f 352 350 122
f 122 350 124
f 124 350 348
f 124 348 346
f 346 344 124
f 124 344 342
f 124 342 340
f 340 338 124
f 124 338 336
f 124 336 126
f 126 336 334
f 126 334 331
f 126 331 128
f 128 331 330
f 128 330 130
f 130 330 384
f 130 384 382
f 130 382 132
f 132 382 380
f 132 380 134
f 134 380 378
f 134 378 136
f 136 378 376
f 136 376 138
f 138 376 374
f 138 374 140
f 140 374 372
f 140 372 142
f 142 372 370
f 142 370 144
f 144 370 368
f 144 368 146
f 146 368 148
f 148 368 366
f 148 366 150
f 150 366 364
f 150 364 152
f 152 364 362
f 152 362 154
f 154 362 359
f 154 359 94
f 94 359 358
f 94 358 454
f 454 452 94
f 94 452 450
f 94 450 448
f 448 446 94
f 94 446 444
f 94 444 442
f 442 440 94
f 94 440 438
f 94 438 436
f 436 434 94
f 94 434 432
f 94 432 430
f 430 428 94
f 94 428 426
f 94 426 424
f 424 422 94
f 94 422 420
f 94 420 418
f 418 416 94
f 94 416 414
f 94 414 412
f 410 107 412
f 412 107 105
f 412 105 103
f 408 111 410
f 410 111 109
f 410 109 107
f 406 76 408
f 408 76 75
f 408 75 111
f 404 81 406
f 406 81 79
f 406 79 76
f 402 85 404
f 404 85 83
f 404 83 81
f 400 89 402
f 402 89 87
f 402 87 85
f 89 400 91
f 91 400 398
f 91 398 39
f 39 398 396
f 39 396 40
f 40 396 394
f 40 394 43
f 43 394 45
f 45 394 392
f 45 392 47
f 47 392 49
f 49 392 390
f 49 390 51
f 51 390 53
f 53 390 55
f 55 390 57
f 57 390 59
f 59 390 61
f 61 390 63
f 63 390 65
f 65 390 67
f 67 390 69
f 69 390 387
f 69 387 71
f 71 387 73
f 546 544 160
f 160 544 542
f 160 542 540
f 540 538 160
f 160 538 536
f 160 536 534
f 534 532 160
f 160 532 530
f 160 530 528
f 528 526 160
f 160 526 523
f 103 101 412
f 412 101 99
f 412 99 97
f 97 96 412
f 412 96 94

