v -0.036466 -0.100000 0.000000
v -0.036466 -0.100000 0.018750
v -0.036466 -0.100000 0.037500
v -0.036466 -0.100000 0.056250
v -0.036466 -0.100000 0.075000
v -0.036466 -0.050000 0.000000
v -0.036466 -0.050000 0.018750
v -0.036466 -0.050000 0.037500
v -0.036466 -0.050000 0.056250
v -0.036466 -0.050000 0.075000
v -0.036466 0.000000 0.000000
v -0.036466 0.000000 0.018750
v -0.036466 0.000000 0.037500
v -0.036466 0.000000 0.056250
v -0.036466 0.000000 0.075000
v -0.036466 0.050000 0.000000
v -0.036466 0.050000 0.018750
v -0.036466 0.050000 0.037500
v -0.036466 0.050000 0.056250
v -0.036466 0.050000 0.075000
v -0.036466 0.100000 0.000000
v -0.036466 0.100000 0.018750
v -0.036466 0.100000 0.037500
v -0.036466 0.100000 0.056250
v -0.036466 0.100000 0.075000
v -0.018233 -0.100000 0.000000
v -0.018233 -0.100000 0.018750
v -0.018233 -0.100000 0.037500
v -0.018233 -0.100000 0.056250
v -0.018233 -0.100000 0.075000
v -0.018233 -0.050000 0.000000
v -0.018233 -0.050000 0.075000
v -0.018233 0.000000 0.000000
v -0.018233 0.000000 0.075000
v -0.018233 0.050000 0.000000
v -0.018233 0.050000 0.075000
v -0.018233 0.100000 0.000000
v -0.018233 0.100000 0.018750
v -0.018233 0.100000 0.037500
v -0.018233 0.100000 0.056250
v -0.018233 0.100000 0.075000
v 0.000000 -0.100000 0.000000
v 0.000000 -0.100000 0.018750
v 0.000000 -0.100000 0.037500
v 0.000000 -0.100000 0.056250
v 0.000000 -0.100000 0.075000
v 0.000000 -0.050000 0.000000
v 0.000000 -0.050000 0.075000
v 0.000000 0.000000 0.000000
v 0.000000 0.000000 0.075000
v 0.000000 0.050000 0.000000
v 0.000000 0.050000 0.075000
v 0.000000 0.100000 0.000000
v 0.000000 0.100000 0.018750
v 0.000000 0.100000 0.037500
v 0.000000 0.100000 0.056250
v 0.000000 0.100000 0.075000
v 0.018233 -0.100000 0.000000
v 0.018233 -0.100000 0.018750
v 0.018233 -0.100000 0.037500
v 0.018233 -0.100000 0.056250
v 0.018233 -0.100000 0.075000
v 0.018233 -0.050000 0.000000
v 0.018233 -0.050000 0.075000
v 0.018233 0.000000 0.000000
v 0.018233 0.000000 0.075000
v 0.018233 0.050000 0.000000
v 0.018233 0.050000 0.075000
v 0.018233 0.100000 0.000000
v 0.018233 0.100000 0.018750
v 0.018233 0.100000 0.037500
v 0.018233 0.100000 0.056250
v 0.018233 0.100000 0.075000
v 0.036466 -0.100000 0.000000
v 0.036466 -0.100000 0.018750
v 0.036466 -0.100000 0.037500
v 0.036466 -0.100000 0.056250
v 0.036466 -0.100000 0.075000
v 0.036466 -0.050000 0.000000
v 0.036466 -0.050000 0.018750
v 0.036466 -0.050000 0.037500
v 0.036466 -0.050000 0.056250
v 0.036466 -0.050000 0.075000
v 0.036466 0.000000 0.000000
v 0.036466 0.000000 0.018750
v 0.036466 0.000000 0.037500
v 0.036466 0.000000 0.056250
v 0.036466 0.000000 0.075000
v 0.036466 0.050000 0.000000
v 0.036466 0.050000 0.018750
v 0.036466 0.050000 0.037500
v 0.036466 0.050000 0.056250
v 0.036466 0.050000 0.075000
v 0.036466 0.100000 0.000000
v 0.036466 0.100000 0.018750
v 0.036466 0.100000 0.037500
v 0.036466 0.100000 0.056250
v 0.036466 0.100000 0.075000
f 94 69 95
f 98 72 73
f 74 79 75
f 78 82 83
f 1 26 2
f 5 29 30
f 21 16 22
f 25 19 20
f 5 30 10
f 25 36 41
f 21 37 16
f 1 31 26
f 58 79 74
f 42 63 58
f 26 47 42
f 58 63 79
f 63 84 79
f 42 47 63
f 47 65 63
f 63 65 84
f 65 89 84
f 26 31 47
f 31 49 47
f 47 49 65
f 49 67 65
f 65 67 89
f 67 94 89
f 6 31 1
f 11 33 6
f 16 35 11
f 6 33 31
f 33 49 31
f 11 35 33
f 35 51 33
f 33 51 49
f 51 67 49
f 16 37 35
f 37 53 35
f 35 53 51
f 53 69 51
f 51 69 67
f 69 94 67
f 73 93 98
f 57 68 73
f 41 52 57
f 73 68 93
f 68 88 93
f 57 52 68
f 52 66 68
f 68 66 88
f 66 83 88
f 41 36 52
f 36 50 52
f 52 50 66
f 50 64 66
f 66 64 83
f 64 78 83
f 20 36 25
f 15 34 20
f 10 32 15
f 20 34 36
f 34 50 36
f 15 32 34
f 32 48 34
f 34 48 50
f 48 64 50
f 10 30 32
f 30 46 32
f 32 46 48
f 46 62 48
f 48 62 64
f 62 78 64
f 10 4 5
f 15 9 10
f 20 14 15
f 10 9 4
f 9 3 4
f 15 14 9
f 14 8 9
f 9 8 3
f 8 2 3
f 20 19 14
f 19 13 14
f 14 13 8
f 13 7 8
f 8 7 2
f 7 1 2
f 24 19 25
f 23 18 24
f 22 17 23
f 24 18 19
f 18 13 19
f 23 17 18
f 17 12 18
f 18 12 13
f 12 7 13
f 22 16 17
f 16 11 17
f 17 11 12
f 11 6 12
f 12 6 7
f 6 1 7
f 62 77 78
f 46 61 62
f 30 45 46
f 62 61 77
f 61 76 77
f 46 45 61
f 45 60 61
f 61 60 76
f 60 75 76
f 30 29 45
f 29 44 45
f 45 44 60
f 44 59 60
f 60 59 75
f 59 74 75
f 4 29 5
f 3 28 4
f 2 27 3
f 4 28 29
f 28 44 29
f 3 27 28
f 27 43 28
f 28 43 44
f 43 59 44
f 2 26 27
f 26 42 27
f 27 42 43
f 42 58 43
f 43 58 59
f 58 74 59
f 93 97 98
f 88 92 93
f 83 87 88
f 93 92 97
f 92 96 97
f 88 87 92
f 87 91 92
f 92 91 96
f 91 95 96
f 83 82 87
f 82 86 87
f 87 86 91
f 86 90 91
f 91 90 95
f 90 94 95
f 77 82 78
f 76 81 77
f 75 80 76
f 77 81 82
f 81 86 82
f 76 80 81
f 80 85 81
f 81 85 86
f 85 90 86
f 75 79 80
f 79 84 80
f 80 84 85
f 84 89 85
f 85 89 90
f 89 94 90
f 41 24 25
f 57 40 41
f 73 56 57
f 41 40 24
f 40 23 24
f 57 56 40
f 56 39 40
f 40 39 23
f 39 22 23
f 73 72 56
f 72 55 56
f 56 55 39
f 55 38 39
f 39 38 22
f 38 21 22
f 97 72 98
f 96 71 97
f 95 70 96
f 97 71 72
f 71 55 72
f 96 70 71
f 70 54 71
f 71 54 55
f 54 38 55
f 95 69 70
f 69 53 70
f 70 53 54
f 53 37 54
f 54 37 38
f 37 21 38
