# https://github.com/mikedh/trimesh
v -2.58864078 -64.94572816 -30.00000000
v 0.00000000 -65.00000000 -30.00000000
v 2.58864078 -64.94572816 -30.00000000
v 5.13563107 -64.78417476 -30.00000000
v 7.64223301 -64.51407767 -30.00000000
v 10.10592233 -64.13417476 -30.00000000
v 12.52796117 -63.64572816 -30.00000000
v 14.90582524 -63.04747573 -30.00000000
v 17.23951456 -62.33815534 -30.00000000
v 19.52776699 -61.52029126 -30.00000000
v 21.76805825 -60.59262136 -30.00000000
v 23.96038835 -59.55514563 -30.00000000
v 26.10223301 -58.40912621 -30.00000000
v 28.19737864 -57.15456311 -30.00000000
v 30.23194175 -55.79524272 -30.00000000
v 32.19330097 -54.33747573 -30.00000000
v 34.08019417 -52.78126214 -30.00000000
v 35.89009709 -51.12786408 -30.00000000
v 37.62427184 -49.37980583 -30.00000000
v 39.28019417 -47.53582524 -30.00000000
v 40.85786408 -45.59970874 -30.00000000
v 42.35728155 -43.57019417 -30.00000000
v 43.77970874 -41.44980583 -30.00000000
v 45.12262136 -39.23854369 -30.00000000
v 46.38854369 -36.93766990 -30.00000000
v 47.57873786 -34.54339806 -30.00000000
v 48.68436893 -32.06203883 -30.00000000
v 49.69281553 -29.50242718 -30.00000000
v 50.60407767 -26.87087379 -30.00000000
v 51.41689320 -24.16737864 -30.00000000
v 52.13252427 -21.39320388 -30.00000000
v 52.75097087 -18.54708738 -30.00000000
v 53.27349515 -15.63155340 -30.00000000
v 53.70009709 -12.64470874 -30.00000000
v 54.02951456 -9.58844660 -30.00000000
v 54.26553398 -6.46213592 -30.00000000
v 54.40689320 -3.26640777 -30.00000000
v 54.45359223 -0.00000000 -30.00000000
v 54.40689320 3.26640777 -30.00000000
v 54.26553398 6.46213592 -30.00000000
v 54.02951456 9.58844660 -30.00000000
v 53.70009709 12.64407767 -30.00000000
v 53.27349515 15.63155340 -30.00000000
v 52.75097087 18.54708738 -30.00000000
v 52.13252427 21.39320388 -30.00000000
v 51.41689320 24.16737864 -30.00000000
v 50.60407767 26.87087379 -30.00000000
v 49.69281553 29.50242718 -30.00000000
v 48.68436893 32.06203883 -30.00000000
v 47.57873786 34.54339806 -30.00000000
v 46.38854369 36.93766990 -30.00000000
v 45.12262136 39.23854369 -30.00000000
v 43.77970874 41.44980583 -30.00000000
v 42.35728155 43.57019417 -30.00000000
v 40.85786408 45.59970874 -30.00000000
v 39.28019417 47.53582524 -30.00000000
v 37.62427184 49.37980583 -30.00000000
v 35.89009709 51.12786408 -30.00000000
v 34.08019417 52.78126214 -30.00000000
v 32.19330097 54.33747573 -30.00000000
v 30.23194175 55.79524272 -30.00000000
v 28.19737864 57.15456311 -30.00000000
v 26.10223301 58.40912621 -30.00000000
v 23.96038835 59.55514563 -30.00000000
v 21.76805825 60.59262136 -30.00000000
v 19.52776699 61.52029126 -30.00000000
v 17.23951456 62.33815534 -30.00000000
v 14.90582524 63.04747573 -30.00000000
v 12.52796117 63.64572816 -30.00000000
v 10.10592233 64.13417476 -30.00000000
v 7.64223301 64.51407767 -30.00000000
v 5.13563107 64.78417476 -30.00000000
v 2.58864078 64.94572816 -30.00000000
v 0.00000000 65.00000000 -30.00000000
v -2.58864078 64.94572816 -30.00000000
v -5.13563107 64.78417476 -30.00000000
v -7.64223301 64.51407767 -30.00000000
v -10.10592233 64.13417476 -30.00000000
v -12.52796117 63.64572816 -30.00000000
v -14.90582524 63.04747573 -30.00000000
v -17.23951456 62.33815534 -30.00000000
v -19.52776699 61.52029126 -30.00000000
v -21.76805825 60.59262136 -30.00000000
v -23.96038835 59.55514563 -30.00000000
v -26.10223301 58.40912621 -30.00000000
v -28.19737864 57.15456311 -30.00000000
v -30.23194175 55.79524272 -30.00000000
v -32.19330097 54.33747573 -30.00000000
v -34.08019417 52.78126214 -30.00000000
v -35.89009709 51.12786408 -30.00000000
v -37.62427184 49.37980583 -30.00000000
v -39.28019417 47.53582524 -30.00000000
v -40.85786408 45.59970874 -30.00000000
v -42.35728155 43.57019417 -30.00000000
v -43.77970874 41.44980583 -30.00000000
v -45.12262136 39.23854369 -30.00000000
v -46.38854369 36.93766990 -30.00000000
v -47.57873786 34.54339806 -30.00000000
v -48.68436893 32.06203883 -30.00000000
v -49.69281553 29.50242718 -30.00000000
v -50.60407767 26.87087379 -30.00000000
v -51.41689320 24.16737864 -30.00000000
v -52.13252427 21.39320388 -30.00000000
v -52.75097087 18.54708738 -30.00000000
v -53.27349515 15.63155340 -30.00000000
v -53.70009709 12.64407767 -30.00000000
v -54.02951456 9.58844660 -30.00000000
v -54.26553398 6.46213592 -30.00000000
v -54.40689320 3.26640777 -30.00000000
v -54.45359223 -0.00000000 -30.00000000
v -54.40689320 -3.26640777 -30.00000000
v -54.26553398 -6.46213592 -30.00000000
v -54.02951456 -9.58844660 -30.00000000
v -53.70009709 -12.64533981 -30.00000000
v -53.27349515 -15.63155340 -30.00000000
v -52.75097087 -18.54708738 -30.00000000
v -52.13252427 -21.39320388 -30.00000000
v -51.41689320 -24.16737864 -30.00000000
v -50.60407767 -26.87087379 -30.00000000
v -49.69281553 -29.50242718 -30.00000000
v -48.68436893 -32.06203883 -30.00000000
v -47.57873786 -34.54339806 -30.00000000
v -46.38854369 -36.93766990 -30.00000000
v -45.12262136 -39.23854369 -30.00000000
v -43.77970874 -41.44980583 -30.00000000
v -42.35728155 -43.57019417 -30.00000000
v -40.85786408 -45.59970874 -30.00000000
v -39.28019417 -47.53582524 -30.00000000
v -37.62427184 -49.37980583 -30.00000000
v -35.89009709 -51.12786408 -30.00000000
v -34.08019417 -52.78126214 -30.00000000
v -32.19330097 -54.33747573 -30.00000000
v -30.23194175 -55.79524272 -30.00000000
v -28.19737864 -57.15456311 -30.00000000
v -26.10223301 -58.40912621 -30.00000000
v -23.96038835 -59.55514563 -30.00000000
v -21.76805825 -60.59262136 -30.00000000
v -19.52776699 -61.52029126 -30.00000000
v -17.23951456 -62.33815534 -30.00000000
v -14.90582524 -63.04747573 -30.00000000
v -12.52796117 -63.64572816 -30.00000000
v -10.10592233 -64.13417476 -30.00000000
v -7.64223301 -64.51407767 -30.00000000
v -5.13563107 -64.78417476 -30.00000000
v 1.52592233 -34.78951456 -30.00000000
v 0.00126214 -34.84504854 -30.00000000
v -1.49563107 -34.78951456 -30.00000000
v -2.91553398 -34.62669903 -30.00000000
v -4.26349515 -34.35786408 -30.00000000
v -5.54330097 -33.98679612 -30.00000000
v -6.76378641 -33.51223301 -30.00000000
v -7.93126214 -32.93291262 -30.00000000
v -9.05203883 -32.24757282 -30.00000000
v -10.13116505 -31.44864078 -30.00000000
v -11.17116505 -30.53233010 -30.00000000
v -12.17456311 -29.49106796 -30.00000000
v -13.14262136 -28.32233010 -30.00000000
v -14.06398058 -27.02990291 -30.00000000
v -14.92475728 -25.61504854 -30.00000000
v -15.71990291 -24.06009709 -30.00000000
v -16.45194175 -22.35116505 -30.00000000
v -17.11582524 -20.48572816 -30.00000000
v -17.71155340 -18.46504854 -30.00000000
v -18.23281553 -16.28912621 -30.00000000
v -18.67834951 -13.95669903 -30.00000000
v -19.04689320 -11.47029126 -30.00000000
v -19.33466019 -8.82990291 -30.00000000
v -19.54165049 -6.03805825 -30.00000000
v -19.66660194 -3.09349515 -30.00000000
v -19.70825243 -0.00000000 -30.00000000
v -19.66660194 3.09349515 -30.00000000
v -19.54165049 6.03805825 -30.00000000
v -19.33466019 8.82990291 -30.00000000
v -19.04689320 11.47029126 -30.00000000
v -18.67834951 13.95669903 -30.00000000
v -18.23281553 16.28912621 -30.00000000
v -17.71155340 18.46504854 -30.00000000
v -17.11582524 20.48572816 -30.00000000
v -16.45194175 22.35116505 -30.00000000
v -15.71990291 24.06009709 -30.00000000
v -14.92475728 25.61504854 -30.00000000
v -14.06398058 27.02990291 -30.00000000
v -13.14262136 28.32233010 -30.00000000
v -12.17456311 29.49106796 -30.00000000
v -11.17116505 30.53233010 -30.00000000
v -10.13116505 31.44864078 -30.00000000
v -9.05203883 32.24757282 -30.00000000
v -7.93126214 32.93291262 -30.00000000
v -6.76378641 33.51223301 -30.00000000
v -5.54330097 33.98679612 -30.00000000
v -4.26349515 34.35786408 -30.00000000
v -2.91553398 34.62669903 -30.00000000
v -1.49563107 34.78951456 -30.00000000
v 0.00126214 34.84504854 -30.00000000
v 1.52592233 34.78951456 -30.00000000
v 2.97485437 34.62543689 -30.00000000
v 4.34679612 34.35533981 -30.00000000
v 5.65058252 33.98174757 -30.00000000
v 6.88873786 33.50592233 -30.00000000
v 8.07135922 32.92660194 -30.00000000
v 9.20349515 32.23873786 -30.00000000
v 10.29145631 31.44106796 -30.00000000
v 11.33776699 30.52475728 -30.00000000
v 12.34495146 29.48601942 -30.00000000
v 13.31300971 28.31980583 -30.00000000
v 14.23563107 27.02864078 -30.00000000
v 15.09514563 25.61504854 -30.00000000
v 15.89029126 24.06009709 -30.00000000
v 16.62106796 22.35116505 -30.00000000
v 17.28621359 20.48572816 -30.00000000
v 17.88067961 18.46504854 -30.00000000
v 18.40320388 16.28912621 -30.00000000
v 18.84873786 13.95669903 -30.00000000
v 19.21728155 11.47029126 -30.00000000
v 19.50504854 8.82990291 -30.00000000
v 19.71203883 6.03805825 -30.00000000
v 19.83699029 3.09349515 -30.00000000
v 19.87864078 -0.00000000 -30.00000000
v 19.83699029 -3.09349515 -30.00000000
v 19.71203883 -6.03805825 -30.00000000
v 19.50504854 -8.82990291 -30.00000000
v 19.21728155 -11.47029126 -30.00000000
v 18.84873786 -13.95669903 -30.00000000
v 18.40320388 -16.28912621 -30.00000000
v 17.88067961 -18.46504854 -30.00000000
v 17.28621359 -20.48572816 -30.00000000
v 16.62106796 -22.35116505 -30.00000000
v 15.89029126 -24.06009709 -30.00000000
v 15.09514563 -25.61504854 -30.00000000
v 14.23563107 -27.02864078 -30.00000000
v 13.31300971 -28.31980583 -30.00000000
v 12.34495146 -29.48601942 -30.00000000
v 11.33776699 -30.52475728 -30.00000000
v 10.29145631 -31.44106796 -30.00000000
v 9.20349515 -32.23873786 -30.00000000
v 8.07135922 -32.92660194 -30.00000000
v 6.88873786 -33.50592233 -30.00000000
v 5.65058252 -33.98174757 -30.00000000
v 4.34679612 -34.35533981 -30.00000000
v 2.97485437 -34.62543689 -30.00000000
v -2.58864078 -64.94572816 30.00000000
v 0.00000000 -65.00000000 30.00000000
v 2.58864078 -64.94572816 30.00000000
v 5.13563107 -64.78417476 30.00000000
v 7.64223301 -64.51407767 30.00000000
v 10.10592233 -64.13417476 30.00000000
v 12.52796117 -63.64572816 30.00000000
v 14.90582524 -63.04747573 30.00000000
v 17.23951456 -62.33815534 30.00000000
v 19.52776699 -61.52029126 30.00000000
v 21.76805825 -60.59262136 30.00000000
v 23.96038835 -59.55514563 30.00000000
v 26.10223301 -58.40912621 30.00000000
v 28.19737864 -57.15456311 30.00000000
v 30.23194175 -55.79524272 30.00000000
v 32.19330097 -54.33747573 30.00000000
v 34.08019417 -52.78126214 30.00000000
v 35.89009709 -51.12786408 30.00000000
v 37.62427184 -49.37980583 30.00000000
v 39.28019417 -47.53582524 30.00000000
v 40.85786408 -45.59970874 30.00000000
v 42.35728155 -43.57019417 30.00000000
v 43.77970874 -41.44980583 30.00000000
v 45.12262136 -39.23854369 30.00000000
v 46.38854369 -36.93766990 30.00000000
v 47.57873786 -34.54339806 30.00000000
v 48.68436893 -32.06203883 30.00000000
v 49.69281553 -29.50242718 30.00000000
v 50.60407767 -26.87087379 30.00000000
v 51.41689320 -24.16737864 30.00000000
v 52.13252427 -21.39320388 30.00000000
v 52.75097087 -18.54708738 30.00000000
v 53.27349515 -15.63155340 30.00000000
v 53.70009709 -12.64470874 30.00000000
v 54.02951456 -9.58844660 30.00000000
v 54.26553398 -6.46213592 30.00000000
v 54.40689320 -3.26640777 30.00000000
v 54.45359223 -0.00000000 30.00000000
v 54.40689320 3.26640777 30.00000000
v 54.26553398 6.46213592 30.00000000
v 54.02951456 9.58844660 30.00000000
v 53.70009709 12.64407767 30.00000000
v 53.27349515 15.63155340 30.00000000
v 52.75097087 18.54708738 30.00000000
v 52.13252427 21.39320388 30.00000000
v 51.41689320 24.16737864 30.00000000
v 50.60407767 26.87087379 30.00000000
v 49.69281553 29.50242718 30.00000000
v 48.68436893 32.06203883 30.00000000
v 47.57873786 34.54339806 30.00000000
v 46.38854369 36.93766990 30.00000000
v 45.12262136 39.23854369 30.00000000
v 43.77970874 41.44980583 30.00000000
v 42.35728155 43.57019417 30.00000000
v 40.85786408 45.59970874 30.00000000
v 39.28019417 47.53582524 30.00000000
v 37.62427184 49.37980583 30.00000000
v 35.89009709 51.12786408 30.00000000
v 34.08019417 52.78126214 30.00000000
v 32.19330097 54.33747573 30.00000000
v 30.23194175 55.79524272 30.00000000
v 28.19737864 57.15456311 30.00000000
v 26.10223301 58.40912621 30.00000000
v 23.96038835 59.55514563 30.00000000
v 21.76805825 60.59262136 30.00000000
v 19.52776699 61.52029126 30.00000000
v 17.23951456 62.33815534 30.00000000
v 14.90582524 63.04747573 30.00000000
v 12.52796117 63.64572816 30.00000000
v 10.10592233 64.13417476 30.00000000
v 7.64223301 64.51407767 30.00000000
v 5.13563107 64.78417476 30.00000000
v 2.58864078 64.94572816 30.00000000
v 0.00000000 65.00000000 30.00000000
v -2.58864078 64.94572816 30.00000000
v -5.13563107 64.78417476 30.00000000
v -7.64223301 64.51407767 30.00000000
v -10.10592233 64.13417476 30.00000000
v -12.52796117 63.64572816 30.00000000
v -14.90582524 63.04747573 30.00000000
v -17.23951456 62.33815534 30.00000000
v -19.52776699 61.52029126 30.00000000
v -21.76805825 60.59262136 30.00000000
v -23.96038835 59.55514563 30.00000000
v -26.10223301 58.40912621 30.00000000
v -28.19737864 57.15456311 30.00000000
v -30.23194175 55.79524272 30.00000000
v -32.19330097 54.33747573 30.00000000
v -34.08019417 52.78126214 30.00000000
v -35.89009709 51.12786408 30.00000000
v -37.62427184 49.37980583 30.00000000
v -39.28019417 47.53582524 30.00000000
v -40.85786408 45.59970874 30.00000000
v -42.35728155 43.57019417 30.00000000
v -43.77970874 41.44980583 30.00000000
v -45.12262136 39.23854369 30.00000000
v -46.38854369 36.93766990 30.00000000
v -47.57873786 34.54339806 30.00000000
v -48.68436893 32.06203883 30.00000000
v -49.69281553 29.50242718 30.00000000
v -50.60407767 26.87087379 30.00000000
v -51.41689320 24.16737864 30.00000000
v -52.13252427 21.39320388 30.00000000
v -52.75097087 18.54708738 30.00000000
v -53.27349515 15.63155340 30.00000000
v -53.70009709 12.64407767 30.00000000
v -54.02951456 9.58844660 30.00000000
v -54.26553398 6.46213592 30.00000000
v -54.40689320 3.26640777 30.00000000
v -54.45359223 -0.00000000 30.00000000
v -54.40689320 -3.26640777 30.00000000
v -54.26553398 -6.46213592 30.00000000
v -54.02951456 -9.58844660 30.00000000
v -53.70009709 -12.64533981 30.00000000
v -53.27349515 -15.63155340 30.00000000
v -52.75097087 -18.54708738 30.00000000
v -52.13252427 -21.39320388 30.00000000
v -51.41689320 -24.16737864 30.00000000
v -50.60407767 -26.87087379 30.00000000
v -49.69281553 -29.50242718 30.00000000
v -48.68436893 -32.06203883 30.00000000
v -47.57873786 -34.54339806 30.00000000
v -46.38854369 -36.93766990 30.00000000
v -45.12262136 -39.23854369 30.00000000
v -43.77970874 -41.44980583 30.00000000
v -42.35728155 -43.57019417 30.00000000
v -40.85786408 -45.59970874 30.00000000
v -39.28019417 -47.53582524 30.00000000
v -37.62427184 -49.37980583 30.00000000
v -35.89009709 -51.12786408 30.00000000
v -34.08019417 -52.78126214 30.00000000
v -32.19330097 -54.33747573 30.00000000
v -30.23194175 -55.79524272 30.00000000
v -28.19737864 -57.15456311 30.00000000
v -26.10223301 -58.40912621 30.00000000
v -23.96038835 -59.55514563 30.00000000
v -21.76805825 -60.59262136 30.00000000
v -19.52776699 -61.52029126 30.00000000
v -17.23951456 -62.33815534 30.00000000
v -14.90582524 -63.04747573 30.00000000
v -12.52796117 -63.64572816 30.00000000
v -10.10592233 -64.13417476 30.00000000
v -7.64223301 -64.51407767 30.00000000
v -5.13563107 -64.78417476 30.00000000
v 1.52592233 -34.78951456 30.00000000
v 0.00126214 -34.84504854 30.00000000
v -1.49563107 -34.78951456 30.00000000
v -2.91553398 -34.62669903 30.00000000
v -4.26349515 -34.35786408 30.00000000
v -5.54330097 -33.98679612 30.00000000
v -6.76378641 -33.51223301 30.00000000
v -7.93126214 -32.93291262 30.00000000
v -9.05203883 -32.24757282 30.00000000
v -10.13116505 -31.44864078 30.00000000
v -11.17116505 -30.53233010 30.00000000
v -12.17456311 -29.49106796 30.00000000
v -13.14262136 -28.32233010 30.00000000
v -14.06398058 -27.02990291 30.00000000
v -14.92475728 -25.61504854 30.00000000
v -15.71990291 -24.06009709 30.00000000
v -16.45194175 -22.35116505 30.00000000
v -17.11582524 -20.48572816 30.00000000
v -17.71155340 -18.46504854 30.00000000
v -18.23281553 -16.28912621 30.00000000
v -18.67834951 -13.95669903 30.00000000
v -19.04689320 -11.47029126 30.00000000
v -19.33466019 -8.82990291 30.00000000
v -19.54165049 -6.03805825 30.00000000
v -19.66660194 -3.09349515 30.00000000
v -19.70825243 -0.00000000 30.00000000
v -19.66660194 3.09349515 30.00000000
v -19.54165049 6.03805825 30.00000000
v -19.33466019 8.82990291 30.00000000
v -19.04689320 11.47029126 30.00000000
v -18.67834951 13.95669903 30.00000000
v -18.23281553 16.28912621 30.00000000
v -17.71155340 18.46504854 30.00000000
v -17.11582524 20.48572816 30.00000000
v -16.45194175 22.35116505 30.00000000
v -15.71990291 24.06009709 30.00000000
v -14.92475728 25.61504854 30.00000000
v -14.06398058 27.02990291 30.00000000
v -13.14262136 28.32233010 30.00000000
v -12.17456311 29.49106796 30.00000000
v -11.17116505 30.53233010 30.00000000
v -10.13116505 31.44864078 30.00000000
v -9.05203883 32.24757282 30.00000000
v -7.93126214 32.93291262 30.00000000
v -6.76378641 33.51223301 30.00000000
v -5.54330097 33.98679612 30.00000000
v -4.26349515 34.35786408 30.00000000
v -2.91553398 34.62669903 30.00000000
v -1.49563107 34.78951456 30.00000000
v 0.00126214 34.84504854 30.00000000
v 1.52592233 34.78951456 30.00000000
v 2.97485437 34.62543689 30.00000000
v 4.34679612 34.35533981 30.00000000
v 5.65058252 33.98174757 30.00000000
v 6.88873786 33.50592233 30.00000000
v 8.07135922 32.92660194 30.00000000
v 9.20349515 32.23873786 30.00000000
v 10.29145631 31.44106796 30.00000000
v 11.33776699 30.52475728 30.00000000
v 12.34495146 29.48601942 30.00000000
v 13.31300971 28.31980583 30.00000000
v 14.23563107 27.02864078 30.00000000
v 15.09514563 25.61504854 30.00000000
v 15.89029126 24.06009709 30.00000000
v 16.62106796 22.35116505 30.00000000
v 17.28621359 20.48572816 30.00000000
v 17.88067961 18.46504854 30.00000000
v 18.40320388 16.28912621 30.00000000
v 18.84873786 13.95669903 30.00000000
v 19.21728155 11.47029126 30.00000000
v 19.50504854 8.82990291 30.00000000
v 19.71203883 6.03805825 30.00000000
v 19.83699029 3.09349515 30.00000000
v 19.87864078 -0.00000000 30.00000000
v 19.83699029 -3.09349515 30.00000000
v 19.71203883 -6.03805825 30.00000000
v 19.50504854 -8.82990291 30.00000000
v 19.21728155 -11.47029126 30.00000000
v 18.84873786 -13.95669903 30.00000000
v 18.40320388 -16.28912621 30.00000000
v 17.88067961 -18.46504854 30.00000000
v 17.28621359 -20.48572816 30.00000000
v 16.62106796 -22.35116505 30.00000000
v 15.89029126 -24.06009709 30.00000000
v 15.09514563 -25.61504854 30.00000000
v 14.23563107 -27.02864078 30.00000000
v 13.31300971 -28.31980583 30.00000000
v 12.34495146 -29.48601942 30.00000000
v 11.33776699 -30.52475728 30.00000000
v 10.29145631 -31.44106796 30.00000000
v 9.20349515 -32.23873786 30.00000000
v 8.07135922 -32.92660194 30.00000000
v 6.88873786 -33.50592233 30.00000000
v 5.65058252 -33.98174757 30.00000000
v 4.34679612 -34.35533981 30.00000000
v 2.97485437 -34.62543689 30.00000000
f 218 38 37
f 219 218 37
f 219 37 36
f 220 219 36
f 220 36 35
f 39 38 218
f 39 218 217
f 40 39 217
f 40 217 216
f 41 40 216
f 221 220 35
f 221 35 34
f 41 216 215
f 42 41 215
f 221 34 33
f 222 221 33
f 222 33 32
f 223 222 32
f 223 32 31
f 43 42 215
f 43 215 214
f 44 43 214
f 44 214 213
f 45 44 213
f 224 223 31
f 224 31 30
f 224 30 29
f 225 224 29
f 225 29 28
f 45 213 212
f 46 45 212
f 47 46 212
f 47 212 211
f 48 47 211
f 226 225 28
f 226 28 27
f 48 211 210
f 49 48 210
f 226 27 26
f 227 226 26
f 227 26 25
f 228 227 25
f 228 25 24
f 228 24 23
f 229 228 23
f 229 23 22
f 50 49 210
f 50 210 209
f 51 50 209
f 51 209 208
f 52 51 208
f 53 52 208
f 53 208 207
f 54 53 207
f 230 229 22
f 230 22 21
f 230 21 20
f 231 230 20
f 231 20 19
f 54 207 206
f 55 54 206
f 56 55 206
f 56 206 205
f 57 56 205
f 231 19 18
f 232 231 18
f 232 18 17
f 233 232 17
f 233 17 16
f 233 16 15
f 234 233 15
f 234 15 14
f 58 57 205
f 58 205 204
f 59 58 204
f 59 204 203
f 60 59 203
f 61 60 203
f 61 203 202
f 62 61 202
f 234 14 13
f 235 234 13
f 235 13 12
f 236 235 12
f 236 12 11
f 236 11 10
f 237 236 10
f 237 10 9
f 238 237 9
f 238 9 8
f 238 8 7
f 239 238 7
f 239 7 6
f 240 239 6
f 240 6 5
f 240 5 4
f 145 240 4
f 145 4 3
f 146 145 3
f 146 3 2
f 146 2 1
f 147 146 1
f 147 1 144
f 148 147 144
f 148 144 143
f 148 143 142
f 149 148 142
f 149 142 141
f 150 149 141
f 150 141 140
f 63 62 202
f 63 202 201
f 64 63 201
f 64 201 200
f 65 64 200
f 66 65 200
f 66 200 199
f 67 66 199
f 67 199 198
f 68 67 198
f 69 68 198
f 69 198 197
f 70 69 197
f 70 197 196
f 71 70 196
f 72 71 196
f 72 196 195
f 73 72 195
f 73 195 194
f 74 73 194
f 75 74 194
f 75 194 193
f 76 75 193
f 76 193 192
f 77 76 192
f 78 77 192
f 78 192 191
f 79 78 191
f 79 191 190
f 80 79 190
f 150 140 139
f 151 150 139
f 151 139 138
f 81 80 190
f 81 190 189
f 82 81 189
f 152 151 138
f 152 138 137
f 152 137 136
f 153 152 136
f 153 136 135
f 82 189 188
f 83 82 188
f 84 83 188
f 84 188 187
f 85 84 187
f 153 135 134
f 154 153 134
f 154 134 133
f 155 154 133
f 155 133 132
f 155 132 131
f 156 155 131
f 156 131 130
f 86 85 187
f 86 187 186
f 87 86 186
f 87 186 185
f 88 87 185
f 89 88 185
f 89 185 184
f 90 89 184
f 156 130 129
f 157 156 129
f 157 129 128
f 158 157 128
f 158 128 127
f 158 127 126
f 159 158 126
f 159 126 125
f 160 159 125
f 160 125 124
f 160 124 123
f 161 160 123
f 161 123 122
f 162 161 122
f 162 122 121
f 162 121 120
f 163 162 120
f 163 120 119
f 164 163 119
f 164 119 118
f 164 118 117
f 165 164 117
f 165 117 116
f 166 165 116
f 166 116 115
f 167 166 115
f 167 115 114
f 167 114 113
f 168 167 113
f 168 113 112
f 169 168 112
f 169 112 111
f 170 169 111
f 170 111 110
f 170 110 109
f 171 170 109
f 171 109 108
f 172 171 108
f 172 108 107
f 173 172 107
f 173 107 106
f 173 106 105
f 174 173 105
f 174 105 104
f 175 174 104
f 175 104 103
f 176 175 103
f 176 103 102
f 176 102 101
f 177 176 101
f 177 101 100
f 178 177 100
f 178 100 99
f 178 99 98
f 179 178 98
f 179 98 97
f 180 179 97
f 180 97 96
f 180 96 95
f 181 180 95
f 181 95 94
f 182 181 94
f 182 94 93
f 182 93 92
f 183 182 92
f 183 92 91
f 183 91 90
f 183 90 184
f 277 278 458
f 277 458 459
f 276 277 459
f 276 459 460
f 275 276 460
f 458 278 279
f 457 458 279
f 457 279 280
f 456 457 280
f 456 280 281
f 275 460 461
f 274 275 461
f 455 456 281
f 455 281 282
f 273 274 461
f 273 461 462
f 272 273 462
f 272 462 463
f 271 272 463
f 455 282 283
f 454 455 283
f 454 283 284
f 453 454 284
f 453 284 285
f 271 463 464
f 270 271 464
f 269 270 464
f 269 464 465
f 268 269 465
f 452 453 285
f 452 285 286
f 452 286 287
f 451 452 287
f 451 287 288
f 268 465 466
f 267 268 466
f 450 451 288
f 450 288 289
f 266 267 466
f 266 466 467
f 265 266 467
f 265 467 468
f 264 265 468
f 263 264 468
f 263 468 469
f 262 263 469
f 450 289 290
f 449 450 290
f 449 290 291
f 448 449 291
f 448 291 292
f 448 292 293
f 447 448 293
f 447 293 294
f 262 469 470
f 261 262 470
f 260 261 470
f 260 470 471
f 259 260 471
f 446 447 294
f 446 294 295
f 446 295 296
f 445 446 296
f 445 296 297
f 258 259 471
f 258 471 472
f 257 258 472
f 257 472 473
f 256 257 473
f 255 256 473
f 255 473 474
f 254 255 474
f 445 297 298
f 444 445 298
f 444 298 299
f 443 444 299
f 443 299 300
f 443 300 301
f 442 443 301
f 442 301 302
f 253 254 474
f 253 474 475
f 252 253 475
f 252 475 476
f 251 252 476
f 250 251 476
f 250 476 477
f 249 250 477
f 249 477 478
f 248 249 478
f 247 248 478
f 247 478 479
f 246 247 479
f 246 479 480
f 245 246 480
f 244 245 480
f 244 480 385
f 243 244 385
f 243 385 386
f 242 243 386
f 241 242 386
f 241 386 387
f 384 241 387
f 384 387 388
f 383 384 388
f 382 383 388
f 382 388 389
f 381 382 389
f 381 389 390
f 380 381 390
f 442 302 303
f 441 442 303
f 441 303 304
f 440 441 304
f 440 304 305
f 440 305 306
f 439 440 306
f 439 306 307
f 438 439 307
f 438 307 308
f 438 308 309
f 437 438 309
f 437 309 310
f 436 437 310
f 436 310 311
f 436 311 312
f 435 436 312
f 435 312 313
f 434 435 313
f 434 313 314
f 434 314 315
f 433 434 315
f 433 315 316
f 432 433 316
f 432 316 317
f 432 317 318
f 431 432 318
f 431 318 319
f 430 431 319
f 430 319 320
f 379 380 390
f 379 390 391
f 378 379 391
f 430 320 321
f 429 430 321
f 429 321 322
f 378 391 392
f 377 378 392
f 376 377 392
f 376 392 393
f 375 376 393
f 428 429 322
f 428 322 323
f 428 323 324
f 427 428 324
f 427 324 325
f 374 375 393
f 374 393 394
f 373 374 394
f 373 394 395
f 372 373 395
f 371 372 395
f 371 395 396
f 370 371 396
f 427 325 326
f 426 427 326
f 426 326 327
f 425 426 327
f 425 327 328
f 425 328 329
f 424 425 329
f 424 329 330
f 369 370 396
f 369 396 397
f 368 369 397
f 368 397 398
f 367 368 398
f 366 367 398
f 366 398 399
f 365 366 399
f 365 399 400
f 364 365 400
f 363 364 400
f 363 400 401
f 362 363 401
f 362 401 402
f 361 362 402
f 360 361 402
f 360 402 403
f 359 360 403
f 359 403 404
f 358 359 404
f 357 358 404
f 357 404 405
f 356 357 405
f 356 405 406
f 355 356 406
f 355 406 407
f 354 355 407
f 353 354 407
f 353 407 408
f 352 353 408
f 352 408 409
f 351 352 409
f 351 409 410
f 350 351 410
f 349 350 410
f 349 410 411
f 348 349 411
f 348 411 412
f 347 348 412
f 347 412 413
f 346 347 413
f 345 346 413
f 345 413 414
f 344 345 414
f 344 414 415
f 343 344 415
f 343 415 416
f 342 343 416
f 341 342 416
f 341 416 417
f 340 341 417
f 340 417 418
f 339 340 418
f 338 339 418
f 338 418 419
f 337 338 419
f 337 419 420
f 336 337 420
f 335 336 420
f 335 420 421
f 334 335 421
f 334 421 422
f 333 334 422
f 332 333 422
f 332 422 423
f 331 332 423
f 330 331 423
f 424 330 423
f 242 241 2
f 2 241 1
f 243 242 3
f 3 242 2
f 244 243 4
f 4 243 3
f 245 244 5
f 5 244 4
f 246 245 6
f 6 245 5
f 247 246 7
f 7 246 6
f 248 247 8
f 8 247 7
f 249 248 9
f 9 248 8
f 250 249 10
f 10 249 9
f 251 250 11
f 11 250 10
f 252 251 12
f 12 251 11
f 253 252 13
f 13 252 12
f 254 253 14
f 14 253 13
f 255 254 15
f 15 254 14
f 256 255 16
f 16 255 15
f 257 256 17
f 17 256 16
f 258 257 18
f 18 257 17
f 259 258 19
f 19 258 18
f 260 259 20
f 20 259 19
f 261 260 21
f 21 260 20
f 262 261 22
f 22 261 21
f 263 262 23
f 23 262 22
f 264 263 24
f 24 263 23
f 265 264 25
f 25 264 24
f 266 265 26
f 26 265 25
f 267 266 27
f 27 266 26
f 268 267 28
f 28 267 27
f 269 268 29
f 29 268 28
f 270 269 30
f 30 269 29
f 271 270 31
f 31 270 30
f 272 271 32
f 32 271 31
f 273 272 33
f 33 272 32
f 274 273 34
f 34 273 33
f 275 274 35
f 35 274 34
f 276 275 36
f 36 275 35
f 277 276 37
f 37 276 36
f 278 277 38
f 38 277 37
f 279 278 39
f 39 278 38
f 280 279 40
f 40 279 39
f 281 280 41
f 41 280 40
f 282 281 42
f 42 281 41
f 283 282 43
f 43 282 42
f 284 283 44
f 44 283 43
f 285 284 45
f 45 284 44
f 286 285 46
f 46 285 45
f 287 286 47
f 47 286 46
f 288 287 48
f 48 287 47
f 289 288 49
f 49 288 48
f 290 289 50
f 50 289 49
f 291 290 51
f 51 290 50
f 292 291 52
f 52 291 51
f 293 292 53
f 53 292 52
f 294 293 54
f 54 293 53
f 295 294 55
f 55 294 54
f 296 295 56
f 56 295 55
f 297 296 57
f 57 296 56
f 298 297 58
f 58 297 57
f 299 298 59
f 59 298 58
f 300 299 60
f 60 299 59
f 301 300 61
f 61 300 60
f 302 301 62
f 62 301 61
f 303 302 63
f 63 302 62
f 304 303 64
f 64 303 63
f 305 304 65
f 65 304 64
f 306 305 66
f 66 305 65
f 307 306 67
f 67 306 66
f 308 307 68
f 68 307 67
f 309 308 69
f 69 308 68
f 310 309 70
f 70 309 69
f 311 310 71
f 71 310 70
f 312 311 72
f 72 311 71
f 313 312 73
f 73 312 72
f 314 313 74
f 74 313 73
f 315 314 75
f 75 314 74
f 316 315 76
f 76 315 75
f 317 316 77
f 77 316 76
f 318 317 78
f 78 317 77
f 319 318 79
f 79 318 78
f 320 319 80
f 80 319 79
f 321 320 81
f 81 320 80
f 322 321 82
f 82 321 81
f 323 322 83
f 83 322 82
f 324 323 84
f 84 323 83
f 325 324 85
f 85 324 84
f 326 325 86
f 86 325 85
f 327 326 87
f 87 326 86
f 328 327 88
f 88 327 87
f 329 328 89
f 89 328 88
f 330 329 90
f 90 329 89
f 331 330 91
f 91 330 90
f 332 331 92
f 92 331 91
f 333 332 93
f 93 332 92
f 334 333 94
f 94 333 93
f 335 334 95
f 95 334 94
f 336 335 96
f 96 335 95
f 337 336 97
f 97 336 96
f 338 337 98
f 98 337 97
f 339 338 99
f 99 338 98
f 340 339 100
f 100 339 99
f 341 340 101
f 101 340 100
f 342 341 102
f 102 341 101
f 343 342 103
f 103 342 102
f 344 343 104
f 104 343 103
f 345 344 105
f 105 344 104
f 346 345 106
f 106 345 105
f 347 346 107
f 107 346 106
f 348 347 108
f 108 347 107
f 349 348 109
f 109 348 108
f 350 349 110
f 110 349 109
f 351 350 111
f 111 350 110
f 352 351 112
f 112 351 111
f 353 352 113
f 113 352 112
f 354 353 114
f 114 353 113
f 355 354 115
f 115 354 114
f 356 355 116
f 116 355 115
f 357 356 117
f 117 356 116
f 358 357 118
f 118 357 117
f 359 358 119
f 119 358 118
f 360 359 120
f 120 359 119
f 361 360 121
f 121 360 120
f 362 361 122
f 122 361 121
f 363 362 123
f 123 362 122
f 364 363 124
f 124 363 123
f 365 364 125
f 125 364 124
f 366 365 126
f 126 365 125
f 367 366 127
f 127 366 126
f 368 367 128
f 128 367 127
f 369 368 129
f 129 368 128
f 370 369 130
f 130 369 129
f 371 370 131
f 131 370 130
f 372 371 132
f 132 371 131
f 373 372 133
f 133 372 132
f 374 373 134
f 134 373 133
f 375 374 135
f 135 374 134
f 376 375 136
f 136 375 135
f 377 376 137
f 137 376 136
f 378 377 138
f 138 377 137
f 379 378 139
f 139 378 138
f 380 379 140
f 140 379 139
f 381 380 141
f 141 380 140
f 382 381 142
f 142 381 141
f 383 382 143
f 143 382 142
f 241 384 1
f 1 384 144
f 384 383 144
f 144 383 143
f 386 385 146
f 146 385 145
f 387 386 147
f 147 386 146
f 388 387 148
f 148 387 147
f 389 388 149
f 149 388 148
f 390 389 150
f 150 389 149
f 391 390 151
f 151 390 150
f 392 391 152
f 152 391 151
f 393 392 153
f 153 392 152
f 394 393 154
f 154 393 153
f 395 394 155
f 155 394 154
f 396 395 156
f 156 395 155
f 397 396 157
f 157 396 156
f 398 397 158
f 158 397 157
f 399 398 159
f 159 398 158
f 400 399 160
f 160 399 159
f 401 400 161
f 161 400 160
f 402 401 162
f 162 401 161
f 403 402 163
f 163 402 162
f 404 403 164
f 164 403 163
f 405 404 165
f 165 404 164
f 406 405 166
f 166 405 165
f 407 406 167
f 167 406 166
f 408 407 168
f 168 407 167
f 409 408 169
f 169 408 168
f 410 409 170
f 170 409 169
f 411 410 171
f 171 410 170
f 412 411 172
f 172 411 171
f 413 412 173
f 173 412 172
f 414 413 174
f 174 413 173
f 415 414 175
f 175 414 174
f 416 415 176
f 176 415 175
f 417 416 177
f 177 416 176
f 418 417 178
f 178 417 177
f 419 418 179
f 179 418 178
f 420 419 180
f 180 419 179
f 421 420 181
f 181 420 180
f 422 421 182
f 182 421 181
f 423 422 183
f 183 422 182
f 424 423 184
f 184 423 183
f 425 424 185
f 185 424 184
f 426 425 186
f 186 425 185
f 427 426 187
f 187 426 186
f 428 427 188
f 188 427 187
f 429 428 189
f 189 428 188
f 430 429 190
f 190 429 189
f 431 430 191
f 191 430 190
f 432 431 192
f 192 431 191
f 433 432 193
f 193 432 192
f 434 433 194
f 194 433 193
f 435 434 195
f 195 434 194
f 436 435 196
f 196 435 195
f 437 436 197
f 197 436 196
f 438 437 198
f 198 437 197
f 439 438 199
f 199 438 198
f 440 439 200
f 200 439 199
f 441 440 201
f 201 440 200
f 442 441 202
f 202 441 201
f 443 442 203
f 203 442 202
f 444 443 204
f 204 443 203
f 445 444 205
f 205 444 204
f 446 445 206
f 206 445 205
f 447 446 207
f 207 446 206
f 448 447 208
f 208 447 207
f 449 448 209
f 209 448 208
f 450 449 210
f 210 449 209
f 451 450 211
f 211 450 210
f 452 451 212
f 212 451 211
f 453 452 213
f 213 452 212
f 454 453 214
f 214 453 213
f 455 454 215
f 215 454 214
f 456 455 216
f 216 455 215
f 457 456 217
f 217 456 216
f 458 457 218
f 218 457 217
f 459 458 219
f 219 458 218
f 460 459 220
f 220 459 219
f 461 460 221
f 221 460 220
f 462 461 222
f 222 461 221
f 463 462 223
f 223 462 222
f 464 463 224
f 224 463 223
f 465 464 225
f 225 464 224
f 466 465 226
f 226 465 225
f 467 466 227
f 227 466 226
f 468 467 228
f 228 467 227
f 469 468 229
f 229 468 228
f 470 469 230
f 230 469 229
f 471 470 231
f 231 470 230
f 472 471 232
f 232 471 231
f 473 472 233
f 233 472 232
f 474 473 234
f 234 473 233
f 475 474 235
f 235 474 234
f 476 475 236
f 236 475 235
f 477 476 237
f 237 476 236
f 478 477 238
f 238 477 237
f 479 478 239
f 239 478 238
f 385 480 145
f 145 480 240
f 480 479 240
f 240 479 239

