# https://github.com/mikedh/trimesh
v -16.95657098 12.30081074 -30.00000000
v -16.57058252 14.12961165 -30.00000000
v -15.99883495 16.24495146 -30.00000000
v -15.32864078 18.24165048 -30.00000000
v -14.56252427 20.11970874 -30.00000000
v -13.70174757 21.88291262 -30.00000000
v -12.74757281 23.53378641 -30.00000000
v -11.69873786 25.07611650 -30.00000000
v -10.55398058 26.51621359 -30.00000000
v -9.31077670 27.85786408 -30.00000000
v -7.97669903 29.09980582 -30.00000000
v -6.56689320 30.23194175 -30.00000000
v -5.08009709 31.25679611 -30.00000000
v -3.51504854 32.17563107 -30.00000000
v -1.86669903 32.98844660 -30.00000000
v -0.13126214 33.69776699 -30.00000000
v 1.69252427 34.30106796 -30.00000000
v 3.61097087 34.79834951 -30.00000000
v 5.62407767 35.18961165 -30.00000000
v 7.73310680 35.46980582 -30.00000000
v 9.94184466 35.64019417 -30.00000000
v 12.25786408 35.69825243 -30.00000000
v 14.32398058 35.65912621 -30.00000000
v 16.33077670 35.54300971 -30.00000000
v 18.26563107 35.35116505 -30.00000000
v 20.13106796 35.08359223 -30.00000000
v 21.92582524 34.74155340 -30.00000000
v 23.65116505 34.32504854 -30.00000000
v 25.30834951 33.83786408 -30.00000000
v 26.89864078 33.27747573 -30.00000000
v 28.42203883 32.64640777 -30.00000000
v 29.88233010 31.94466019 -30.00000000
v 31.27951456 31.17223301 -30.00000000
v 35.89009709 28.26174757 -30.00000000
v 49.20941748 54.67825243 -30.00000000
v 45.44446602 56.99553398 -30.00000000
v 44.27320388 57.66446602 -30.00000000
v 43.06786408 58.30436893 -30.00000000
v 41.82718447 58.91524272 -30.00000000
v 40.55116505 59.49708738 -30.00000000
v 39.24106796 60.04990291 -30.00000000
v 37.89563107 60.57368932 -30.00000000
v 36.51737864 61.06970874 -30.00000000
v 35.10378641 61.53796117 -30.00000000
v 33.65737864 61.97844660 -30.00000000
v 32.17563107 62.39116505 -30.00000000
v 30.66106796 62.77737864 -30.00000000
v 29.12504854 63.13203883 -30.00000000
v 27.58019417 63.45766990 -30.00000000
v 26.02524272 63.75048544 -30.00000000
v 24.45893204 64.01300971 -30.00000000
v 22.88252427 64.24524272 -30.00000000
v 21.29601942 64.44592233 -30.00000000
v 19.69941748 64.61504854 -30.00000000
v 18.09271845 64.75388350 -30.00000000
v 16.47592233 64.86116505 -30.00000000
v 14.84902913 64.93815534 -30.00000000
v 13.21330097 64.98485437 -30.00000000
v 11.55233010 65.00000000 -30.00000000
v 8.47019417 64.94572816 -30.00000000
v 5.42970874 64.78291262 -30.00000000
v 2.44601942 64.51155340 -30.00000000
v -0.48213592 64.13038835 -30.00000000
v -3.35223301 63.63941748 -30.00000000
v -6.16679612 63.03737864 -30.00000000
v -8.92203884 62.32553398 -30.00000000
v -11.61796117 61.50135922 -30.00000000
v -14.25582524 60.56737864 -30.00000000
v -16.83184466 59.52106796 -30.00000000
v -19.34728155 58.36495146 -30.00000000
v -21.80087379 57.09524272 -30.00000000
v -24.18378641 55.71699029 -30.00000000
v -26.48213592 54.23271845 -30.00000000
v -28.69339806 52.64368932 -30.00000000
v -30.81757282 50.94990291 -30.00000000
v -32.85087379 49.15262136 -30.00000000
v -34.79456311 47.25184466 -30.00000000
v -36.64737864 45.25009709 -30.00000000
v -38.40805825 43.14737864 -30.00000000
v -40.07786408 40.94495146 -30.00000000
v -41.65427184 38.64407767 -30.00000000
v -43.13854369 36.24601942 -30.00000000
v -44.53194175 33.74825243 -30.00000000
v -45.82689320 31.15456311 -30.00000000
v -47.00699029 28.47757282 -30.00000000
v -48.07349515 25.72106796 -30.00000000
v -49.02640777 22.88631068 -30.00000000
v -49.86446602 19.97330097 -30.00000000
v -50.58893204 16.98330097 -30.00000000
v -51.20106796 13.91631068 -30.00000000
v -51.69961165 10.77359223 -30.00000000
v -52.08708738 7.55514563 -30.00000000
v -52.36223301 4.26223301 -30.00000000
v -52.52757282 0.89359223 -30.00000000
v -52.58310680 -2.55961165 -30.00000000
v -52.48213592 -7.34310680 -30.00000000
v -52.17796117 -11.96378641 -30.00000000
v -51.66805825 -16.41407767 -30.00000000
v -50.95116505 -20.69271845 -30.00000000
v -50.02475728 -24.80097087 -30.00000000
v -48.88883495 -28.73757282 -30.00000000
v -47.53834951 -32.50000000 -30.00000000
v -45.97330097 -36.08446602 -30.00000000
v -44.19368932 -39.49097087 -30.00000000
v -42.19699029 -42.71320388 -30.00000000
v -39.98446602 -45.74737864 -30.00000000
v -37.56116505 -48.58718447 -30.00000000
v -34.94980583 -51.21621359 -30.00000000
v -32.17310680 -53.61932039 -30.00000000
v -29.23106796 -55.79524272 -30.00000000
v -26.12747573 -57.74145631 -30.00000000
v -22.86485437 -59.45669903 -30.00000000
v -19.44951456 -60.93844660 -30.00000000
v -15.88524272 -62.18796117 -30.00000000
v -12.17456311 -63.20650485 -30.00000000
v -8.32126214 -63.99407767 -30.00000000
v -4.32660194 -64.55446602 -30.00000000
v -0.19184466 -64.88893204 -30.00000000
v 4.06533981 -65.00000000 -30.00000000
v 6.27660194 -64.96466019 -30.00000000
v 8.44116505 -64.85737864 -30.00000000
v 10.57669903 -64.67941748 -30.00000000
v 12.68320388 -64.42951456 -30.00000000
v 14.75941748 -64.10766990 -30.00000000
v 16.80533981 -63.71388350 -30.00000000
v 18.82097087 -63.24689320 -30.00000000
v 20.80631068 -62.70796117 -30.00000000
v 22.75883495 -62.09582524 -30.00000000
v 24.67854369 -61.41174757 -30.00000000
v 26.56669903 -60.65446602 -30.00000000
v 28.42203883 -59.82524272 -30.00000000
v 30.23320388 -58.92533981 -30.00000000
v 31.98757282 -57.95854369 -30.00000000
v 33.68135922 -56.92737864 -30.00000000
v 35.31330097 -55.83184466 -30.00000000
v 36.88339806 -54.66941748 -30.00000000
v 38.39038835 -53.44262136 -30.00000000
v 39.83427184 -52.15145631 -30.00000000
v 41.21252427 -50.79592233 -30.00000000
v 42.52514563 -49.37854369 -30.00000000
v 43.77087379 -47.89679612 -30.00000000
v 44.95097087 -46.35446602 -30.00000000
v 46.06543689 -44.74776699 -30.00000000
v 47.10669903 -43.08174757 -30.00000000
v 48.05961165 -41.36524272 -30.00000000
v 48.92291262 -39.60330097 -30.00000000
v 49.69533981 -37.79844660 -30.00000000
v 50.37563107 -35.95194175 -30.00000000
v 50.96378641 -34.06378641 -30.00000000
v 51.46106796 -32.13650485 -30.00000000
v 51.86621359 -30.17009709 -30.00000000
v 52.18048544 -28.16708738 -30.00000000
v 52.40514563 -26.12747573 -30.00000000
v 52.53893204 -24.05252427 -30.00000000
v 52.58310680 -21.94349515 -30.00000000
v 52.54271845 -19.97456311 -30.00000000
v 52.41902913 -18.03844660 -30.00000000
v 52.21330097 -16.13388349 -30.00000000
v 51.92553398 -14.26339806 -30.00000000
v 51.55320388 -12.42572815 -30.00000000
v 51.09631068 -10.62339806 -30.00000000
v 50.55485437 -8.85640777 -30.00000000
v 49.93009709 -7.12728155 -30.00000000
v 49.22077670 -5.43601942 -30.00000000
v 48.42689320 -3.78514563 -30.00000000
v 47.55097087 -2.17466019 -30.00000000
v 46.59427184 -0.61087379 -30.00000000
v 45.57067961 0.89737864 -30.00000000
v 44.48776699 2.34631068 -30.00000000
v 43.34553398 3.73844660 -30.00000000
v 42.14145631 5.07378641 -30.00000000
v 40.87805825 6.35106796 -30.00000000
v 39.55533981 7.56902913 -30.00000000
v 38.17456311 8.72766990 -30.00000000
v 36.73699029 9.82699029 -30.00000000
v 35.24135922 10.86572816 -30.00000000
v 33.69145631 11.84388350 -30.00000000
v 32.08601942 12.76271845 -30.00000000
v 30.42631068 13.61970874 -30.00000000
v 28.72747573 14.41233010 -30.00000000
v 26.99834951 15.13553398 -30.00000000
v 25.24019417 15.78932039 -30.00000000
v 23.45174757 16.37368932 -30.00000000
v 21.63553398 16.88864078 -30.00000000
v 19.79155340 17.33417476 -30.00000000
v 17.91854369 17.71155340 -30.00000000
v 16.02029126 18.01825243 -30.00000000
v 14.09427184 18.25805825 -30.00000000
v 12.14427184 18.42718447 -30.00000000
v 10.16650485 18.52941748 -30.00000000
v 8.15339806 18.56349515 -30.00000000
v 4.90844660 18.48650486 -30.00000000
v 1.75815534 18.25427185 -30.00000000
v -1.28737864 17.86300971 -30.00000000
v -4.22815534 17.31398058 -30.00000000
v -7.06291262 16.60213592 -30.00000000
v -9.78912621 15.72747573 -30.00000000
v -12.40427184 14.68747573 -30.00000000
v -14.90582524 13.48213592 -30.00000000
v 2.54951456 -37.56873786 -30.00000000
v 1.11572816 -37.53718447 -30.00000000
v -0.25495146 -37.44504854 -30.00000000
v -1.55747573 -37.29359223 -30.00000000
v -2.17592233 -37.18946602 -30.00000000
v -2.79436893 -37.08533981 -30.00000000
v -3.96563107 -36.82029126 -30.00000000
v -5.07126214 -36.49970874 -30.00000000
v -6.11631068 -36.12737864 -30.00000000
v -7.09951456 -35.70203883 -30.00000000
v -8.02592233 -35.22621359 -30.00000000
v -8.89932039 -34.69990291 -30.00000000
v -9.72097087 -34.12058252 -30.00000000
v -10.49844660 -33.48446602 -30.00000000
v -11.22417476 -32.80291262 -30.00000000
v -11.87922330 -32.09737864 -30.00000000
v -12.46359223 -31.36786408 -30.00000000
v -12.98233010 -30.61563107 -30.00000000
v -13.43796116 -29.83563107 -30.00000000
v -13.83174757 -29.02407767 -30.00000000
v -14.16621359 -28.17970874 -30.00000000
v -14.44135922 -27.29621359 -30.00000000
v -14.65844660 -26.36980582 -30.00000000
v -14.81621359 -25.39669903 -30.00000000
v -14.91213592 -24.37436893 -30.00000000
v -14.94495146 -23.30533981 -30.00000000
v -14.91213592 -22.23757282 -30.00000000
v -14.81368932 -21.21902913 -30.00000000
v -14.65213592 -20.24844660 -30.00000000
v -14.42873786 -19.32330097 -30.00000000
v -14.14475728 -18.43728155 -30.00000000
v -13.80019417 -17.58786408 -30.00000000
v -13.39378641 -16.77000000 -30.00000000
v -12.92427184 -15.97990291 -30.00000000
v -12.38660194 -15.21504854 -30.00000000
v -11.77951456 -14.47165049 -30.00000000
v -11.09922330 -13.74970874 -30.00000000
v -10.34194175 -13.04796116 -30.00000000
v -9.52786408 -12.38660194 -30.00000000
v -8.67970874 -11.78456311 -30.00000000
v -7.79495146 -11.24058252 -30.00000000
v -6.87106796 -10.75213592 -30.00000000
v -5.90553398 -10.31922330 -30.00000000
v -4.89582524 -9.94184466 -30.00000000
v -3.83815534 -9.61873786 -30.00000000
v -2.73252427 -9.35242718 -30.00000000
v -1.57514563 -9.14291262 -30.00000000
v -0.36601942 -8.99145631 -30.00000000
v 0.89611650 -8.89932039 -30.00000000
v 2.21378641 -8.86776699 -30.00000000
v 3.55922330 -8.89805825 -30.00000000
v 4.84912621 -8.98766990 -30.00000000
v 6.07718447 -9.13533981 -30.00000000
v 7.24592233 -9.33854369 -30.00000000
v 8.35660194 -9.59601942 -30.00000000
v 9.40922330 -9.90776699 -30.00000000
v 9.90839806 -10.08951456 -30.00000000
v 10.40757282 -10.27126214 -30.00000000
v 11.35165049 -10.68650485 -30.00000000
v 12.24776699 -11.15349515 -30.00000000
v 13.09592233 -11.67097087 -30.00000000
v 13.90116505 -12.24145631 -30.00000000
v 14.66475728 -12.86621359 -30.00000000
v 15.37029126 -13.53009709 -30.00000000
v 16.00640777 -14.22174757 -30.00000000
v 16.57563107 -14.94242718 -30.00000000
v 17.08174757 -15.69466019 -30.00000000
v 17.52854369 -16.48223301 -30.00000000
v 17.91728155 -17.30766990 -30.00000000
v 18.24922330 -18.17728155 -30.00000000
v 18.52436893 -19.09485437 -30.00000000
v 18.74019417 -20.06417476 -30.00000000
v 18.89796116 -21.08650485 -30.00000000
v 18.99514563 -22.16689320 -30.00000000
v 19.02796116 -23.30281553 -30.00000000
v 18.99514563 -24.43873786 -30.00000000
v 18.89796116 -25.51660194 -30.00000000
v 18.74145631 -26.53514563 -30.00000000
v 18.52436893 -27.49815534 -30.00000000
v 18.25048544 -28.40815534 -30.00000000
v 17.92106796 -29.26893204 -30.00000000
v 17.53359223 -30.08553398 -30.00000000
v 17.09058252 -30.86174757 -30.00000000
v 16.58699029 -31.60135922 -30.00000000
v 16.02155340 -32.30815534 -30.00000000
v 15.38922330 -32.98592233 -30.00000000
v 14.68495146 -33.63844660 -30.00000000
v 13.92135922 -34.25310680 -30.00000000
v 13.11737864 -34.81728155 -30.00000000
v 12.27427184 -35.32718447 -30.00000000
v 11.39077670 -35.78660194 -30.00000000
v 10.46310680 -36.19427184 -30.00000000
v 9.48873786 -36.55145631 -30.00000000
v 8.46514563 -36.85689320 -30.00000000
v 7.38980583 -37.10932039 -30.00000000
v 6.26271845 -37.30747573 -30.00000000
v 5.08009709 -37.45135922 -30.00000000
v 3.84320388 -37.53844660 -30.00000000
v -16.95657098 12.30081074 30.00000000
v -16.57058252 14.12961165 30.00000000
v -15.99883495 16.24495146 30.00000000
v -15.32864078 18.24165048 30.00000000
v -14.56252427 20.11970874 30.00000000
v -13.70174757 21.88291262 30.00000000
v -12.74757281 23.53378641 30.00000000
v -11.69873786 25.07611650 30.00000000
v -10.55398058 26.51621359 30.00000000
v -9.31077670 27.85786408 30.00000000
v -7.97669903 29.09980582 30.00000000
v -6.56689320 30.23194175 30.00000000
v -5.08009709 31.25679611 30.00000000
v -3.51504854 32.17563107 30.00000000
v -1.86669903 32.98844660 30.00000000
v -0.13126214 33.69776699 30.00000000
v 1.69252427 34.30106796 30.00000000
v 3.61097087 34.79834951 30.00000000
v 5.62407767 35.18961165 30.00000000
v 7.73310680 35.46980582 30.00000000
v 9.94184466 35.64019417 30.00000000
v 12.25786408 35.69825243 30.00000000
v 14.32398058 35.65912621 30.00000000
v 16.33077670 35.54300971 30.00000000
v 18.26563107 35.35116505 30.00000000
v 20.13106796 35.08359223 30.00000000
v 21.92582524 34.74155340 30.00000000
v 23.65116505 34.32504854 30.00000000
v 25.30834951 33.83786408 30.00000000
v 26.89864078 33.27747573 30.00000000
v 28.42203883 32.64640777 30.00000000
v 29.88233010 31.94466019 30.00000000
v 31.27951456 31.17223301 30.00000000
v 35.89009709 28.26174757 30.00000000
v 49.20941748 54.67825243 30.00000000
v 45.44446602 56.99553398 30.00000000
v 44.27320388 57.66446602 30.00000000
v 43.06786408 58.30436893 30.00000000
v 41.82718447 58.91524272 30.00000000
v 40.55116505 59.49708738 30.00000000
v 39.24106796 60.04990291 30.00000000
v 37.89563107 60.57368932 30.00000000
v 36.51737864 61.06970874 30.00000000
v 35.10378641 61.53796117 30.00000000
v 33.65737864 61.97844660 30.00000000
v 32.17563107 62.39116505 30.00000000
v 30.66106796 62.77737864 30.00000000
v 29.12504854 63.13203883 30.00000000
v 27.58019417 63.45766990 30.00000000
v 26.02524272 63.75048544 30.00000000
v 24.45893204 64.01300971 30.00000000
v 22.88252427 64.24524272 30.00000000
v 21.29601942 64.44592233 30.00000000
v 19.69941748 64.61504854 30.00000000
v 18.09271845 64.75388350 30.00000000
v 16.47592233 64.86116505 30.00000000
v 14.84902913 64.93815534 30.00000000
v 13.21330097 64.98485437 30.00000000
v 11.55233010 65.00000000 30.00000000
v 8.47019417 64.94572816 30.00000000
v 5.42970874 64.78291262 30.00000000
v 2.44601942 64.51155340 30.00000000
v -0.48213592 64.13038835 30.00000000
v -3.35223301 63.63941748 30.00000000
v -6.16679612 63.03737864 30.00000000
v -8.92203884 62.32553398 30.00000000
v -11.61796117 61.50135922 30.00000000
v -14.25582524 60.56737864 30.00000000
v -16.83184466 59.52106796 30.00000000
v -19.34728155 58.36495146 30.00000000
v -21.80087379 57.09524272 30.00000000
v -24.18378641 55.71699029 30.00000000
v -26.48213592 54.23271845 30.00000000
v -28.69339806 52.64368932 30.00000000
v -30.81757282 50.94990291 30.00000000
v -32.85087379 49.15262136 30.00000000
v -34.79456311 47.25184466 30.00000000
v -36.64737864 45.25009709 30.00000000
v -38.40805825 43.14737864 30.00000000
v -40.07786408 40.94495146 30.00000000
v -41.65427184 38.64407767 30.00000000
v -43.13854369 36.24601942 30.00000000
v -44.53194175 33.74825243 30.00000000
v -45.82689320 31.15456311 30.00000000
v -47.00699029 28.47757282 30.00000000
v -48.07349515 25.72106796 30.00000000
v -49.02640777 22.88631068 30.00000000
v -49.86446602 19.97330097 30.00000000
v -50.58893204 16.98330097 30.00000000
v -51.20106796 13.91631068 30.00000000
v -51.69961165 10.77359223 30.00000000
v -52.08708738 7.55514563 30.00000000
v -52.36223301 4.26223301 30.00000000
v -52.52757282 0.89359223 30.00000000
v -52.58310680 -2.55961165 30.00000000
v -52.48213592 -7.34310680 30.00000000
v -52.17796117 -11.96378641 30.00000000
v -51.66805825 -16.41407767 30.00000000
v -50.95116505 -20.69271845 30.00000000
v -50.02475728 -24.80097087 30.00000000
v -48.88883495 -28.73757282 30.00000000
v -47.53834951 -32.50000000 30.00000000
v -45.97330097 -36.08446602 30.00000000
v -44.19368932 -39.49097087 30.00000000
v -42.19699029 -42.71320388 30.00000000
v -39.98446602 -45.74737864 30.00000000
v -37.56116505 -48.58718447 30.00000000
v -34.94980583 -51.21621359 30.00000000
v -32.17310680 -53.61932039 30.00000000
v -29.23106796 -55.79524272 30.00000000
v -26.12747573 -57.74145631 30.00000000
v -22.86485437 -59.45669903 30.00000000
v -19.44951456 -60.93844660 30.00000000
v -15.88524272 -62.18796117 30.00000000
v -12.17456311 -63.20650485 30.00000000
v -8.32126214 -63.99407767 30.00000000
v -4.32660194 -64.55446602 30.00000000
v -0.19184466 -64.88893204 30.00000000
v 4.06533981 -65.00000000 30.00000000
v 6.27660194 -64.96466019 30.00000000
v 8.44116505 -64.85737864 30.00000000
v 10.57669903 -64.67941748 30.00000000
v 12.68320388 -64.42951456 30.00000000
v 14.75941748 -64.10766990 30.00000000
v 16.80533981 -63.71388350 30.00000000
v 18.82097087 -63.24689320 30.00000000
v 20.80631068 -62.70796117 30.00000000
v 22.75883495 -62.09582524 30.00000000
v 24.67854369 -61.41174757 30.00000000
v 26.56669903 -60.65446602 30.00000000
v 28.42203883 -59.82524272 30.00000000
v 30.23320388 -58.92533981 30.00000000
v 31.98757282 -57.95854369 30.00000000
v 33.68135922 -56.92737864 30.00000000
v 35.31330097 -55.83184466 30.00000000
v 36.88339806 -54.66941748 30.00000000
v 38.39038835 -53.44262136 30.00000000
v 39.83427184 -52.15145631 30.00000000
v 41.21252427 -50.79592233 30.00000000
v 42.52514563 -49.37854369 30.00000000
v 43.77087379 -47.89679612 30.00000000
v 44.95097087 -46.35446602 30.00000000
v 46.06543689 -44.74776699 30.00000000
v 47.10669903 -43.08174757 30.00000000
v 48.05961165 -41.36524272 30.00000000
v 48.92291262 -39.60330097 30.00000000
v 49.69533981 -37.79844660 30.00000000
v 50.37563107 -35.95194175 30.00000000
v 50.96378641 -34.06378641 30.00000000
v 51.46106796 -32.13650485 30.00000000
v 51.86621359 -30.17009709 30.00000000
v 52.18048544 -28.16708738 30.00000000
v 52.40514563 -26.12747573 30.00000000
v 52.53893204 -24.05252427 30.00000000
v 52.58310680 -21.94349515 30.00000000
v 52.54271845 -19.97456311 30.00000000
v 52.41902913 -18.03844660 30.00000000
v 52.21330097 -16.13388349 30.00000000
v 51.92553398 -14.26339806 30.00000000
v 51.55320388 -12.42572815 30.00000000
v 51.09631068 -10.62339806 30.00000000
v 50.55485437 -8.85640777 30.00000000
v 49.93009709 -7.12728155 30.00000000
v 49.22077670 -5.43601942 30.00000000
v 48.42689320 -3.78514563 30.00000000
v 47.55097087 -2.17466019 30.00000000
v 46.59427184 -0.61087379 30.00000000
v 45.57067961 0.89737864 30.00000000
v 44.48776699 2.34631068 30.00000000
v 43.34553398 3.73844660 30.00000000
v 42.14145631 5.07378641 30.00000000
v 40.87805825 6.35106796 30.00000000
v 39.55533981 7.56902913 30.00000000
v 38.17456311 8.72766990 30.00000000
v 36.73699029 9.82699029 30.00000000
v 35.24135922 10.86572816 30.00000000
v 33.69145631 11.84388350 30.00000000
v 32.08601942 12.76271845 30.00000000
v 30.42631068 13.61970874 30.00000000
v 28.72747573 14.41233010 30.00000000
v 26.99834951 15.13553398 30.00000000
v 25.24019417 15.78932039 30.00000000
v 23.45174757 16.37368932 30.00000000
v 21.63553398 16.88864078 30.00000000
v 19.79155340 17.33417476 30.00000000
v 17.91854369 17.71155340 30.00000000
v 16.02029126 18.01825243 30.00000000
v 14.09427184 18.25805825 30.00000000
v 12.14427184 18.42718447 30.00000000
v 10.16650485 18.52941748 30.00000000
v 8.15339806 18.56349515 30.00000000
v 4.90844660 18.48650486 30.00000000
v 1.75815534 18.25427185 30.00000000
v -1.28737864 17.86300971 30.00000000
v -4.22815534 17.31398058 30.00000000
v -7.06291262 16.60213592 30.00000000
v -9.78912621 15.72747573 30.00000000
v -12.40427184 14.68747573 30.00000000
v -14.90582524 13.48213592 30.00000000
v 2.54951456 -37.56873786 30.00000000
v 1.11572816 -37.53718447 30.00000000
v -0.25495146 -37.44504854 30.00000000
v -1.55747573 -37.29359223 30.00000000
v -2.17592233 -37.18946602 30.00000000
v -2.79436893 -37.08533981 30.00000000
v -3.96563107 -36.82029126 30.00000000
v -5.07126214 -36.49970874 30.00000000
v -6.11631068 -36.12737864 30.00000000
v -7.09951456 -35.70203883 30.00000000
v -8.02592233 -35.22621359 30.00000000
v -8.89932039 -34.69990291 30.00000000
v -9.72097087 -34.12058252 30.00000000
v -10.49844660 -33.48446602 30.00000000
v -11.22417476 -32.80291262 30.00000000
v -11.87922330 -32.09737864 30.00000000
v -12.46359223 -31.36786408 30.00000000
v -12.98233010 -30.61563107 30.00000000
v -13.43796116 -29.83563107 30.00000000
v -13.83174757 -29.02407767 30.00000000
v -14.16621359 -28.17970874 30.00000000
v -14.44135922 -27.29621359 30.00000000
v -14.65844660 -26.36980582 30.00000000
v -14.81621359 -25.39669903 30.00000000
v -14.91213592 -24.37436893 30.00000000
v -14.94495146 -23.30533981 30.00000000
v -14.91213592 -22.23757282 30.00000000
v -14.81368932 -21.21902913 30.00000000
v -14.65213592 -20.24844660 30.00000000
v -14.42873786 -19.32330097 30.00000000
v -14.14475728 -18.43728155 30.00000000
v -13.80019417 -17.58786408 30.00000000
v -13.39378641 -16.77000000 30.00000000
v -12.92427184 -15.97990291 30.00000000
v -12.38660194 -15.21504854 30.00000000
v -11.77951456 -14.47165049 30.00000000
v -11.09922330 -13.74970874 30.00000000
v -10.34194175 -13.04796116 30.00000000
v -9.52786408 -12.38660194 30.00000000
v -8.67970874 -11.78456311 30.00000000
v -7.79495146 -11.24058252 30.00000000
v -6.87106796 -10.75213592 30.00000000
v -5.90553398 -10.31922330 30.00000000
v -4.89582524 -9.94184466 30.00000000
v -3.83815534 -9.61873786 30.00000000
v -2.73252427 -9.35242718 30.00000000
v -1.57514563 -9.14291262 30.00000000
v -0.36601942 -8.99145631 30.00000000
v 0.89611650 -8.89932039 30.00000000
v 2.21378641 -8.86776699 30.00000000
v 3.55922330 -8.89805825 30.00000000
v 4.84912621 -8.98766990 30.00000000
v 6.07718447 -9.13533981 30.00000000
v 7.24592233 -9.33854369 30.00000000
v 8.35660194 -9.59601942 30.00000000
v 9.40922330 -9.90776699 30.00000000
v 9.90839806 -10.08951456 30.00000000
v 10.40757282 -10.27126214 30.00000000
v 11.35165049 -10.68650485 30.00000000
v 12.24776699 -11.15349515 30.00000000
v 13.09592233 -11.67097087 30.00000000
v 13.90116505 -12.24145631 30.00000000
v 14.66475728 -12.86621359 30.00000000
v 15.37029126 -13.53009709 30.00000000
v 16.00640777 -14.22174757 30.00000000
v 16.57563107 -14.94242718 30.00000000
v 17.08174757 -15.69466019 30.00000000
v 17.52854369 -16.48223301 30.00000000
v 17.91728155 -17.30766990 30.00000000
v 18.24922330 -18.17728155 30.00000000
v 18.52436893 -19.09485437 30.00000000
v 18.74019417 -20.06417476 30.00000000
v 18.89796116 -21.08650485 30.00000000
v 18.99514563 -22.16689320 30.00000000
v 19.02796116 -23.30281553 30.00000000
v 18.99514563 -24.43873786 30.00000000
v 18.89796116 -25.51660194 30.00000000
v 18.74145631 -26.53514563 30.00000000
v 18.52436893 -27.49815534 30.00000000
v 18.25048544 -28.40815534 30.00000000
v 17.92106796 -29.26893204 30.00000000
v 17.53359223 -30.08553398 30.00000000
v 17.09058252 -30.86174757 30.00000000
v 16.58699029 -31.60135922 30.00000000
v 16.02155340 -32.30815534 30.00000000
v 15.38922330 -32.98592233 30.00000000
v 14.68495146 -33.63844660 30.00000000
v 13.92135922 -34.25310680 30.00000000
v 13.11737864 -34.81728155 30.00000000
v 12.27427184 -35.32718447 30.00000000
v 11.39077670 -35.78660194 30.00000000
v 10.46310680 -36.19427184 30.00000000
v 9.48873786 -36.55145631 30.00000000
v 8.46514563 -36.85689320 30.00000000
v 7.38980583 -37.10932039 30.00000000
v 6.26271845 -37.30747573 30.00000000
v 5.08009709 -37.45135922 30.00000000
v 3.84320388 -37.53844660 30.00000000
f 35 34 33
f 36 35 33
f 36 33 32
f 37 36 32
f 38 37 32
f 39 38 32
f 155 154 274
f 155 274 273
f 156 155 273
f 39 32 31
f 40 39 31
f 41 40 31
f 157 156 273
f 157 273 272
f 158 157 272
f 42 41 31
f 42 31 30
f 43 42 30
f 44 43 30
f 44 30 29
f 45 44 29
f 46 45 29
f 46 29 28
f 47 46 28
f 48 47 28
f 48 28 27
f 49 48 27
f 50 49 27
f 50 27 26
f 51 50 26
f 52 51 26
f 52 26 25
f 53 52 25
f 54 53 25
f 54 25 24
f 55 54 24
f 159 158 272
f 159 272 271
f 160 159 271
f 160 271 270
f 161 160 270
f 162 161 270
f 162 270 269
f 163 162 269
f 164 163 269
f 55 24 23
f 56 55 23
f 57 56 23
f 57 23 22
f 58 57 22
f 59 58 22
f 59 22 21
f 60 59 21
f 61 60 21
f 61 21 20
f 62 61 20
f 62 20 19
f 63 62 19
f 63 19 18
f 64 63 18
f 274 154 153
f 275 274 153
f 275 153 152
f 276 275 152
f 276 152 151
f 276 151 150
f 277 276 150
f 277 150 149
f 277 149 148
f 165 164 269
f 165 269 268
f 166 165 268
f 167 166 268
f 278 277 148
f 278 148 147
f 278 147 146
f 167 268 267
f 168 167 267
f 169 168 267
f 279 278 146
f 279 146 145
f 279 145 144
f 169 267 266
f 170 169 266
f 171 170 266
f 171 266 265
f 172 171 265
f 173 172 265
f 280 279 144
f 280 144 143
f 280 143 142
f 281 280 142
f 281 142 141
f 281 141 140
f 282 281 140
f 282 140 139
f 282 139 138
f 283 282 138
f 283 138 137
f 174 173 265
f 174 265 264
f 175 174 264
f 64 18 17
f 65 64 17
f 66 65 17
f 66 17 16
f 67 66 16
f 67 16 15
f 68 67 15
f 284 283 137
f 284 137 136
f 284 136 135
f 285 284 135
f 285 135 134
f 285 134 133
f 286 285 133
f 286 133 132
f 287 286 132
f 287 132 131
f 288 287 131
f 288 131 130
f 288 130 129
f 289 288 129
f 289 129 128
f 290 289 128
f 290 128 127
f 291 290 127
f 291 127 126
f 292 291 126
f 292 126 125
f 292 125 124
f 293 292 124
f 293 124 123
f 294 293 123
f 294 123 122
f 295 294 122
f 295 122 121
f 296 295 121
f 296 121 120
f 297 296 120
f 297 120 119
f 200 297 119
f 200 119 118
f 201 200 118
f 201 118 117
f 202 201 117
f 203 202 117
f 203 117 116
f 204 203 116
f 205 204 116
f 205 116 115
f 206 205 115
f 207 206 115
f 207 115 114
f 208 207 114
f 176 175 264
f 176 264 263
f 177 176 263
f 177 263 262
f 178 177 262
f 179 178 262
f 179 262 261
f 180 179 261
f 181 180 261
f 181 261 260
f 182 181 260
f 182 260 259
f 183 182 259
f 184 183 259
f 184 259 258
f 185 184 258
f 185 258 257
f 186 185 257
f 186 257 256
f 187 186 256
f 187 256 255
f 188 187 255
f 188 255 254
f 189 188 254
f 189 254 253
f 190 189 253
f 191 190 253
f 191 253 252
f 191 252 251
f 192 191 251
f 192 251 250
f 193 192 250
f 193 250 249
f 194 193 249
f 194 249 248
f 195 194 248
f 195 248 247
f 196 195 247
f 196 247 246
f 196 246 245
f 197 196 245
f 197 245 244
f 198 197 244
f 199 198 244
f 199 244 243
f 1 199 243
f 1 243 242
f 1 242 241
f 208 114 113
f 209 208 113
f 210 209 113
f 210 113 112
f 211 210 112
f 211 112 111
f 212 211 111
f 68 15 14
f 69 68 14
f 70 69 14
f 70 14 13
f 71 70 13
f 71 13 12
f 72 71 12
f 73 72 12
f 73 12 11
f 74 73 11
f 74 11 10
f 75 74 10
f 76 75 10
f 76 10 9
f 77 76 9
f 77 9 8
f 78 77 8
f 79 78 8
f 79 8 7
f 80 79 7
f 81 80 7
f 81 7 6
f 82 81 6
f 82 6 5
f 83 82 5
f 84 83 5
f 84 5 4
f 85 84 4
f 85 4 3
f 86 85 3
f 86 3 2
f 87 86 2
f 88 87 2
f 88 2 1
f 89 88 1
f 212 111 110
f 213 212 110
f 214 213 110
f 214 110 109
f 215 214 109
f 215 109 108
f 216 215 108
f 90 89 1
f 216 108 107
f 217 216 107
f 1 241 240
f 217 107 106
f 218 217 106
f 219 218 106
f 219 106 105
f 220 219 105
f 220 105 104
f 221 220 104
f 221 104 103
f 222 221 103
f 91 90 1
f 222 103 102
f 223 222 102
f 224 223 102
f 224 102 101
f 225 224 101
f 225 101 100
f 226 225 100
f 226 100 99
f 227 226 99
f 228 227 99
f 228 99 98
f 229 228 98
f 92 91 1
f 1 240 239
f 229 98 97
f 230 229 97
f 92 1 239
f 92 239 238
f 93 92 238
f 93 238 237
f 94 93 237
f 94 237 236
f 95 94 236
f 95 236 235
f 95 235 234
f 96 95 234
f 96 234 233
f 97 96 233
f 97 233 232
f 97 232 231
f 230 97 231
f 330 331 332
f 330 332 333
f 329 330 333
f 329 333 334
f 329 334 335
f 329 335 336
f 571 451 452
f 570 571 452
f 570 452 453
f 328 329 336
f 328 336 337
f 328 337 338
f 570 453 454
f 569 570 454
f 569 454 455
f 328 338 339
f 327 328 339
f 327 339 340
f 327 340 341
f 326 327 341
f 326 341 342
f 326 342 343
f 325 326 343
f 325 343 344
f 325 344 345
f 324 325 345
f 324 345 346
f 324 346 347
f 323 324 347
f 323 347 348
f 323 348 349
f 322 323 349
f 322 349 350
f 322 350 351
f 321 322 351
f 321 351 352
f 569 455 456
f 568 569 456
f 568 456 457
f 567 568 457
f 567 457 458
f 567 458 459
f 566 567 459
f 566 459 460
f 566 460 461
f 320 321 352
f 320 352 353
f 320 353 354
f 319 320 354
f 319 354 355
f 319 355 356
f 318 319 356
f 318 356 357
f 318 357 358
f 317 318 358
f 317 358 359
f 316 317 359
f 316 359 360
f 315 316 360
f 315 360 361
f 450 451 571
f 450 571 572
f 449 450 572
f 449 572 573
f 448 449 573
f 447 448 573
f 447 573 574
f 446 447 574
f 445 446 574
f 566 461 462
f 565 566 462
f 565 462 463
f 565 463 464
f 445 574 575
f 444 445 575
f 443 444 575
f 564 565 464
f 564 464 465
f 564 465 466
f 443 575 576
f 442 443 576
f 441 442 576
f 563 564 466
f 563 466 467
f 563 467 468
f 562 563 468
f 562 468 469
f 562 469 470
f 441 576 577
f 440 441 577
f 439 440 577
f 439 577 578
f 438 439 578
f 437 438 578
f 437 578 579
f 436 437 579
f 435 436 579
f 435 579 580
f 434 435 580
f 562 470 471
f 561 562 471
f 561 471 472
f 314 315 361
f 314 361 362
f 314 362 363
f 313 314 363
f 313 363 364
f 312 313 364
f 312 364 365
f 434 580 581
f 433 434 581
f 432 433 581
f 432 581 582
f 431 432 582
f 430 431 582
f 430 582 583
f 429 430 583
f 429 583 584
f 428 429 584
f 428 584 585
f 427 428 585
f 426 427 585
f 426 585 586
f 425 426 586
f 425 586 587
f 424 425 587
f 424 587 588
f 423 424 588
f 423 588 589
f 422 423 589
f 421 422 589
f 421 589 590
f 420 421 590
f 420 590 591
f 419 420 591
f 419 591 592
f 418 419 592
f 418 592 593
f 417 418 593
f 417 593 594
f 416 417 594
f 416 594 497
f 415 416 497
f 415 497 498
f 414 415 498
f 414 498 499
f 414 499 500
f 413 414 500
f 413 500 501
f 413 501 502
f 412 413 502
f 412 502 503
f 412 503 504
f 411 412 504
f 411 504 505
f 561 472 473
f 560 561 473
f 560 473 474
f 559 560 474
f 559 474 475
f 559 475 476
f 558 559 476
f 558 476 477
f 558 477 478
f 557 558 478
f 557 478 479
f 556 557 479
f 556 479 480
f 556 480 481
f 555 556 481
f 555 481 482
f 554 555 482
f 554 482 483
f 553 554 483
f 553 483 484
f 552 553 484
f 552 484 485
f 551 552 485
f 551 485 486
f 550 551 486
f 550 486 487
f 550 487 488
f 549 550 488
f 548 549 488
f 548 488 489
f 547 548 489
f 547 489 490
f 546 547 490
f 546 490 491
f 545 546 491
f 545 491 492
f 544 545 492
f 544 492 493
f 543 544 493
f 542 543 493
f 542 493 494
f 541 542 494
f 541 494 495
f 541 495 496
f 540 541 496
f 540 496 298
f 539 540 298
f 538 539 298
f 410 411 505
f 410 505 506
f 410 506 507
f 409 410 507
f 409 507 508
f 408 409 508
f 408 508 509
f 311 312 365
f 311 365 366
f 311 366 367
f 310 311 367
f 310 367 368
f 309 310 368
f 309 368 369
f 309 369 370
f 308 309 370
f 308 370 371
f 307 308 371
f 307 371 372
f 307 372 373
f 306 307 373
f 306 373 374
f 305 306 374
f 305 374 375
f 305 375 376
f 304 305 376
f 304 376 377
f 304 377 378
f 303 304 378
f 303 378 379
f 302 303 379
f 302 379 380
f 302 380 381
f 301 302 381
f 301 381 382
f 300 301 382
f 300 382 383
f 299 300 383
f 299 383 384
f 299 384 385
f 298 299 385
f 298 385 386
f 407 408 509
f 407 509 510
f 407 510 511
f 406 407 511
f 406 511 512
f 405 406 512
f 405 512 513
f 298 386 387
f 404 405 513
f 404 513 514
f 537 538 298
f 403 404 514
f 403 514 515
f 403 515 516
f 402 403 516
f 402 516 517
f 401 402 517
f 401 517 518
f 400 401 518
f 400 518 519
f 298 387 388
f 399 400 519
f 399 519 520
f 399 520 521
f 398 399 521
f 398 521 522
f 397 398 522
f 397 522 523
f 396 397 523
f 396 523 524
f 396 524 525
f 395 396 525
f 395 525 526
f 298 388 389
f 536 537 298
f 394 395 526
f 394 526 527
f 536 298 389
f 535 536 389
f 535 389 390
f 534 535 390
f 534 390 391
f 533 534 391
f 533 391 392
f 532 533 392
f 531 532 392
f 531 392 393
f 530 531 393
f 530 393 394
f 529 530 394
f 528 529 394
f 528 394 527
f 299 298 2
f 2 298 1
f 300 299 3
f 3 299 2
f 301 300 4
f 4 300 3
f 302 301 5
f 5 301 4
f 303 302 6
f 6 302 5
f 304 303 7
f 7 303 6
f 305 304 8
f 8 304 7
f 306 305 9
f 9 305 8
f 307 306 10
f 10 306 9
f 308 307 11
f 11 307 10
f 309 308 12
f 12 308 11
f 310 309 13
f 13 309 12
f 311 310 14
f 14 310 13
f 312 311 15
f 15 311 14
f 313 312 16
f 16 312 15
f 314 313 17
f 17 313 16
f 315 314 18
f 18 314 17
f 316 315 19
f 19 315 18
f 317 316 20
f 20 316 19
f 318 317 21
f 21 317 20
f 319 318 22
f 22 318 21
f 320 319 23
f 23 319 22
f 321 320 24
f 24 320 23
f 322 321 25
f 25 321 24
f 323 322 26
f 26 322 25
f 324 323 27
f 27 323 26
f 325 324 28
f 28 324 27
f 326 325 29
f 29 325 28
f 327 326 30
f 30 326 29
f 328 327 31
f 31 327 30
f 329 328 32
f 32 328 31
f 330 329 33
f 33 329 32
f 331 330 34
f 34 330 33
f 332 331 35
f 35 331 34
f 333 332 36
f 36 332 35
f 334 333 37
f 37 333 36
f 335 334 38
f 38 334 37
f 336 335 39
f 39 335 38
f 337 336 40
f 40 336 39
f 338 337 41
f 41 337 40
f 339 338 42
f 42 338 41
f 340 339 43
f 43 339 42
f 341 340 44
f 44 340 43
f 342 341 45
f 45 341 44
f 343 342 46
f 46 342 45
f 344 343 47
f 47 343 46
f 345 344 48
f 48 344 47
f 346 345 49
f 49 345 48
f 347 346 50
f 50 346 49
f 348 347 51
f 51 347 50
f 349 348 52
f 52 348 51
f 350 349 53
f 53 349 52
f 351 350 54
f 54 350 53
f 352 351 55
f 55 351 54
f 353 352 56
f 56 352 55
f 354 353 57
f 57 353 56
f 355 354 58
f 58 354 57
f 356 355 59
f 59 355 58
f 357 356 60
f 60 356 59
f 358 357 61
f 61 357 60
f 359 358 62
f 62 358 61
f 360 359 63
f 63 359 62
f 361 360 64
f 64 360 63
f 362 361 65
f 65 361 64
f 363 362 66
f 66 362 65
f 364 363 67
f 67 363 66
f 365 364 68
f 68 364 67
f 366 365 69
f 69 365 68
f 367 366 70
f 70 366 69
f 368 367 71
f 71 367 70
f 369 368 72
f 72 368 71
f 370 369 73
f 73 369 72
f 371 370 74
f 74 370 73
f 372 371 75
f 75 371 74
f 373 372 76
f 76 372 75
f 374 373 77
f 77 373 76
f 375 374 78
f 78 374 77
f 376 375 79
f 79 375 78
f 377 376 80
f 80 376 79
f 378 377 81
f 81 377 80
f 379 378 82
f 82 378 81
f 380 379 83
f 83 379 82
f 381 380 84
f 84 380 83
f 382 381 85
f 85 381 84
f 383 382 86
f 86 382 85
f 384 383 87
f 87 383 86
f 385 384 88
f 88 384 87
f 386 385 89
f 89 385 88
f 387 386 90
f 90 386 89
f 388 387 91
f 91 387 90
f 389 388 92
f 92 388 91
f 390 389 93
f 93 389 92
f 391 390 94
f 94 390 93
f 392 391 95
f 95 391 94
f 393 392 96
f 96 392 95
f 394 393 97
f 97 393 96
f 395 394 98
f 98 394 97
f 396 395 99
f 99 395 98
f 397 396 100
f 100 396 99
f 398 397 101
f 101 397 100
f 399 398 102
f 102 398 101
f 400 399 103
f 103 399 102
f 401 400 104
f 104 400 103
f 402 401 105
f 105 401 104
f 403 402 106
f 106 402 105
f 404 403 107
f 107 403 106
f 405 404 108
f 108 404 107
f 406 405 109
f 109 405 108
f 407 406 110
f 110 406 109
f 408 407 111
f 111 407 110
f 409 408 112
f 112 408 111
f 410 409 113
f 113 409 112
f 411 410 114
f 114 410 113
f 412 411 115
f 115 411 114
f 413 412 116
f 116 412 115
f 414 413 117
f 117 413 116
f 415 414 118
f 118 414 117
f 416 415 119
f 119 415 118
f 417 416 120
f 120 416 119
f 418 417 121
f 121 417 120
f 419 418 122
f 122 418 121
f 420 419 123
f 123 419 122
f 421 420 124
f 124 420 123
f 422 421 125
f 125 421 124
f 423 422 126
f 126 422 125
f 424 423 127
f 127 423 126
f 425 424 128
f 128 424 127
f 426 425 129
f 129 425 128
f 427 426 130
f 130 426 129
f 428 427 131
f 131 427 130
f 429 428 132
f 132 428 131
f 430 429 133
f 133 429 132
f 431 430 134
f 134 430 133
f 432 431 135
f 135 431 134
f 433 432 136
f 136 432 135
f 434 433 137
f 137 433 136
f 435 434 138
f 138 434 137
f 436 435 139
f 139 435 138
f 437 436 140
f 140 436 139
f 438 437 141
f 141 437 140
f 439 438 142
f 142 438 141
f 440 439 143
f 143 439 142
f 441 440 144
f 144 440 143
f 442 441 145
f 145 441 144
f 443 442 146
f 146 442 145
f 444 443 147
f 147 443 146
f 445 444 148
f 148 444 147
f 446 445 149
f 149 445 148
f 447 446 150
f 150 446 149
f 448 447 151
f 151 447 150
f 449 448 152
f 152 448 151
f 450 449 153
f 153 449 152
f 451 450 154
f 154 450 153
f 452 451 155
f 155 451 154
f 453 452 156
f 156 452 155
f 454 453 157
f 157 453 156
f 455 454 158
f 158 454 157
f 456 455 159
f 159 455 158
f 457 456 160
f 160 456 159
f 458 457 161
f 161 457 160
f 459 458 162
f 162 458 161
f 460 459 163
f 163 459 162
f 461 460 164
f 164 460 163
f 462 461 165
f 165 461 164
f 463 462 166
f 166 462 165
f 464 463 167
f 167 463 166
f 465 464 168
f 168 464 167
f 466 465 169
f 169 465 168
f 467 466 170
f 170 466 169
f 468 467 171
f 171 467 170
f 469 468 172
f 172 468 171
f 470 469 173
f 173 469 172
f 471 470 174
f 174 470 173
f 472 471 175
f 175 471 174
f 473 472 176
f 176 472 175
f 474 473 177
f 177 473 176
f 475 474 178
f 178 474 177
f 476 475 179
f 179 475 178
f 477 476 180
f 180 476 179
f 478 477 181
f 181 477 180
f 479 478 182
f 182 478 181
f 480 479 183
f 183 479 182
f 481 480 184
f 184 480 183
f 482 481 185
f 185 481 184
f 483 482 186
f 186 482 185
f 484 483 187
f 187 483 186
f 485 484 188
f 188 484 187
f 486 485 189
f 189 485 188
f 487 486 190
f 190 486 189
f 488 487 191
f 191 487 190
f 489 488 192
f 192 488 191
f 490 489 193
f 193 489 192
f 491 490 194
f 194 490 193
f 492 491 195
f 195 491 194
f 493 492 196
f 196 492 195
f 494 493 197
f 197 493 196
f 495 494 198
f 198 494 197
f 298 496 1
f 1 496 199
f 496 495 199
f 199 495 198
f 498 497 201
f 201 497 200
f 499 498 202
f 202 498 201
f 500 499 203
f 203 499 202
f 501 500 204
f 204 500 203
f 502 501 205
f 205 501 204
f 503 502 206
f 206 502 205
f 504 503 207
f 207 503 206
f 505 504 208
f 208 504 207
f 506 505 209
f 209 505 208
f 507 506 210
f 210 506 209
f 508 507 211
f 211 507 210
f 509 508 212
f 212 508 211
f 510 509 213
f 213 509 212
f 511 510 214
f 214 510 213
f 512 511 215
f 215 511 214
f 513 512 216
f 216 512 215
f 514 513 217
f 217 513 216
f 515 514 218
f 218 514 217
f 516 515 219
f 219 515 218
f 517 516 220
f 220 516 219
f 518 517 221
f 221 517 220
f 519 518 222
f 222 518 221
f 520 519 223
f 223 519 222
f 521 520 224
f 224 520 223
f 522 521 225
f 225 521 224
f 523 522 226
f 226 522 225
f 524 523 227
f 227 523 226
f 525 524 228
f 228 524 227
f 526 525 229
f 229 525 228
f 527 526 230
f 230 526 229
f 528 527 231
f 231 527 230
f 529 528 232
f 232 528 231
f 530 529 233
f 233 529 232
f 531 530 234
f 234 530 233
f 532 531 235
f 235 531 234
f 533 532 236
f 236 532 235
f 534 533 237
f 237 533 236
f 535 534 238
f 238 534 237
f 536 535 239
f 239 535 238
f 537 536 240
f 240 536 239
f 538 537 241
f 241 537 240
f 539 538 242
f 242 538 241
f 540 539 243
f 243 539 242
f 541 540 244
f 244 540 243
f 542 541 245
f 245 541 244
f 543 542 246
f 246 542 245
f 544 543 247
f 247 543 246
f 545 544 248
f 248 544 247
f 546 545 249
f 249 545 248
f 547 546 250
f 250 546 249
f 548 547 251
f 251 547 250
f 549 548 252
f 252 548 251
f 550 549 253
f 253 549 252
f 551 550 254
f 254 550 253
f 552 551 255
f 255 551 254
f 553 552 256
f 256 552 255
f 554 553 257
f 257 553 256
f 555 554 258
f 258 554 257
f 556 555 259
f 259 555 258
f 557 556 260
f 260 556 259
f 558 557 261
f 261 557 260
f 559 558 262
f 262 558 261
f 560 559 263
f 263 559 262
f 561 560 264
f 264 560 263
f 562 561 265
f 265 561 264
f 563 562 266
f 266 562 265
f 564 563 267
f 267 563 266
f 565 564 268
f 268 564 267
f 566 565 269
f 269 565 268
f 567 566 270
f 270 566 269
f 568 567 271
f 271 567 270
f 569 568 272
f 272 568 271
f 570 569 273
f 273 569 272
f 571 570 274
f 274 570 273
f 572 571 275
f 275 571 274
f 573 572 276
f 276 572 275
f 574 573 277
f 277 573 276
f 575 574 278
f 278 574 277
f 576 575 279
f 279 575 278
f 577 576 280
f 280 576 279
f 578 577 281
f 281 577 280
f 579 578 282
f 282 578 281
f 580 579 283
f 283 579 282
f 581 580 284
f 284 580 283
f 582 581 285
f 285 581 284
f 583 582 286
f 286 582 285
f 584 583 287
f 287 583 286
f 585 584 288
f 288 584 287
f 586 585 289
f 289 585 288
f 587 586 290
f 290 586 289
f 588 587 291
f 291 587 290
f 589 588 292
f 292 588 291
f 590 589 293
f 293 589 292
f 591 590 294
f 294 590 293
f 592 591 295
f 295 591 294
f 593 592 296
f 296 592 295
f 497 594 200
f 200 594 297
f 594 593 297
f 297 593 296

