# https://github.com/mikedh/trimesh
v 5.51553398 -65.00000000 -30.00000000
v 9.95572816 -64.81067961 -30.00000000
v 14.10563107 -64.41941748 -30.00000000
v 18.21388350 -63.82621359 -30.00000000
v 22.23000000 -63.04747573 -30.00000000
v 26.11106796 -62.10087379 -30.00000000
v 29.93029126 -60.88291262 -30.00000000
v 33.76213592 -59.29009709 -30.00000000
v 37.45388350 -57.26563107 -30.00000000
v 40.85155340 -54.75019417 -30.00000000
v 43.97407767 -51.96466019 -30.00000000
v 46.84038835 -49.13116505 -30.00000000
v 49.43912621 -46.16262136 -30.00000000
v 51.76019417 -42.97446602 -30.00000000
v 53.90834951 -39.43165049 -30.00000000
v 55.98961165 -35.40417476 -30.00000000
v 57.84747573 -31.24669903 -30.00000000
v 59.32922330 -27.31640777 -30.00000000
v 60.86145631 -22.79291262 -30.00000000
v 60.97000000 -22.12271845 -30.00000000
v 60.81728155 -21.53077670 -30.00000000
v 60.48281553 -21.07893204 -30.00000000
v 60.05368932 -20.83281553 -30.00000000
v 26.88980583 -10.81398058 -30.00000000
v 26.34077670 -10.76601942 -30.00000000
v 25.79174757 -10.95029126 -30.00000000
v 25.34242718 -11.31504854 -30.00000000
v 25.09000000 -11.80349515 -30.00000000
v 24.11436893 -15.31980583 -30.00000000
v 23.06427184 -18.49155340 -30.00000000
v 21.55854369 -22.07223301 -30.00000000
v 19.73728155 -25.52796117 -30.00000000
v 17.74058252 -28.32737864 -30.00000000
v 15.45233010 -30.52854369 -30.00000000
v 12.75766990 -32.19077670 -30.00000000
v 9.66543689 -33.33679612 -30.00000000
v 6.18951456 -33.99058252 -30.00000000
v 2.43844660 -34.16980583 -30.00000000
v -1.47922330 -33.89466019 -30.00000000
v -5.22271845 -33.14495146 -30.00000000
v -8.45126214 -31.90048544 -30.00000000
v -11.19388350 -30.21427184 -30.00000000
v -13.48213592 -28.13805825 -30.00000000
v -15.42203883 -25.50398058 -30.00000000
v -17.11834951 -22.14543689 -30.00000000
v -18.47262136 -18.36155340 -30.00000000
v -19.38388350 -14.44893204 -30.00000000
v -19.96320388 -10.44796117 -30.00000000
v -20.32291262 -6.39776699 -30.00000000
v -20.49456311 -2.22640777 -30.00000000
v -20.51475728 2.13679612 -30.00000000
v -20.26990291 6.76757282 -30.00000000
v -19.64262136 11.73660194 -30.00000000
v -18.60009709 16.59330097 -30.00000000
v -17.10446602 20.88077670 -30.00000000
v -15.12038835 24.55737864 -30.00000000
v -12.61126214 27.58271845 -30.00000000
v -9.73359223 29.94922330 -30.00000000
v -6.64262136 31.64805825 -30.00000000
v -3.38631068 32.79912621 -30.00000000
v -0.00883495 33.51601942 -30.00000000
v 3.40902913 33.77601942 -30.00000000
v 6.79155340 33.55766990 -30.00000000
v 10.05922330 32.89757282 -30.00000000
v 13.13504854 31.83233010 -30.00000000
v 15.91174757 30.35563107 -30.00000000
v 18.27951456 28.45864078 -30.00000000
v 20.25097087 26.17165049 -30.00000000
v 21.83368932 23.52495146 -30.00000000
v 22.98349515 21.03223301 -30.00000000
v 23.65242718 19.20592233 -30.00000000
v 24.17116505 17.40233010 -30.00000000
v 24.37815534 17.08805825 -30.00000000
v 24.81990291 16.76242718 -30.00000000
v 25.37019417 16.54407767 -30.00000000
v 25.89650485 16.55038835 -30.00000000
v 58.61864078 24.06009709 -30.00000000
v 59.23961165 24.31757282 -30.00000000
v 59.64854369 24.75553398 -30.00000000
v 59.84038835 25.26543689 -30.00000000
v 59.80883495 25.73873786 -30.00000000
v 58.97961165 28.39300971 -30.00000000
v 58.04058252 30.96776699 -30.00000000
v 56.60048544 34.29728155 -30.00000000
v 54.76029126 38.02941748 -30.00000000
v 52.62349515 41.80951456 -30.00000000
v 50.01844660 45.59213592 -30.00000000
v 46.76970874 49.32932039 -30.00000000
v 42.84951456 52.89106796 -30.00000000
v 38.22504854 56.14611650 -30.00000000
v 32.98087379 58.96699029 -30.00000000
v 27.19398058 61.22495146 -30.00000000
v 21.08776699 62.91116505 -30.00000000
v 14.88058252 64.01300971 -30.00000000
v 8.80844660 64.66427184 -30.00000000
v 3.10990291 65.00000000 -30.00000000
v -2.23650485 64.97097087 -30.00000000
v -7.25601942 64.52796117 -30.00000000
v -11.97388350 63.75048544 -30.00000000
v -16.41660194 62.72184466 -30.00000000
v -20.66747573 61.47864078 -30.00000000
v -24.80728155 60.05873786 -30.00000000
v -28.80320388 58.41796117 -30.00000000
v -32.62116505 56.51213592 -30.00000000
v -36.29902913 54.30718447 -30.00000000
v -39.86961165 51.76650485 -30.00000000
v -43.39854369 48.68815534 -30.00000000
v -46.94893204 44.86766990 -30.00000000
v -50.24563107 40.63194175 -30.00000000
v -53.00718447 36.30533981 -30.00000000
v -55.29417476 31.75029126 -30.00000000
v -57.16592233 26.82922330 -30.00000000
v -58.63378641 21.64941748 -30.00000000
v -59.71417476 16.31815534 -30.00000000
v -60.44495146 10.75970874 -30.00000000
v -60.86524272 4.90087379 -30.00000000
v -60.97000000 -1.14728155 -30.00000000
v -60.75669903 -7.27368932 -30.00000000
v -60.19000000 -13.23980583 -30.00000000
v -59.23203883 -18.80834951 -30.00000000
v -57.89417476 -23.99951456 -30.00000000
v -56.18650485 -28.83475728 -30.00000000
v -54.11281553 -33.38223301 -30.00000000
v -51.67815534 -37.70757282 -30.00000000
v -49.00873786 -41.73252427 -30.00000000
v -46.23330097 -45.37883495 -30.00000000
v -43.26854369 -48.73106796 -30.00000000
v -40.03621359 -51.87000000 -30.00000000
v -36.49339806 -54.74388350 -30.00000000
v -32.59592233 -57.30097087 -30.00000000
v -28.49019417 -59.45038835 -30.00000000
v -24.32262136 -61.10000000 -30.00000000
v -20.22067961 -62.33436893 -30.00000000
v -16.31815534 -63.23679612 -30.00000000
v -12.48883495 -63.90067961 -30.00000000
v -8.60902913 -64.42320388 -30.00000000
v -4.36825243 -64.79048544 -30.00000000
v 0.54019417 -64.98737864 -30.00000000
v 5.51553398 -65.00000000 30.00000000
v 9.95572816 -64.81067961 30.00000000
v 14.10563107 -64.41941748 30.00000000
v 18.21388350 -63.82621359 30.00000000
v 22.23000000 -63.04747573 30.00000000
v 26.11106796 -62.10087379 30.00000000
v 29.93029126 -60.88291262 30.00000000
v 33.76213592 -59.29009709 30.00000000
v 37.45388350 -57.26563107 30.00000000
v 40.85155340 -54.75019417 30.00000000
v 43.97407767 -51.96466019 30.00000000
v 46.84038835 -49.13116505 30.00000000
v 49.43912621 -46.16262136 30.00000000
v 51.76019417 -42.97446602 30.00000000
v 53.90834951 -39.43165049 30.00000000
v 55.98961165 -35.40417476 30.00000000
v 57.84747573 -31.24669903 30.00000000
v 59.32922330 -27.31640777 30.00000000
v 60.86145631 -22.79291262 30.00000000
v 60.97000000 -22.12271845 30.00000000
v 60.81728155 -21.53077670 30.00000000
v 60.48281553 -21.07893204 30.00000000
v 60.05368932 -20.83281553 30.00000000
v 26.88980583 -10.81398058 30.00000000
v 26.34077670 -10.76601942 30.00000000
v 25.79174757 -10.95029126 30.00000000
v 25.34242718 -11.31504854 30.00000000
v 25.09000000 -11.80349515 30.00000000
v 24.11436893 -15.31980583 30.00000000
v 23.06427184 -18.49155340 30.00000000
v 21.55854369 -22.07223301 30.00000000
v 19.73728155 -25.52796117 30.00000000
v 17.74058252 -28.32737864 30.00000000
v 15.45233010 -30.52854369 30.00000000
v 12.75766990 -32.19077670 30.00000000
v 9.66543689 -33.33679612 30.00000000
v 6.18951456 -33.99058252 30.00000000
v 2.43844660 -34.16980583 30.00000000
v -1.47922330 -33.89466019 30.00000000
v -5.22271845 -33.14495146 30.00000000
v -8.45126214 -31.90048544 30.00000000
v -11.19388350 -30.21427184 30.00000000
v -13.48213592 -28.13805825 30.00000000
v -15.42203883 -25.50398058 30.00000000
v -17.11834951 -22.14543689 30.00000000
v -18.47262136 -18.36155340 30.00000000
v -19.38388350 -14.44893204 30.00000000
v -19.96320388 -10.44796117 30.00000000
v -20.32291262 -6.39776699 30.00000000
v -20.49456311 -2.22640777 30.00000000
v -20.51475728 2.13679612 30.00000000
v -20.26990291 6.76757282 30.00000000
v -19.64262136 11.73660194 30.00000000
v -18.60009709 16.59330097 30.00000000
v -17.10446602 20.88077670 30.00000000
v -15.12038835 24.55737864 30.00000000
v -12.61126214 27.58271845 30.00000000
v -9.73359223 29.94922330 30.00000000
v -6.64262136 31.64805825 30.00000000
v -3.38631068 32.79912621 30.00000000
v -0.00883495 33.51601942 30.00000000
v 3.40902913 33.77601942 30.00000000
v 6.79155340 33.55766990 30.00000000
v 10.05922330 32.89757282 30.00000000
v 13.13504854 31.83233010 30.00000000
v 15.91174757 30.35563107 30.00000000
v 18.27951456 28.45864078 30.00000000
v 20.25097087 26.17165049 30.00000000
v 21.83368932 23.52495146 30.00000000
v 22.98349515 21.03223301 30.00000000
v 23.65242718 19.20592233 30.00000000
v 24.17116505 17.40233010 30.00000000
v 24.37815534 17.08805825 30.00000000
v 24.81990291 16.76242718 30.00000000
v 25.37019417 16.54407767 30.00000000
v 25.89650485 16.55038835 30.00000000
v 58.61864078 24.06009709 30.00000000
v 59.23961165 24.31757282 30.00000000
v 59.64854369 24.75553398 30.00000000
v 59.84038835 25.26543689 30.00000000
v 59.80883495 25.73873786 30.00000000
v 58.97961165 28.39300971 30.00000000
v 58.04058252 30.96776699 30.00000000
v 56.60048544 34.29728155 30.00000000
v 54.76029126 38.02941748 30.00000000
v 52.62349515 41.80951456 30.00000000
v 50.01844660 45.59213592 30.00000000
v 46.76970874 49.32932039 30.00000000
v 42.84951456 52.89106796 30.00000000
v 38.22504854 56.14611650 30.00000000
v 32.98087379 58.96699029 30.00000000
v 27.19398058 61.22495146 30.00000000
v 21.08776699 62.91116505 30.00000000
v 14.88058252 64.01300971 30.00000000
v 8.80844660 64.66427184 30.00000000
v 3.10990291 65.00000000 30.00000000
v -2.23650485 64.97097087 30.00000000
v -7.25601942 64.52796117 30.00000000
v -11.97388350 63.75048544 30.00000000
v -16.41660194 62.72184466 30.00000000
v -20.66747573 61.47864078 30.00000000
v -24.80728155 60.05873786 30.00000000
v -28.80320388 58.41796117 30.00000000
v -32.62116505 56.51213592 30.00000000
v -36.29902913 54.30718447 30.00000000
v -39.86961165 51.76650485 30.00000000
v -43.39854369 48.68815534 30.00000000
v -46.94893204 44.86766990 30.00000000
v -50.24563107 40.63194175 30.00000000
v -53.00718447 36.30533981 30.00000000
v -55.29417476 31.75029126 30.00000000
v -57.16592233 26.82922330 30.00000000
v -58.63378641 21.64941748 30.00000000
v -59.71417476 16.31815534 30.00000000
v -60.44495146 10.75970874 30.00000000
v -60.86524272 4.90087379 30.00000000
v -60.97000000 -1.14728155 30.00000000
v -60.75669903 -7.27368932 30.00000000
v -60.19000000 -13.23980583 30.00000000
v -59.23203883 -18.80834951 30.00000000
v -57.89417476 -23.99951456 30.00000000
v -56.18650485 -28.83475728 30.00000000
v -54.11281553 -33.38223301 30.00000000
v -51.67815534 -37.70757282 30.00000000
v -49.00873786 -41.73252427 30.00000000
v -46.23330097 -45.37883495 30.00000000
v -43.26854369 -48.73106796 30.00000000
v -40.03621359 -51.87000000 30.00000000
v -36.49339806 -54.74388350 30.00000000
v -32.59592233 -57.30097087 30.00000000
v -28.49019417 -59.45038835 30.00000000
v -24.32262136 -61.10000000 30.00000000
v -20.22067961 -62.33436893 30.00000000
v -16.31815534 -63.23679612 30.00000000
v -12.48883495 -63.90067961 30.00000000
v -8.60902913 -64.42320388 30.00000000
v -4.36825243 -64.79048544 30.00000000
v 0.54019417 -64.98737864 30.00000000
f 79 78 77
f 80 79 77
f 81 80 77
f 82 81 77
f 82 77 76
f 83 82 76
f 84 83 76
f 85 84 76
f 86 85 76
f 87 86 76
f 88 87 76
f 89 88 76
f 89 76 75
f 89 75 74
f 89 74 73
f 89 73 72
f 89 72 71
f 89 71 70
f 89 70 69
f 89 69 68
f 89 68 67
f 90 89 67
f 90 67 66
f 91 90 66
f 92 91 66
f 92 66 65
f 93 92 65
f 93 65 64
f 94 93 64
f 94 64 63
f 95 94 63
f 95 63 62
f 96 95 62
f 97 96 62
f 97 62 61
f 98 97 61
f 98 61 60
f 99 98 60
f 100 99 60
f 100 60 59
f 101 100 59
f 101 59 58
f 102 101 58
f 103 102 58
f 103 58 57
f 104 103 57
f 105 104 57
f 106 105 57
f 106 57 56
f 107 106 56
f 108 107 56
f 108 56 55
f 109 108 55
f 110 109 55
f 111 110 55
f 111 55 54
f 112 111 54
f 113 112 54
f 113 54 53
f 114 113 53
f 114 53 52
f 115 114 52
f 116 115 52
f 116 52 51
f 117 116 51
f 117 51 50
f 118 117 50
f 118 50 49
f 119 118 49
f 119 49 48
f 120 119 48
f 120 48 47
f 121 120 47
f 122 121 47
f 122 47 46
f 123 122 46
f 124 123 46
f 124 46 45
f 125 124 45
f 125 45 44
f 126 125 44
f 127 126 44
f 128 127 44
f 128 44 43
f 129 128 43
f 130 129 43
f 130 43 42
f 131 130 42
f 132 131 42
f 132 42 41
f 133 132 41
f 134 133 41
f 134 41 40
f 135 134 40
f 136 135 40
f 136 40 39
f 137 136 39
f 138 137 39
f 138 39 38
f 1 138 38
f 1 38 37
f 2 1 37
f 3 2 37
f 3 37 36
f 4 3 36
f 4 36 35
f 5 4 35
f 6 5 35
f 7 6 35
f 7 35 34
f 8 7 34
f 9 8 34
f 10 9 34
f 10 34 33
f 11 10 33
f 12 11 33
f 12 33 32
f 13 12 32
f 14 13 32
f 14 32 31
f 15 14 31
f 16 15 31
f 16 31 30
f 17 16 30
f 18 17 30
f 18 30 29
f 19 18 29
f 20 19 29
f 21 20 29
f 22 21 29
f 23 22 29
f 23 29 28
f 23 28 27
f 23 27 26
f 23 26 25
f 24 23 25
f 215 216 217
f 215 217 218
f 215 218 219
f 215 219 220
f 214 215 220
f 214 220 221
f 214 221 222
f 214 222 223
f 214 223 224
f 214 224 225
f 214 225 226
f 214 226 227
f 213 214 227
f 212 213 227
f 211 212 227
f 210 211 227
f 209 210 227
f 208 209 227
f 207 208 227
f 206 207 227
f 205 206 227
f 205 227 228
f 204 205 228
f 204 228 229
f 204 229 230
f 203 204 230
f 203 230 231
f 202 203 231
f 202 231 232
f 201 202 232
f 201 232 233
f 200 201 233
f 200 233 234
f 200 234 235
f 199 200 235
f 199 235 236
f 198 199 236
f 198 236 237
f 198 237 238
f 197 198 238
f 197 238 239
f 196 197 239
f 196 239 240
f 196 240 241
f 195 196 241
f 195 241 242
f 195 242 243
f 195 243 244
f 194 195 244
f 194 244 245
f 194 245 246
f 193 194 246
f 193 246 247
f 193 247 248
f 193 248 249
f 192 193 249
f 192 249 250
f 192 250 251
f 191 192 251
f 191 251 252
f 190 191 252
f 190 252 253
f 190 253 254
f 189 190 254
f 189 254 255
f 188 189 255
f 188 255 256
f 187 188 256
f 187 256 257
f 186 187 257
f 186 257 258
f 185 186 258
f 185 258 259
f 185 259 260
f 184 185 260
f 184 260 261
f 184 261 262
f 183 184 262
f 183 262 263
f 182 183 263
f 182 263 264
f 182 264 265
f 182 265 266
f 181 182 266
f 181 266 267
f 181 267 268
f 180 181 268
f 180 268 269
f 180 269 270
f 179 180 270
f 179 270 271
f 179 271 272
f 178 179 272
f 178 272 273
f 178 273 274
f 177 178 274
f 177 274 275
f 177 275 276
f 176 177 276
f 176 276 139
f 175 176 139
f 175 139 140
f 175 140 141
f 174 175 141
f 174 141 142
f 173 174 142
f 173 142 143
f 173 143 144
f 173 144 145
f 172 173 145
f 172 145 146
f 172 146 147
f 172 147 148
f 171 172 148
f 171 148 149
f 171 149 150
f 170 171 150
f 170 150 151
f 170 151 152
f 169 170 152
f 169 152 153
f 169 153 154
f 168 169 154
f 168 154 155
f 168 155 156
f 167 168 156
f 167 156 157
f 167 157 158
f 167 158 159
f 167 159 160
f 167 160 161
f 166 167 161
f 165 166 161
f 164 165 161
f 163 164 161
f 163 161 162
f 140 139 2
f 2 139 1
f 141 140 3
f 3 140 2
f 142 141 4
f 4 141 3
f 143 142 5
f 5 142 4
f 144 143 6
f 6 143 5
f 145 144 7
f 7 144 6
f 146 145 8
f 8 145 7
f 147 146 9
f 9 146 8
f 148 147 10
f 10 147 9
f 149 148 11
f 11 148 10
f 150 149 12
f 12 149 11
f 151 150 13
f 13 150 12
f 152 151 14
f 14 151 13
f 153 152 15
f 15 152 14
f 154 153 16
f 16 153 15
f 155 154 17
f 17 154 16
f 156 155 18
f 18 155 17
f 157 156 19
f 19 156 18
f 158 157 20
f 20 157 19
f 159 158 21
f 21 158 20
f 160 159 22
f 22 159 21
f 161 160 23
f 23 160 22
f 162 161 24
f 24 161 23
f 163 162 25
f 25 162 24
f 164 163 26
f 26 163 25
f 165 164 27
f 27 164 26
f 166 165 28
f 28 165 27
f 167 166 29
f 29 166 28
f 168 167 30
f 30 167 29
f 169 168 31
f 31 168 30
f 170 169 32
f 32 169 31
f 171 170 33
f 33 170 32
f 172 171 34
f 34 171 33
f 173 172 35
f 35 172 34
f 174 173 36
f 36 173 35
f 175 174 37
f 37 174 36
f 176 175 38
f 38 175 37
f 177 176 39
f 39 176 38
f 178 177 40
f 40 177 39
f 179 178 41
f 41 178 40
f 180 179 42
f 42 179 41
f 181 180 43
f 43 180 42
f 182 181 44
f 44 181 43
f 183 182 45
f 45 182 44
f 184 183 46
f 46 183 45
f 185 184 47
f 47 184 46
f 186 185 48
f 48 185 47
f 187 186 49
f 49 186 48
f 188 187 50
f 50 187 49
f 189 188 51
f 51 188 50
f 190 189 52
f 52 189 51
f 191 190 53
f 53 190 52
f 192 191 54
f 54 191 53
f 193 192 55
f 55 192 54
f 194 193 56
f 56 193 55
f 195 194 57
f 57 194 56
f 196 195 58
f 58 195 57
f 197 196 59
f 59 196 58
f 198 197 60
f 60 197 59
f 199 198 61
f 61 198 60
f 200 199 62
f 62 199 61
f 201 200 63
f 63 200 62
f 202 201 64
f 64 201 63
f 203 202 65
f 65 202 64
f 204 203 66
f 66 203 65
f 205 204 67
f 67 204 66
f 206 205 68
f 68 205 67
f 207 206 69
f 69 206 68
f 208 207 70
f 70 207 69
f 209 208 71
f 71 208 70
f 210 209 72
f 72 209 71
f 211 210 73
f 73 210 72
f 212 211 74
f 74 211 73
f 213 212 75
f 75 212 74
f 214 213 76
f 76 213 75
f 215 214 77
f 77 214 76
f 216 215 78
f 78 215 77
f 217 216 79
f 79 216 78
f 218 217 80
f 80 217 79
f 219 218 81
f 81 218 80
f 220 219 82
f 82 219 81
f 221 220 83
f 83 220 82
f 222 221 84
f 84 221 83
f 223 222 85
f 85 222 84
f 224 223 86
f 86 223 85
f 225 224 87
f 87 224 86
f 226 225 88
f 88 225 87
f 227 226 89
f 89 226 88
f 228 227 90
f 90 227 89
f 229 228 91
f 91 228 90
f 230 229 92
f 92 229 91
f 231 230 93
f 93 230 92
f 232 231 94
f 94 231 93
f 233 232 95
f 95 232 94
f 234 233 96
f 96 233 95
f 235 234 97
f 97 234 96
f 236 235 98
f 98 235 97
f 237 236 99
f 99 236 98
f 238 237 100
f 100 237 99
f 239 238 101
f 101 238 100
f 240 239 102
f 102 239 101
f 241 240 103
f 103 240 102
f 242 241 104
f 104 241 103
f 243 242 105
f 105 242 104
f 244 243 106
f 106 243 105
f 245 244 107
f 107 244 106
f 246 245 108
f 108 245 107
f 247 246 109
f 109 246 108
f 248 247 110
f 110 247 109
f 249 248 111
f 111 248 110
f 250 249 112
f 112 249 111
f 251 250 113
f 113 250 112
f 252 251 114
f 114 251 113
f 253 252 115
f 115 252 114
f 254 253 116
f 116 253 115
f 255 254 117
f 117 254 116
f 256 255 118
f 118 255 117
f 257 256 119
f 119 256 118
f 258 257 120
f 120 257 119
f 259 258 121
f 121 258 120
f 260 259 122
f 122 259 121
f 261 260 123
f 123 260 122
f 262 261 124
f 124 261 123
f 263 262 125
f 125 262 124
f 264 263 126
f 126 263 125
f 265 264 127
f 127 264 126
f 266 265 128
f 128 265 127
f 267 266 129
f 129 266 128
f 268 267 130
f 130 267 129
f 269 268 131
f 131 268 130
f 270 269 132
f 132 269 131
f 271 270 133
f 133 270 132
f 272 271 134
f 134 271 133
f 273 272 135
f 135 272 134
f 274 273 136
f 136 273 135
f 275 274 137
f 137 274 136
f 139 276 1
f 1 276 138
f 276 275 138
f 138 275 137

