# https://github.com/mikedh/trimesh
v -45.69436893 -41.87640777 -30.00000000
v -45.69436893 -65.00000000 -30.00000000
v 52.68155340 -65.00000000 -30.00000000
v 52.68155340 -35.23126214 -30.00000000
v 5.93834951 -35.23126214 -30.00000000
v 29.35601942 -13.12116505 -30.00000000
v 31.23155340 -11.27970874 -30.00000000
v 33.00106796 -9.46601942 -30.00000000
v 34.66708738 -7.67883495 -30.00000000
v 36.22834951 -5.91941748 -30.00000000
v 37.68485437 -4.18524272 -30.00000000
v 39.03660194 -2.47631068 -30.00000000
v 40.28359223 -0.79135922 -30.00000000
v 41.42708738 0.87339806 -30.00000000
v 42.46330097 2.51796117 -30.00000000
v 43.39475728 4.14359223 -30.00000000
v 44.21135922 5.74145631 -30.00000000
v 44.93330097 7.31912621 -30.00000000
v 45.58834951 8.90563107 -30.00000000
v 46.18029126 10.51106796 -30.00000000
v 46.71165049 12.13543689 -30.00000000
v 47.17990291 13.77873786 -30.00000000
v 47.58504854 15.43970874 -30.00000000
v 47.92834951 17.11708738 -30.00000000
v 48.20980583 18.81213592 -30.00000000
v 48.42689320 20.52359223 -30.00000000
v 48.58213592 22.25019417 -30.00000000
v 48.67553398 23.99194175 -30.00000000
v 48.70708738 25.75640777 -30.00000000
v 48.66417476 27.69757282 -30.00000000
v 48.53669903 29.61097087 -30.00000000
v 48.32339806 31.49029126 -30.00000000
v 48.02300971 33.33553398 -30.00000000
v 47.63553398 35.14291262 -30.00000000
v 47.15970874 36.91368932 -30.00000000
v 46.59553398 38.64533981 -30.00000000
v 45.94300971 40.33660194 -30.00000000
v 45.20339806 41.98495146 -30.00000000
v 44.37669903 43.59038835 -30.00000000
v 43.46291262 45.15165049 -30.00000000
v 42.46582524 46.66242718 -30.00000000
v 41.39427184 48.11640777 -30.00000000
v 40.25708738 49.51359223 -30.00000000
v 39.05048544 50.85271845 -30.00000000
v 37.77699029 52.13631068 -30.00000000
v 36.43660194 53.36184466 -30.00000000
v 35.03058252 54.52932039 -30.00000000
v 33.56019417 55.63747573 -30.00000000
v 32.02669903 56.68757282 -30.00000000
v 30.43135922 57.67834951 -30.00000000
v 28.77291262 58.61106796 -30.00000000
v 27.05514563 59.48699029 -30.00000000
v 25.27427184 60.30485437 -30.00000000
v 23.43786408 61.06087379 -30.00000000
v 21.55475728 61.75000000 -30.00000000
v 19.62495146 62.37349515 -30.00000000
v 17.65223301 62.92883495 -30.00000000
v 15.63407767 63.41728155 -30.00000000
v 13.57300971 63.83883495 -30.00000000
v 11.46776699 64.19601942 -30.00000000
v 9.31961165 64.48631068 -30.00000000
v 7.12854369 64.71097087 -30.00000000
v 4.89330097 64.87252427 -30.00000000
v 2.61640777 64.96844660 -30.00000000
v 0.29281553 65.00000000 -30.00000000
v -2.46747573 64.95708738 -30.00000000
v -5.18359223 64.82708738 -30.00000000
v -7.85300971 64.61126214 -30.00000000
v -10.47572816 64.30708738 -30.00000000
v -13.05174757 63.91582524 -30.00000000
v -15.57980583 63.43621359 -30.00000000
v -18.06116505 62.86825243 -30.00000000
v -20.49203883 62.21194175 -30.00000000
v -22.87495146 61.46601942 -30.00000000
v -25.20737864 60.63174757 -30.00000000
v -27.49058252 59.70912621 -30.00000000
v -29.71951456 58.69815534 -30.00000000
v -31.88155340 57.60893204 -30.00000000
v -33.96786408 56.45029126 -30.00000000
v -35.97970874 55.22223301 -30.00000000
v -37.91834951 53.92223301 -30.00000000
v -39.78126214 52.55155340 -30.00000000
v -41.56718447 51.10893204 -30.00000000
v -43.27611650 49.59689320 -30.00000000
v -44.90679612 48.01417476 -30.00000000
v -46.45922330 46.36330097 -30.00000000
v -47.93087379 44.64174757 -30.00000000
v -49.32300971 42.85330097 -30.00000000
v -52.68155340 38.09631068 -30.00000000
v -26.50359223 21.23669903 -30.00000000
v -23.86951456 24.77699029 -30.00000000
v -23.19427184 25.61252427 -30.00000000
v -22.49631068 26.40893204 -30.00000000
v -21.77563107 27.16495146 -30.00000000
v -21.03223301 27.88058252 -30.00000000
v -20.26611650 28.55834951 -30.00000000
v -19.47601942 29.19825243 -30.00000000
v -18.66320388 29.80155340 -30.00000000
v -17.82388350 30.36699029 -30.00000000
v -16.95932039 30.89708738 -30.00000000
v -16.06951456 31.39058252 -30.00000000
v -15.14941748 31.85000000 -30.00000000
v -14.20155340 32.27533981 -30.00000000
v -13.23223301 32.66407767 -30.00000000
v -12.24145631 33.01747573 -30.00000000
v -11.22922330 33.33427184 -30.00000000
v -10.19553398 33.61446602 -30.00000000
v -9.13786408 33.85805825 -30.00000000
v -8.05873786 34.06504854 -30.00000000
v -6.95436893 34.23543689 -30.00000000
v -5.82601942 34.36796117 -30.00000000
v -4.67495146 34.46262136 -30.00000000
v -3.49737864 34.52067961 -30.00000000
v -2.29834951 34.53961165 -30.00000000
v -0.86834951 34.51436893 -30.00000000
v 0.48718447 34.44116505 -30.00000000
v 1.76699029 34.32000000 -30.00000000
v 2.97233010 34.15213592 -30.00000000
v 4.10194175 33.94009709 -30.00000000
v 5.15708738 33.68640777 -30.00000000
v 6.13650485 33.39233010 -30.00000000
v 7.04271845 33.06165049 -30.00000000
v 7.87572816 32.69436893 -30.00000000
v 8.64058252 32.29427184 -30.00000000
v 9.33980583 31.86262136 -30.00000000
v 9.97718447 31.39689320 -30.00000000
v 10.55776699 30.90213592 -30.00000000
v 11.07902913 30.38087379 -30.00000000
v 11.54475728 29.83310680 -30.00000000
v 11.95747573 29.25504854 -30.00000000
v 12.32349515 28.64291262 -30.00000000
v 12.64407767 27.99165049 -30.00000000
v 12.91922330 27.29368932 -30.00000000
v 13.15019417 26.54650485 -30.00000000
v 13.33320388 25.74378641 -30.00000000
v 13.46825243 24.88427184 -30.00000000
v 13.55029126 23.96417476 -30.00000000
v 13.57932039 22.97087379 -30.00000000
v 13.56543689 22.29689320 -30.00000000
v 13.52000000 21.60902913 -30.00000000
v 13.44553398 20.91611650 -30.00000000
v 13.34203883 20.22067961 -30.00000000
v 13.20699029 19.52019417 -30.00000000
v 13.04038835 18.81466019 -30.00000000
v 12.84349515 18.10281553 -30.00000000
v 12.61378641 17.38592233 -30.00000000
v 12.35126214 16.66145631 -30.00000000
v 12.05718447 15.93194175 -30.00000000
v 11.72776699 15.19485437 -30.00000000
v 11.37184466 14.46281553 -30.00000000
v 10.97553398 13.72951456 -30.00000000
v 10.51864078 12.96466019 -30.00000000
v 9.98980583 12.15563107 -30.00000000
v 9.39029126 11.30495146 -30.00000000
v 8.72009709 10.41514563 -30.00000000
v 7.97796117 9.48873786 -30.00000000
v 7.16514563 8.52572816 -30.00000000
v 6.28165049 7.52864078 -30.00000000
v 5.32747573 6.49747573 -30.00000000
v 4.30262136 5.43349515 -30.00000000
v 3.20708738 4.33669903 -30.00000000
v 2.03961165 3.20456311 -30.00000000
v -45.69436893 -41.87640777 30.00000000
v -45.69436893 -65.00000000 30.00000000
v 52.68155340 -65.00000000 30.00000000
v 52.68155340 -35.23126214 30.00000000
v 5.93834951 -35.23126214 30.00000000
v 29.35601942 -13.12116505 30.00000000
v 31.23155340 -11.27970874 30.00000000
v 33.00106796 -9.46601942 30.00000000
v 34.66708738 -7.67883495 30.00000000
v 36.22834951 -5.91941748 30.00000000
v 37.68485437 -4.18524272 30.00000000
v 39.03660194 -2.47631068 30.00000000
v 40.28359223 -0.79135922 30.00000000
v 41.42708738 0.87339806 30.00000000
v 42.46330097 2.51796117 30.00000000
v 43.39475728 4.14359223 30.00000000
v 44.21135922 5.74145631 30.00000000
v 44.93330097 7.31912621 30.00000000
v 45.58834951 8.90563107 30.00000000
v 46.18029126 10.51106796 30.00000000
v 46.71165049 12.13543689 30.00000000
v 47.17990291 13.77873786 30.00000000
v 47.58504854 15.43970874 30.00000000
v 47.92834951 17.11708738 30.00000000
v 48.20980583 18.81213592 30.00000000
v 48.42689320 20.52359223 30.00000000
v 48.58213592 22.25019417 30.00000000
v 48.67553398 23.99194175 30.00000000
v 48.70708738 25.75640777 30.00000000
v 48.66417476 27.69757282 30.00000000
v 48.53669903 29.61097087 30.00000000
v 48.32339806 31.49029126 30.00000000
v 48.02300971 33.33553398 30.00000000
v 47.63553398 35.14291262 30.00000000
v 47.15970874 36.91368932 30.00000000
v 46.59553398 38.64533981 30.00000000
v 45.94300971 40.33660194 30.00000000
v 45.20339806 41.98495146 30.00000000
v 44.37669903 43.59038835 30.00000000
v 43.46291262 45.15165049 30.00000000
v 42.46582524 46.66242718 30.00000000
v 41.39427184 48.11640777 30.00000000
v 40.25708738 49.51359223 30.00000000
v 39.05048544 50.85271845 30.00000000
v 37.77699029 52.13631068 30.00000000
v 36.43660194 53.36184466 30.00000000
v 35.03058252 54.52932039 30.00000000
v 33.56019417 55.63747573 30.00000000
v 32.02669903 56.68757282 30.00000000
v 30.43135922 57.67834951 30.00000000
v 28.77291262 58.61106796 30.00000000
v 27.05514563 59.48699029 30.00000000
v 25.27427184 60.30485437 30.00000000
v 23.43786408 61.06087379 30.00000000
v 21.55475728 61.75000000 30.00000000
v 19.62495146 62.37349515 30.00000000
v 17.65223301 62.92883495 30.00000000
v 15.63407767 63.41728155 30.00000000
v 13.57300971 63.83883495 30.00000000
v 11.46776699 64.19601942 30.00000000
v 9.31961165 64.48631068 30.00000000
v 7.12854369 64.71097087 30.00000000
v 4.89330097 64.87252427 30.00000000
v 2.61640777 64.96844660 30.00000000
v 0.29281553 65.00000000 30.00000000
v -2.46747573 64.95708738 30.00000000
v -5.18359223 64.82708738 30.00000000
v -7.85300971 64.61126214 30.00000000
v -10.47572816 64.30708738 30.00000000
v -13.05174757 63.91582524 30.00000000
v -15.57980583 63.43621359 30.00000000
v -18.06116505 62.86825243 30.00000000
v -20.49203883 62.21194175 30.00000000
v -22.87495146 61.46601942 30.00000000
v -25.20737864 60.63174757 30.00000000
v -27.49058252 59.70912621 30.00000000
v -29.71951456 58.69815534 30.00000000
v -31.88155340 57.60893204 30.00000000
v -33.96786408 56.45029126 30.00000000
v -35.97970874 55.22223301 30.00000000
v -37.91834951 53.92223301 30.00000000
v -39.78126214 52.55155340 30.00000000
v -41.56718447 51.10893204 30.00000000
v -43.27611650 49.59689320 30.00000000
v -44.90679612 48.01417476 30.00000000
v -46.45922330 46.36330097 30.00000000
v -47.93087379 44.64174757 30.00000000
v -49.32300971 42.85330097 30.00000000
v -52.68155340 38.09631068 30.00000000
v -26.50359223 21.23669903 30.00000000
v -23.86951456 24.77699029 30.00000000
v -23.19427184 25.61252427 30.00000000
v -22.49631068 26.40893204 30.00000000
v -21.77563107 27.16495146 30.00000000
v -21.03223301 27.88058252 30.00000000
v -20.26611650 28.55834951 30.00000000
v -19.47601942 29.19825243 30.00000000
v -18.66320388 29.80155340 30.00000000
v -17.82388350 30.36699029 30.00000000
v -16.95932039 30.89708738 30.00000000
v -16.06951456 31.39058252 30.00000000
v -15.14941748 31.85000000 30.00000000
v -14.20155340 32.27533981 30.00000000
v -13.23223301 32.66407767 30.00000000
v -12.24145631 33.01747573 30.00000000
v -11.22922330 33.33427184 30.00000000
v -10.19553398 33.61446602 30.00000000
v -9.13786408 33.85805825 30.00000000
v -8.05873786 34.06504854 30.00000000
v -6.95436893 34.23543689 30.00000000
v -5.82601942 34.36796117 30.00000000
v -4.67495146 34.46262136 30.00000000
v -3.49737864 34.52067961 30.00000000
v -2.29834951 34.53961165 30.00000000
v -0.86834951 34.51436893 30.00000000
v 0.48718447 34.44116505 30.00000000
v 1.76699029 34.32000000 30.00000000
v 2.97233010 34.15213592 30.00000000
v 4.10194175 33.94009709 30.00000000
v 5.15708738 33.68640777 30.00000000
v 6.13650485 33.39233010 30.00000000
v 7.04271845 33.06165049 30.00000000
v 7.87572816 32.69436893 30.00000000
v 8.64058252 32.29427184 30.00000000
v 9.33980583 31.86262136 30.00000000
v 9.97718447 31.39689320 30.00000000
v 10.55776699 30.90213592 30.00000000
v 11.07902913 30.38087379 30.00000000
v 11.54475728 29.83310680 30.00000000
v 11.95747573 29.25504854 30.00000000
v 12.32349515 28.64291262 30.00000000
v 12.64407767 27.99165049 30.00000000
v 12.91922330 27.29368932 30.00000000
v 13.15019417 26.54650485 30.00000000
v 13.33320388 25.74378641 30.00000000
v 13.46825243 24.88427184 30.00000000
v 13.55029126 23.96417476 30.00000000
v 13.57932039 22.97087379 30.00000000
v 13.56543689 22.29689320 30.00000000
v 13.52000000 21.60902913 30.00000000
v 13.44553398 20.91611650 30.00000000
v 13.34203883 20.22067961 30.00000000
v 13.20699029 19.52019417 30.00000000
v 13.04038835 18.81466019 30.00000000
v 12.84349515 18.10281553 30.00000000
v 12.61378641 17.38592233 30.00000000
v 12.35126214 16.66145631 30.00000000
v 12.05718447 15.93194175 30.00000000
v 11.72776699 15.19485437 30.00000000
v 11.37184466 14.46281553 30.00000000
v 10.97553398 13.72951456 30.00000000
v 10.51864078 12.96466019 30.00000000
v 9.98980583 12.15563107 30.00000000
v 9.39029126 11.30495146 30.00000000
v 8.72009709 10.41514563 30.00000000
v 7.97796117 9.48873786 30.00000000
v 7.16514563 8.52572816 30.00000000
v 6.28165049 7.52864078 30.00000000
v 5.32747573 6.49747573 30.00000000
v 4.30262136 5.43349515 30.00000000
v 3.20708738 4.33669903 30.00000000
v 2.03961165 3.20456311 30.00000000
f 90 89 88
f 91 90 88
f 91 88 87
f 92 91 87
f 92 87 86
f 93 92 86
f 93 86 85
f 94 93 85
f 94 85 84
f 95 94 84
f 95 84 83
f 5 4 3
f 96 95 83
f 96 83 82
f 97 96 82
f 97 82 81
f 98 97 81
f 98 81 80
f 98 80 79
f 99 98 79
f 100 99 79
f 100 79 78
f 101 100 78
f 101 78 77
f 102 101 77
f 102 77 76
f 103 102 76
f 103 76 75
f 104 103 75
f 104 75 74
f 105 104 74
f 105 74 73
f 106 105 73
f 106 73 72
f 107 106 72
f 107 72 71
f 108 107 71
f 108 71 70
f 109 108 70
f 109 70 69
f 110 109 69
f 111 110 69
f 111 69 68
f 112 111 68
f 112 68 67
f 113 112 67
f 113 67 66
f 114 113 66
f 114 66 65
f 115 114 65
f 116 115 65
f 116 65 64
f 117 116 64
f 117 64 63
f 117 63 62
f 118 117 62
f 118 62 61
f 119 118 61
f 119 61 60
f 120 119 60
f 120 60 59
f 121 120 59
f 121 59 58
f 122 121 58
f 122 58 57
f 122 57 56
f 123 122 56
f 123 56 55
f 124 123 55
f 124 55 54
f 125 124 54
f 125 54 53
f 125 53 52
f 126 125 52
f 126 52 51
f 126 51 50
f 127 126 50
f 127 50 49
f 128 127 49
f 128 49 48
f 128 48 47
f 129 128 47
f 129 47 46
f 129 46 45
f 129 45 44
f 130 129 44
f 130 44 43
f 130 43 42
f 131 130 42
f 131 42 41
f 131 41 40
f 132 131 40
f 132 40 39
f 132 39 38
f 132 38 37
f 133 132 37
f 133 37 36
f 133 36 35
f 134 133 35
f 134 35 34
f 134 34 33
f 135 134 33
f 135 33 32
f 135 32 31
f 136 135 31
f 136 31 30
f 136 30 29
f 137 136 29
f 137 29 28
f 137 28 27
f 138 137 27
f 138 27 26
f 139 138 26
f 139 26 25
f 139 25 24
f 140 139 24
f 140 24 23
f 141 140 23
f 141 23 22
f 141 22 21
f 142 141 21
f 142 21 20
f 143 142 20
f 143 20 19
f 144 143 19
f 144 19 18
f 145 144 18
f 145 18 17
f 145 17 16
f 146 145 16
f 146 16 15
f 147 146 15
f 147 15 14
f 148 147 14
f 148 14 13
f 149 148 13
f 149 13 12
f 150 149 12
f 150 12 11
f 151 150 11
f 151 11 10
f 152 151 10
f 152 10 9
f 153 152 9
f 154 153 9
f 154 9 8
f 155 154 8
f 155 8 7
f 156 155 7
f 157 156 7
f 157 7 6
f 158 157 6
f 159 158 6
f 160 159 6
f 161 160 6
f 161 6 5
f 162 161 5
f 1 162 5
f 2 1 5
f 3 2 5
f 250 251 252
f 250 252 253
f 249 250 253
f 249 253 254
f 248 249 254
f 248 254 255
f 247 248 255
f 247 255 256
f 246 247 256
f 246 256 257
f 245 246 257
f 165 166 167
f 245 257 258
f 244 245 258
f 244 258 259
f 243 244 259
f 243 259 260
f 242 243 260
f 241 242 260
f 241 260 261
f 241 261 262
f 240 241 262
f 240 262 263
f 239 240 263
f 239 263 264
f 238 239 264
f 238 264 265
f 237 238 265
f 237 265 266
f 236 237 266
f 236 266 267
f 235 236 267
f 235 267 268
f 234 235 268
f 234 268 269
f 233 234 269
f 233 269 270
f 232 233 270
f 232 270 271
f 231 232 271
f 231 271 272
f 231 272 273
f 230 231 273
f 230 273 274
f 229 230 274
f 229 274 275
f 228 229 275
f 228 275 276
f 227 228 276
f 227 276 277
f 227 277 278
f 226 227 278
f 226 278 279
f 225 226 279
f 224 225 279
f 224 279 280
f 223 224 280
f 223 280 281
f 222 223 281
f 222 281 282
f 221 222 282
f 221 282 283
f 220 221 283
f 220 283 284
f 219 220 284
f 218 219 284
f 218 284 285
f 217 218 285
f 217 285 286
f 216 217 286
f 216 286 287
f 215 216 287
f 214 215 287
f 214 287 288
f 213 214 288
f 212 213 288
f 212 288 289
f 211 212 289
f 211 289 290
f 210 211 290
f 209 210 290
f 209 290 291
f 208 209 291
f 207 208 291
f 206 207 291
f 206 291 292
f 205 206 292
f 204 205 292
f 204 292 293
f 203 204 293
f 202 203 293
f 202 293 294
f 201 202 294
f 200 201 294
f 199 200 294
f 199 294 295
f 198 199 295
f 197 198 295
f 197 295 296
f 196 197 296
f 195 196 296
f 195 296 297
f 194 195 297
f 193 194 297
f 193 297 298
f 192 193 298
f 191 192 298
f 191 298 299
f 190 191 299
f 189 190 299
f 189 299 300
f 188 189 300
f 188 300 301
f 187 188 301
f 186 187 301
f 186 301 302
f 185 186 302
f 185 302 303
f 184 185 303
f 183 184 303
f 183 303 304
f 182 183 304
f 182 304 305
f 181 182 305
f 181 305 306
f 180 181 306
f 180 306 307
f 179 180 307
f 178 179 307
f 178 307 308
f 177 178 308
f 177 308 309
f 176 177 309
f 176 309 310
f 175 176 310
f 175 310 311
f 174 175 311
f 174 311 312
f 173 174 312
f 173 312 313
f 172 173 313
f 172 313 314
f 171 172 314
f 171 314 315
f 171 315 316
f 170 171 316
f 170 316 317
f 169 170 317
f 169 317 318
f 169 318 319
f 168 169 319
f 168 319 320
f 168 320 321
f 168 321 322
f 168 322 323
f 167 168 323
f 167 323 324
f 167 324 163
f 167 163 164
f 167 164 165
f 164 163 2
f 2 163 1
f 165 164 3
f 3 164 2
f 166 165 4
f 4 165 3
f 167 166 5
f 5 166 4
f 168 167 6
f 6 167 5
f 169 168 7
f 7 168 6
f 170 169 8
f 8 169 7
f 171 170 9
f 9 170 8
f 172 171 10
f 10 171 9
f 173 172 11
f 11 172 10
f 174 173 12
f 12 173 11
f 175 174 13
f 13 174 12
f 176 175 14
f 14 175 13
f 177 176 15
f 15 176 14
f 178 177 16
f 16 177 15
f 179 178 17
f 17 178 16
f 180 179 18
f 18 179 17
f 181 180 19
f 19 180 18
f 182 181 20
f 20 181 19
f 183 182 21
f 21 182 20
f 184 183 22
f 22 183 21
f 185 184 23
f 23 184 22
f 186 185 24
f 24 185 23
f 187 186 25
f 25 186 24
f 188 187 26
f 26 187 25
f 189 188 27
f 27 188 26
f 190 189 28
f 28 189 27
f 191 190 29
f 29 190 28
f 192 191 30
f 30 191 29
f 193 192 31
f 31 192 30
f 194 193 32
f 32 193 31
f 195 194 33
f 33 194 32
f 196 195 34
f 34 195 33
f 197 196 35
f 35 196 34
f 198 197 36
f 36 197 35
f 199 198 37
f 37 198 36
f 200 199 38
f 38 199 37
f 201 200 39
f 39 200 38
f 202 201 40
f 40 201 39
f 203 202 41
f 41 202 40
f 204 203 42
f 42 203 41
f 205 204 43
f 43 204 42
f 206 205 44
f 44 205 43
f 207 206 45
f 45 206 44
f 208 207 46
f 46 207 45
f 209 208 47
f 47 208 46
f 210 209 48
f 48 209 47
f 211 210 49
f 49 210 48
f 212 211 50
f 50 211 49
f 213 212 51
f 51 212 50
f 214 213 52
f 52 213 51
f 215 214 53
f 53 214 52
f 216 215 54
f 54 215 53
f 217 216 55
f 55 216 54
f 218 217 56
f 56 217 55
f 219 218 57
f 57 218 56
f 220 219 58
f 58 219 57
f 221 220 59
f 59 220 58
f 222 221 60
f 60 221 59
f 223 222 61
f 61 222 60
f 224 223 62
f 62 223 61
f 225 224 63
f 63 224 62
f 226 225 64
f 64 225 63
f 227 226 65
f 65 226 64
f 228 227 66
f 66 227 65
f 229 228 67
f 67 228 66
f 230 229 68
f 68 229 67
f 231 230 69
f 69 230 68
f 232 231 70
f 70 231 69
f 233 232 71
f 71 232 70
f 234 233 72
f 72 233 71
f 235 234 73
f 73 234 72
f 236 235 74
f 74 235 73
f 237 236 75
f 75 236 74
f 238 237 76
f 76 237 75
f 239 238 77
f 77 238 76
f 240 239 78
f 78 239 77
f 241 240 79
f 79 240 78
f 242 241 80
f 80 241 79
f 243 242 81
f 81 242 80
f 244 243 82
f 82 243 81
f 245 244 83
f 83 244 82
f 246 245 84
f 84 245 83
f 247 246 85
f 85 246 84
f 248 247 86
f 86 247 85
f 249 248 87
f 87 248 86
f 250 249 88
f 88 249 87
f 251 250 89
f 89 250 88
f 252 251 90
f 90 251 89
f 253 252 91
f 91 252 90
f 254 253 92
f 92 253 91
f 255 254 93
f 93 254 92
f 256 255 94
f 94 255 93
f 257 256 95
f 95 256 94
f 258 257 96
f 96 257 95
f 259 258 97
f 97 258 96
f 260 259 98
f 98 259 97
f 261 260 99
f 99 260 98
f 262 261 100
f 100 261 99
f 263 262 101
f 101 262 100
f 264 263 102
f 102 263 101
f 265 264 103
f 103 264 102
f 266 265 104
f 104 265 103
f 267 266 105
f 105 266 104
f 268 267 106
f 106 267 105
f 269 268 107
f 107 268 106
f 270 269 108
f 108 269 107
f 271 270 109
f 109 270 108
f 272 271 110
f 110 271 109
f 273 272 111
f 111 272 110
f 274 273 112
f 112 273 111
f 275 274 113
f 113 274 112
f 276 275 114
f 114 275 113
f 277 276 115
f 115 276 114
f 278 277 116
f 116 277 115
f 279 278 117
f 117 278 116
f 280 279 118
f 118 279 117
f 281 280 119
f 119 280 118
f 282 281 120
f 120 281 119
f 283 282 121
f 121 282 120
f 284 283 122
f 122 283 121
f 285 284 123
f 123 284 122
f 286 285 124
f 124 285 123
f 287 286 125
f 125 286 124
f 288 287 126
f 126 287 125
f 289 288 127
f 127 288 126
f 290 289 128
f 128 289 127
f 291 290 129
f 129 290 128
f 292 291 130
f 130 291 129
f 293 292 131
f 131 292 130
f 294 293 132
f 132 293 131
f 295 294 133
f 133 294 132
f 296 295 134
f 134 295 133
f 297 296 135
f 135 296 134
f 298 297 136
f 136 297 135
f 299 298 137
f 137 298 136
f 300 299 138
f 138 299 137
f 301 300 139
f 139 300 138
f 302 301 140
f 140 301 139
f 303 302 141
f 141 302 140
f 304 303 142
f 142 303 141
f 305 304 143
f 143 304 142
f 306 305 144
f 144 305 143
f 307 306 145
f 145 306 144
f 308 307 146
f 146 307 145
f 309 308 147
f 147 308 146
f 310 309 148
f 148 309 147
f 311 310 149
f 149 310 148
f 312 311 150
f 150 311 149
f 313 312 151
f 151 312 150
f 314 313 152
f 152 313 151
f 315 314 153
f 153 314 152
f 316 315 154
f 154 315 153
f 317 316 155
f 155 316 154
f 318 317 156
f 156 317 155
f 319 318 157
f 157 318 156
f 320 319 158
f 158 319 157
f 321 320 159
f 159 320 158
f 322 321 160
f 160 321 159
f 323 322 161
f 161 322 160
f 163 324 1
f 1 324 162
f 324 323 162
f 162 323 161

