# https://github.com/mikedh/trimesh
v -62.60825243 -65.00000000 -30.00000000
v -24.51572816 -65.00000000 -30.00000000
v -23.96165049 -64.93563107 -30.00000000
v -23.60446602 -64.74126214 -30.00000000
v -23.41009709 -64.45728155 -30.00000000
v -23.34572816 -64.12029126 -30.00000000
v -23.34572816 -13.53262136 -30.00000000
v -23.28135922 -12.84475728 -30.00000000
v -23.08825243 -12.45223301 -30.00000000
v -22.83834951 -12.27174757 -30.00000000
v -22.60485437 -12.22000000 -30.00000000
v -20.28378641 -12.33990291 -30.00000000
v -17.96650485 -12.59611650 -30.00000000
v -15.21000000 -13.15019417 -30.00000000
v -12.39796117 -14.13466019 -30.00000000
v -9.91533981 -15.68456311 -30.00000000
v -7.82019417 -17.61689320 -30.00000000
v -6.17563107 -19.74990291 -30.00000000
v -4.71533981 -22.16310680 -30.00000000
v -3.17300971 -24.93854369 -30.00000000
v 18.04728155 -64.26291262 -30.00000000
v 18.25679612 -64.53174757 -30.00000000
v 18.58116505 -64.77281553 -30.00000000
v 19.07339806 -64.94320388 -30.00000000
v 19.78524272 -65.00000000 -30.00000000
v 62.64485437 -65.00000000 -30.00000000
v 63.48165049 -64.94320388 -30.00000000
v 63.85145631 -64.77155340 -30.00000000
v 63.88048544 -64.45854369 -30.00000000
v 63.68990291 -63.97640777 -30.00000000
v 61.69699029 -60.20640777 -30.00000000
v 40.35174757 -20.76970874 -30.00000000
v 37.40718447 -16.36233010 -30.00000000
v 34.93970874 -13.67398058 -30.00000000
v 32.22106796 -11.59650485 -30.00000000
v 29.47844660 -10.07563107 -30.00000000
v 26.93524272 -9.05582524 -30.00000000
v 23.67388350 -8.02844660 -30.00000000
v 23.31291262 -7.75077670 -30.00000000
v 23.86699029 -7.43398058 -30.00000000
v 28.90796117 -5.75281553 -30.00000000
v 32.71330097 -4.22563107 -30.00000000
v 36.07184466 -2.32990291 -30.00000000
v 39.21961165 -0.00504854 -30.00000000
v 42.38883495 2.81330097 -30.00000000
v 45.35106796 5.92320388 -30.00000000
v 47.87533981 9.12145631 -30.00000000
v 49.91116505 12.40174757 -30.00000000
v 51.41310680 15.76029126 -30.00000000
v 52.42155340 19.37883495 -30.00000000
v 52.97815534 23.44038835 -30.00000000
v 53.16495146 27.86165049 -30.00000000
v 53.06524272 32.56184466 -30.00000000
v 52.62601942 37.16611650 -30.00000000
v 51.80058252 41.29708738 -30.00000000
v 50.48543689 45.20592233 -30.00000000
v 48.57834951 49.14252427 -30.00000000
v 46.04776699 52.85951456 -30.00000000
v 42.85961165 56.11330097 -30.00000000
v 39.12368932 58.83067961 -30.00000000
v 34.94854369 60.93970874 -30.00000000
v 30.57145631 62.46184466 -30.00000000
v 26.22970874 63.41601942 -30.00000000
v 21.49038835 64.03194175 -30.00000000
v 15.92184466 64.54310680 -30.00000000
v 10.06679612 64.88514563 -30.00000000
v 4.46669903 65.00000000 -30.00000000
v -62.53883495 65.00000000 -30.00000000
v -63.22165049 64.93563107 -30.00000000
v -63.62174757 64.74126214 -30.00000000
v -63.81611650 64.41941748 -30.00000000
v -63.88048544 63.96757282 -30.00000000
v -63.88048544 -64.11650485 -30.00000000
v -63.81611650 -64.45601942 -30.00000000
v -63.62174757 -64.74126214 -30.00000000
v -63.23932039 -64.93563107 -30.00000000
v -22.26660194 12.50650485 -30.00000000
v -22.75378641 12.57087379 -30.00000000
v -23.08825243 12.76398058 -30.00000000
v -23.28135922 13.12368932 -30.00000000
v -23.34572816 13.68660194 -30.00000000
v -23.34572816 38.24145631 -30.00000000
v -23.28135922 38.49640777 -30.00000000
v -23.08825243 38.75514563 -30.00000000
v -22.83582524 38.95077670 -30.00000000
v -22.59728155 39.01766990 -30.00000000
v -6.12766990 38.99242718 -30.00000000
v -0.20825243 38.56582524 -30.00000000
v 4.33038835 37.58135922 -30.00000000
v 7.86436893 35.81058252 -30.00000000
v 10.37728155 33.33679612 -30.00000000
v 11.85019417 30.24456311 -30.00000000
v 12.45854369 26.92766990 -30.00000000
v 12.37650485 23.77611650 -30.00000000
v 11.67475728 20.94135922 -30.00000000
v 10.42398058 18.57864078 -30.00000000
v 8.72514563 16.65893204 -30.00000000
v 6.67796117 15.15446602 -30.00000000
v 4.33796117 14.05893204 -30.00000000
v 1.76572816 13.36349515 -30.00000000
v -1.53728155 12.94572816 -30.00000000
v -6.06582524 12.68699029 -30.00000000
v -11.23300971 12.55067961 -30.00000000
v -16.45446602 12.50650485 -30.00000000
v -62.60825243 -65.00000000 30.00000000
v -24.51572816 -65.00000000 30.00000000
v -23.96165049 -64.93563107 30.00000000
v -23.60446602 -64.74126214 30.00000000
v -23.41009709 -64.45728155 30.00000000
v -23.34572816 -64.12029126 30.00000000
v -23.34572816 -13.53262136 30.00000000
v -23.28135922 -12.84475728 30.00000000
v -23.08825243 -12.45223301 30.00000000
v -22.83834951 -12.27174757 30.00000000
v -22.60485437 -12.22000000 30.00000000
v -20.28378641 -12.33990291 30.00000000
v -17.96650485 -12.59611650 30.00000000
v -15.21000000 -13.15019417 30.00000000
v -12.39796117 -14.13466019 30.00000000
v -9.91533981 -15.68456311 30.00000000
v -7.82019417 -17.61689320 30.00000000
v -6.17563107 -19.74990291 30.00000000
v -4.71533981 -22.16310680 30.00000000
v -3.17300971 -24.93854369 30.00000000
v 18.04728155 -64.26291262 30.00000000
v 18.25679612 -64.53174757 30.00000000
v 18.58116505 -64.77281553 30.00000000
v 19.07339806 -64.94320388 30.00000000
v 19.78524272 -65.00000000 30.00000000
v 62.64485437 -65.00000000 30.00000000
v 63.48165049 -64.94320388 30.00000000
v 63.85145631 -64.77155340 30.00000000
v 63.88048544 -64.45854369 30.00000000
v 63.68990291 -63.97640777 30.00000000
v 61.69699029 -60.20640777 30.00000000
v 40.35174757 -20.76970874 30.00000000
v 37.40718447 -16.36233010 30.00000000
v 34.93970874 -13.67398058 30.00000000
v 32.22106796 -11.59650485 30.00000000
v 29.47844660 -10.07563107 30.00000000
v 26.93524272 -9.05582524 30.00000000
v 23.67388350 -8.02844660 30.00000000
v 23.31291262 -7.75077670 30.00000000
v 23.86699029 -7.43398058 30.00000000
v 28.90796117 -5.75281553 30.00000000
v 32.71330097 -4.22563107 30.00000000
v 36.07184466 -2.32990291 30.00000000
v 39.21961165 -0.00504854 30.00000000
v 42.38883495 2.81330097 30.00000000
v 45.35106796 5.92320388 30.00000000
v 47.87533981 9.12145631 30.00000000
v 49.91116505 12.40174757 30.00000000
v 51.41310680 15.76029126 30.00000000
v 52.42155340 19.37883495 30.00000000
v 52.97815534 23.44038835 30.00000000
v 53.16495146 27.86165049 30.00000000
v 53.06524272 32.56184466 30.00000000
v 52.62601942 37.16611650 30.00000000
v 51.80058252 41.29708738 30.00000000
v 50.48543689 45.20592233 30.00000000
v 48.57834951 49.14252427 30.00000000
v 46.04776699 52.85951456 30.00000000
v 42.85961165 56.11330097 30.00000000
v 39.12368932 58.83067961 30.00000000
v 34.94854369 60.93970874 30.00000000
v 30.57145631 62.46184466 30.00000000
v 26.22970874 63.41601942 30.00000000
v 21.49038835 64.03194175 30.00000000
v 15.92184466 64.54310680 30.00000000
v 10.06679612 64.88514563 30.00000000
v 4.46669903 65.00000000 30.00000000
v -62.53883495 65.00000000 30.00000000
v -63.22165049 64.93563107 30.00000000
v -63.62174757 64.74126214 30.00000000
v -63.81611650 64.41941748 30.00000000
v -63.88048544 63.96757282 30.00000000
v -63.88048544 -64.11650485 30.00000000
v -63.81611650 -64.45601942 30.00000000
v -63.62174757 -64.74126214 30.00000000
v -63.23932039 -64.93563107 30.00000000
v -22.26660194 12.50650485 30.00000000
v -22.75378641 12.57087379 30.00000000
v -23.08825243 12.76398058 30.00000000
v -23.28135922 13.12368932 30.00000000
v -23.34572816 13.68660194 30.00000000
v -23.34572816 38.24145631 30.00000000
v -23.28135922 38.49640777 30.00000000
v -23.08825243 38.75514563 30.00000000
v -22.83582524 38.95077670 30.00000000
v -22.59728155 39.01766990 30.00000000
v -6.12766990 38.99242718 30.00000000
v -0.20825243 38.56582524 30.00000000
v 4.33038835 37.58135922 30.00000000
v 7.86436893 35.81058252 30.00000000
v 10.37728155 33.33679612 30.00000000
v 11.85019417 30.24456311 30.00000000
v 12.45854369 26.92766990 30.00000000
v 12.37650485 23.77611650 30.00000000
v 11.67475728 20.94135922 30.00000000
v 10.42398058 18.57864078 30.00000000
v 8.72514563 16.65893204 30.00000000
v 6.67796117 15.15446602 30.00000000
v 4.33796117 14.05893204 30.00000000
v 1.76572816 13.36349515 30.00000000
v -1.53728155 12.94572816 30.00000000
v -6.06582524 12.68699029 30.00000000
v -11.23300971 12.55067961 30.00000000
v -16.45446602 12.50650485 30.00000000
f 93 52 51
f 53 52 93
f 94 93 51
f 94 51 50
f 54 53 93
f 54 93 92
f 55 54 92
f 56 55 92
f 57 56 92
f 58 57 92
f 94 50 49
f 59 58 92
f 94 49 48
f 94 48 47
f 94 47 46
f 94 46 45
f 95 94 45
f 95 45 44
f 60 59 92
f 95 44 43
f 95 43 42
f 61 60 92
f 96 95 42
f 96 42 41
f 96 41 40
f 97 96 40
f 97 40 39
f 98 97 39
f 62 61 92
f 62 92 91
f 63 62 91
f 64 63 91
f 64 91 90
f 65 64 90
f 65 90 89
f 66 65 89
f 67 66 89
f 67 89 88
f 67 88 87
f 99 98 39
f 67 87 86
f 68 67 86
f 68 86 85
f 68 85 84
f 68 84 83
f 68 83 82
f 100 99 39
f 29 28 27
f 30 29 27
f 30 27 26
f 31 30 26
f 31 26 25
f 32 31 25
f 32 25 24
f 32 24 23
f 32 23 22
f 32 22 21
f 32 21 20
f 33 32 20
f 34 33 20
f 35 34 20
f 36 35 20
f 37 36 20
f 38 37 20
f 39 38 20
f 39 20 19
f 39 19 18
f 100 39 18
f 100 18 17
f 101 100 17
f 101 17 16
f 102 101 16
f 102 16 15
f 103 102 15
f 103 15 14
f 103 14 13
f 104 103 13
f 104 13 12
f 77 104 12
f 77 12 11
f 78 77 11
f 78 11 10
f 79 78 10
f 68 82 81
f 69 68 81
f 70 69 81
f 71 70 81
f 72 71 81
f 79 10 9
f 73 72 81
f 73 81 80
f 73 80 79
f 73 79 9
f 73 9 8
f 73 8 7
f 73 7 6
f 74 73 6
f 75 74 6
f 75 6 5
f 75 5 4
f 76 75 4
f 76 4 3
f 1 76 3
f 2 1 3
f 155 156 197
f 197 156 157
f 155 197 198
f 154 155 198
f 197 157 158
f 196 197 158
f 196 158 159
f 196 159 160
f 196 160 161
f 196 161 162
f 153 154 198
f 196 162 163
f 152 153 198
f 151 152 198
f 150 151 198
f 149 150 198
f 149 198 199
f 148 149 199
f 196 163 164
f 147 148 199
f 146 147 199
f 196 164 165
f 146 199 200
f 145 146 200
f 144 145 200
f 144 200 201
f 143 144 201
f 143 201 202
f 196 165 166
f 195 196 166
f 195 166 167
f 195 167 168
f 194 195 168
f 194 168 169
f 193 194 169
f 193 169 170
f 193 170 171
f 192 193 171
f 191 192 171
f 143 202 203
f 190 191 171
f 190 171 172
f 189 190 172
f 188 189 172
f 187 188 172
f 186 187 172
f 143 203 204
f 131 132 133
f 131 133 134
f 130 131 134
f 130 134 135
f 129 130 135
f 129 135 136
f 128 129 136
f 127 128 136
f 126 127 136
f 125 126 136
f 124 125 136
f 124 136 137
f 124 137 138
f 124 138 139
f 124 139 140
f 124 140 141
f 124 141 142
f 124 142 143
f 123 124 143
f 122 123 143
f 122 143 204
f 121 122 204
f 121 204 205
f 120 121 205
f 120 205 206
f 119 120 206
f 119 206 207
f 118 119 207
f 117 118 207
f 117 207 208
f 116 117 208
f 116 208 181
f 115 116 181
f 115 181 182
f 114 115 182
f 114 182 183
f 185 186 172
f 185 172 173
f 185 173 174
f 185 174 175
f 185 175 176
f 113 114 183
f 185 176 177
f 184 185 177
f 183 184 177
f 113 183 177
f 112 113 177
f 111 112 177
f 110 111 177
f 110 177 178
f 110 178 179
f 109 110 179
f 108 109 179
f 108 179 180
f 107 108 180
f 107 180 105
f 107 105 106
f 106 105 2
f 2 105 1
f 107 106 3
f 3 106 2
f 108 107 4
f 4 107 3
f 109 108 5
f 5 108 4
f 110 109 6
f 6 109 5
f 111 110 7
f 7 110 6
f 112 111 8
f 8 111 7
f 113 112 9
f 9 112 8
f 114 113 10
f 10 113 9
f 115 114 11
f 11 114 10
f 116 115 12
f 12 115 11
f 117 116 13
f 13 116 12
f 118 117 14
f 14 117 13
f 119 118 15
f 15 118 14
f 120 119 16
f 16 119 15
f 121 120 17
f 17 120 16
f 122 121 18
f 18 121 17
f 123 122 19
f 19 122 18
f 124 123 20
f 20 123 19
f 125 124 21
f 21 124 20
f 126 125 22
f 22 125 21
f 127 126 23
f 23 126 22
f 128 127 24
f 24 127 23
f 129 128 25
f 25 128 24
f 130 129 26
f 26 129 25
f 131 130 27
f 27 130 26
f 132 131 28
f 28 131 27
f 133 132 29
f 29 132 28
f 134 133 30
f 30 133 29
f 135 134 31
f 31 134 30
f 136 135 32
f 32 135 31
f 137 136 33
f 33 136 32
f 138 137 34
f 34 137 33
f 139 138 35
f 35 138 34
f 140 139 36
f 36 139 35
f 141 140 37
f 37 140 36
f 142 141 38
f 38 141 37
f 143 142 39
f 39 142 38
f 144 143 40
f 40 143 39
f 145 144 41
f 41 144 40
f 146 145 42
f 42 145 41
f 147 146 43
f 43 146 42
f 148 147 44
f 44 147 43
f 149 148 45
f 45 148 44
f 150 149 46
f 46 149 45
f 151 150 47
f 47 150 46
f 152 151 48
f 48 151 47
f 153 152 49
f 49 152 48
f 154 153 50
f 50 153 49
f 155 154 51
f 51 154 50
f 156 155 52
f 52 155 51
f 157 156 53
f 53 156 52
f 158 157 54
f 54 157 53
f 159 158 55
f 55 158 54
f 160 159 56
f 56 159 55
f 161 160 57
f 57 160 56
f 162 161 58
f 58 161 57
f 163 162 59
f 59 162 58
f 164 163 60
f 60 163 59
f 165 164 61
f 61 164 60
f 166 165 62
f 62 165 61
f 167 166 63
f 63 166 62
f 168 167 64
f 64 167 63
f 169 168 65
f 65 168 64
f 170 169 66
f 66 169 65
f 171 170 67
f 67 170 66
f 172 171 68
f 68 171 67
f 173 172 69
f 69 172 68
f 174 173 70
f 70 173 69
f 175 174 71
f 71 174 70
f 176 175 72
f 72 175 71
f 177 176 73
f 73 176 72
f 178 177 74
f 74 177 73
f 179 178 75
f 75 178 74
f 105 180 1
f 1 180 76
f 180 179 76
f 76 179 75
f 182 181 78
f 78 181 77
f 183 182 79
f 79 182 78
f 184 183 80
f 80 183 79
f 185 184 81
f 81 184 80
f 186 185 82
f 82 185 81
f 187 186 83
f 83 186 82
f 188 187 84
f 84 187 83
f 189 188 85
f 85 188 84
f 190 189 86
f 86 189 85
f 191 190 87
f 87 190 86
f 192 191 88
f 88 191 87
f 193 192 89
f 89 192 88
f 194 193 90
f 90 193 89
f 195 194 91
f 91 194 90
f 196 195 92
f 92 195 91
f 197 196 93
f 93 196 92
f 198 197 94
f 94 197 93
f 199 198 95
f 95 198 94
f 200 199 96
f 96 199 95
f 201 200 97
f 97 200 96
f 202 201 98
f 98 201 97
f 203 202 99
f 99 202 98
f 204 203 100
f 100 203 99
f 205 204 101
f 101 204 100
f 206 205 102
f 102 205 101
f 207 206 103
f 103 206 102
f 181 208 77
f 77 208 104
f 208 207 104
f 104 207 103

