# https://github.com/mikedh/trimesh
v -17.83650485 -64.88514563 -30.00000000
v -17.33922330 -65.00000000 -30.00000000
v 17.43161916 -64.99873786 -30.00000000
v 17.92359223 -64.88388350 -30.00000000
v 18.38932039 -64.54184466 -30.00000000
v 18.73324135 -64.03756654 -30.00000000
v 18.84621359 -63.45262136 -30.00000000
v 18.84621359 38.92174757 -30.00000000
v 17.48834951 38.92174757 -30.00000000
v 17.88446602 38.99747573 -30.00000000
v 18.38932039 39.33951456 -30.00000000
v 18.73262136 39.84310680 -30.00000000
v 18.84560008 40.43310677 -30.00000000
v 18.84621359 63.62932039 -30.00000000
v 18.73262136 64.08621359 -30.00000000
v 18.38659366 64.54495416 -30.00000000
v 17.88122121 64.88576596 -30.00000000
v 17.28368932 65.00000000 -30.00000000
v -17.44902913 65.00000000 -30.00000000
v -17.92861828 64.88329827 -30.00000000
v -18.38932039 64.54310680 -30.00000000
v -18.73135922 64.08621359 -30.00000000
v -18.84621359 63.62932039 -30.00000000
v -18.84560008 40.43310677 -30.00000000
v -18.73262136 39.84310680 -30.00000000
v -18.38932039 39.33951456 -30.00000000
v -17.92611650 38.99747573 -30.00000000
v -17.61238558 38.92174757 -30.00000000
v -18.76417476 38.92174757 -30.00000000
v -18.76417476 -63.45388350 -30.00000000
v -18.64932039 -64.04203883 -30.00000000
v -18.30789316 -64.54037196 -30.00000000
v -17.83650485 -64.88514563 30.00000000
v -17.33922330 -65.00000000 30.00000000
v 17.43161916 -64.99873786 30.00000000
v 17.92359223 -64.88388350 30.00000000
v 18.38932039 -64.54184466 30.00000000
v 18.73324135 -64.03756654 30.00000000
v 18.84621359 -63.45262136 30.00000000
v 18.84621359 38.92174757 30.00000000
v 17.48834951 38.92174757 30.00000000
v 17.88446602 38.99747573 30.00000000
v 18.38932039 39.33951456 30.00000000
v 18.73262136 39.84310680 30.00000000
v 18.84560008 40.43310677 30.00000000
v 18.84621359 63.62932039 30.00000000
v 18.73262136 64.08621359 30.00000000
v 18.38659366 64.54495416 30.00000000
v 17.88122121 64.88576596 30.00000000
v 17.28368932 65.00000000 30.00000000
v -17.44902913 65.00000000 30.00000000
v -17.92861828 64.88329827 30.00000000
v -18.38932039 64.54310680 30.00000000
v -18.73135922 64.08621359 30.00000000
v -18.84621359 63.62932039 30.00000000
v -18.84560008 40.43310677 30.00000000
v -18.73262136 39.84310680 30.00000000
v -18.38932039 39.33951456 30.00000000
v -17.92611650 38.99747573 30.00000000
v -17.61238558 38.92174757 30.00000000
v -18.76417476 38.92174757 30.00000000
v -18.76417476 -63.45388350 30.00000000
v -18.64932039 -64.04203883 30.00000000
v -18.30789316 -64.54037196 30.00000000
f 30 29 28
f 9 8 7
f 13 12 11
f 13 11 10
f 13 10 9
f 14 13 9
f 26 25 24
f 27 26 24
f 28 27 24
f 28 24 23
f 32 31 30
f 1 32 30
f 2 1 30
f 3 2 30
f 3 30 28
f 4 3 28
f 5 4 28
f 6 5 28
f 7 6 28
f 9 7 28
f 9 28 23
f 14 9 23
f 15 14 23
f 16 15 23
f 16 23 22
f 16 22 21
f 17 16 21
f 17 21 20
f 18 17 20
f 19 18 20
f 60 61 62
f 39 40 41
f 43 44 45
f 42 43 45
f 41 42 45
f 41 45 46
f 56 57 58
f 56 58 59
f 56 59 60
f 55 56 60
f 62 63 64
f 62 64 33
f 62 33 34
f 62 34 35
f 60 62 35
f 60 35 36
f 60 36 37
f 60 37 38
f 60 38 39
f 60 39 41
f 55 60 41
f 55 41 46
f 55 46 47
f 55 47 48
f 54 55 48
f 53 54 48
f 53 48 49
f 52 53 49
f 52 49 50
f 52 50 51
f 34 33 2
f 2 33 1
f 35 34 3
f 3 34 2
f 36 35 4
f 4 35 3
f 37 36 5
f 5 36 4
f 38 37 6
f 6 37 5
f 39 38 7
f 7 38 6
f 40 39 8
f 8 39 7
f 41 40 9
f 9 40 8
f 42 41 10
f 10 41 9
f 43 42 11
f 11 42 10
f 44 43 12
f 12 43 11
f 45 44 13
f 13 44 12
f 46 45 14
f 14 45 13
f 47 46 15
f 15 46 14
f 48 47 16
f 16 47 15
f 49 48 17
f 17 48 16
f 50 49 18
f 18 49 17
f 51 50 19
f 19 50 18
f 52 51 20
f 20 51 19
f 53 52 21
f 21 52 20
f 54 53 22
f 22 53 21
f 55 54 23
f 23 54 22
f 56 55 24
f 24 55 23
f 57 56 25
f 25 56 24
f 58 57 26
f 26 57 25
f 59 58 27
f 27 58 26
f 60 59 28
f 28 59 27
f 61 60 29
f 29 60 28
f 62 61 30
f 30 61 29
f 63 62 31
f 31 62 30
f 33 64 1
f 1 64 32
f 64 63 32
f 32 63 31

