# https://github.com/mikedh/trimesh
v -68.54786408 -65.00000000 -30.00000000
v -31.08640777 -65.00000000 -30.00000000
v -29.65766990 -64.50398058 -30.00000000
v -28.79058252 -63.01466019 -30.00000000
v -23.45300971 -44.92825243 -30.00000000
v -22.63514563 -43.99300971 -30.00000000
v -20.91611650 -43.68126214 -30.00000000
v 20.91611650 -43.68126214 -30.00000000
v 22.63514563 -43.99300971 -30.00000000
v 23.45300971 -44.92825243 -30.00000000
v 28.79058252 -63.01466019 -30.00000000
v 29.65766990 -64.50398058 -30.00000000
v 31.08640777 -65.00000000 -30.00000000
v 68.54786408 -65.00000000 -30.00000000
v 70.15961165 -64.50271845 -30.00000000
v 70.19747573 -63.01213592 -30.00000000
v 22.68941748 63.29106796 -30.00000000
v 21.81223301 64.57339806 -30.00000000
v 20.46427184 65.00000000 -30.00000000
v -20.46427184 65.00000000 -30.00000000
v -21.81223301 64.57339806 -30.00000000
v -22.68941748 63.29106796 -30.00000000
v -70.19747573 -63.01213592 -30.00000000
v -70.15961165 -64.50271845 -30.00000000
v -12.80815534 -15.06611650 -30.00000000
v -13.68660194 -14.69126214 -30.00000000
v -13.66262136 -13.56543689 -30.00000000
v -0.67019417 27.58019417 -30.00000000
v -0.00000000 28.64038835 -30.00000000
v 0.67019417 27.58019417 -30.00000000
v 13.66262136 -13.56543689 -30.00000000
v 13.68660194 -14.69126214 -30.00000000
v 12.80815534 -15.06611650 -30.00000000
v -68.54786408 -65.00000000 30.00000000
v -31.08640777 -65.00000000 30.00000000
v -29.65766990 -64.50398058 30.00000000
v -28.79058252 -63.01466019 30.00000000
v -23.45300971 -44.92825243 30.00000000
v -22.63514563 -43.99300971 30.00000000
v -20.91611650 -43.68126214 30.00000000
v 20.91611650 -43.68126214 30.00000000
v 22.63514563 -43.99300971 30.00000000
v 23.45300971 -44.92825243 30.00000000
v 28.79058252 -63.01466019 30.00000000
v 29.65766990 -64.50398058 30.00000000
v 31.08640777 -65.00000000 30.00000000
v 68.54786408 -65.00000000 30.00000000
v 70.15961165 -64.50271845 30.00000000
v 70.19747573 -63.01213592 30.00000000
v 22.68941748 63.29106796 30.00000000
v 21.81223301 64.57339806 30.00000000
v 20.46427184 65.00000000 30.00000000
v -20.46427184 65.00000000 30.00000000
v -21.81223301 64.57339806 30.00000000
v -22.68941748 63.29106796 30.00000000
v -70.19747573 -63.01213592 30.00000000
v -70.15961165 -64.50271845 30.00000000
v -12.80815534 -15.06611650 30.00000000
v -13.68660194 -14.69126214 30.00000000
v -13.66262136 -13.56543689 30.00000000
v -0.67019417 27.58019417 30.00000000
v -0.00000000 28.64038835 30.00000000
v 0.67019417 27.58019417 30.00000000
v 13.66262136 -13.56543689 30.00000000
v 13.68660194 -14.69126214 30.00000000
v 12.80815534 -15.06611650 30.00000000
f 16 15 14
f 1 24 23
f 16 14 13
f 2 1 23
f 16 32 31
f 33 32 16
f 13 12 11
f 16 13 11
f 16 11 10
f 33 16 10
f 33 10 9
f 33 9 8
f 25 33 8
f 25 8 7
f 26 25 7
f 26 7 6
f 4 3 2
f 4 2 23
f 5 4 23
f 19 18 17
f 22 21 20
f 17 16 31
f 17 31 30
f 17 30 29
f 19 17 29
f 20 19 29
f 22 20 29
f 22 29 28
f 22 28 27
f 23 22 27
f 5 23 27
f 6 5 27
f 26 6 27
f 47 48 49
f 56 57 34
f 46 47 49
f 56 34 35
f 64 65 49
f 49 65 66
f 44 45 46
f 44 46 49
f 43 44 49
f 43 49 66
f 42 43 66
f 41 42 66
f 41 66 58
f 40 41 58
f 40 58 59
f 39 40 59
f 35 36 37
f 56 35 37
f 56 37 38
f 50 51 52
f 53 54 55
f 64 49 50
f 63 64 50
f 62 63 50
f 62 50 52
f 62 52 53
f 62 53 55
f 61 62 55
f 60 61 55
f 60 55 56
f 60 56 38
f 60 38 39
f 60 39 59
f 35 34 2
f 2 34 1
f 36 35 3
f 3 35 2
f 37 36 4
f 4 36 3
f 38 37 5
f 5 37 4
f 39 38 6
f 6 38 5
f 40 39 7
f 7 39 6
f 41 40 8
f 8 40 7
f 42 41 9
f 9 41 8
f 43 42 10
f 10 42 9
f 44 43 11
f 11 43 10
f 45 44 12
f 12 44 11
f 46 45 13
f 13 45 12
f 47 46 14
f 14 46 13
f 48 47 15
f 15 47 14
f 49 48 16
f 16 48 15
f 50 49 17
f 17 49 16
f 51 50 18
f 18 50 17
f 52 51 19
f 19 51 18
f 53 52 20
f 20 52 19
f 54 53 21
f 21 53 20
f 55 54 22
f 22 54 21
f 56 55 23
f 23 55 22
f 34 57 1
f 1 57 24
f 57 56 24
f 24 56 23
f 59 58 26
f 26 58 25
f 60 59 27
f 27 59 26
f 61 60 28
f 28 60 27
f 62 61 29
f 29 61 28
f 63 62 30
f 30 62 29
f 64 63 31
f 31 63 30
f 65 64 32
f 32 64 31
f 58 66 25
f 25 66 33
f 66 65 33
f 33 65 32

