# https://github.com/mikedh/trimesh
v -13.87087379 -50.00000000 -30.00000000
v 13.79902913 -50.00000000 -30.00000000
v 14.48252427 -49.90000000 -30.00000000
v 14.97669903 -49.59902913 -30.00000000
v 15.27669903 -49.15339806 -30.00000000
v 15.37766990 -48.61650485 -30.00000000
v 15.37766990 23.71941748 -30.00000000
v 15.47766990 24.44757282 -30.00000000
v 15.77766990 24.95728155 -30.00000000
v 16.27184466 25.25728155 -30.00000000
v 16.95242718 25.35825243 -30.00000000
v 45.49902913 25.35825243 -30.00000000
v 46.08252427 25.45825243 -30.00000000
v 46.54466019 25.75825243 -30.00000000
v 46.84466019 26.21650485 -30.00000000
v 46.94466019 26.79029126 -30.00000000
v 46.94466019 48.61553398 -30.00000000
v 46.84466019 49.15339806 -30.00000000
v 46.54466019 49.59902913 -30.00000000
v 46.07864078 49.90000000 -30.00000000
v 45.48349515 50.00000000 -30.00000000
v -45.33495146 50.00000000 -30.00000000
v -46.04174757 49.90000000 -30.00000000
v -46.54466019 49.59902913 -30.00000000
v -46.84466019 49.15339806 -30.00000000
v -46.94466019 48.61553398 -30.00000000
v -46.94466019 26.79029126 -30.00000000
v -46.84466019 26.21650485 -30.00000000
v -46.54466019 25.75825243 -30.00000000
v -46.04660194 25.45825243 -30.00000000
v -45.35631068 25.35825243 -30.00000000
v -17.32718447 25.35825243 -30.00000000
v -16.51844660 25.25728155 -30.00000000
v -15.98252427 24.95728155 -30.00000000
v -15.68155340 24.44757282 -30.00000000
v -15.58155340 23.71941748 -30.00000000
v -15.58155340 -48.61650485 -30.00000000
v -15.48155340 -49.15339806 -30.00000000
v -15.18155340 -49.59902913 -30.00000000
v -14.65339806 -49.90000000 -30.00000000
v -13.87087379 -50.00000000 30.00000000
v 13.79902913 -50.00000000 30.00000000
v 14.48252427 -49.90000000 30.00000000
v 14.97669903 -49.59902913 30.00000000
v 15.27669903 -49.15339806 30.00000000
v 15.37766990 -48.61650485 30.00000000
v 15.37766990 23.71941748 30.00000000
v 15.47766990 24.44757282 30.00000000
v 15.77766990 24.95728155 30.00000000
v 16.27184466 25.25728155 30.00000000
v 16.95242718 25.35825243 30.00000000
v 45.49902913 25.35825243 30.00000000
v 46.08252427 25.45825243 30.00000000
v 46.54466019 25.75825243 30.00000000
v 46.84466019 26.21650485 30.00000000
v 46.94466019 26.79029126 30.00000000
v 46.94466019 48.61553398 30.00000000
v 46.84466019 49.15339806 30.00000000
v 46.54466019 49.59902913 30.00000000
v 46.07864078 49.90000000 30.00000000
v 45.48349515 50.00000000 30.00000000
v -45.33495146 50.00000000 30.00000000
v -46.04174757 49.90000000 30.00000000
v -46.54466019 49.59902913 30.00000000
v -46.84466019 49.15339806 30.00000000
v -46.94466019 48.61553398 30.00000000
v -46.94466019 26.79029126 30.00000000
v -46.84466019 26.21650485 30.00000000
v -46.54466019 25.75825243 30.00000000
v -46.04660194 25.45825243 30.00000000
v -45.35631068 25.35825243 30.00000000
v -17.32718447 25.35825243 30.00000000
v -16.51844660 25.25728155 30.00000000
v -15.98252427 24.95728155 30.00000000
v -15.68155340 24.44757282 30.00000000
v -15.58155340 23.71941748 30.00000000
v -15.58155340 -48.61650485 30.00000000
v -15.48155340 -49.15339806 30.00000000
v -15.18155340 -49.59902913 30.00000000
v -14.65339806 -49.90000000 30.00000000
f 40 39 38
f 40 38 37
f 1 40 37
f 1 37 36
f 2 1 36
f 3 2 36
f 4 3 36
f 5 4 36
f 6 5 36
f 7 6 36
f 7 36 35
f 8 7 35
f 9 8 35
f 9 35 34
f 10 9 34
f 10 34 33
f 30 29 28
f 30 28 27
f 31 30 27
f 31 27 26
f 32 31 26
f 32 26 25
f 32 25 24
f 32 24 23
f 32 23 22
f 33 32 22
f 10 33 22
f 10 22 21
f 11 10 21
f 12 11 21
f 13 12 21
f 13 21 20
f 14 13 20
f 14 20 19
f 15 14 19
f 15 19 18
f 16 15 18
f 17 16 18
f 78 79 80
f 77 78 80
f 77 80 41
f 76 77 41
f 76 41 42
f 76 42 43
f 76 43 44
f 76 44 45
f 76 45 46
f 76 46 47
f 75 76 47
f 75 47 48
f 75 48 49
f 74 75 49
f 74 49 50
f 73 74 50
f 68 69 70
f 67 68 70
f 67 70 71
f 66 67 71
f 66 71 72
f 65 66 72
f 64 65 72
f 63 64 72
f 62 63 72
f 62 72 73
f 62 73 50
f 61 62 50
f 61 50 51
f 61 51 52
f 61 52 53
f 60 61 53
f 60 53 54
f 59 60 54
f 59 54 55
f 58 59 55
f 58 55 56
f 58 56 57
f 42 41 2
f 2 41 1
f 43 42 3
f 3 42 2
f 44 43 4
f 4 43 3
f 45 44 5
f 5 44 4
f 46 45 6
f 6 45 5
f 47 46 7
f 7 46 6
f 48 47 8
f 8 47 7
f 49 48 9
f 9 48 8
f 50 49 10
f 10 49 9
f 51 50 11
f 11 50 10
f 52 51 12
f 12 51 11
f 53 52 13
f 13 52 12
f 54 53 14
f 14 53 13
f 55 54 15
f 15 54 14
f 56 55 16
f 16 55 15
f 57 56 17
f 17 56 16
f 58 57 18
f 18 57 17
f 59 58 19
f 19 58 18
f 60 59 20
f 20 59 19
f 61 60 21
f 21 60 20
f 62 61 22
f 22 61 21
f 63 62 23
f 23 62 22
f 64 63 24
f 24 63 23
f 65 64 25
f 25 64 24
f 66 65 26
f 26 65 25
f 67 66 27
f 27 66 26
f 68 67 28
f 28 67 27
f 69 68 29
f 29 68 28
f 70 69 30
f 30 69 29
f 71 70 31
f 31 70 30
f 72 71 32
f 32 71 31
f 73 72 33
f 33 72 32
f 74 73 34
f 34 73 33
f 75 74 35
f 35 74 34
f 76 75 36
f 36 75 35
f 77 76 37
f 37 76 36
f 78 77 38
f 38 77 37
f 79 78 39
f 39 78 38
f 41 80 1
f 1 80 40
f 80 79 40
f 40 79 39

