v -0.061028 0.034827 0.000000
v -0.061028 0.034827 0.060000
v -0.061028 0.063200 0.000000
v -0.061028 0.063200 0.060000
v -0.060898 0.034081 0.000000
v -0.060898 0.034081 0.060000
v -0.060898 0.063899 0.000000
v -0.060898 0.063899 0.060000
v -0.060508 0.033486 0.000000
v -0.060508 0.033486 0.060000
v -0.060508 0.064479 0.000000
v -0.060508 0.064479 0.060000
v -0.059861 0.033096 0.000000
v -0.059861 0.033096 0.060000
v -0.059854 0.064870 0.000000
v -0.059854 0.064870 0.060000
v -0.058963 0.032966 0.000000
v -0.058963 0.032966 0.060000
v -0.058935 0.065000 0.000000
v -0.058935 0.065000 0.060000
v -0.022525 0.032966 0.000000
v -0.022525 0.032966 0.060000
v -0.021474 0.032834 0.000000
v -0.021474 0.032834 0.060000
v -0.020777 0.032444 0.000000
v -0.020777 0.032444 0.060000
v -0.020386 0.031782 0.000000
v -0.020386 0.031782 0.060000
v -0.020256 -0.063201 0.000000
v -0.020256 -0.063201 0.060000
v -0.020256 0.030835 0.000000
v -0.020256 0.030835 0.060000
v -0.020126 -0.063899 0.000000
v -0.020126 -0.063899 0.060000
v -0.019736 -0.064479 0.000000
v -0.019736 -0.064479 0.060000
v -0.019049 -0.064870 0.000000
v -0.019049 -0.064870 0.060000
v -0.018032 -0.065000 0.000000
v -0.018032 -0.065000 0.060000
v 0.017939 -0.065000 0.000000
v 0.017939 -0.065000 0.060000
v 0.018827 -0.064870 0.000000
v 0.018827 -0.064870 0.060000
v 0.019470 -0.064479 0.000000
v 0.019470 -0.064479 0.060000
v 0.019860 -0.063899 0.000000
v 0.019860 -0.063899 0.060000
v 0.019991 -0.063201 0.000000
v 0.019991 -0.063201 0.060000
v 0.019991 0.030835 0.000000
v 0.019991 0.030835 0.060000
v 0.020121 0.031782 0.000000
v 0.020121 0.031782 0.060000
v 0.020511 0.032444 0.000000
v 0.020511 0.032444 0.060000
v 0.021153 0.032834 0.000000
v 0.021153 0.032834 0.060000
v 0.022038 0.032966 0.000000
v 0.022038 0.032966 0.060000
v 0.059129 0.065000 0.000000
v 0.059129 0.065000 0.060000
v 0.059149 0.032966 0.000000
v 0.059149 0.032966 0.060000
v 0.059902 0.064870 0.000000
v 0.059902 0.064870 0.060000
v 0.059907 0.033096 0.000000
v 0.059907 0.033096 0.060000
v 0.060508 0.033486 0.000000
v 0.060508 0.033486 0.060000
v 0.060508 0.064479 0.000000
v 0.060508 0.064479 0.060000
v 0.060898 0.034081 0.000000
v 0.060898 0.034081 0.060000
v 0.060898 0.063899 0.000000
v 0.060898 0.063899 0.060000
v 0.061028 0.034827 0.000000
v 0.061028 0.034827 0.060000
v 0.061028 0.063200 0.000000
v 0.061028 0.063200 0.060000
f 37 35 33
f 37 33 29
f 39 37 29
f 39 29 31
f 41 39 31
f 43 41 31
f 45 43 31
f 47 45 31
f 49 47 31
f 51 49 31
f 51 31 27
f 53 51 27
f 55 53 27
f 55 27 25
f 57 55 25
f 57 25 23
f 13 9 5
f 13 5 1
f 17 13 1
f 17 1 3
f 21 17 3
f 21 3 7
f 21 7 11
f 21 11 15
f 21 15 19
f 23 21 19
f 57 23 19
f 57 19 61
f 59 57 61
f 63 59 61
f 67 63 61
f 67 61 65
f 69 67 65
f 69 65 71
f 73 69 71
f 73 71 75
f 77 73 75
f 79 77 75
f 34 36 38
f 30 34 38
f 30 38 40
f 32 30 40
f 32 40 42
f 32 42 44
f 32 44 46
f 32 46 48
f 32 48 50
f 32 50 52
f 28 32 52
f 28 52 54
f 28 54 56
f 26 28 56
f 26 56 58
f 24 26 58
f 6 10 14
f 2 6 14
f 2 14 18
f 4 2 18
f 4 18 22
f 8 4 22
f 12 8 22
f 16 12 22
f 20 16 22
f 20 22 24
f 20 24 58
f 62 20 58
f 62 58 60
f 62 60 64
f 62 64 68
f 66 62 68
f 66 68 70
f 72 66 70
f 72 70 74
f 76 72 74
f 76 74 78
f 76 78 80
f 42 40 41
f 41 40 39
f 44 42 43
f 43 42 41
f 46 44 45
f 45 44 43
f 48 46 47
f 47 46 45
f 50 48 49
f 49 48 47
f 52 50 51
f 51 50 49
f 54 52 53
f 53 52 51
f 56 54 55
f 55 54 53
f 58 56 57
f 57 56 55
f 60 58 59
f 59 58 57
f 64 60 63
f 63 60 59
f 68 64 67
f 67 64 63
f 70 68 69
f 69 68 67
f 74 70 73
f 73 70 69
f 78 74 77
f 77 74 73
f 80 78 79
f 79 78 77
f 76 80 75
f 75 80 79
f 72 76 71
f 71 76 75
f 66 72 65
f 65 72 71
f 62 66 61
f 61 66 65
f 20 62 19
f 19 62 61
f 16 20 15
f 15 20 19
f 12 16 11
f 11 16 15
f 8 12 7
f 7 12 11
f 4 8 3
f 3 8 7
f 2 4 1
f 1 4 3
f 6 2 5
f 5 2 1
f 10 6 9
f 9 6 5
f 14 10 13
f 13 10 9
f 18 14 17
f 17 14 13
f 22 18 21
f 21 18 17
f 24 22 23
f 23 22 21
f 26 24 25
f 25 24 23
f 28 26 27
f 27 26 25
f 32 28 31
f 31 28 27
f 30 32 29
f 29 32 31
f 34 30 33
f 33 30 29
f 36 34 35
f 35 34 33
f 40 38 39
f 39 38 37
f 38 36 37
f 37 36 35
